%TF.GenerationSoftware,KiCad,Pcbnew,7.0.8*%
%TF.CreationDate,2024-04-05T01:26:40-03:00*%
%TF.ProjectId,iW-Little,69572d4c-6974-4746-9c65-2e6b69636164,rev?*%
%TF.SameCoordinates,Original*%
%TF.FileFunction,Copper,L2,Inr*%
%TF.FilePolarity,Positive*%
%FSLAX46Y46*%
G04 Gerber Fmt 4.6, Leading zero omitted, Abs format (unit mm)*
G04 Created by KiCad (PCBNEW 7.0.8) date 2024-04-05 01:26:40*
%MOMM*%
%LPD*%
G01*
G04 APERTURE LIST*
%TA.AperFunction,ComponentPad*%
%ADD10O,0.900000X2.000000*%
%TD*%
%TA.AperFunction,ComponentPad*%
%ADD11O,0.900000X1.700000*%
%TD*%
%TA.AperFunction,ComponentPad*%
%ADD12R,1.700000X1.700000*%
%TD*%
%TA.AperFunction,ComponentPad*%
%ADD13O,1.700000X1.700000*%
%TD*%
%TA.AperFunction,ViaPad*%
%ADD14C,0.450000*%
%TD*%
G04 APERTURE END LIST*
D10*
X137783950Y-93020000D03*
D11*
X137783950Y-97190000D03*
D10*
X146423950Y-93020000D03*
D11*
X146423950Y-97190000D03*
D12*
X132450000Y-67000000D03*
D13*
X132450000Y-69540000D03*
X132450000Y-72080000D03*
X132450000Y-74620000D03*
X132450000Y-77160000D03*
X132450000Y-79700000D03*
X132450000Y-82240000D03*
X132450000Y-84780000D03*
D12*
X151000000Y-67000000D03*
D13*
X151000000Y-69540000D03*
X151000000Y-72080000D03*
X151000000Y-74620000D03*
X151000000Y-77160000D03*
X151000000Y-79700000D03*
X151000000Y-82240000D03*
X151000000Y-84780000D03*
X151000000Y-87320000D03*
X151000000Y-89860000D03*
D12*
X132210000Y-88710000D03*
D13*
X134750000Y-88710000D03*
X132210000Y-91250000D03*
X134750000Y-91250000D03*
D14*
X137400000Y-88550000D03*
X135600000Y-81250000D03*
X137650000Y-69100000D03*
X139750000Y-67250000D03*
X145550000Y-67300000D03*
X131900000Y-95050000D03*
X139150000Y-90500000D03*
X142800000Y-86050000D03*
X135350000Y-68600000D03*
X139600000Y-72300000D03*
X141400000Y-85850000D03*
X145600000Y-99050000D03*
X145350000Y-98250000D03*
X143050000Y-98750000D03*
X140500000Y-98550000D03*
X138700000Y-98950000D03*
X138850000Y-95900000D03*
X136050000Y-99550000D03*
X135300000Y-97350000D03*
X134600000Y-98900000D03*
X133050000Y-97200000D03*
X133150000Y-95300000D03*
X135900000Y-95150000D03*
X139450000Y-97150000D03*
X138700000Y-94950000D03*
X140800000Y-94000000D03*
X143100000Y-95100000D03*
X145250000Y-96150000D03*
X145450000Y-95200000D03*
X144550000Y-97100000D03*
X147800000Y-99550000D03*
X148300000Y-97700000D03*
X147950000Y-98600000D03*
X148100000Y-93550000D03*
X148200000Y-92600000D03*
X148100000Y-96650000D03*
X147900000Y-95000000D03*
X148300000Y-78250000D03*
X136500000Y-67700000D03*
X142700000Y-67700000D03*
X143850000Y-68800000D03*
X145550000Y-69900000D03*
X142900000Y-78250000D03*
X140350000Y-77700000D03*
X144950000Y-83150000D03*
X147050000Y-83150000D03*
X143500000Y-86950000D03*
X135600000Y-98750000D03*
X135950000Y-96400000D03*
X142150000Y-97600000D03*
X141250000Y-88300000D03*
X140200000Y-84200000D03*
X135400000Y-85800000D03*
X150500000Y-99000000D03*
X143000000Y-91000000D03*
X143250000Y-76680000D03*
X137480000Y-90530000D03*
X140100000Y-75300000D03*
X145750000Y-87000000D03*
X148250000Y-75620000D03*
X145750000Y-86000000D03*
X148250000Y-86250000D03*
X149000000Y-85500000D03*
X147000000Y-86500000D03*
X149000000Y-87750000D03*
X135660000Y-82680000D03*
X148250000Y-87000000D03*
X149000000Y-87000000D03*
X135540000Y-76980000D03*
X149000000Y-86250000D03*
X145000000Y-87000000D03*
X148250000Y-85500000D03*
X147500000Y-87000000D03*
X141905150Y-95700000D03*
X142905150Y-93800000D03*
X142302750Y-93800000D03*
X141302750Y-95700000D03*
X142200000Y-83000000D03*
X150420000Y-92820000D03*
X139900000Y-73350000D03*
X140605000Y-81500000D03*
%TA.AperFunction,Conductor*%
G36*
X152003455Y-65000889D02*
G01*
X152016485Y-65002357D01*
X152026354Y-65003470D01*
X152068982Y-65009081D01*
X152105831Y-65013932D01*
X152130599Y-65019830D01*
X152164736Y-65031775D01*
X152167976Y-65033011D01*
X152222195Y-65055469D01*
X152240695Y-65065027D01*
X152275520Y-65086909D01*
X152280267Y-65090212D01*
X152328200Y-65126993D01*
X152334295Y-65132337D01*
X152367660Y-65165702D01*
X152373005Y-65171798D01*
X152409786Y-65219731D01*
X152413097Y-65224490D01*
X152434967Y-65259296D01*
X152444536Y-65277818D01*
X152466983Y-65332014D01*
X152468223Y-65335263D01*
X152480169Y-65369401D01*
X152486066Y-65394169D01*
X152496530Y-65473647D01*
X152499110Y-65496538D01*
X152499500Y-65503486D01*
X152499500Y-65809897D01*
X152479815Y-65876936D01*
X152427011Y-65922691D01*
X152357853Y-65932635D01*
X152294297Y-65903610D01*
X152276234Y-65884208D01*
X152207547Y-65792455D01*
X152207544Y-65792452D01*
X152092335Y-65706206D01*
X152092328Y-65706202D01*
X151957482Y-65655908D01*
X151957483Y-65655908D01*
X151897883Y-65649501D01*
X151897881Y-65649500D01*
X151897873Y-65649500D01*
X151897864Y-65649500D01*
X150102129Y-65649500D01*
X150102123Y-65649501D01*
X150042516Y-65655908D01*
X149907671Y-65706202D01*
X149907664Y-65706206D01*
X149792455Y-65792452D01*
X149792452Y-65792455D01*
X149706206Y-65907664D01*
X149706202Y-65907671D01*
X149655908Y-66042517D01*
X149649501Y-66102116D01*
X149649501Y-66102123D01*
X149649500Y-66102135D01*
X149649500Y-67897870D01*
X149649501Y-67897876D01*
X149655908Y-67957483D01*
X149706202Y-68092328D01*
X149706206Y-68092335D01*
X149792452Y-68207544D01*
X149792455Y-68207547D01*
X149907664Y-68293793D01*
X149907671Y-68293797D01*
X150039081Y-68342810D01*
X150095015Y-68384681D01*
X150119432Y-68450145D01*
X150104580Y-68518418D01*
X150083430Y-68546673D01*
X149961503Y-68668600D01*
X149825965Y-68862169D01*
X149825964Y-68862171D01*
X149726098Y-69076335D01*
X149726094Y-69076344D01*
X149664938Y-69304586D01*
X149664936Y-69304596D01*
X149644341Y-69539999D01*
X149644341Y-69540000D01*
X149664936Y-69775403D01*
X149664938Y-69775413D01*
X149726094Y-70003655D01*
X149726096Y-70003659D01*
X149726097Y-70003663D01*
X149786882Y-70134016D01*
X149825965Y-70217830D01*
X149825967Y-70217834D01*
X149961501Y-70411395D01*
X149961506Y-70411402D01*
X150128597Y-70578493D01*
X150128603Y-70578498D01*
X150314158Y-70708425D01*
X150357783Y-70763002D01*
X150364977Y-70832500D01*
X150333454Y-70894855D01*
X150314158Y-70911575D01*
X150128597Y-71041505D01*
X149961505Y-71208597D01*
X149825965Y-71402169D01*
X149825964Y-71402171D01*
X149726098Y-71616335D01*
X149726094Y-71616344D01*
X149664938Y-71844586D01*
X149664936Y-71844596D01*
X149644341Y-72079999D01*
X149644341Y-72080000D01*
X149664936Y-72315403D01*
X149664938Y-72315413D01*
X149726094Y-72543655D01*
X149726096Y-72543659D01*
X149726097Y-72543663D01*
X149786882Y-72674016D01*
X149825965Y-72757830D01*
X149825967Y-72757834D01*
X149961501Y-72951395D01*
X149961506Y-72951402D01*
X150128597Y-73118493D01*
X150128603Y-73118498D01*
X150314158Y-73248425D01*
X150357783Y-73303002D01*
X150364977Y-73372500D01*
X150333454Y-73434855D01*
X150314158Y-73451575D01*
X150128597Y-73581505D01*
X149961505Y-73748597D01*
X149825965Y-73942169D01*
X149825964Y-73942171D01*
X149726098Y-74156335D01*
X149726094Y-74156344D01*
X149664938Y-74384586D01*
X149664936Y-74384596D01*
X149644341Y-74619999D01*
X149644341Y-74620000D01*
X149664936Y-74855403D01*
X149664938Y-74855413D01*
X149726094Y-75083655D01*
X149726096Y-75083659D01*
X149726097Y-75083663D01*
X149786882Y-75214016D01*
X149825965Y-75297830D01*
X149825967Y-75297834D01*
X149961501Y-75491395D01*
X149961506Y-75491402D01*
X150128597Y-75658493D01*
X150128603Y-75658498D01*
X150314158Y-75788425D01*
X150357783Y-75843002D01*
X150364977Y-75912500D01*
X150333454Y-75974855D01*
X150314158Y-75991575D01*
X150128597Y-76121505D01*
X149961505Y-76288597D01*
X149825965Y-76482169D01*
X149825964Y-76482171D01*
X149726098Y-76696335D01*
X149726094Y-76696344D01*
X149664938Y-76924586D01*
X149664936Y-76924596D01*
X149644341Y-77159999D01*
X149644341Y-77160000D01*
X149664936Y-77395403D01*
X149664938Y-77395413D01*
X149726094Y-77623655D01*
X149726096Y-77623659D01*
X149726097Y-77623663D01*
X149786882Y-77754016D01*
X149825965Y-77837830D01*
X149825967Y-77837834D01*
X149961501Y-78031395D01*
X149961506Y-78031402D01*
X150128597Y-78198493D01*
X150128603Y-78198498D01*
X150314158Y-78328425D01*
X150357783Y-78383002D01*
X150364977Y-78452500D01*
X150333454Y-78514855D01*
X150314158Y-78531575D01*
X150128597Y-78661505D01*
X149961505Y-78828597D01*
X149825965Y-79022169D01*
X149825964Y-79022171D01*
X149726098Y-79236335D01*
X149726094Y-79236344D01*
X149664938Y-79464586D01*
X149664936Y-79464596D01*
X149644341Y-79699999D01*
X149644341Y-79700000D01*
X149664936Y-79935403D01*
X149664938Y-79935413D01*
X149726094Y-80163655D01*
X149726096Y-80163659D01*
X149726097Y-80163663D01*
X149786882Y-80294016D01*
X149825965Y-80377830D01*
X149825967Y-80377834D01*
X149961501Y-80571395D01*
X149961506Y-80571402D01*
X150128597Y-80738493D01*
X150128603Y-80738498D01*
X150314158Y-80868425D01*
X150357783Y-80923002D01*
X150364977Y-80992500D01*
X150333454Y-81054855D01*
X150314158Y-81071575D01*
X150128597Y-81201505D01*
X149961505Y-81368597D01*
X149825965Y-81562169D01*
X149825964Y-81562171D01*
X149726098Y-81776335D01*
X149726094Y-81776344D01*
X149664938Y-82004586D01*
X149664936Y-82004596D01*
X149644341Y-82239999D01*
X149644341Y-82240000D01*
X149664936Y-82475403D01*
X149664938Y-82475413D01*
X149726094Y-82703655D01*
X149726096Y-82703659D01*
X149726097Y-82703663D01*
X149786882Y-82834016D01*
X149825965Y-82917830D01*
X149825967Y-82917834D01*
X149961501Y-83111395D01*
X149961506Y-83111402D01*
X150128597Y-83278493D01*
X150128603Y-83278498D01*
X150314158Y-83408425D01*
X150357783Y-83463002D01*
X150364977Y-83532500D01*
X150333454Y-83594855D01*
X150314158Y-83611575D01*
X150128597Y-83741505D01*
X149961505Y-83908597D01*
X149825965Y-84102169D01*
X149825964Y-84102171D01*
X149726098Y-84316335D01*
X149726094Y-84316344D01*
X149664938Y-84544586D01*
X149664936Y-84544596D01*
X149644341Y-84779999D01*
X149644341Y-84780001D01*
X149647411Y-84815092D01*
X149633644Y-84883592D01*
X149585029Y-84933775D01*
X149517000Y-84949708D01*
X149457911Y-84930893D01*
X149316774Y-84842210D01*
X149162455Y-84788212D01*
X149000004Y-84769909D01*
X148999996Y-84769909D01*
X148837544Y-84788212D01*
X148683221Y-84842211D01*
X148678798Y-84844342D01*
X148609857Y-84855692D01*
X148571202Y-84844342D01*
X148566778Y-84842211D01*
X148412455Y-84788212D01*
X148250004Y-84769909D01*
X148249996Y-84769909D01*
X148087544Y-84788212D01*
X147933225Y-84842210D01*
X147794795Y-84929192D01*
X147679192Y-85044795D01*
X147592210Y-85183225D01*
X147538212Y-85337544D01*
X147519909Y-85499996D01*
X147519909Y-85500003D01*
X147538212Y-85662455D01*
X147564205Y-85736738D01*
X147567766Y-85806517D01*
X147533037Y-85867144D01*
X147471044Y-85899371D01*
X147401468Y-85892966D01*
X147381191Y-85882686D01*
X147316774Y-85842210D01*
X147162455Y-85788212D01*
X147000004Y-85769909D01*
X146999996Y-85769909D01*
X146837544Y-85788212D01*
X146683222Y-85842211D01*
X146634695Y-85872703D01*
X146567458Y-85891703D01*
X146500623Y-85871335D01*
X146455410Y-85818067D01*
X146451682Y-85808664D01*
X146444526Y-85788214D01*
X146407789Y-85683225D01*
X146320808Y-85544796D01*
X146205204Y-85429192D01*
X146066774Y-85342210D01*
X145912455Y-85288212D01*
X145750004Y-85269909D01*
X145749996Y-85269909D01*
X145587544Y-85288212D01*
X145433225Y-85342210D01*
X145294795Y-85429192D01*
X145179192Y-85544795D01*
X145092210Y-85683225D01*
X145038212Y-85837544D01*
X145019909Y-85999996D01*
X145019909Y-86000003D01*
X145035805Y-86141090D01*
X145023750Y-86209912D01*
X144976401Y-86261291D01*
X144926469Y-86278193D01*
X144837544Y-86288212D01*
X144683225Y-86342210D01*
X144544795Y-86429192D01*
X144429192Y-86544795D01*
X144342210Y-86683225D01*
X144288212Y-86837544D01*
X144269909Y-86999996D01*
X144269909Y-87000003D01*
X144288212Y-87162455D01*
X144342210Y-87316774D01*
X144404688Y-87416206D01*
X144429192Y-87455204D01*
X144544796Y-87570808D01*
X144683225Y-87657789D01*
X144837539Y-87711786D01*
X144837542Y-87711786D01*
X144837544Y-87711787D01*
X144999996Y-87730091D01*
X145000000Y-87730091D01*
X145000004Y-87730091D01*
X145162457Y-87711787D01*
X145162459Y-87711786D01*
X145162461Y-87711786D01*
X145316775Y-87657789D01*
X145316784Y-87657783D01*
X145321193Y-87655660D01*
X145390134Y-87644305D01*
X145428807Y-87655660D01*
X145433219Y-87657785D01*
X145433225Y-87657789D01*
X145433231Y-87657791D01*
X145433233Y-87657792D01*
X145587542Y-87711787D01*
X145749996Y-87730091D01*
X145750000Y-87730091D01*
X145750004Y-87730091D01*
X145912455Y-87711787D01*
X145912456Y-87711786D01*
X145912461Y-87711786D01*
X146066775Y-87657789D01*
X146205204Y-87570808D01*
X146320808Y-87455204D01*
X146407789Y-87316775D01*
X146451682Y-87191335D01*
X146492404Y-87134560D01*
X146557357Y-87108812D01*
X146625918Y-87122268D01*
X146634697Y-87127297D01*
X146683225Y-87157789D01*
X146744635Y-87179277D01*
X146801411Y-87219998D01*
X146820722Y-87255364D01*
X146842210Y-87316773D01*
X146842212Y-87316777D01*
X146878756Y-87374936D01*
X146929192Y-87455204D01*
X147044796Y-87570808D01*
X147183225Y-87657789D01*
X147337539Y-87711786D01*
X147337542Y-87711786D01*
X147337544Y-87711787D01*
X147499996Y-87730091D01*
X147500000Y-87730091D01*
X147500004Y-87730091D01*
X147662457Y-87711787D01*
X147662459Y-87711786D01*
X147662461Y-87711786D01*
X147816775Y-87657789D01*
X147816784Y-87657783D01*
X147821193Y-87655660D01*
X147890134Y-87644305D01*
X147928807Y-87655660D01*
X147933219Y-87657785D01*
X147933225Y-87657789D01*
X147933231Y-87657791D01*
X147933233Y-87657792D01*
X148087542Y-87711787D01*
X148169626Y-87721035D01*
X148234041Y-87748101D01*
X148273596Y-87805695D01*
X148278964Y-87830371D01*
X148288212Y-87912455D01*
X148342210Y-88066774D01*
X148342211Y-88066775D01*
X148429192Y-88205204D01*
X148544796Y-88320808D01*
X148683225Y-88407789D01*
X148837539Y-88461786D01*
X148837542Y-88461786D01*
X148837544Y-88461787D01*
X148999996Y-88480091D01*
X149000000Y-88480091D01*
X149000004Y-88480091D01*
X149162455Y-88461787D01*
X149162456Y-88461786D01*
X149162461Y-88461786D01*
X149316775Y-88407789D01*
X149455204Y-88320808D01*
X149570808Y-88205204D01*
X149657789Y-88066775D01*
X149657789Y-88066773D01*
X149660757Y-88062051D01*
X149713092Y-88015760D01*
X149782145Y-88005112D01*
X149845994Y-88033487D01*
X149867326Y-88056900D01*
X149961501Y-88191395D01*
X149961506Y-88191402D01*
X150128597Y-88358493D01*
X150128603Y-88358498D01*
X150314158Y-88488425D01*
X150357783Y-88543002D01*
X150364977Y-88612500D01*
X150333454Y-88674855D01*
X150314158Y-88691575D01*
X150128597Y-88821505D01*
X149961505Y-88988597D01*
X149825965Y-89182169D01*
X149825964Y-89182171D01*
X149726098Y-89396335D01*
X149726094Y-89396344D01*
X149664938Y-89624586D01*
X149664936Y-89624596D01*
X149644341Y-89859999D01*
X149644341Y-89860000D01*
X149664936Y-90095403D01*
X149664938Y-90095413D01*
X149726094Y-90323655D01*
X149726096Y-90323659D01*
X149726097Y-90323663D01*
X149751715Y-90378600D01*
X149825965Y-90537830D01*
X149825967Y-90537834D01*
X149879984Y-90614977D01*
X149961505Y-90731401D01*
X150128599Y-90898495D01*
X150225384Y-90966265D01*
X150322165Y-91034032D01*
X150322167Y-91034033D01*
X150322170Y-91034035D01*
X150536337Y-91133903D01*
X150764592Y-91195063D01*
X150952918Y-91211539D01*
X150999999Y-91215659D01*
X151000000Y-91215659D01*
X151000001Y-91215659D01*
X151039234Y-91212226D01*
X151235408Y-91195063D01*
X151463663Y-91133903D01*
X151677830Y-91034035D01*
X151871401Y-90898495D01*
X152038495Y-90731401D01*
X152174035Y-90537830D01*
X152263118Y-90346790D01*
X152309290Y-90294352D01*
X152376484Y-90275200D01*
X152443365Y-90295416D01*
X152488700Y-90348581D01*
X152499500Y-90399196D01*
X152499500Y-99496514D01*
X152499110Y-99503462D01*
X152496530Y-99526351D01*
X152486066Y-99605829D01*
X152480169Y-99630597D01*
X152468223Y-99664735D01*
X152466983Y-99667984D01*
X152444536Y-99722180D01*
X152434967Y-99740702D01*
X152413097Y-99775508D01*
X152409786Y-99780267D01*
X152373005Y-99828200D01*
X152367653Y-99834304D01*
X152334304Y-99867653D01*
X152328200Y-99873005D01*
X152280267Y-99909786D01*
X152275508Y-99913097D01*
X152240702Y-99934967D01*
X152222180Y-99944536D01*
X152167984Y-99966983D01*
X152164735Y-99968223D01*
X152130597Y-99980169D01*
X152105829Y-99986066D01*
X152026351Y-99996530D01*
X152005688Y-99998859D01*
X152003460Y-99999110D01*
X151996514Y-99999500D01*
X131503486Y-99999500D01*
X131496539Y-99999110D01*
X131493592Y-99998777D01*
X131473647Y-99996530D01*
X131394169Y-99986066D01*
X131369401Y-99980169D01*
X131335263Y-99968223D01*
X131332014Y-99966983D01*
X131290803Y-99949914D01*
X131277813Y-99944533D01*
X131259296Y-99934967D01*
X131224490Y-99913097D01*
X131219731Y-99909786D01*
X131171798Y-99873005D01*
X131165702Y-99867660D01*
X131132337Y-99834295D01*
X131126993Y-99828200D01*
X131090212Y-99780267D01*
X131086909Y-99775520D01*
X131065027Y-99740695D01*
X131055469Y-99722195D01*
X131033011Y-99667976D01*
X131031775Y-99664736D01*
X131019830Y-99630599D01*
X131013932Y-99605831D01*
X131003470Y-99526354D01*
X131002357Y-99516485D01*
X131000889Y-99503455D01*
X131000500Y-99496518D01*
X131000500Y-99000003D01*
X149769909Y-99000003D01*
X149788212Y-99162455D01*
X149842210Y-99316774D01*
X149842211Y-99316775D01*
X149929192Y-99455204D01*
X150044796Y-99570808D01*
X150183225Y-99657789D01*
X150337539Y-99711786D01*
X150337542Y-99711786D01*
X150337544Y-99711787D01*
X150499996Y-99730091D01*
X150500000Y-99730091D01*
X150500004Y-99730091D01*
X150662455Y-99711787D01*
X150662456Y-99711786D01*
X150662461Y-99711786D01*
X150816775Y-99657789D01*
X150955204Y-99570808D01*
X151070808Y-99455204D01*
X151157789Y-99316775D01*
X151211786Y-99162461D01*
X151230091Y-99000000D01*
X151211786Y-98837539D01*
X151157789Y-98683225D01*
X151070808Y-98544796D01*
X150955204Y-98429192D01*
X150816774Y-98342210D01*
X150662455Y-98288212D01*
X150500004Y-98269909D01*
X150499996Y-98269909D01*
X150337544Y-98288212D01*
X150183225Y-98342210D01*
X150044795Y-98429192D01*
X149929192Y-98544795D01*
X149842210Y-98683225D01*
X149788212Y-98837544D01*
X149769909Y-98999996D01*
X149769909Y-99000003D01*
X131000500Y-99000003D01*
X131000500Y-95700003D01*
X140572659Y-95700003D01*
X140590962Y-95862455D01*
X140644960Y-96016774D01*
X140644961Y-96016775D01*
X140731942Y-96155204D01*
X140847546Y-96270808D01*
X140985975Y-96357789D01*
X141140289Y-96411786D01*
X141140292Y-96411786D01*
X141140294Y-96411787D01*
X141302746Y-96430091D01*
X141302750Y-96430091D01*
X141302754Y-96430091D01*
X141465205Y-96411787D01*
X141465206Y-96411786D01*
X141465211Y-96411786D01*
X141562995Y-96377568D01*
X141632773Y-96374006D01*
X141644897Y-96377566D01*
X141742689Y-96411786D01*
X141742693Y-96411786D01*
X141742695Y-96411787D01*
X141742692Y-96411787D01*
X141905146Y-96430091D01*
X141905150Y-96430091D01*
X141905154Y-96430091D01*
X142067605Y-96411787D01*
X142067606Y-96411786D01*
X142067611Y-96411786D01*
X142221925Y-96357789D01*
X142360354Y-96270808D01*
X142475958Y-96155204D01*
X142562939Y-96016775D01*
X142616936Y-95862461D01*
X142635241Y-95700000D01*
X142616936Y-95537539D01*
X142562939Y-95383225D01*
X142475958Y-95244796D01*
X142360354Y-95129192D01*
X142221924Y-95042210D01*
X142067605Y-94988212D01*
X141905154Y-94969909D01*
X141905146Y-94969909D01*
X141742694Y-94988212D01*
X141644904Y-95022430D01*
X141575125Y-95025991D01*
X141562996Y-95022430D01*
X141465205Y-94988212D01*
X141302754Y-94969909D01*
X141302746Y-94969909D01*
X141140294Y-94988212D01*
X140985975Y-95042210D01*
X140847545Y-95129192D01*
X140731942Y-95244795D01*
X140644960Y-95383225D01*
X140590962Y-95537544D01*
X140572659Y-95699996D01*
X140572659Y-95700003D01*
X131000500Y-95700003D01*
X131000500Y-93467693D01*
X138782829Y-93467693D01*
X138792459Y-93596200D01*
X138839541Y-93716164D01*
X138882114Y-93769548D01*
X138919892Y-93816920D01*
X139026369Y-93889515D01*
X139149515Y-93927500D01*
X139245988Y-93927500D01*
X139245989Y-93927500D01*
X139341381Y-93913122D01*
X139457490Y-93857207D01*
X139519141Y-93800003D01*
X141572659Y-93800003D01*
X141590962Y-93962455D01*
X141644960Y-94116774D01*
X141644961Y-94116775D01*
X141731942Y-94255204D01*
X141847546Y-94370808D01*
X141985975Y-94457789D01*
X142140289Y-94511786D01*
X142140292Y-94511786D01*
X142140294Y-94511787D01*
X142302746Y-94530091D01*
X142302750Y-94530091D01*
X142302754Y-94530091D01*
X142465205Y-94511787D01*
X142465206Y-94511786D01*
X142465211Y-94511786D01*
X142562995Y-94477568D01*
X142632773Y-94474006D01*
X142644897Y-94477566D01*
X142742689Y-94511786D01*
X142742693Y-94511786D01*
X142742695Y-94511787D01*
X142742692Y-94511787D01*
X142905146Y-94530091D01*
X142905150Y-94530091D01*
X142905154Y-94530091D01*
X143067605Y-94511787D01*
X143067606Y-94511786D01*
X143067611Y-94511786D01*
X143221925Y-94457789D01*
X143360354Y-94370808D01*
X143475958Y-94255204D01*
X143562939Y-94116775D01*
X143616936Y-93962461D01*
X143620875Y-93927500D01*
X143635241Y-93800003D01*
X143635241Y-93799996D01*
X143616937Y-93637544D01*
X143616936Y-93637542D01*
X143616936Y-93637539D01*
X143562939Y-93483225D01*
X143553180Y-93467693D01*
X144562829Y-93467693D01*
X144572459Y-93596200D01*
X144619541Y-93716164D01*
X144662114Y-93769548D01*
X144699892Y-93816920D01*
X144806369Y-93889515D01*
X144929515Y-93927500D01*
X145025988Y-93927500D01*
X145025989Y-93927500D01*
X145121381Y-93913122D01*
X145237490Y-93857207D01*
X145331958Y-93769553D01*
X145396394Y-93657948D01*
X145425070Y-93532308D01*
X145415440Y-93403798D01*
X145368358Y-93283836D01*
X145368358Y-93283835D01*
X145288006Y-93183078D01*
X145181531Y-93110485D01*
X145181529Y-93110484D01*
X145058386Y-93072500D01*
X145058385Y-93072500D01*
X144961911Y-93072500D01*
X144961905Y-93072500D01*
X144866519Y-93086878D01*
X144750408Y-93142793D01*
X144655942Y-93230446D01*
X144655939Y-93230451D01*
X144591507Y-93342049D01*
X144591506Y-93342052D01*
X144562830Y-93467692D01*
X144562829Y-93467693D01*
X143553180Y-93467693D01*
X143475958Y-93344796D01*
X143360354Y-93229192D01*
X143221924Y-93142210D01*
X143067605Y-93088212D01*
X142905154Y-93069909D01*
X142905146Y-93069909D01*
X142742694Y-93088212D01*
X142644904Y-93122430D01*
X142575125Y-93125991D01*
X142562996Y-93122430D01*
X142465205Y-93088212D01*
X142302754Y-93069909D01*
X142302746Y-93069909D01*
X142140294Y-93088212D01*
X141985975Y-93142210D01*
X141847545Y-93229192D01*
X141731942Y-93344795D01*
X141644960Y-93483225D01*
X141590962Y-93637544D01*
X141572659Y-93799996D01*
X141572659Y-93800003D01*
X139519141Y-93800003D01*
X139551958Y-93769553D01*
X139616394Y-93657948D01*
X139645070Y-93532308D01*
X139635440Y-93403798D01*
X139588358Y-93283836D01*
X139588358Y-93283835D01*
X139508006Y-93183078D01*
X139401531Y-93110485D01*
X139401529Y-93110484D01*
X139278386Y-93072500D01*
X139278385Y-93072500D01*
X139181911Y-93072500D01*
X139181905Y-93072500D01*
X139086519Y-93086878D01*
X138970408Y-93142793D01*
X138875942Y-93230446D01*
X138875939Y-93230451D01*
X138811507Y-93342049D01*
X138811506Y-93342052D01*
X138782830Y-93467692D01*
X138782829Y-93467693D01*
X131000500Y-93467693D01*
X131000500Y-92820003D01*
X149689909Y-92820003D01*
X149708212Y-92982455D01*
X149762210Y-93136774D01*
X149821069Y-93230447D01*
X149849192Y-93275204D01*
X149964796Y-93390808D01*
X150103225Y-93477789D01*
X150257539Y-93531786D01*
X150257542Y-93531786D01*
X150257544Y-93531787D01*
X150419996Y-93550091D01*
X150420000Y-93550091D01*
X150420004Y-93550091D01*
X150582455Y-93531787D01*
X150582456Y-93531786D01*
X150582461Y-93531786D01*
X150736775Y-93477789D01*
X150875204Y-93390808D01*
X150990808Y-93275204D01*
X151077789Y-93136775D01*
X151131786Y-92982461D01*
X151150091Y-92820000D01*
X151131786Y-92657539D01*
X151077789Y-92503225D01*
X150990808Y-92364796D01*
X150875204Y-92249192D01*
X150736774Y-92162210D01*
X150582455Y-92108212D01*
X150420004Y-92089909D01*
X150419996Y-92089909D01*
X150257544Y-92108212D01*
X150103225Y-92162210D01*
X149964795Y-92249192D01*
X149849192Y-92364795D01*
X149762210Y-92503225D01*
X149708212Y-92657544D01*
X149689909Y-92819996D01*
X149689909Y-92820003D01*
X131000500Y-92820003D01*
X131000500Y-92249758D01*
X131020185Y-92182719D01*
X131072989Y-92136964D01*
X131142147Y-92127020D01*
X131205703Y-92156045D01*
X131212181Y-92162077D01*
X131338599Y-92288495D01*
X131435384Y-92356265D01*
X131532165Y-92424032D01*
X131532167Y-92424033D01*
X131532170Y-92424035D01*
X131746337Y-92523903D01*
X131974592Y-92585063D01*
X132162918Y-92601539D01*
X132209999Y-92605659D01*
X132210000Y-92605659D01*
X132210001Y-92605659D01*
X132249234Y-92602226D01*
X132445408Y-92585063D01*
X132673663Y-92523903D01*
X132887830Y-92424035D01*
X133081401Y-92288495D01*
X133248495Y-92121401D01*
X133378425Y-91935842D01*
X133433002Y-91892217D01*
X133502500Y-91885023D01*
X133564855Y-91916546D01*
X133581575Y-91935842D01*
X133711500Y-92121395D01*
X133711505Y-92121401D01*
X133878599Y-92288495D01*
X133975384Y-92356265D01*
X134072165Y-92424032D01*
X134072167Y-92424033D01*
X134072170Y-92424035D01*
X134286337Y-92523903D01*
X134514592Y-92585063D01*
X134702918Y-92601539D01*
X134749999Y-92605659D01*
X134750000Y-92605659D01*
X134750001Y-92605659D01*
X134789234Y-92602226D01*
X134985408Y-92585063D01*
X135213663Y-92523903D01*
X135427830Y-92424035D01*
X135621401Y-92288495D01*
X135788495Y-92121401D01*
X135924035Y-91927830D01*
X136023903Y-91713663D01*
X136085063Y-91485408D01*
X136105659Y-91250000D01*
X136104940Y-91241787D01*
X136095502Y-91133905D01*
X136085063Y-91014592D01*
X136023903Y-90786337D01*
X135924035Y-90572171D01*
X135918425Y-90564158D01*
X135894509Y-90530003D01*
X136749909Y-90530003D01*
X136768212Y-90692455D01*
X136822210Y-90846774D01*
X136854709Y-90898495D01*
X136909192Y-90985204D01*
X137024796Y-91100808D01*
X137163225Y-91187789D01*
X137317539Y-91241786D01*
X137317542Y-91241786D01*
X137317544Y-91241787D01*
X137479996Y-91260091D01*
X137480000Y-91260091D01*
X137480004Y-91260091D01*
X137642455Y-91241787D01*
X137642456Y-91241786D01*
X137642461Y-91241786D01*
X137796775Y-91187789D01*
X137935204Y-91100808D01*
X138050808Y-90985204D01*
X138137789Y-90846775D01*
X138191786Y-90692461D01*
X138196529Y-90650369D01*
X138210091Y-90530003D01*
X138210091Y-90529996D01*
X138191787Y-90367544D01*
X138191786Y-90367542D01*
X138191786Y-90367539D01*
X138137789Y-90213225D01*
X138050808Y-90074796D01*
X137935204Y-89959192D01*
X137864770Y-89914935D01*
X137796774Y-89872210D01*
X137642455Y-89818212D01*
X137480004Y-89799909D01*
X137479996Y-89799909D01*
X137317544Y-89818212D01*
X137163225Y-89872210D01*
X137024795Y-89959192D01*
X136909192Y-90074795D01*
X136822210Y-90213225D01*
X136768212Y-90367544D01*
X136749909Y-90529996D01*
X136749909Y-90530003D01*
X135894509Y-90530003D01*
X135788494Y-90378597D01*
X135621402Y-90211506D01*
X135621396Y-90211501D01*
X135435842Y-90081575D01*
X135392217Y-90026998D01*
X135385023Y-89957500D01*
X135416546Y-89895145D01*
X135435842Y-89878425D01*
X135458026Y-89862891D01*
X135621401Y-89748495D01*
X135788495Y-89581401D01*
X135924035Y-89387830D01*
X136023903Y-89173663D01*
X136085063Y-88945408D01*
X136105659Y-88710000D01*
X136085063Y-88474592D01*
X136023903Y-88246337D01*
X135924035Y-88032171D01*
X135905089Y-88005112D01*
X135788494Y-87838597D01*
X135621402Y-87671506D01*
X135621395Y-87671501D01*
X135601812Y-87657789D01*
X135582521Y-87644281D01*
X135427834Y-87535967D01*
X135427830Y-87535965D01*
X135427828Y-87535964D01*
X135213663Y-87436097D01*
X135213659Y-87436096D01*
X135213655Y-87436094D01*
X134985413Y-87374938D01*
X134985403Y-87374936D01*
X134750001Y-87354341D01*
X134749999Y-87354341D01*
X134514596Y-87374936D01*
X134514586Y-87374938D01*
X134286344Y-87436094D01*
X134286335Y-87436098D01*
X134072171Y-87535964D01*
X134072169Y-87535965D01*
X133878600Y-87671503D01*
X133756673Y-87793430D01*
X133695350Y-87826914D01*
X133625658Y-87821930D01*
X133569725Y-87780058D01*
X133552810Y-87749081D01*
X133503797Y-87617671D01*
X133503793Y-87617664D01*
X133417547Y-87502455D01*
X133417544Y-87502452D01*
X133302335Y-87416206D01*
X133302328Y-87416202D01*
X133167482Y-87365908D01*
X133167483Y-87365908D01*
X133107883Y-87359501D01*
X133107881Y-87359500D01*
X133107873Y-87359500D01*
X133107864Y-87359500D01*
X131312129Y-87359500D01*
X131312123Y-87359501D01*
X131252515Y-87365909D01*
X131167832Y-87397493D01*
X131098140Y-87402477D01*
X131036818Y-87368991D01*
X131003333Y-87307668D01*
X131000500Y-87281311D01*
X131000500Y-82886420D01*
X131020185Y-82819381D01*
X131072989Y-82773626D01*
X131142147Y-82763682D01*
X131205703Y-82792707D01*
X131236882Y-82834016D01*
X131275963Y-82917826D01*
X131275967Y-82917834D01*
X131331242Y-82996774D01*
X131411505Y-83111401D01*
X131578599Y-83278495D01*
X131663280Y-83337789D01*
X131772165Y-83414032D01*
X131772167Y-83414033D01*
X131772170Y-83414035D01*
X131986337Y-83513903D01*
X132214592Y-83575063D01*
X132402918Y-83591539D01*
X132449999Y-83595659D01*
X132450000Y-83595659D01*
X132450001Y-83595659D01*
X132489234Y-83592226D01*
X132685408Y-83575063D01*
X132913663Y-83513903D01*
X133127830Y-83414035D01*
X133321401Y-83278495D01*
X133488495Y-83111401D01*
X133624035Y-82917830D01*
X133723903Y-82703663D01*
X133730243Y-82680003D01*
X134929909Y-82680003D01*
X134948212Y-82842455D01*
X135002210Y-82996774D01*
X135074236Y-83111402D01*
X135089192Y-83135204D01*
X135204796Y-83250808D01*
X135343225Y-83337789D01*
X135497539Y-83391786D01*
X135497542Y-83391786D01*
X135497544Y-83391787D01*
X135659996Y-83410091D01*
X135660000Y-83410091D01*
X135660004Y-83410091D01*
X135822455Y-83391787D01*
X135822456Y-83391786D01*
X135822461Y-83391786D01*
X135976775Y-83337789D01*
X136115204Y-83250808D01*
X136230808Y-83135204D01*
X136315761Y-83000003D01*
X141469909Y-83000003D01*
X141488212Y-83162455D01*
X141542210Y-83316774D01*
X141603322Y-83414032D01*
X141629192Y-83455204D01*
X141744796Y-83570808D01*
X141883225Y-83657789D01*
X142037539Y-83711786D01*
X142037542Y-83711786D01*
X142037544Y-83711787D01*
X142199996Y-83730091D01*
X142200000Y-83730091D01*
X142200004Y-83730091D01*
X142362455Y-83711787D01*
X142362456Y-83711786D01*
X142362461Y-83711786D01*
X142516775Y-83657789D01*
X142655204Y-83570808D01*
X142770808Y-83455204D01*
X142857789Y-83316775D01*
X142911786Y-83162461D01*
X142930091Y-83000000D01*
X142920833Y-82917834D01*
X142911787Y-82837544D01*
X142911786Y-82837542D01*
X142911786Y-82837539D01*
X142857789Y-82683225D01*
X142770808Y-82544796D01*
X142655204Y-82429192D01*
X142516774Y-82342210D01*
X142362455Y-82288212D01*
X142200004Y-82269909D01*
X142199996Y-82269909D01*
X142037544Y-82288212D01*
X141883225Y-82342210D01*
X141744795Y-82429192D01*
X141629192Y-82544795D01*
X141542210Y-82683225D01*
X141488212Y-82837544D01*
X141469909Y-82999996D01*
X141469909Y-83000003D01*
X136315761Y-83000003D01*
X136317789Y-82996775D01*
X136371786Y-82842461D01*
X136372738Y-82834016D01*
X136390091Y-82680003D01*
X136390091Y-82679996D01*
X136371787Y-82517544D01*
X136371786Y-82517542D01*
X136371786Y-82517539D01*
X136317789Y-82363225D01*
X136230808Y-82224796D01*
X136115204Y-82109192D01*
X135976774Y-82022210D01*
X135822455Y-81968212D01*
X135660004Y-81949909D01*
X135659996Y-81949909D01*
X135497544Y-81968212D01*
X135343225Y-82022210D01*
X135204795Y-82109192D01*
X135089192Y-82224795D01*
X135002210Y-82363225D01*
X134948212Y-82517544D01*
X134929909Y-82679996D01*
X134929909Y-82680003D01*
X133730243Y-82680003D01*
X133785063Y-82475408D01*
X133805659Y-82240000D01*
X133785063Y-82004592D01*
X133723903Y-81776337D01*
X133624035Y-81562171D01*
X133580505Y-81500003D01*
X139874909Y-81500003D01*
X139893212Y-81662455D01*
X139947210Y-81816774D01*
X139947211Y-81816775D01*
X140034192Y-81955204D01*
X140149796Y-82070808D01*
X140288225Y-82157789D01*
X140442539Y-82211786D01*
X140442542Y-82211786D01*
X140442544Y-82211787D01*
X140604996Y-82230091D01*
X140605000Y-82230091D01*
X140605004Y-82230091D01*
X140767455Y-82211787D01*
X140767456Y-82211786D01*
X140767461Y-82211786D01*
X140921775Y-82157789D01*
X141060204Y-82070808D01*
X141175808Y-81955204D01*
X141262789Y-81816775D01*
X141316786Y-81662461D01*
X141318643Y-81645984D01*
X141335091Y-81500003D01*
X141335091Y-81499996D01*
X141316787Y-81337544D01*
X141316786Y-81337542D01*
X141316786Y-81337539D01*
X141262789Y-81183225D01*
X141175808Y-81044796D01*
X141060204Y-80929192D01*
X140990104Y-80885145D01*
X140921774Y-80842210D01*
X140767455Y-80788212D01*
X140605004Y-80769909D01*
X140604996Y-80769909D01*
X140442544Y-80788212D01*
X140288225Y-80842210D01*
X140149795Y-80929192D01*
X140034192Y-81044795D01*
X139947210Y-81183225D01*
X139893212Y-81337544D01*
X139874909Y-81499996D01*
X139874909Y-81500003D01*
X133580505Y-81500003D01*
X133488495Y-81368599D01*
X133488494Y-81368597D01*
X133321402Y-81201506D01*
X133321396Y-81201501D01*
X133135842Y-81071575D01*
X133092217Y-81016998D01*
X133085023Y-80947500D01*
X133116546Y-80885145D01*
X133135842Y-80868425D01*
X133250395Y-80788214D01*
X133321401Y-80738495D01*
X133488495Y-80571401D01*
X133624035Y-80377830D01*
X133723903Y-80163663D01*
X133785063Y-79935408D01*
X133805659Y-79700000D01*
X133785063Y-79464592D01*
X133723903Y-79236337D01*
X133624035Y-79022171D01*
X133488495Y-78828599D01*
X133488494Y-78828597D01*
X133321402Y-78661506D01*
X133321396Y-78661501D01*
X133135842Y-78531575D01*
X133092217Y-78476998D01*
X133085023Y-78407500D01*
X133116546Y-78345145D01*
X133135842Y-78328425D01*
X133158026Y-78312891D01*
X133321401Y-78198495D01*
X133488495Y-78031401D01*
X133624035Y-77837830D01*
X133723903Y-77623663D01*
X133785063Y-77395408D01*
X133805659Y-77160000D01*
X133789911Y-76980003D01*
X134809909Y-76980003D01*
X134828212Y-77142455D01*
X134882210Y-77296774D01*
X134969192Y-77435204D01*
X135084796Y-77550808D01*
X135223225Y-77637789D01*
X135377539Y-77691786D01*
X135377542Y-77691786D01*
X135377544Y-77691787D01*
X135539996Y-77710091D01*
X135540000Y-77710091D01*
X135540004Y-77710091D01*
X135702455Y-77691787D01*
X135702456Y-77691786D01*
X135702461Y-77691786D01*
X135856775Y-77637789D01*
X135995204Y-77550808D01*
X136110808Y-77435204D01*
X136197789Y-77296775D01*
X136251786Y-77142461D01*
X136270091Y-76980000D01*
X136263848Y-76924596D01*
X136251787Y-76817544D01*
X136251786Y-76817542D01*
X136251786Y-76817539D01*
X136197789Y-76663225D01*
X136110808Y-76524796D01*
X135995204Y-76409192D01*
X135901146Y-76350091D01*
X135856774Y-76322210D01*
X135702455Y-76268212D01*
X135540004Y-76249909D01*
X135539996Y-76249909D01*
X135377544Y-76268212D01*
X135223225Y-76322210D01*
X135084795Y-76409192D01*
X134969192Y-76524795D01*
X134882210Y-76663225D01*
X134828212Y-76817544D01*
X134809909Y-76979996D01*
X134809909Y-76980003D01*
X133789911Y-76980003D01*
X133785063Y-76924592D01*
X133723903Y-76696337D01*
X133624035Y-76482171D01*
X133518736Y-76331787D01*
X133488494Y-76288597D01*
X133321402Y-76121506D01*
X133321396Y-76121501D01*
X133135842Y-75991575D01*
X133092217Y-75936998D01*
X133085023Y-75867500D01*
X133116546Y-75805145D01*
X133135842Y-75788425D01*
X133183286Y-75755204D01*
X133321401Y-75658495D01*
X133488495Y-75491401D01*
X133622513Y-75300003D01*
X139369909Y-75300003D01*
X139388212Y-75462455D01*
X139442210Y-75616774D01*
X139468427Y-75658498D01*
X139529192Y-75755204D01*
X139644796Y-75870808D01*
X139783225Y-75957789D01*
X139937539Y-76011786D01*
X139937542Y-76011786D01*
X139937544Y-76011787D01*
X140099996Y-76030091D01*
X140100000Y-76030091D01*
X140100004Y-76030091D01*
X140262455Y-76011787D01*
X140262456Y-76011786D01*
X140262461Y-76011786D01*
X140416775Y-75957789D01*
X140555204Y-75870808D01*
X140670808Y-75755204D01*
X140755761Y-75620003D01*
X147519909Y-75620003D01*
X147538212Y-75782455D01*
X147592210Y-75936774D01*
X147679192Y-76075204D01*
X147794796Y-76190808D01*
X147933225Y-76277789D01*
X148087539Y-76331786D01*
X148087542Y-76331786D01*
X148087544Y-76331787D01*
X148249996Y-76350091D01*
X148250000Y-76350091D01*
X148250004Y-76350091D01*
X148412455Y-76331787D01*
X148412456Y-76331786D01*
X148412461Y-76331786D01*
X148566775Y-76277789D01*
X148705204Y-76190808D01*
X148820808Y-76075204D01*
X148907789Y-75936775D01*
X148961786Y-75782461D01*
X148964857Y-75755204D01*
X148980091Y-75620003D01*
X148980091Y-75619996D01*
X148961787Y-75457544D01*
X148961786Y-75457542D01*
X148961786Y-75457539D01*
X148907789Y-75303225D01*
X148820808Y-75164796D01*
X148705204Y-75049192D01*
X148682936Y-75035200D01*
X148566774Y-74962210D01*
X148412455Y-74908212D01*
X148250004Y-74889909D01*
X148249996Y-74889909D01*
X148087544Y-74908212D01*
X147933225Y-74962210D01*
X147794795Y-75049192D01*
X147679192Y-75164795D01*
X147592210Y-75303225D01*
X147538212Y-75457544D01*
X147519909Y-75619996D01*
X147519909Y-75620003D01*
X140755761Y-75620003D01*
X140757789Y-75616775D01*
X140811786Y-75462461D01*
X140830091Y-75300000D01*
X140829846Y-75297830D01*
X140811787Y-75137544D01*
X140811786Y-75137542D01*
X140811786Y-75137539D01*
X140757789Y-74983225D01*
X140670808Y-74844796D01*
X140555204Y-74729192D01*
X140416774Y-74642210D01*
X140262455Y-74588212D01*
X140100004Y-74569909D01*
X140099996Y-74569909D01*
X139937544Y-74588212D01*
X139783225Y-74642210D01*
X139644795Y-74729192D01*
X139529192Y-74844795D01*
X139442210Y-74983225D01*
X139388212Y-75137544D01*
X139369909Y-75299996D01*
X139369909Y-75300003D01*
X133622513Y-75300003D01*
X133624035Y-75297830D01*
X133723903Y-75083663D01*
X133785063Y-74855408D01*
X133805659Y-74620000D01*
X133785063Y-74384592D01*
X133723903Y-74156337D01*
X133624035Y-73942171D01*
X133488495Y-73748599D01*
X133488494Y-73748597D01*
X133321402Y-73581506D01*
X133321396Y-73581501D01*
X133135842Y-73451575D01*
X133092217Y-73396998D01*
X133087352Y-73350003D01*
X139169909Y-73350003D01*
X139188212Y-73512455D01*
X139242210Y-73666774D01*
X139329192Y-73805204D01*
X139444796Y-73920808D01*
X139583225Y-74007789D01*
X139737539Y-74061786D01*
X139737542Y-74061786D01*
X139737544Y-74061787D01*
X139899996Y-74080091D01*
X139900000Y-74080091D01*
X139900004Y-74080091D01*
X140062455Y-74061787D01*
X140062456Y-74061786D01*
X140062461Y-74061786D01*
X140216775Y-74007789D01*
X140355204Y-73920808D01*
X140470808Y-73805204D01*
X140557789Y-73666775D01*
X140611786Y-73512461D01*
X140611787Y-73512455D01*
X140630091Y-73350003D01*
X140630091Y-73349996D01*
X140611787Y-73187544D01*
X140611786Y-73187542D01*
X140611786Y-73187539D01*
X140557789Y-73033225D01*
X140470808Y-72894796D01*
X140355204Y-72779192D01*
X140271218Y-72726420D01*
X140216774Y-72692210D01*
X140062455Y-72638212D01*
X139900004Y-72619909D01*
X139899996Y-72619909D01*
X139737544Y-72638212D01*
X139583225Y-72692210D01*
X139444795Y-72779192D01*
X139329192Y-72894795D01*
X139242210Y-73033225D01*
X139188212Y-73187544D01*
X139169909Y-73349996D01*
X139169909Y-73350003D01*
X133087352Y-73350003D01*
X133085023Y-73327500D01*
X133116546Y-73265145D01*
X133135842Y-73248425D01*
X133222796Y-73187539D01*
X133321401Y-73118495D01*
X133488495Y-72951401D01*
X133624035Y-72757830D01*
X133723903Y-72543663D01*
X133785063Y-72315408D01*
X133805659Y-72080000D01*
X133785063Y-71844592D01*
X133723903Y-71616337D01*
X133624035Y-71402171D01*
X133488495Y-71208599D01*
X133488494Y-71208597D01*
X133321402Y-71041506D01*
X133321396Y-71041501D01*
X133135842Y-70911575D01*
X133092217Y-70856998D01*
X133085023Y-70787500D01*
X133116546Y-70725145D01*
X133135842Y-70708425D01*
X133158026Y-70692891D01*
X133321401Y-70578495D01*
X133488495Y-70411401D01*
X133624035Y-70217830D01*
X133723903Y-70003663D01*
X133785063Y-69775408D01*
X133805659Y-69540000D01*
X133785063Y-69304592D01*
X133723903Y-69076337D01*
X133624035Y-68862171D01*
X133488495Y-68668599D01*
X133366567Y-68546671D01*
X133333084Y-68485351D01*
X133338068Y-68415659D01*
X133379939Y-68359725D01*
X133410915Y-68342810D01*
X133542331Y-68293796D01*
X133657546Y-68207546D01*
X133743796Y-68092331D01*
X133794091Y-67957483D01*
X133800500Y-67897873D01*
X133800499Y-66102128D01*
X133794091Y-66042517D01*
X133743796Y-65907669D01*
X133743795Y-65907668D01*
X133743793Y-65907664D01*
X133657547Y-65792455D01*
X133657544Y-65792452D01*
X133542335Y-65706206D01*
X133542328Y-65706202D01*
X133407482Y-65655908D01*
X133407483Y-65655908D01*
X133347883Y-65649501D01*
X133347881Y-65649500D01*
X133347873Y-65649500D01*
X133347864Y-65649500D01*
X131552129Y-65649500D01*
X131552123Y-65649501D01*
X131492516Y-65655908D01*
X131357671Y-65706202D01*
X131357664Y-65706206D01*
X131242455Y-65792452D01*
X131223766Y-65817418D01*
X131167832Y-65859288D01*
X131098140Y-65864272D01*
X131036818Y-65830786D01*
X131003333Y-65769462D01*
X131000500Y-65743106D01*
X131000500Y-65503480D01*
X131000890Y-65496538D01*
X131002687Y-65480586D01*
X131003470Y-65473645D01*
X131006944Y-65447248D01*
X131013933Y-65394163D01*
X131019830Y-65369399D01*
X131031775Y-65335262D01*
X131033001Y-65332047D01*
X131055474Y-65277794D01*
X131065021Y-65259313D01*
X131086922Y-65224459D01*
X131090197Y-65219752D01*
X131127003Y-65171786D01*
X131132323Y-65165718D01*
X131165718Y-65132323D01*
X131171786Y-65127003D01*
X131219752Y-65090197D01*
X131224459Y-65086922D01*
X131259313Y-65065021D01*
X131277794Y-65055474D01*
X131332047Y-65033001D01*
X131335253Y-65031778D01*
X131369402Y-65019829D01*
X131394163Y-65013933D01*
X131441020Y-65007764D01*
X131473646Y-65003470D01*
X131482632Y-65002456D01*
X131496545Y-65000889D01*
X131503481Y-65000500D01*
X151996518Y-65000500D01*
X152003455Y-65000889D01*
G37*
%TD.AperFunction*%
M02*
