M48
; DRILL file {KiCad 7.0.8} date Fri Apr  5 01:26:52 2024
; FORMAT={-:-/ absolute / metric / decimal}
; #@! TF.CreationDate,2024-04-05T01:26:52-03:00
; #@! TF.GenerationSoftware,Kicad,Pcbnew,7.0.8
; #@! TF.FileFunction,Plated,1,4,PTH
FMAT,2
METRIC
; #@! TA.AperFunction,Plated,PTH,ViaDrill
T1C0.254
; #@! TA.AperFunction,Plated,PTH,ComponentDrill
T2C0.600
; #@! TA.AperFunction,Plated,PTH,ComponentDrill
T3C1.000
%
G90
G05
T1
X131.9Y-95.05
X133.05Y-97.2
X133.15Y-95.3
X134.6Y-98.9
X135.3Y-97.35
X135.35Y-68.6
X135.4Y-85.8
X135.54Y-76.98
X135.6Y-81.25
X135.6Y-98.75
X135.66Y-82.68
X135.9Y-95.15
X135.95Y-96.4
X136.05Y-99.55
X136.5Y-67.7
X137.4Y-88.55
X137.48Y-90.53
X137.65Y-69.1
X138.7Y-94.95
X138.7Y-98.95
X138.85Y-95.9
X139.15Y-90.5
X139.45Y-97.15
X139.6Y-72.3
X139.75Y-67.25
X139.9Y-73.35
X140.1Y-75.3
X140.2Y-84.2
X140.35Y-77.7
X140.5Y-98.55
X140.605Y-81.5
X140.8Y-94.0
X141.25Y-88.3
X141.303Y-95.7
X141.4Y-85.85
X141.905Y-95.7
X142.15Y-97.6
X142.2Y-83.0
X142.303Y-93.8
X142.7Y-67.7
X142.8Y-86.05
X142.9Y-78.25
X142.905Y-93.8
X143.0Y-91.0
X143.05Y-98.75
X143.1Y-95.1
X143.25Y-76.68
X143.5Y-86.95
X143.85Y-68.8
X144.55Y-97.1
X144.95Y-83.15
X145.0Y-87.0
X145.25Y-96.15
X145.35Y-98.25
X145.45Y-95.2
X145.55Y-67.3
X145.55Y-69.9
X145.6Y-99.05
X145.75Y-86.0
X145.75Y-87.0
X147.0Y-86.5
X147.05Y-83.15
X147.5Y-87.0
X147.8Y-99.55
X147.9Y-95.0
X147.95Y-98.6
X148.1Y-93.55
X148.1Y-96.65
X148.2Y-92.6
X148.25Y-75.62
X148.25Y-85.5
X148.25Y-86.25
X148.25Y-87.0
X148.3Y-78.25
X148.3Y-97.7
X149.0Y-85.5
X149.0Y-86.25
X149.0Y-87.0
X149.0Y-87.75
X150.42Y-92.82
X150.5Y-99.0
T3
X132.21Y-88.71
X132.21Y-91.25
X132.45Y-67.0
X132.45Y-69.54
X132.45Y-72.08
X132.45Y-74.62
X132.45Y-77.16
X132.45Y-79.7
X132.45Y-82.24
X132.45Y-84.78
X134.75Y-88.71
X134.75Y-91.25
X151.0Y-67.0
X151.0Y-69.54
X151.0Y-72.08
X151.0Y-74.62
X151.0Y-77.16
X151.0Y-79.7
X151.0Y-82.24
X151.0Y-84.78
X151.0Y-87.32
X151.0Y-89.86
T2
G00X137.784Y-93.57
M15
G01X137.784Y-92.47
M16
G05
G00X137.784Y-97.59
M15
G01X137.784Y-96.79
M16
G05
G00X146.424Y-93.57
M15
G01X146.424Y-92.47
M16
G05
G00X146.424Y-97.59
M15
G01X146.424Y-96.79
M16
G05
T0
M30
