%TF.GenerationSoftware,KiCad,Pcbnew,7.0.8*%
%TF.CreationDate,2024-04-05T01:26:40-03:00*%
%TF.ProjectId,iW-Little,69572d4c-6974-4746-9c65-2e6b69636164,rev?*%
%TF.SameCoordinates,Original*%
%TF.FileFunction,Legend,Top*%
%TF.FilePolarity,Positive*%
%FSLAX46Y46*%
G04 Gerber Fmt 4.6, Leading zero omitted, Abs format (unit mm)*
G04 Created by KiCad (PCBNEW 7.0.8) date 2024-04-05 01:26:40*
%MOMM*%
%LPD*%
G01*
G04 APERTURE LIST*
%ADD10C,0.150000*%
%ADD11C,0.120000*%
%ADD12C,0.127000*%
%ADD13C,0.200000*%
G04 APERTURE END LIST*
D10*
X134586779Y-66369819D02*
X134586779Y-65703152D01*
X134586779Y-65369819D02*
X134539160Y-65417438D01*
X134539160Y-65417438D02*
X134586779Y-65465057D01*
X134586779Y-65465057D02*
X134634398Y-65417438D01*
X134634398Y-65417438D02*
X134586779Y-65369819D01*
X134586779Y-65369819D02*
X134586779Y-65465057D01*
X134967731Y-65369819D02*
X135205826Y-66369819D01*
X135205826Y-66369819D02*
X135396302Y-65655533D01*
X135396302Y-65655533D02*
X135586778Y-66369819D01*
X135586778Y-66369819D02*
X135824874Y-65369819D01*
X136967731Y-65988866D02*
X137729636Y-65988866D01*
X138920112Y-66322200D02*
X139062969Y-66369819D01*
X139062969Y-66369819D02*
X139301064Y-66369819D01*
X139301064Y-66369819D02*
X139396302Y-66322200D01*
X139396302Y-66322200D02*
X139443921Y-66274580D01*
X139443921Y-66274580D02*
X139491540Y-66179342D01*
X139491540Y-66179342D02*
X139491540Y-66084104D01*
X139491540Y-66084104D02*
X139443921Y-65988866D01*
X139443921Y-65988866D02*
X139396302Y-65941247D01*
X139396302Y-65941247D02*
X139301064Y-65893628D01*
X139301064Y-65893628D02*
X139110588Y-65846009D01*
X139110588Y-65846009D02*
X139015350Y-65798390D01*
X139015350Y-65798390D02*
X138967731Y-65750771D01*
X138967731Y-65750771D02*
X138920112Y-65655533D01*
X138920112Y-65655533D02*
X138920112Y-65560295D01*
X138920112Y-65560295D02*
X138967731Y-65465057D01*
X138967731Y-65465057D02*
X139015350Y-65417438D01*
X139015350Y-65417438D02*
X139110588Y-65369819D01*
X139110588Y-65369819D02*
X139348683Y-65369819D01*
X139348683Y-65369819D02*
X139491540Y-65417438D01*
X139777255Y-65369819D02*
X140348683Y-65369819D01*
X140062969Y-66369819D02*
X140062969Y-65369819D01*
X141396303Y-66322200D02*
X141539160Y-66369819D01*
X141539160Y-66369819D02*
X141777255Y-66369819D01*
X141777255Y-66369819D02*
X141872493Y-66322200D01*
X141872493Y-66322200D02*
X141920112Y-66274580D01*
X141920112Y-66274580D02*
X141967731Y-66179342D01*
X141967731Y-66179342D02*
X141967731Y-66084104D01*
X141967731Y-66084104D02*
X141920112Y-65988866D01*
X141920112Y-65988866D02*
X141872493Y-65941247D01*
X141872493Y-65941247D02*
X141777255Y-65893628D01*
X141777255Y-65893628D02*
X141586779Y-65846009D01*
X141586779Y-65846009D02*
X141491541Y-65798390D01*
X141491541Y-65798390D02*
X141443922Y-65750771D01*
X141443922Y-65750771D02*
X141396303Y-65655533D01*
X141396303Y-65655533D02*
X141396303Y-65560295D01*
X141396303Y-65560295D02*
X141443922Y-65465057D01*
X141443922Y-65465057D02*
X141491541Y-65417438D01*
X141491541Y-65417438D02*
X141586779Y-65369819D01*
X141586779Y-65369819D02*
X141824874Y-65369819D01*
X141824874Y-65369819D02*
X141967731Y-65417438D01*
X142253446Y-65703152D02*
X142634398Y-65703152D01*
X142396303Y-65369819D02*
X142396303Y-66226961D01*
X142396303Y-66226961D02*
X142443922Y-66322200D01*
X142443922Y-66322200D02*
X142539160Y-66369819D01*
X142539160Y-66369819D02*
X142634398Y-66369819D01*
X143396303Y-66369819D02*
X143396303Y-65846009D01*
X143396303Y-65846009D02*
X143348684Y-65750771D01*
X143348684Y-65750771D02*
X143253446Y-65703152D01*
X143253446Y-65703152D02*
X143062970Y-65703152D01*
X143062970Y-65703152D02*
X142967732Y-65750771D01*
X143396303Y-66322200D02*
X143301065Y-66369819D01*
X143301065Y-66369819D02*
X143062970Y-66369819D01*
X143062970Y-66369819D02*
X142967732Y-66322200D01*
X142967732Y-66322200D02*
X142920113Y-66226961D01*
X142920113Y-66226961D02*
X142920113Y-66131723D01*
X142920113Y-66131723D02*
X142967732Y-66036485D01*
X142967732Y-66036485D02*
X143062970Y-65988866D01*
X143062970Y-65988866D02*
X143301065Y-65988866D01*
X143301065Y-65988866D02*
X143396303Y-65941247D01*
X143872494Y-66369819D02*
X143872494Y-65703152D01*
X143872494Y-65893628D02*
X143920113Y-65798390D01*
X143920113Y-65798390D02*
X143967732Y-65750771D01*
X143967732Y-65750771D02*
X144062970Y-65703152D01*
X144062970Y-65703152D02*
X144158208Y-65703152D01*
X144348685Y-65703152D02*
X144729637Y-65703152D01*
X144491542Y-65369819D02*
X144491542Y-66226961D01*
X144491542Y-66226961D02*
X144539161Y-66322200D01*
X144539161Y-66322200D02*
X144634399Y-66369819D01*
X144634399Y-66369819D02*
X144729637Y-66369819D01*
X145443923Y-66322200D02*
X145348685Y-66369819D01*
X145348685Y-66369819D02*
X145158209Y-66369819D01*
X145158209Y-66369819D02*
X145062971Y-66322200D01*
X145062971Y-66322200D02*
X145015352Y-66226961D01*
X145015352Y-66226961D02*
X145015352Y-65846009D01*
X145015352Y-65846009D02*
X145062971Y-65750771D01*
X145062971Y-65750771D02*
X145158209Y-65703152D01*
X145158209Y-65703152D02*
X145348685Y-65703152D01*
X145348685Y-65703152D02*
X145443923Y-65750771D01*
X145443923Y-65750771D02*
X145491542Y-65846009D01*
X145491542Y-65846009D02*
X145491542Y-65941247D01*
X145491542Y-65941247D02*
X145015352Y-66036485D01*
X145920114Y-66369819D02*
X145920114Y-65703152D01*
X145920114Y-65893628D02*
X145967733Y-65798390D01*
X145967733Y-65798390D02*
X146015352Y-65750771D01*
X146015352Y-65750771D02*
X146110590Y-65703152D01*
X146110590Y-65703152D02*
X146205828Y-65703152D01*
X147301067Y-66369819D02*
X147301067Y-65369819D01*
X147872495Y-66369819D02*
X147443924Y-65798390D01*
X147872495Y-65369819D02*
X147301067Y-65941247D01*
X148301067Y-66369819D02*
X148301067Y-65703152D01*
X148301067Y-65369819D02*
X148253448Y-65417438D01*
X148253448Y-65417438D02*
X148301067Y-65465057D01*
X148301067Y-65465057D02*
X148348686Y-65417438D01*
X148348686Y-65417438D02*
X148301067Y-65369819D01*
X148301067Y-65369819D02*
X148301067Y-65465057D01*
X148634400Y-65703152D02*
X149015352Y-65703152D01*
X148777257Y-65369819D02*
X148777257Y-66226961D01*
X148777257Y-66226961D02*
X148824876Y-66322200D01*
X148824876Y-66322200D02*
X148920114Y-66369819D01*
X148920114Y-66369819D02*
X149015352Y-66369819D01*
D11*
X147245613Y-67908093D02*
X147245613Y-67208093D01*
X147245613Y-67208093D02*
X147512280Y-67208093D01*
X147512280Y-67208093D02*
X147578947Y-67241426D01*
X147578947Y-67241426D02*
X147612280Y-67274760D01*
X147612280Y-67274760D02*
X147645613Y-67341426D01*
X147645613Y-67341426D02*
X147645613Y-67441426D01*
X147645613Y-67441426D02*
X147612280Y-67508093D01*
X147612280Y-67508093D02*
X147578947Y-67541426D01*
X147578947Y-67541426D02*
X147512280Y-67574760D01*
X147512280Y-67574760D02*
X147245613Y-67574760D01*
X147912280Y-67708093D02*
X148245613Y-67708093D01*
X147845613Y-67908093D02*
X148078947Y-67208093D01*
X148078947Y-67208093D02*
X148312280Y-67908093D01*
X148912280Y-67908093D02*
X148512280Y-67908093D01*
X148712280Y-67908093D02*
X148712280Y-67208093D01*
X148712280Y-67208093D02*
X148645613Y-67308093D01*
X148645613Y-67308093D02*
X148578947Y-67374760D01*
X148578947Y-67374760D02*
X148512280Y-67408093D01*
X149512280Y-67441426D02*
X149512280Y-67908093D01*
X149345614Y-67174760D02*
X149178947Y-67674760D01*
X149178947Y-67674760D02*
X149612280Y-67674760D01*
X148958093Y-88071053D02*
X148958093Y-87637719D01*
X148958093Y-87637719D02*
X149224760Y-87871053D01*
X149224760Y-87871053D02*
X149224760Y-87771053D01*
X149224760Y-87771053D02*
X149258093Y-87704386D01*
X149258093Y-87704386D02*
X149291426Y-87671053D01*
X149291426Y-87671053D02*
X149358093Y-87637719D01*
X149358093Y-87637719D02*
X149524760Y-87637719D01*
X149524760Y-87637719D02*
X149591426Y-87671053D01*
X149591426Y-87671053D02*
X149624760Y-87704386D01*
X149624760Y-87704386D02*
X149658093Y-87771053D01*
X149658093Y-87771053D02*
X149658093Y-87971053D01*
X149658093Y-87971053D02*
X149624760Y-88037719D01*
X149624760Y-88037719D02*
X149591426Y-88071053D01*
X148958093Y-87437719D02*
X149658093Y-87204386D01*
X149658093Y-87204386D02*
X148958093Y-86971052D01*
X148958093Y-86804386D02*
X148958093Y-86371052D01*
X148958093Y-86371052D02*
X149224760Y-86604386D01*
X149224760Y-86604386D02*
X149224760Y-86504386D01*
X149224760Y-86504386D02*
X149258093Y-86437719D01*
X149258093Y-86437719D02*
X149291426Y-86404386D01*
X149291426Y-86404386D02*
X149358093Y-86371052D01*
X149358093Y-86371052D02*
X149524760Y-86371052D01*
X149524760Y-86371052D02*
X149591426Y-86404386D01*
X149591426Y-86404386D02*
X149624760Y-86437719D01*
X149624760Y-86437719D02*
X149658093Y-86504386D01*
X149658093Y-86504386D02*
X149658093Y-86704386D01*
X149658093Y-86704386D02*
X149624760Y-86771052D01*
X149624760Y-86771052D02*
X149591426Y-86804386D01*
X148162280Y-75158093D02*
X148162280Y-74458093D01*
X148162280Y-74458093D02*
X148428947Y-74458093D01*
X148428947Y-74458093D02*
X148495614Y-74491426D01*
X148495614Y-74491426D02*
X148528947Y-74524760D01*
X148528947Y-74524760D02*
X148562280Y-74591426D01*
X148562280Y-74591426D02*
X148562280Y-74691426D01*
X148562280Y-74691426D02*
X148528947Y-74758093D01*
X148528947Y-74758093D02*
X148495614Y-74791426D01*
X148495614Y-74791426D02*
X148428947Y-74824760D01*
X148428947Y-74824760D02*
X148162280Y-74824760D01*
X148828947Y-74958093D02*
X149162280Y-74958093D01*
X148762280Y-75158093D02*
X148995614Y-74458093D01*
X148995614Y-74458093D02*
X149228947Y-75158093D01*
X149495614Y-75158093D02*
X149628947Y-75158093D01*
X149628947Y-75158093D02*
X149695614Y-75124760D01*
X149695614Y-75124760D02*
X149728947Y-75091426D01*
X149728947Y-75091426D02*
X149795614Y-74991426D01*
X149795614Y-74991426D02*
X149828947Y-74858093D01*
X149828947Y-74858093D02*
X149828947Y-74591426D01*
X149828947Y-74591426D02*
X149795614Y-74524760D01*
X149795614Y-74524760D02*
X149762280Y-74491426D01*
X149762280Y-74491426D02*
X149695614Y-74458093D01*
X149695614Y-74458093D02*
X149562280Y-74458093D01*
X149562280Y-74458093D02*
X149495614Y-74491426D01*
X149495614Y-74491426D02*
X149462280Y-74524760D01*
X149462280Y-74524760D02*
X149428947Y-74591426D01*
X149428947Y-74591426D02*
X149428947Y-74758093D01*
X149428947Y-74758093D02*
X149462280Y-74824760D01*
X149462280Y-74824760D02*
X149495614Y-74858093D01*
X149495614Y-74858093D02*
X149562280Y-74891426D01*
X149562280Y-74891426D02*
X149695614Y-74891426D01*
X149695614Y-74891426D02*
X149762280Y-74858093D01*
X149762280Y-74858093D02*
X149795614Y-74824760D01*
X149795614Y-74824760D02*
X149828947Y-74758093D01*
X134112280Y-84491426D02*
X134045613Y-84458093D01*
X134045613Y-84458093D02*
X133945613Y-84458093D01*
X133945613Y-84458093D02*
X133845613Y-84491426D01*
X133845613Y-84491426D02*
X133778947Y-84558093D01*
X133778947Y-84558093D02*
X133745613Y-84624760D01*
X133745613Y-84624760D02*
X133712280Y-84758093D01*
X133712280Y-84758093D02*
X133712280Y-84858093D01*
X133712280Y-84858093D02*
X133745613Y-84991426D01*
X133745613Y-84991426D02*
X133778947Y-85058093D01*
X133778947Y-85058093D02*
X133845613Y-85124760D01*
X133845613Y-85124760D02*
X133945613Y-85158093D01*
X133945613Y-85158093D02*
X134012280Y-85158093D01*
X134012280Y-85158093D02*
X134112280Y-85124760D01*
X134112280Y-85124760D02*
X134145613Y-85091426D01*
X134145613Y-85091426D02*
X134145613Y-84858093D01*
X134145613Y-84858093D02*
X134012280Y-84858093D01*
X134445613Y-85158093D02*
X134445613Y-84458093D01*
X134445613Y-84458093D02*
X134845613Y-85158093D01*
X134845613Y-85158093D02*
X134845613Y-84458093D01*
X135178946Y-85158093D02*
X135178946Y-84458093D01*
X135178946Y-84458093D02*
X135345613Y-84458093D01*
X135345613Y-84458093D02*
X135445613Y-84491426D01*
X135445613Y-84491426D02*
X135512280Y-84558093D01*
X135512280Y-84558093D02*
X135545613Y-84624760D01*
X135545613Y-84624760D02*
X135578946Y-84758093D01*
X135578946Y-84758093D02*
X135578946Y-84858093D01*
X135578946Y-84858093D02*
X135545613Y-84991426D01*
X135545613Y-84991426D02*
X135512280Y-85058093D01*
X135512280Y-85058093D02*
X135445613Y-85124760D01*
X135445613Y-85124760D02*
X135345613Y-85158093D01*
X135345613Y-85158093D02*
X135178946Y-85158093D01*
X147495613Y-69908093D02*
X147495613Y-69208093D01*
X147495613Y-69208093D02*
X147762280Y-69208093D01*
X147762280Y-69208093D02*
X147828947Y-69241426D01*
X147828947Y-69241426D02*
X147862280Y-69274760D01*
X147862280Y-69274760D02*
X147895613Y-69341426D01*
X147895613Y-69341426D02*
X147895613Y-69441426D01*
X147895613Y-69441426D02*
X147862280Y-69508093D01*
X147862280Y-69508093D02*
X147828947Y-69541426D01*
X147828947Y-69541426D02*
X147762280Y-69574760D01*
X147762280Y-69574760D02*
X147495613Y-69574760D01*
X148162280Y-69708093D02*
X148495613Y-69708093D01*
X148095613Y-69908093D02*
X148328947Y-69208093D01*
X148328947Y-69208093D02*
X148562280Y-69908093D01*
X149162280Y-69908093D02*
X148762280Y-69908093D01*
X148962280Y-69908093D02*
X148962280Y-69208093D01*
X148962280Y-69208093D02*
X148895613Y-69308093D01*
X148895613Y-69308093D02*
X148828947Y-69374760D01*
X148828947Y-69374760D02*
X148762280Y-69408093D01*
X149395614Y-69208093D02*
X149828947Y-69208093D01*
X149828947Y-69208093D02*
X149595614Y-69474760D01*
X149595614Y-69474760D02*
X149695614Y-69474760D01*
X149695614Y-69474760D02*
X149762280Y-69508093D01*
X149762280Y-69508093D02*
X149795614Y-69541426D01*
X149795614Y-69541426D02*
X149828947Y-69608093D01*
X149828947Y-69608093D02*
X149828947Y-69774760D01*
X149828947Y-69774760D02*
X149795614Y-69841426D01*
X149795614Y-69841426D02*
X149762280Y-69874760D01*
X149762280Y-69874760D02*
X149695614Y-69908093D01*
X149695614Y-69908093D02*
X149495614Y-69908093D01*
X149495614Y-69908093D02*
X149428947Y-69874760D01*
X149428947Y-69874760D02*
X149395614Y-69841426D01*
X134758093Y-70754386D02*
X134058093Y-70754386D01*
X134058093Y-70754386D02*
X134758093Y-70354386D01*
X134758093Y-70354386D02*
X134058093Y-70354386D01*
X134758093Y-69621053D02*
X134424760Y-69854386D01*
X134758093Y-70021053D02*
X134058093Y-70021053D01*
X134058093Y-70021053D02*
X134058093Y-69754386D01*
X134058093Y-69754386D02*
X134091426Y-69687720D01*
X134091426Y-69687720D02*
X134124760Y-69654386D01*
X134124760Y-69654386D02*
X134191426Y-69621053D01*
X134191426Y-69621053D02*
X134291426Y-69621053D01*
X134291426Y-69621053D02*
X134358093Y-69654386D01*
X134358093Y-69654386D02*
X134391426Y-69687720D01*
X134391426Y-69687720D02*
X134424760Y-69754386D01*
X134424760Y-69754386D02*
X134424760Y-70021053D01*
X134724760Y-69354386D02*
X134758093Y-69254386D01*
X134758093Y-69254386D02*
X134758093Y-69087720D01*
X134758093Y-69087720D02*
X134724760Y-69021053D01*
X134724760Y-69021053D02*
X134691426Y-68987720D01*
X134691426Y-68987720D02*
X134624760Y-68954386D01*
X134624760Y-68954386D02*
X134558093Y-68954386D01*
X134558093Y-68954386D02*
X134491426Y-68987720D01*
X134491426Y-68987720D02*
X134458093Y-69021053D01*
X134458093Y-69021053D02*
X134424760Y-69087720D01*
X134424760Y-69087720D02*
X134391426Y-69221053D01*
X134391426Y-69221053D02*
X134358093Y-69287720D01*
X134358093Y-69287720D02*
X134324760Y-69321053D01*
X134324760Y-69321053D02*
X134258093Y-69354386D01*
X134258093Y-69354386D02*
X134191426Y-69354386D01*
X134191426Y-69354386D02*
X134124760Y-69321053D01*
X134124760Y-69321053D02*
X134091426Y-69287720D01*
X134091426Y-69287720D02*
X134058093Y-69221053D01*
X134058093Y-69221053D02*
X134058093Y-69054386D01*
X134058093Y-69054386D02*
X134091426Y-68954386D01*
X134058093Y-68754386D02*
X134058093Y-68354386D01*
X134758093Y-68554386D02*
X134058093Y-68554386D01*
X133745613Y-74908093D02*
X133745613Y-74208093D01*
X133745613Y-74208093D02*
X134012280Y-74208093D01*
X134012280Y-74208093D02*
X134078947Y-74241426D01*
X134078947Y-74241426D02*
X134112280Y-74274760D01*
X134112280Y-74274760D02*
X134145613Y-74341426D01*
X134145613Y-74341426D02*
X134145613Y-74441426D01*
X134145613Y-74441426D02*
X134112280Y-74508093D01*
X134112280Y-74508093D02*
X134078947Y-74541426D01*
X134078947Y-74541426D02*
X134012280Y-74574760D01*
X134012280Y-74574760D02*
X133745613Y-74574760D01*
X134412280Y-74708093D02*
X134745613Y-74708093D01*
X134345613Y-74908093D02*
X134578947Y-74208093D01*
X134578947Y-74208093D02*
X134812280Y-74908093D01*
X135412280Y-74908093D02*
X135012280Y-74908093D01*
X135212280Y-74908093D02*
X135212280Y-74208093D01*
X135212280Y-74208093D02*
X135145613Y-74308093D01*
X135145613Y-74308093D02*
X135078947Y-74374760D01*
X135078947Y-74374760D02*
X135012280Y-74408093D01*
X131745613Y-99658093D02*
X131745613Y-98958093D01*
X131745613Y-98958093D02*
X132145613Y-99658093D01*
X132145613Y-99658093D02*
X132145613Y-98958093D01*
X132878946Y-99658093D02*
X132645613Y-99324760D01*
X132478946Y-99658093D02*
X132478946Y-98958093D01*
X132478946Y-98958093D02*
X132745613Y-98958093D01*
X132745613Y-98958093D02*
X132812280Y-98991426D01*
X132812280Y-98991426D02*
X132845613Y-99024760D01*
X132845613Y-99024760D02*
X132878946Y-99091426D01*
X132878946Y-99091426D02*
X132878946Y-99191426D01*
X132878946Y-99191426D02*
X132845613Y-99258093D01*
X132845613Y-99258093D02*
X132812280Y-99291426D01*
X132812280Y-99291426D02*
X132745613Y-99324760D01*
X132745613Y-99324760D02*
X132478946Y-99324760D01*
X133145613Y-99624760D02*
X133245613Y-99658093D01*
X133245613Y-99658093D02*
X133412280Y-99658093D01*
X133412280Y-99658093D02*
X133478946Y-99624760D01*
X133478946Y-99624760D02*
X133512280Y-99591426D01*
X133512280Y-99591426D02*
X133545613Y-99524760D01*
X133545613Y-99524760D02*
X133545613Y-99458093D01*
X133545613Y-99458093D02*
X133512280Y-99391426D01*
X133512280Y-99391426D02*
X133478946Y-99358093D01*
X133478946Y-99358093D02*
X133412280Y-99324760D01*
X133412280Y-99324760D02*
X133278946Y-99291426D01*
X133278946Y-99291426D02*
X133212280Y-99258093D01*
X133212280Y-99258093D02*
X133178946Y-99224760D01*
X133178946Y-99224760D02*
X133145613Y-99158093D01*
X133145613Y-99158093D02*
X133145613Y-99091426D01*
X133145613Y-99091426D02*
X133178946Y-99024760D01*
X133178946Y-99024760D02*
X133212280Y-98991426D01*
X133212280Y-98991426D02*
X133278946Y-98958093D01*
X133278946Y-98958093D02*
X133445613Y-98958093D01*
X133445613Y-98958093D02*
X133545613Y-98991426D01*
X133745613Y-98958093D02*
X134145613Y-98958093D01*
X133945613Y-99658093D02*
X133945613Y-98958093D01*
X133745613Y-72408093D02*
X133745613Y-71708093D01*
X133745613Y-71708093D02*
X134012280Y-71708093D01*
X134012280Y-71708093D02*
X134078947Y-71741426D01*
X134078947Y-71741426D02*
X134112280Y-71774760D01*
X134112280Y-71774760D02*
X134145613Y-71841426D01*
X134145613Y-71841426D02*
X134145613Y-71941426D01*
X134145613Y-71941426D02*
X134112280Y-72008093D01*
X134112280Y-72008093D02*
X134078947Y-72041426D01*
X134078947Y-72041426D02*
X134012280Y-72074760D01*
X134012280Y-72074760D02*
X133745613Y-72074760D01*
X134412280Y-72208093D02*
X134745613Y-72208093D01*
X134345613Y-72408093D02*
X134578947Y-71708093D01*
X134578947Y-71708093D02*
X134812280Y-72408093D01*
X135178947Y-71708093D02*
X135245613Y-71708093D01*
X135245613Y-71708093D02*
X135312280Y-71741426D01*
X135312280Y-71741426D02*
X135345613Y-71774760D01*
X135345613Y-71774760D02*
X135378947Y-71841426D01*
X135378947Y-71841426D02*
X135412280Y-71974760D01*
X135412280Y-71974760D02*
X135412280Y-72141426D01*
X135412280Y-72141426D02*
X135378947Y-72274760D01*
X135378947Y-72274760D02*
X135345613Y-72341426D01*
X135345613Y-72341426D02*
X135312280Y-72374760D01*
X135312280Y-72374760D02*
X135245613Y-72408093D01*
X135245613Y-72408093D02*
X135178947Y-72408093D01*
X135178947Y-72408093D02*
X135112280Y-72374760D01*
X135112280Y-72374760D02*
X135078947Y-72341426D01*
X135078947Y-72341426D02*
X135045613Y-72274760D01*
X135045613Y-72274760D02*
X135012280Y-72141426D01*
X135012280Y-72141426D02*
X135012280Y-71974760D01*
X135012280Y-71974760D02*
X135045613Y-71841426D01*
X135045613Y-71841426D02*
X135078947Y-71774760D01*
X135078947Y-71774760D02*
X135112280Y-71741426D01*
X135112280Y-71741426D02*
X135178947Y-71708093D01*
X148062280Y-77658093D02*
X148062280Y-76958093D01*
X148062280Y-76958093D02*
X148328947Y-76958093D01*
X148328947Y-76958093D02*
X148395614Y-76991426D01*
X148395614Y-76991426D02*
X148428947Y-77024760D01*
X148428947Y-77024760D02*
X148462280Y-77091426D01*
X148462280Y-77091426D02*
X148462280Y-77191426D01*
X148462280Y-77191426D02*
X148428947Y-77258093D01*
X148428947Y-77258093D02*
X148395614Y-77291426D01*
X148395614Y-77291426D02*
X148328947Y-77324760D01*
X148328947Y-77324760D02*
X148062280Y-77324760D01*
X148995614Y-77291426D02*
X149095614Y-77324760D01*
X149095614Y-77324760D02*
X149128947Y-77358093D01*
X149128947Y-77358093D02*
X149162280Y-77424760D01*
X149162280Y-77424760D02*
X149162280Y-77524760D01*
X149162280Y-77524760D02*
X149128947Y-77591426D01*
X149128947Y-77591426D02*
X149095614Y-77624760D01*
X149095614Y-77624760D02*
X149028947Y-77658093D01*
X149028947Y-77658093D02*
X148762280Y-77658093D01*
X148762280Y-77658093D02*
X148762280Y-76958093D01*
X148762280Y-76958093D02*
X148995614Y-76958093D01*
X148995614Y-76958093D02*
X149062280Y-76991426D01*
X149062280Y-76991426D02*
X149095614Y-77024760D01*
X149095614Y-77024760D02*
X149128947Y-77091426D01*
X149128947Y-77091426D02*
X149128947Y-77158093D01*
X149128947Y-77158093D02*
X149095614Y-77224760D01*
X149095614Y-77224760D02*
X149062280Y-77258093D01*
X149062280Y-77258093D02*
X148995614Y-77291426D01*
X148995614Y-77291426D02*
X148762280Y-77291426D01*
X149828947Y-77658093D02*
X149428947Y-77658093D01*
X149628947Y-77658093D02*
X149628947Y-76958093D01*
X149628947Y-76958093D02*
X149562280Y-77058093D01*
X149562280Y-77058093D02*
X149495614Y-77124760D01*
X149495614Y-77124760D02*
X149428947Y-77158093D01*
X133745613Y-82658093D02*
X133745613Y-81958093D01*
X133745613Y-81958093D02*
X134012280Y-81958093D01*
X134012280Y-81958093D02*
X134078947Y-81991426D01*
X134078947Y-81991426D02*
X134112280Y-82024760D01*
X134112280Y-82024760D02*
X134145613Y-82091426D01*
X134145613Y-82091426D02*
X134145613Y-82191426D01*
X134145613Y-82191426D02*
X134112280Y-82258093D01*
X134112280Y-82258093D02*
X134078947Y-82291426D01*
X134078947Y-82291426D02*
X134012280Y-82324760D01*
X134012280Y-82324760D02*
X133745613Y-82324760D01*
X134412280Y-82458093D02*
X134745613Y-82458093D01*
X134345613Y-82658093D02*
X134578947Y-81958093D01*
X134578947Y-81958093D02*
X134812280Y-82658093D01*
X135345613Y-82191426D02*
X135345613Y-82658093D01*
X135178947Y-81924760D02*
X135012280Y-82424760D01*
X135012280Y-82424760D02*
X135445613Y-82424760D01*
X148162280Y-82658093D02*
X148162280Y-81958093D01*
X148162280Y-81958093D02*
X148428947Y-81958093D01*
X148428947Y-81958093D02*
X148495614Y-81991426D01*
X148495614Y-81991426D02*
X148528947Y-82024760D01*
X148528947Y-82024760D02*
X148562280Y-82091426D01*
X148562280Y-82091426D02*
X148562280Y-82191426D01*
X148562280Y-82191426D02*
X148528947Y-82258093D01*
X148528947Y-82258093D02*
X148495614Y-82291426D01*
X148495614Y-82291426D02*
X148428947Y-82324760D01*
X148428947Y-82324760D02*
X148162280Y-82324760D01*
X148828947Y-82458093D02*
X149162280Y-82458093D01*
X148762280Y-82658093D02*
X148995614Y-81958093D01*
X148995614Y-81958093D02*
X149228947Y-82658093D01*
X149762280Y-81958093D02*
X149628947Y-81958093D01*
X149628947Y-81958093D02*
X149562280Y-81991426D01*
X149562280Y-81991426D02*
X149528947Y-82024760D01*
X149528947Y-82024760D02*
X149462280Y-82124760D01*
X149462280Y-82124760D02*
X149428947Y-82258093D01*
X149428947Y-82258093D02*
X149428947Y-82524760D01*
X149428947Y-82524760D02*
X149462280Y-82591426D01*
X149462280Y-82591426D02*
X149495614Y-82624760D01*
X149495614Y-82624760D02*
X149562280Y-82658093D01*
X149562280Y-82658093D02*
X149695614Y-82658093D01*
X149695614Y-82658093D02*
X149762280Y-82624760D01*
X149762280Y-82624760D02*
X149795614Y-82591426D01*
X149795614Y-82591426D02*
X149828947Y-82524760D01*
X149828947Y-82524760D02*
X149828947Y-82358093D01*
X149828947Y-82358093D02*
X149795614Y-82291426D01*
X149795614Y-82291426D02*
X149762280Y-82258093D01*
X149762280Y-82258093D02*
X149695614Y-82224760D01*
X149695614Y-82224760D02*
X149562280Y-82224760D01*
X149562280Y-82224760D02*
X149495614Y-82258093D01*
X149495614Y-82258093D02*
X149462280Y-82291426D01*
X149462280Y-82291426D02*
X149428947Y-82358093D01*
X147495613Y-72408093D02*
X147495613Y-71708093D01*
X147495613Y-71708093D02*
X147762280Y-71708093D01*
X147762280Y-71708093D02*
X147828947Y-71741426D01*
X147828947Y-71741426D02*
X147862280Y-71774760D01*
X147862280Y-71774760D02*
X147895613Y-71841426D01*
X147895613Y-71841426D02*
X147895613Y-71941426D01*
X147895613Y-71941426D02*
X147862280Y-72008093D01*
X147862280Y-72008093D02*
X147828947Y-72041426D01*
X147828947Y-72041426D02*
X147762280Y-72074760D01*
X147762280Y-72074760D02*
X147495613Y-72074760D01*
X148162280Y-72208093D02*
X148495613Y-72208093D01*
X148095613Y-72408093D02*
X148328947Y-71708093D01*
X148328947Y-71708093D02*
X148562280Y-72408093D01*
X149162280Y-72408093D02*
X148762280Y-72408093D01*
X148962280Y-72408093D02*
X148962280Y-71708093D01*
X148962280Y-71708093D02*
X148895613Y-71808093D01*
X148895613Y-71808093D02*
X148828947Y-71874760D01*
X148828947Y-71874760D02*
X148762280Y-71908093D01*
X149595614Y-71708093D02*
X149662280Y-71708093D01*
X149662280Y-71708093D02*
X149728947Y-71741426D01*
X149728947Y-71741426D02*
X149762280Y-71774760D01*
X149762280Y-71774760D02*
X149795614Y-71841426D01*
X149795614Y-71841426D02*
X149828947Y-71974760D01*
X149828947Y-71974760D02*
X149828947Y-72141426D01*
X149828947Y-72141426D02*
X149795614Y-72274760D01*
X149795614Y-72274760D02*
X149762280Y-72341426D01*
X149762280Y-72341426D02*
X149728947Y-72374760D01*
X149728947Y-72374760D02*
X149662280Y-72408093D01*
X149662280Y-72408093D02*
X149595614Y-72408093D01*
X149595614Y-72408093D02*
X149528947Y-72374760D01*
X149528947Y-72374760D02*
X149495614Y-72341426D01*
X149495614Y-72341426D02*
X149462280Y-72274760D01*
X149462280Y-72274760D02*
X149428947Y-72141426D01*
X149428947Y-72141426D02*
X149428947Y-71974760D01*
X149428947Y-71974760D02*
X149462280Y-71841426D01*
X149462280Y-71841426D02*
X149495614Y-71774760D01*
X149495614Y-71774760D02*
X149528947Y-71741426D01*
X149528947Y-71741426D02*
X149595614Y-71708093D01*
X149228947Y-99291426D02*
X149328947Y-99324760D01*
X149328947Y-99324760D02*
X149362280Y-99358093D01*
X149362280Y-99358093D02*
X149395613Y-99424760D01*
X149395613Y-99424760D02*
X149395613Y-99524760D01*
X149395613Y-99524760D02*
X149362280Y-99591426D01*
X149362280Y-99591426D02*
X149328947Y-99624760D01*
X149328947Y-99624760D02*
X149262280Y-99658093D01*
X149262280Y-99658093D02*
X148995613Y-99658093D01*
X148995613Y-99658093D02*
X148995613Y-98958093D01*
X148995613Y-98958093D02*
X149228947Y-98958093D01*
X149228947Y-98958093D02*
X149295613Y-98991426D01*
X149295613Y-98991426D02*
X149328947Y-99024760D01*
X149328947Y-99024760D02*
X149362280Y-99091426D01*
X149362280Y-99091426D02*
X149362280Y-99158093D01*
X149362280Y-99158093D02*
X149328947Y-99224760D01*
X149328947Y-99224760D02*
X149295613Y-99258093D01*
X149295613Y-99258093D02*
X149228947Y-99291426D01*
X149228947Y-99291426D02*
X148995613Y-99291426D01*
X149828947Y-98958093D02*
X149962280Y-98958093D01*
X149962280Y-98958093D02*
X150028947Y-98991426D01*
X150028947Y-98991426D02*
X150095613Y-99058093D01*
X150095613Y-99058093D02*
X150128947Y-99191426D01*
X150128947Y-99191426D02*
X150128947Y-99424760D01*
X150128947Y-99424760D02*
X150095613Y-99558093D01*
X150095613Y-99558093D02*
X150028947Y-99624760D01*
X150028947Y-99624760D02*
X149962280Y-99658093D01*
X149962280Y-99658093D02*
X149828947Y-99658093D01*
X149828947Y-99658093D02*
X149762280Y-99624760D01*
X149762280Y-99624760D02*
X149695613Y-99558093D01*
X149695613Y-99558093D02*
X149662280Y-99424760D01*
X149662280Y-99424760D02*
X149662280Y-99191426D01*
X149662280Y-99191426D02*
X149695613Y-99058093D01*
X149695613Y-99058093D02*
X149762280Y-98991426D01*
X149762280Y-98991426D02*
X149828947Y-98958093D01*
X150562280Y-98958093D02*
X150695613Y-98958093D01*
X150695613Y-98958093D02*
X150762280Y-98991426D01*
X150762280Y-98991426D02*
X150828946Y-99058093D01*
X150828946Y-99058093D02*
X150862280Y-99191426D01*
X150862280Y-99191426D02*
X150862280Y-99424760D01*
X150862280Y-99424760D02*
X150828946Y-99558093D01*
X150828946Y-99558093D02*
X150762280Y-99624760D01*
X150762280Y-99624760D02*
X150695613Y-99658093D01*
X150695613Y-99658093D02*
X150562280Y-99658093D01*
X150562280Y-99658093D02*
X150495613Y-99624760D01*
X150495613Y-99624760D02*
X150428946Y-99558093D01*
X150428946Y-99558093D02*
X150395613Y-99424760D01*
X150395613Y-99424760D02*
X150395613Y-99191426D01*
X150395613Y-99191426D02*
X150428946Y-99058093D01*
X150428946Y-99058093D02*
X150495613Y-98991426D01*
X150495613Y-98991426D02*
X150562280Y-98958093D01*
X151062279Y-98958093D02*
X151462279Y-98958093D01*
X151262279Y-99658093D02*
X151262279Y-98958093D01*
X151828946Y-98958093D02*
X151895612Y-98958093D01*
X151895612Y-98958093D02*
X151962279Y-98991426D01*
X151962279Y-98991426D02*
X151995612Y-99024760D01*
X151995612Y-99024760D02*
X152028946Y-99091426D01*
X152028946Y-99091426D02*
X152062279Y-99224760D01*
X152062279Y-99224760D02*
X152062279Y-99391426D01*
X152062279Y-99391426D02*
X152028946Y-99524760D01*
X152028946Y-99524760D02*
X151995612Y-99591426D01*
X151995612Y-99591426D02*
X151962279Y-99624760D01*
X151962279Y-99624760D02*
X151895612Y-99658093D01*
X151895612Y-99658093D02*
X151828946Y-99658093D01*
X151828946Y-99658093D02*
X151762279Y-99624760D01*
X151762279Y-99624760D02*
X151728946Y-99591426D01*
X151728946Y-99591426D02*
X151695612Y-99524760D01*
X151695612Y-99524760D02*
X151662279Y-99391426D01*
X151662279Y-99391426D02*
X151662279Y-99224760D01*
X151662279Y-99224760D02*
X151695612Y-99091426D01*
X151695612Y-99091426D02*
X151728946Y-99024760D01*
X151728946Y-99024760D02*
X151762279Y-98991426D01*
X151762279Y-98991426D02*
X151828946Y-98958093D01*
X148162280Y-80158093D02*
X148162280Y-79458093D01*
X148162280Y-79458093D02*
X148428947Y-79458093D01*
X148428947Y-79458093D02*
X148495614Y-79491426D01*
X148495614Y-79491426D02*
X148528947Y-79524760D01*
X148528947Y-79524760D02*
X148562280Y-79591426D01*
X148562280Y-79591426D02*
X148562280Y-79691426D01*
X148562280Y-79691426D02*
X148528947Y-79758093D01*
X148528947Y-79758093D02*
X148495614Y-79791426D01*
X148495614Y-79791426D02*
X148428947Y-79824760D01*
X148428947Y-79824760D02*
X148162280Y-79824760D01*
X148828947Y-79958093D02*
X149162280Y-79958093D01*
X148762280Y-80158093D02*
X148995614Y-79458093D01*
X148995614Y-79458093D02*
X149228947Y-80158093D01*
X149395614Y-79458093D02*
X149862280Y-79458093D01*
X149862280Y-79458093D02*
X149562280Y-80158093D01*
X133745613Y-77658093D02*
X133745613Y-76958093D01*
X133745613Y-76958093D02*
X134012280Y-76958093D01*
X134012280Y-76958093D02*
X134078947Y-76991426D01*
X134078947Y-76991426D02*
X134112280Y-77024760D01*
X134112280Y-77024760D02*
X134145613Y-77091426D01*
X134145613Y-77091426D02*
X134145613Y-77191426D01*
X134145613Y-77191426D02*
X134112280Y-77258093D01*
X134112280Y-77258093D02*
X134078947Y-77291426D01*
X134078947Y-77291426D02*
X134012280Y-77324760D01*
X134012280Y-77324760D02*
X133745613Y-77324760D01*
X134412280Y-77458093D02*
X134745613Y-77458093D01*
X134345613Y-77658093D02*
X134578947Y-76958093D01*
X134578947Y-76958093D02*
X134812280Y-77658093D01*
X135012280Y-77024760D02*
X135045613Y-76991426D01*
X135045613Y-76991426D02*
X135112280Y-76958093D01*
X135112280Y-76958093D02*
X135278947Y-76958093D01*
X135278947Y-76958093D02*
X135345613Y-76991426D01*
X135345613Y-76991426D02*
X135378947Y-77024760D01*
X135378947Y-77024760D02*
X135412280Y-77091426D01*
X135412280Y-77091426D02*
X135412280Y-77158093D01*
X135412280Y-77158093D02*
X135378947Y-77258093D01*
X135378947Y-77258093D02*
X134978947Y-77658093D01*
X134978947Y-77658093D02*
X135412280Y-77658093D01*
X133745613Y-79908093D02*
X133745613Y-79208093D01*
X133745613Y-79208093D02*
X134012280Y-79208093D01*
X134012280Y-79208093D02*
X134078947Y-79241426D01*
X134078947Y-79241426D02*
X134112280Y-79274760D01*
X134112280Y-79274760D02*
X134145613Y-79341426D01*
X134145613Y-79341426D02*
X134145613Y-79441426D01*
X134145613Y-79441426D02*
X134112280Y-79508093D01*
X134112280Y-79508093D02*
X134078947Y-79541426D01*
X134078947Y-79541426D02*
X134012280Y-79574760D01*
X134012280Y-79574760D02*
X133745613Y-79574760D01*
X134412280Y-79708093D02*
X134745613Y-79708093D01*
X134345613Y-79908093D02*
X134578947Y-79208093D01*
X134578947Y-79208093D02*
X134812280Y-79908093D01*
X134978947Y-79208093D02*
X135412280Y-79208093D01*
X135412280Y-79208093D02*
X135178947Y-79474760D01*
X135178947Y-79474760D02*
X135278947Y-79474760D01*
X135278947Y-79474760D02*
X135345613Y-79508093D01*
X135345613Y-79508093D02*
X135378947Y-79541426D01*
X135378947Y-79541426D02*
X135412280Y-79608093D01*
X135412280Y-79608093D02*
X135412280Y-79774760D01*
X135412280Y-79774760D02*
X135378947Y-79841426D01*
X135378947Y-79841426D02*
X135345613Y-79874760D01*
X135345613Y-79874760D02*
X135278947Y-79908093D01*
X135278947Y-79908093D02*
X135078947Y-79908093D01*
X135078947Y-79908093D02*
X135012280Y-79874760D01*
X135012280Y-79874760D02*
X134978947Y-79841426D01*
X148958093Y-89921053D02*
X148958093Y-90254386D01*
X148958093Y-90254386D02*
X149291426Y-90287719D01*
X149291426Y-90287719D02*
X149258093Y-90254386D01*
X149258093Y-90254386D02*
X149224760Y-90187719D01*
X149224760Y-90187719D02*
X149224760Y-90021053D01*
X149224760Y-90021053D02*
X149258093Y-89954386D01*
X149258093Y-89954386D02*
X149291426Y-89921053D01*
X149291426Y-89921053D02*
X149358093Y-89887719D01*
X149358093Y-89887719D02*
X149524760Y-89887719D01*
X149524760Y-89887719D02*
X149591426Y-89921053D01*
X149591426Y-89921053D02*
X149624760Y-89954386D01*
X149624760Y-89954386D02*
X149658093Y-90021053D01*
X149658093Y-90021053D02*
X149658093Y-90187719D01*
X149658093Y-90187719D02*
X149624760Y-90254386D01*
X149624760Y-90254386D02*
X149591426Y-90287719D01*
X148958093Y-89687719D02*
X149658093Y-89454386D01*
X149658093Y-89454386D02*
X148958093Y-89221052D01*
X133978947Y-67541426D02*
X134078947Y-67574760D01*
X134078947Y-67574760D02*
X134112280Y-67608093D01*
X134112280Y-67608093D02*
X134145613Y-67674760D01*
X134145613Y-67674760D02*
X134145613Y-67774760D01*
X134145613Y-67774760D02*
X134112280Y-67841426D01*
X134112280Y-67841426D02*
X134078947Y-67874760D01*
X134078947Y-67874760D02*
X134012280Y-67908093D01*
X134012280Y-67908093D02*
X133745613Y-67908093D01*
X133745613Y-67908093D02*
X133745613Y-67208093D01*
X133745613Y-67208093D02*
X133978947Y-67208093D01*
X133978947Y-67208093D02*
X134045613Y-67241426D01*
X134045613Y-67241426D02*
X134078947Y-67274760D01*
X134078947Y-67274760D02*
X134112280Y-67341426D01*
X134112280Y-67341426D02*
X134112280Y-67408093D01*
X134112280Y-67408093D02*
X134078947Y-67474760D01*
X134078947Y-67474760D02*
X134045613Y-67508093D01*
X134045613Y-67508093D02*
X133978947Y-67541426D01*
X133978947Y-67541426D02*
X133745613Y-67541426D01*
X134578947Y-67208093D02*
X134712280Y-67208093D01*
X134712280Y-67208093D02*
X134778947Y-67241426D01*
X134778947Y-67241426D02*
X134845613Y-67308093D01*
X134845613Y-67308093D02*
X134878947Y-67441426D01*
X134878947Y-67441426D02*
X134878947Y-67674760D01*
X134878947Y-67674760D02*
X134845613Y-67808093D01*
X134845613Y-67808093D02*
X134778947Y-67874760D01*
X134778947Y-67874760D02*
X134712280Y-67908093D01*
X134712280Y-67908093D02*
X134578947Y-67908093D01*
X134578947Y-67908093D02*
X134512280Y-67874760D01*
X134512280Y-67874760D02*
X134445613Y-67808093D01*
X134445613Y-67808093D02*
X134412280Y-67674760D01*
X134412280Y-67674760D02*
X134412280Y-67441426D01*
X134412280Y-67441426D02*
X134445613Y-67308093D01*
X134445613Y-67308093D02*
X134512280Y-67241426D01*
X134512280Y-67241426D02*
X134578947Y-67208093D01*
X135312280Y-67208093D02*
X135445613Y-67208093D01*
X135445613Y-67208093D02*
X135512280Y-67241426D01*
X135512280Y-67241426D02*
X135578946Y-67308093D01*
X135578946Y-67308093D02*
X135612280Y-67441426D01*
X135612280Y-67441426D02*
X135612280Y-67674760D01*
X135612280Y-67674760D02*
X135578946Y-67808093D01*
X135578946Y-67808093D02*
X135512280Y-67874760D01*
X135512280Y-67874760D02*
X135445613Y-67908093D01*
X135445613Y-67908093D02*
X135312280Y-67908093D01*
X135312280Y-67908093D02*
X135245613Y-67874760D01*
X135245613Y-67874760D02*
X135178946Y-67808093D01*
X135178946Y-67808093D02*
X135145613Y-67674760D01*
X135145613Y-67674760D02*
X135145613Y-67441426D01*
X135145613Y-67441426D02*
X135178946Y-67308093D01*
X135178946Y-67308093D02*
X135245613Y-67241426D01*
X135245613Y-67241426D02*
X135312280Y-67208093D01*
X135812279Y-67208093D02*
X136212279Y-67208093D01*
X136012279Y-67908093D02*
X136012279Y-67208093D01*
X148162280Y-84908093D02*
X148162280Y-84208093D01*
X148162280Y-84208093D02*
X148428947Y-84208093D01*
X148428947Y-84208093D02*
X148495614Y-84241426D01*
X148495614Y-84241426D02*
X148528947Y-84274760D01*
X148528947Y-84274760D02*
X148562280Y-84341426D01*
X148562280Y-84341426D02*
X148562280Y-84441426D01*
X148562280Y-84441426D02*
X148528947Y-84508093D01*
X148528947Y-84508093D02*
X148495614Y-84541426D01*
X148495614Y-84541426D02*
X148428947Y-84574760D01*
X148428947Y-84574760D02*
X148162280Y-84574760D01*
X148828947Y-84708093D02*
X149162280Y-84708093D01*
X148762280Y-84908093D02*
X148995614Y-84208093D01*
X148995614Y-84208093D02*
X149228947Y-84908093D01*
X149795614Y-84208093D02*
X149462280Y-84208093D01*
X149462280Y-84208093D02*
X149428947Y-84541426D01*
X149428947Y-84541426D02*
X149462280Y-84508093D01*
X149462280Y-84508093D02*
X149528947Y-84474760D01*
X149528947Y-84474760D02*
X149695614Y-84474760D01*
X149695614Y-84474760D02*
X149762280Y-84508093D01*
X149762280Y-84508093D02*
X149795614Y-84541426D01*
X149795614Y-84541426D02*
X149828947Y-84608093D01*
X149828947Y-84608093D02*
X149828947Y-84774760D01*
X149828947Y-84774760D02*
X149795614Y-84841426D01*
X149795614Y-84841426D02*
X149762280Y-84874760D01*
X149762280Y-84874760D02*
X149695614Y-84908093D01*
X149695614Y-84908093D02*
X149528947Y-84908093D01*
X149528947Y-84908093D02*
X149462280Y-84874760D01*
X149462280Y-84874760D02*
X149428947Y-84841426D01*
D12*
X138355000Y-82255000D02*
X138355000Y-82545000D01*
X138355000Y-82255000D02*
X138645000Y-82255000D01*
X138355000Y-85255000D02*
X138355000Y-84965000D01*
X138355000Y-85255000D02*
X138645000Y-85255000D01*
X141355000Y-82255000D02*
X141065000Y-82255000D01*
X141355000Y-82255000D02*
X141355000Y-82545000D01*
X141355000Y-85255000D02*
X141065000Y-85255000D01*
X141355000Y-85255000D02*
X141355000Y-84965000D01*
D13*
X137455000Y-83005000D02*
G75*
G03*
X137455000Y-83005000I-100000J0D01*
G01*
D11*
X143910000Y-88609420D02*
X143910000Y-88890580D01*
X142890000Y-88609420D02*
X142890000Y-88890580D01*
X137010000Y-81759420D02*
X137010000Y-82040580D01*
X135990000Y-81759420D02*
X135990000Y-82040580D01*
X143450000Y-68100000D02*
X140150000Y-68100000D01*
X140150000Y-68100000D02*
X140150000Y-72100000D01*
X146450000Y-87390000D02*
X144650000Y-87390000D01*
X146450000Y-87390000D02*
X147250000Y-87390000D01*
X146450000Y-90510000D02*
X145650000Y-90510000D01*
X146450000Y-90510000D02*
X147250000Y-90510000D01*
X135990000Y-73390580D02*
X135990000Y-73109420D01*
X137010000Y-73390580D02*
X137010000Y-73109420D01*
X137633950Y-94280000D02*
X137633950Y-96080000D01*
X137633950Y-99790000D02*
X137633950Y-98330000D01*
X146573950Y-94280000D02*
X146573950Y-96080000D01*
X146573950Y-99790000D02*
X137633950Y-99790000D01*
X146573950Y-99790000D02*
X146573950Y-98330000D01*
X144390580Y-84760000D02*
X144109420Y-84760000D01*
X144390580Y-83740000D02*
X144109420Y-83740000D01*
X139610000Y-88609420D02*
X139610000Y-88890580D01*
X138590000Y-88609420D02*
X138590000Y-88890580D01*
X135990000Y-76650279D02*
X135990000Y-76324721D01*
X137010000Y-76650279D02*
X137010000Y-76324721D01*
X144390580Y-86510000D02*
X144109420Y-86510000D01*
X144390580Y-85490000D02*
X144109420Y-85490000D01*
X135977500Y-69737258D02*
X135977500Y-69262742D01*
X137022500Y-69737258D02*
X137022500Y-69262742D01*
X141750000Y-72865000D02*
X138150000Y-72865000D01*
X141750000Y-72865000D02*
X143950000Y-72865000D01*
X141750000Y-79635000D02*
X139550000Y-79635000D01*
X141750000Y-79635000D02*
X143950000Y-79635000D01*
X146540000Y-76840580D02*
X146540000Y-76559420D01*
X147560000Y-76840580D02*
X147560000Y-76559420D01*
X151900000Y-94350000D02*
X151900000Y-97650000D01*
X151600000Y-94350000D02*
X151900000Y-94350000D01*
X149400000Y-94350000D02*
X149100000Y-94350000D01*
X149100000Y-94350000D02*
X149100000Y-97650000D01*
X151900000Y-97650000D02*
X151600000Y-97650000D01*
X149100000Y-97650000D02*
X149400000Y-97650000D01*
X130880000Y-87380000D02*
X132210000Y-87380000D01*
X130880000Y-88710000D02*
X130880000Y-87380000D01*
X130880000Y-89980000D02*
X130880000Y-92580000D01*
X130880000Y-89980000D02*
X133480000Y-89980000D01*
X130880000Y-92580000D02*
X136080000Y-92580000D01*
X133480000Y-87380000D02*
X136080000Y-87380000D01*
X133480000Y-89980000D02*
X133480000Y-87380000D01*
X136080000Y-87380000D02*
X136080000Y-92580000D01*
X146490000Y-85140580D02*
X146490000Y-84859420D01*
X147510000Y-85140580D02*
X147510000Y-84859420D01*
X131600000Y-97650000D02*
X131600000Y-94350000D01*
X131900000Y-97650000D02*
X131600000Y-97650000D01*
X134100000Y-97650000D02*
X134400000Y-97650000D01*
X134400000Y-97650000D02*
X134400000Y-94350000D01*
X131600000Y-94350000D02*
X131900000Y-94350000D01*
X134400000Y-94350000D02*
X134100000Y-94350000D01*
X136890000Y-88890580D02*
X136890000Y-88609420D01*
X137910000Y-88890580D02*
X137910000Y-88609420D01*
X140350000Y-87950000D02*
X140350000Y-89550000D01*
X142150000Y-89550000D02*
X142150000Y-87650000D01*
X139610000Y-69359420D02*
X139610000Y-69640580D01*
X138590000Y-69359420D02*
X138590000Y-69640580D01*
X143990000Y-70840580D02*
X143990000Y-70559420D01*
X145010000Y-70840580D02*
X145010000Y-70559420D01*
X135990000Y-85140580D02*
X135990000Y-84859420D01*
X137010000Y-85140580D02*
X137010000Y-84859420D01*
M02*
