%TF.GenerationSoftware,KiCad,Pcbnew,7.0.8*%
%TF.CreationDate,2024-04-05T01:26:40-03:00*%
%TF.ProjectId,iW-Little,69572d4c-6974-4746-9c65-2e6b69636164,rev?*%
%TF.SameCoordinates,Original*%
%TF.FileFunction,Copper,L4,Bot*%
%TF.FilePolarity,Positive*%
%FSLAX46Y46*%
G04 Gerber Fmt 4.6, Leading zero omitted, Abs format (unit mm)*
G04 Created by KiCad (PCBNEW 7.0.8) date 2024-04-05 01:26:40*
%MOMM*%
%LPD*%
G01*
G04 APERTURE LIST*
G04 Aperture macros list*
%AMFreePoly0*
4,1,6,1.000000,0.000000,0.500000,-0.750000,-0.500000,-0.750000,-0.500000,0.750000,0.500000,0.750000,1.000000,0.000000,1.000000,0.000000,$1*%
%AMFreePoly1*
4,1,6,0.500000,-0.750000,-0.650000,-0.750000,-0.150000,0.000000,-0.650000,0.750000,0.500000,0.750000,0.500000,-0.750000,0.500000,-0.750000,$1*%
G04 Aperture macros list end*
%TA.AperFunction,ComponentPad*%
%ADD10O,0.900000X2.000000*%
%TD*%
%TA.AperFunction,ComponentPad*%
%ADD11O,0.900000X1.700000*%
%TD*%
%TA.AperFunction,ComponentPad*%
%ADD12R,1.700000X1.700000*%
%TD*%
%TA.AperFunction,ComponentPad*%
%ADD13O,1.700000X1.700000*%
%TD*%
%TA.AperFunction,SMDPad,CuDef*%
%ADD14FreePoly0,0.000000*%
%TD*%
%TA.AperFunction,SMDPad,CuDef*%
%ADD15FreePoly1,0.000000*%
%TD*%
%TA.AperFunction,ViaPad*%
%ADD16C,0.450000*%
%TD*%
%TA.AperFunction,Conductor*%
%ADD17C,0.148590*%
%TD*%
%TA.AperFunction,Conductor*%
%ADD18C,0.139700*%
%TD*%
G04 APERTURE END LIST*
D10*
X137783950Y-93020000D03*
D11*
X137783950Y-97190000D03*
D10*
X146423950Y-93020000D03*
D11*
X146423950Y-97190000D03*
D12*
X132450000Y-67000000D03*
D13*
X132450000Y-69540000D03*
X132450000Y-72080000D03*
X132450000Y-74620000D03*
X132450000Y-77160000D03*
X132450000Y-79700000D03*
X132450000Y-82240000D03*
X132450000Y-84780000D03*
D12*
X151000000Y-67000000D03*
D13*
X151000000Y-69540000D03*
X151000000Y-72080000D03*
X151000000Y-74620000D03*
X151000000Y-77160000D03*
X151000000Y-79700000D03*
X151000000Y-82240000D03*
X151000000Y-84780000D03*
X151000000Y-87320000D03*
X151000000Y-89860000D03*
D12*
X132210000Y-88710000D03*
D13*
X134750000Y-88710000D03*
X132210000Y-91250000D03*
X134750000Y-91250000D03*
D14*
X143800000Y-84500000D03*
D15*
X145250000Y-84500000D03*
D14*
X143800000Y-81650000D03*
D15*
X145250000Y-81650000D03*
D16*
X137400000Y-88550000D03*
X135600000Y-81250000D03*
X137650000Y-69100000D03*
X139750000Y-67250000D03*
X145550000Y-67300000D03*
X131900000Y-95050000D03*
X139150000Y-90500000D03*
X142800000Y-86050000D03*
X135350000Y-68600000D03*
X139600000Y-72300000D03*
X141400000Y-85850000D03*
X145600000Y-99050000D03*
X145350000Y-98250000D03*
X143050000Y-98750000D03*
X140500000Y-98550000D03*
X138700000Y-98950000D03*
X138850000Y-95900000D03*
X136050000Y-99550000D03*
X135300000Y-97350000D03*
X134600000Y-98900000D03*
X133050000Y-97200000D03*
X133150000Y-95300000D03*
X135900000Y-95150000D03*
X139450000Y-97150000D03*
X138700000Y-94950000D03*
X140800000Y-94000000D03*
X143100000Y-95100000D03*
X145250000Y-96150000D03*
X145450000Y-95200000D03*
X144550000Y-97100000D03*
X147800000Y-99550000D03*
X148300000Y-97700000D03*
X147950000Y-98600000D03*
X148100000Y-93550000D03*
X148200000Y-92600000D03*
X148100000Y-96650000D03*
X147900000Y-95000000D03*
X148300000Y-78250000D03*
X136500000Y-67700000D03*
X142700000Y-67700000D03*
X143850000Y-68800000D03*
X145550000Y-69900000D03*
X142900000Y-78250000D03*
X140350000Y-77700000D03*
X144950000Y-83150000D03*
X147050000Y-83150000D03*
X143500000Y-86950000D03*
X135600000Y-98750000D03*
X135950000Y-96400000D03*
X142150000Y-97600000D03*
X141250000Y-88300000D03*
X140200000Y-84200000D03*
X135400000Y-85800000D03*
X150500000Y-99000000D03*
X143000000Y-91000000D03*
X143250000Y-76680000D03*
X137480000Y-90530000D03*
X140100000Y-75300000D03*
X145750000Y-87000000D03*
X148250000Y-75620000D03*
X145750000Y-86000000D03*
X148250000Y-86250000D03*
X149000000Y-85500000D03*
X147000000Y-86500000D03*
X149000000Y-87750000D03*
X135660000Y-82680000D03*
X148250000Y-87000000D03*
X149000000Y-87000000D03*
X135540000Y-76980000D03*
X149000000Y-86250000D03*
X145000000Y-87000000D03*
X148250000Y-85500000D03*
X147500000Y-87000000D03*
X141905150Y-95700000D03*
X142905150Y-93800000D03*
X142302750Y-93800000D03*
X141302750Y-95700000D03*
X142200000Y-83000000D03*
X150420000Y-92820000D03*
X139900000Y-73350000D03*
X140605000Y-81500000D03*
D17*
X141060000Y-79600000D02*
X141350000Y-79600000D01*
X139060000Y-81600000D02*
X141060000Y-79600000D01*
X139060000Y-88950000D02*
X139060000Y-81600000D01*
X145250000Y-81650000D02*
X145250000Y-80900000D01*
X144500000Y-80150000D02*
X141900000Y-80150000D01*
X145250000Y-80900000D02*
X144500000Y-80150000D01*
X140900000Y-75300000D02*
X140100000Y-75300000D01*
X141900000Y-80150000D02*
X141350000Y-79600000D01*
X141350000Y-75750000D02*
X140900000Y-75300000D01*
X137480000Y-90530000D02*
X139060000Y-88950000D01*
X141350000Y-79600000D02*
X141350000Y-76250000D01*
X141350000Y-76250000D02*
X141350000Y-75750000D01*
D18*
X141750000Y-95210496D02*
X142750000Y-94210496D01*
X142750000Y-94210496D02*
X142750000Y-93955150D01*
X142750000Y-93955150D02*
X142905150Y-93800000D01*
X141750000Y-95544850D02*
X141750000Y-95210496D01*
X141905150Y-95700000D02*
X141750000Y-95544850D01*
X141457900Y-95089504D02*
X142457900Y-94089504D01*
X142457900Y-93955150D02*
X142302750Y-93800000D01*
X141457900Y-95544850D02*
X141457900Y-95089504D01*
X141302750Y-95700000D02*
X141457900Y-95544850D01*
X142457900Y-94089504D02*
X142457900Y-93955150D01*
D17*
X142300000Y-83000000D02*
X142200000Y-83000000D01*
X143800000Y-84500000D02*
X142300000Y-83000000D01*
X140900000Y-73350000D02*
X139900000Y-73350000D01*
X145500000Y-79750000D02*
X143550000Y-79750000D01*
X143550000Y-79750000D02*
X142350000Y-79750000D01*
X141800000Y-74250000D02*
X141300000Y-73750000D01*
X141300000Y-73750000D02*
X140900000Y-73350000D01*
X141800000Y-79200000D02*
X141800000Y-78150000D01*
X142200000Y-79600000D02*
X141800000Y-79200000D01*
X146400000Y-83350000D02*
X146400000Y-80650000D01*
X145250000Y-84500000D02*
X146400000Y-83350000D01*
X141800000Y-78150000D02*
X141800000Y-74250000D01*
X150420000Y-92820000D02*
X146400000Y-88800000D01*
X146400000Y-80650000D02*
X145500000Y-79750000D01*
X146400000Y-88800000D02*
X146400000Y-83350000D01*
X142350000Y-79750000D02*
X142200000Y-79600000D01*
X143800000Y-81650000D02*
X140755000Y-81650000D01*
X140755000Y-81650000D02*
X140605000Y-81500000D01*
%TA.AperFunction,Conductor*%
G36*
X152003511Y-65000895D02*
G01*
X152026356Y-65003469D01*
X152105633Y-65013906D01*
X152130785Y-65019895D01*
X152164224Y-65031595D01*
X152164700Y-65031762D01*
X152168001Y-65033022D01*
X152222028Y-65055400D01*
X152240840Y-65065119D01*
X152275466Y-65086876D01*
X152280303Y-65090240D01*
X152328152Y-65126957D01*
X152334346Y-65132388D01*
X152367609Y-65165651D01*
X152373041Y-65171846D01*
X152409758Y-65219695D01*
X152413122Y-65224532D01*
X152434879Y-65259158D01*
X152444600Y-65277975D01*
X152466976Y-65331997D01*
X152468236Y-65335298D01*
X152480100Y-65369200D01*
X152486093Y-65394371D01*
X152496529Y-65473645D01*
X152499103Y-65496476D01*
X152499500Y-65503539D01*
X152499500Y-99496460D01*
X152499103Y-99503523D01*
X152496529Y-99526354D01*
X152486093Y-99605627D01*
X152480100Y-99630798D01*
X152468236Y-99664700D01*
X152466976Y-99668001D01*
X152444600Y-99722023D01*
X152434879Y-99740840D01*
X152413122Y-99775466D01*
X152409758Y-99780303D01*
X152373041Y-99828152D01*
X152367602Y-99834355D01*
X152334355Y-99867602D01*
X152328152Y-99873041D01*
X152280303Y-99909758D01*
X152275466Y-99913122D01*
X152240840Y-99934879D01*
X152222023Y-99944600D01*
X152168001Y-99966976D01*
X152164700Y-99968236D01*
X152130798Y-99980100D01*
X152105627Y-99986093D01*
X152026354Y-99996529D01*
X152003523Y-99999103D01*
X151996460Y-99999500D01*
X131503540Y-99999500D01*
X131496477Y-99999103D01*
X131473646Y-99996529D01*
X131394371Y-99986093D01*
X131369200Y-99980100D01*
X131335298Y-99968236D01*
X131331997Y-99966976D01*
X131277975Y-99944600D01*
X131259158Y-99934879D01*
X131224532Y-99913122D01*
X131219695Y-99909758D01*
X131171846Y-99873041D01*
X131165651Y-99867609D01*
X131132388Y-99834346D01*
X131126957Y-99828152D01*
X131090240Y-99780303D01*
X131086876Y-99775466D01*
X131065119Y-99740840D01*
X131055400Y-99722028D01*
X131033022Y-99668001D01*
X131031762Y-99664700D01*
X131031595Y-99664224D01*
X131019895Y-99630785D01*
X131013906Y-99605633D01*
X131003469Y-99526356D01*
X131000895Y-99503513D01*
X131000500Y-99496457D01*
X131000500Y-99000003D01*
X150015569Y-99000003D01*
X150035190Y-99136473D01*
X150035192Y-99136480D01*
X150092471Y-99261903D01*
X150182765Y-99366109D01*
X150182766Y-99366110D01*
X150240762Y-99403381D01*
X150298760Y-99440654D01*
X150431058Y-99479500D01*
X150431061Y-99479500D01*
X150568939Y-99479500D01*
X150568942Y-99479500D01*
X150701240Y-99440654D01*
X150817235Y-99366109D01*
X150907529Y-99261903D01*
X150964808Y-99136480D01*
X150984431Y-99000000D01*
X150984431Y-98999996D01*
X150964809Y-98863526D01*
X150964808Y-98863525D01*
X150964808Y-98863520D01*
X150907529Y-98738097D01*
X150817235Y-98633891D01*
X150817234Y-98633890D01*
X150817233Y-98633889D01*
X150701240Y-98559346D01*
X150568947Y-98520501D01*
X150568944Y-98520500D01*
X150568942Y-98520500D01*
X150431058Y-98520500D01*
X150431056Y-98520500D01*
X150431052Y-98520501D01*
X150298759Y-98559346D01*
X150182766Y-98633889D01*
X150092470Y-98738098D01*
X150035192Y-98863519D01*
X150035190Y-98863526D01*
X150015569Y-98999996D01*
X150015569Y-99000003D01*
X131000500Y-99000003D01*
X131000500Y-97632594D01*
X137079950Y-97632594D01*
X137095384Y-97759713D01*
X137156009Y-97919565D01*
X137156012Y-97919571D01*
X137253126Y-98060265D01*
X137381094Y-98173635D01*
X137483950Y-98227617D01*
X137483950Y-97617802D01*
X137499362Y-97700250D01*
X137558407Y-97795610D01*
X137647912Y-97863201D01*
X137755790Y-97893895D01*
X137867471Y-97883546D01*
X137967872Y-97833552D01*
X138043434Y-97750666D01*
X138083950Y-97646080D01*
X138083950Y-98227617D01*
X138186805Y-98173635D01*
X138314773Y-98060265D01*
X138411887Y-97919571D01*
X138411890Y-97919565D01*
X138472515Y-97759713D01*
X138487949Y-97632594D01*
X145719950Y-97632594D01*
X145735384Y-97759713D01*
X145796009Y-97919565D01*
X145796012Y-97919571D01*
X145893126Y-98060265D01*
X146021094Y-98173635D01*
X146123950Y-98227617D01*
X146123950Y-97617802D01*
X146139362Y-97700250D01*
X146198407Y-97795610D01*
X146287912Y-97863201D01*
X146395790Y-97893895D01*
X146507471Y-97883546D01*
X146607872Y-97833552D01*
X146683434Y-97750666D01*
X146723950Y-97646080D01*
X146723950Y-98227617D01*
X146826805Y-98173635D01*
X146954773Y-98060265D01*
X147051887Y-97919571D01*
X147051890Y-97919565D01*
X147112515Y-97759713D01*
X147127949Y-97632594D01*
X147127950Y-97632584D01*
X147127950Y-97490000D01*
X146723950Y-97490000D01*
X146723950Y-96890000D01*
X147127950Y-96890000D01*
X147127950Y-96747415D01*
X147127949Y-96747405D01*
X147112515Y-96620286D01*
X147051890Y-96460434D01*
X147051887Y-96460428D01*
X146954773Y-96319734D01*
X146826806Y-96206365D01*
X146826804Y-96206363D01*
X146723950Y-96152381D01*
X146723950Y-96762198D01*
X146708538Y-96679750D01*
X146649493Y-96584390D01*
X146559988Y-96516799D01*
X146452110Y-96486105D01*
X146340429Y-96496454D01*
X146240028Y-96546448D01*
X146164466Y-96629334D01*
X146123950Y-96733920D01*
X146123950Y-96152381D01*
X146021095Y-96206363D01*
X146021093Y-96206365D01*
X145893126Y-96319734D01*
X145796012Y-96460428D01*
X145796009Y-96460434D01*
X145735384Y-96620286D01*
X145719950Y-96747405D01*
X145719950Y-96890000D01*
X146123950Y-96890000D01*
X146123950Y-97490000D01*
X145719950Y-97490000D01*
X145719950Y-97632594D01*
X138487949Y-97632594D01*
X138487950Y-97632584D01*
X138487950Y-97490000D01*
X138083950Y-97490000D01*
X138083950Y-96890000D01*
X138487950Y-96890000D01*
X138487950Y-96747415D01*
X138487949Y-96747405D01*
X138472515Y-96620286D01*
X138411890Y-96460434D01*
X138411887Y-96460428D01*
X138314773Y-96319734D01*
X138186806Y-96206365D01*
X138186804Y-96206363D01*
X138083950Y-96152381D01*
X138083950Y-96762198D01*
X138068538Y-96679750D01*
X138009493Y-96584390D01*
X137919988Y-96516799D01*
X137812110Y-96486105D01*
X137700429Y-96496454D01*
X137600028Y-96546448D01*
X137524466Y-96629334D01*
X137483950Y-96733920D01*
X137483950Y-96152381D01*
X137381095Y-96206363D01*
X137381093Y-96206365D01*
X137253126Y-96319734D01*
X137156012Y-96460428D01*
X137156009Y-96460434D01*
X137095384Y-96620286D01*
X137079950Y-96747405D01*
X137079950Y-96890000D01*
X137483950Y-96890000D01*
X137483950Y-97490000D01*
X137079950Y-97490000D01*
X137079950Y-97632594D01*
X131000500Y-97632594D01*
X131000500Y-95700003D01*
X140818319Y-95700003D01*
X140837940Y-95836473D01*
X140837942Y-95836480D01*
X140895221Y-95961903D01*
X140985515Y-96066109D01*
X140985516Y-96066110D01*
X141001550Y-96076414D01*
X141101510Y-96140654D01*
X141233808Y-96179500D01*
X141233811Y-96179500D01*
X141371689Y-96179500D01*
X141371692Y-96179500D01*
X141503990Y-96140654D01*
X141535831Y-96120191D01*
X141603949Y-96100189D01*
X141672065Y-96120189D01*
X141703910Y-96140654D01*
X141836208Y-96179500D01*
X141836211Y-96179500D01*
X141974089Y-96179500D01*
X141974092Y-96179500D01*
X142106390Y-96140654D01*
X142222385Y-96066109D01*
X142312679Y-95961903D01*
X142369958Y-95836480D01*
X142389581Y-95700000D01*
X142389581Y-95699996D01*
X142369959Y-95563526D01*
X142369958Y-95563525D01*
X142369958Y-95563520D01*
X142312679Y-95438097D01*
X142235567Y-95349104D01*
X142206074Y-95284522D01*
X142216179Y-95214249D01*
X142241694Y-95177500D01*
X142967404Y-94451790D01*
X142971422Y-94448108D01*
X143002300Y-94422201D01*
X143022442Y-94387313D01*
X143025393Y-94382681D01*
X143048496Y-94349688D01*
X143048497Y-94349687D01*
X143048497Y-94349684D01*
X143051165Y-94343963D01*
X143057329Y-94329084D01*
X143059490Y-94323146D01*
X143059490Y-94323145D01*
X143059492Y-94323142D01*
X143060325Y-94318412D01*
X143091850Y-94254800D01*
X143116292Y-94234291D01*
X143222383Y-94166110D01*
X143222382Y-94166110D01*
X143222385Y-94166109D01*
X143312679Y-94061903D01*
X143369958Y-93936480D01*
X143376711Y-93889514D01*
X143389581Y-93800003D01*
X143389581Y-93799996D01*
X143369959Y-93663526D01*
X143369958Y-93663525D01*
X143369958Y-93663520D01*
X143312679Y-93538097D01*
X143251673Y-93467692D01*
X144562830Y-93467692D01*
X144572460Y-93596202D01*
X144619542Y-93716164D01*
X144619543Y-93716165D01*
X144699890Y-93816918D01*
X144699891Y-93816920D01*
X144758982Y-93857207D01*
X144806369Y-93889515D01*
X144929515Y-93927500D01*
X145025984Y-93927500D01*
X145025989Y-93927500D01*
X145121381Y-93913122D01*
X145237490Y-93857207D01*
X145331958Y-93769553D01*
X145396394Y-93657948D01*
X145406746Y-93612594D01*
X145719950Y-93612594D01*
X145735384Y-93739713D01*
X145796009Y-93899565D01*
X145796012Y-93899571D01*
X145893126Y-94040265D01*
X146021094Y-94153635D01*
X146123950Y-94207617D01*
X146123950Y-93597802D01*
X146139362Y-93680250D01*
X146198407Y-93775610D01*
X146287912Y-93843201D01*
X146395790Y-93873895D01*
X146507471Y-93863546D01*
X146607872Y-93813552D01*
X146683434Y-93730666D01*
X146723950Y-93626080D01*
X146723950Y-94207617D01*
X146826805Y-94153635D01*
X146954773Y-94040265D01*
X147051887Y-93899571D01*
X147051890Y-93899565D01*
X147112515Y-93739713D01*
X147127949Y-93612594D01*
X147127950Y-93612584D01*
X147127950Y-93320000D01*
X146723950Y-93320000D01*
X146723950Y-92720000D01*
X147127950Y-92720000D01*
X147127950Y-92427415D01*
X147127949Y-92427405D01*
X147112515Y-92300286D01*
X147051890Y-92140434D01*
X147051887Y-92140428D01*
X146954773Y-91999734D01*
X146826806Y-91886365D01*
X146826804Y-91886363D01*
X146723950Y-91832381D01*
X146723950Y-92442198D01*
X146708538Y-92359750D01*
X146649493Y-92264390D01*
X146559988Y-92196799D01*
X146452110Y-92166105D01*
X146340429Y-92176454D01*
X146240028Y-92226448D01*
X146164466Y-92309334D01*
X146123950Y-92413920D01*
X146123950Y-91832381D01*
X146021095Y-91886363D01*
X146021093Y-91886365D01*
X145893126Y-91999734D01*
X145796012Y-92140428D01*
X145796009Y-92140434D01*
X145735384Y-92300286D01*
X145719950Y-92427405D01*
X145719950Y-92720000D01*
X146123950Y-92720000D01*
X146123950Y-93320000D01*
X145719950Y-93320000D01*
X145719950Y-93612594D01*
X145406746Y-93612594D01*
X145425070Y-93532308D01*
X145415440Y-93403798D01*
X145368358Y-93283836D01*
X145314791Y-93216665D01*
X145288009Y-93183081D01*
X145288008Y-93183079D01*
X145181531Y-93110485D01*
X145181529Y-93110484D01*
X145058385Y-93072500D01*
X144961911Y-93072500D01*
X144866519Y-93086878D01*
X144866517Y-93086878D01*
X144866516Y-93086879D01*
X144750412Y-93142791D01*
X144750407Y-93142795D01*
X144655941Y-93230446D01*
X144591505Y-93342052D01*
X144562830Y-93467689D01*
X144562830Y-93467690D01*
X144562830Y-93467692D01*
X143251673Y-93467692D01*
X143222385Y-93433891D01*
X143222384Y-93433890D01*
X143222383Y-93433889D01*
X143106390Y-93359346D01*
X142974097Y-93320501D01*
X142974094Y-93320500D01*
X142974092Y-93320500D01*
X142836208Y-93320500D01*
X142836206Y-93320500D01*
X142836202Y-93320501D01*
X142703911Y-93359345D01*
X142672068Y-93379809D01*
X142603947Y-93399809D01*
X142535832Y-93379809D01*
X142503988Y-93359345D01*
X142371697Y-93320501D01*
X142371694Y-93320500D01*
X142371692Y-93320500D01*
X142233808Y-93320500D01*
X142233806Y-93320500D01*
X142233802Y-93320501D01*
X142101509Y-93359346D01*
X141985516Y-93433889D01*
X141895220Y-93538098D01*
X141837942Y-93663519D01*
X141837940Y-93663526D01*
X141818319Y-93799996D01*
X141818319Y-93800003D01*
X141837940Y-93936473D01*
X141837942Y-93936480D01*
X141898965Y-94070101D01*
X141896154Y-94071384D01*
X141911805Y-94124746D01*
X141891782Y-94192860D01*
X141874900Y-94213802D01*
X141240520Y-94848183D01*
X141236468Y-94851896D01*
X141205601Y-94877797D01*
X141205600Y-94877799D01*
X141185458Y-94912684D01*
X141182505Y-94917319D01*
X141159405Y-94950309D01*
X141156757Y-94955987D01*
X141150552Y-94970968D01*
X141148406Y-94976863D01*
X141141412Y-95016527D01*
X141140223Y-95021893D01*
X141129799Y-95060794D01*
X141129799Y-95060798D01*
X141133310Y-95100938D01*
X141133550Y-95106430D01*
X141133550Y-95169953D01*
X141113548Y-95238074D01*
X141075671Y-95275951D01*
X140985515Y-95333890D01*
X140895220Y-95438098D01*
X140837942Y-95563519D01*
X140837940Y-95563526D01*
X140818319Y-95699996D01*
X140818319Y-95700003D01*
X131000500Y-95700003D01*
X131000500Y-93612594D01*
X137079950Y-93612594D01*
X137095384Y-93739713D01*
X137156009Y-93899565D01*
X137156012Y-93899571D01*
X137253126Y-94040265D01*
X137381094Y-94153635D01*
X137483950Y-94207617D01*
X137483950Y-93597802D01*
X137499362Y-93680250D01*
X137558407Y-93775610D01*
X137647912Y-93843201D01*
X137755790Y-93873895D01*
X137867471Y-93863546D01*
X137967872Y-93813552D01*
X138043434Y-93730666D01*
X138083950Y-93626080D01*
X138083950Y-94207617D01*
X138186805Y-94153635D01*
X138314773Y-94040265D01*
X138411887Y-93899571D01*
X138411890Y-93899565D01*
X138472515Y-93739713D01*
X138487949Y-93612594D01*
X138487950Y-93612584D01*
X138487950Y-93467692D01*
X138782830Y-93467692D01*
X138792460Y-93596202D01*
X138839542Y-93716164D01*
X138839543Y-93716165D01*
X138919890Y-93816918D01*
X138919891Y-93816920D01*
X138978982Y-93857207D01*
X139026369Y-93889515D01*
X139149515Y-93927500D01*
X139245984Y-93927500D01*
X139245989Y-93927500D01*
X139341381Y-93913122D01*
X139457490Y-93857207D01*
X139551958Y-93769553D01*
X139616394Y-93657948D01*
X139645070Y-93532308D01*
X139635440Y-93403798D01*
X139588358Y-93283836D01*
X139534791Y-93216665D01*
X139508009Y-93183081D01*
X139508008Y-93183079D01*
X139401531Y-93110485D01*
X139401529Y-93110484D01*
X139278385Y-93072500D01*
X139181911Y-93072500D01*
X139086519Y-93086878D01*
X139086517Y-93086878D01*
X139086516Y-93086879D01*
X138970412Y-93142791D01*
X138970407Y-93142795D01*
X138875941Y-93230446D01*
X138811505Y-93342052D01*
X138782830Y-93467689D01*
X138782830Y-93467690D01*
X138782830Y-93467692D01*
X138487950Y-93467692D01*
X138487950Y-93320000D01*
X138083950Y-93320000D01*
X138083950Y-92720000D01*
X138487950Y-92720000D01*
X138487950Y-92427415D01*
X138487949Y-92427405D01*
X138472515Y-92300286D01*
X138411890Y-92140434D01*
X138411887Y-92140428D01*
X138314773Y-91999734D01*
X138186806Y-91886365D01*
X138186804Y-91886363D01*
X138083950Y-91832381D01*
X138083950Y-92442198D01*
X138068538Y-92359750D01*
X138009493Y-92264390D01*
X137919988Y-92196799D01*
X137812110Y-92166105D01*
X137700429Y-92176454D01*
X137600028Y-92226448D01*
X137524466Y-92309334D01*
X137483950Y-92413920D01*
X137483950Y-91832381D01*
X137381095Y-91886363D01*
X137381093Y-91886365D01*
X137253126Y-91999734D01*
X137156012Y-92140428D01*
X137156009Y-92140434D01*
X137095384Y-92300286D01*
X137079950Y-92427405D01*
X137079950Y-92720000D01*
X137483950Y-92720000D01*
X137483950Y-93320000D01*
X137079950Y-93320000D01*
X137079950Y-93612594D01*
X131000500Y-93612594D01*
X131000500Y-91834627D01*
X131020502Y-91766506D01*
X131074158Y-91720013D01*
X131144432Y-91709909D01*
X131209012Y-91739403D01*
X131239289Y-91778462D01*
X131266912Y-91833935D01*
X131266913Y-91833936D01*
X131390266Y-91997284D01*
X131541536Y-92135185D01*
X131715566Y-92242940D01*
X131715568Y-92242940D01*
X131715573Y-92242944D01*
X131906444Y-92316888D01*
X132107653Y-92354500D01*
X132107655Y-92354500D01*
X132312345Y-92354500D01*
X132312347Y-92354500D01*
X132513556Y-92316888D01*
X132704427Y-92242944D01*
X132878462Y-92135186D01*
X133029732Y-91997285D01*
X133153088Y-91833935D01*
X133244328Y-91650701D01*
X133300345Y-91453821D01*
X133319232Y-91250004D01*
X133640768Y-91250004D01*
X133659654Y-91453819D01*
X133659655Y-91453821D01*
X133715672Y-91650701D01*
X133806912Y-91833935D01*
X133806913Y-91833936D01*
X133930266Y-91997284D01*
X134081536Y-92135185D01*
X134255566Y-92242940D01*
X134255568Y-92242940D01*
X134255573Y-92242944D01*
X134446444Y-92316888D01*
X134647653Y-92354500D01*
X134647655Y-92354500D01*
X134852345Y-92354500D01*
X134852347Y-92354500D01*
X135053556Y-92316888D01*
X135244427Y-92242944D01*
X135418462Y-92135186D01*
X135569732Y-91997285D01*
X135693088Y-91833935D01*
X135784328Y-91650701D01*
X135840345Y-91453821D01*
X135859232Y-91250000D01*
X135840345Y-91046179D01*
X135784328Y-90849299D01*
X135693088Y-90666065D01*
X135652538Y-90612368D01*
X135590340Y-90530003D01*
X136995569Y-90530003D01*
X137015190Y-90666473D01*
X137015192Y-90666480D01*
X137051135Y-90745185D01*
X137072471Y-90791903D01*
X137125363Y-90852944D01*
X137162766Y-90896110D01*
X137210655Y-90926886D01*
X137278760Y-90970654D01*
X137411058Y-91009500D01*
X137411061Y-91009500D01*
X137548939Y-91009500D01*
X137548942Y-91009500D01*
X137681240Y-90970654D01*
X137797235Y-90896109D01*
X137887529Y-90791903D01*
X137944808Y-90666480D01*
X137961728Y-90548794D01*
X137991220Y-90484217D01*
X137997336Y-90477648D01*
X139280408Y-89194576D01*
X139284441Y-89190882D01*
X139285519Y-89189977D01*
X139315757Y-89164606D01*
X139336196Y-89129203D01*
X139339134Y-89124589D01*
X139362586Y-89091099D01*
X139362587Y-89091094D01*
X139364992Y-89085938D01*
X139371781Y-89069549D01*
X139373732Y-89064188D01*
X139377841Y-89040882D01*
X139380829Y-89023934D01*
X139382017Y-89018578D01*
X139392597Y-88979098D01*
X139389273Y-88941101D01*
X139389035Y-88938376D01*
X139388795Y-88932884D01*
X139388795Y-81788381D01*
X139408797Y-81720260D01*
X139425694Y-81699291D01*
X139964712Y-81160273D01*
X140027021Y-81126251D01*
X140097836Y-81131315D01*
X140154672Y-81173862D01*
X140179483Y-81240382D01*
X140168418Y-81301712D01*
X140140193Y-81363516D01*
X140140190Y-81363526D01*
X140120569Y-81499996D01*
X140120569Y-81500003D01*
X140140190Y-81636473D01*
X140140192Y-81636480D01*
X140197471Y-81761903D01*
X140264536Y-81839301D01*
X140287766Y-81866110D01*
X140345762Y-81903381D01*
X140403760Y-81940654D01*
X140536058Y-81979500D01*
X140536061Y-81979500D01*
X140673933Y-81979500D01*
X140673942Y-81979500D01*
X140673950Y-81979497D01*
X140674635Y-81979399D01*
X140676331Y-81979500D01*
X140682955Y-81979500D01*
X140682955Y-81979894D01*
X140714900Y-81981797D01*
X140714915Y-81981636D01*
X140720718Y-81982143D01*
X140725207Y-81982410D01*
X140725902Y-81982597D01*
X140757237Y-81979855D01*
X140766622Y-81979035D01*
X140772115Y-81978795D01*
X142914514Y-81978795D01*
X142982635Y-81998797D01*
X143029128Y-82052453D01*
X143040514Y-82104795D01*
X143040514Y-82400005D01*
X143060266Y-82499302D01*
X143116515Y-82583484D01*
X143200697Y-82639733D01*
X143200699Y-82639734D01*
X143274662Y-82654446D01*
X143299994Y-82659485D01*
X143299997Y-82659485D01*
X143300000Y-82659486D01*
X143300001Y-82659486D01*
X144299995Y-82659486D01*
X144300000Y-82659486D01*
X144350889Y-82654447D01*
X144395151Y-82636058D01*
X144465731Y-82628397D01*
X144491706Y-82636009D01*
X144500699Y-82639734D01*
X144599994Y-82659485D01*
X144599997Y-82659485D01*
X144600000Y-82659486D01*
X144600001Y-82659486D01*
X145749999Y-82659486D01*
X145750000Y-82659486D01*
X145849301Y-82639734D01*
X145866268Y-82628397D01*
X145875202Y-82622428D01*
X145942955Y-82601212D01*
X146011422Y-82619994D01*
X146058866Y-82672811D01*
X146071205Y-82727192D01*
X146071205Y-83161616D01*
X146051203Y-83229737D01*
X146034300Y-83250711D01*
X145831402Y-83453609D01*
X145769090Y-83487635D01*
X145742307Y-83490514D01*
X144600000Y-83490514D01*
X144583214Y-83492158D01*
X144549641Y-83495447D01*
X144504611Y-83514044D01*
X144434013Y-83521558D01*
X144408296Y-83513992D01*
X144399300Y-83510265D01*
X144300005Y-83490514D01*
X144300000Y-83490514D01*
X143307690Y-83490514D01*
X143239569Y-83470512D01*
X143218595Y-83453609D01*
X142700557Y-82935571D01*
X142666531Y-82873259D01*
X142664938Y-82864426D01*
X142664808Y-82863520D01*
X142607529Y-82738097D01*
X142517235Y-82633891D01*
X142517234Y-82633890D01*
X142517233Y-82633889D01*
X142401240Y-82559346D01*
X142268947Y-82520501D01*
X142268944Y-82520500D01*
X142268942Y-82520500D01*
X142131058Y-82520500D01*
X142131056Y-82520500D01*
X142131052Y-82520501D01*
X141998759Y-82559346D01*
X141882766Y-82633889D01*
X141792470Y-82738098D01*
X141735192Y-82863519D01*
X141735190Y-82863526D01*
X141715569Y-82999996D01*
X141715569Y-83000003D01*
X141735190Y-83136473D01*
X141735192Y-83136480D01*
X141792471Y-83261903D01*
X141864041Y-83344500D01*
X141882766Y-83366110D01*
X141902976Y-83379098D01*
X141998760Y-83440654D01*
X142131058Y-83479500D01*
X142131061Y-83479500D01*
X142262324Y-83479500D01*
X142330445Y-83499502D01*
X142351419Y-83516405D01*
X143003609Y-84168595D01*
X143037635Y-84230907D01*
X143040514Y-84257690D01*
X143040514Y-85250005D01*
X143060266Y-85349302D01*
X143116515Y-85433484D01*
X143200697Y-85489733D01*
X143200699Y-85489734D01*
X143274662Y-85504446D01*
X143299994Y-85509485D01*
X143299997Y-85509485D01*
X143300000Y-85509486D01*
X143300001Y-85509486D01*
X144299995Y-85509486D01*
X144300000Y-85509486D01*
X144350889Y-85504447D01*
X144395151Y-85486058D01*
X144465731Y-85478397D01*
X144491706Y-85486009D01*
X144500699Y-85489734D01*
X144599994Y-85509485D01*
X144599997Y-85509485D01*
X144600000Y-85509486D01*
X144600001Y-85509486D01*
X145264662Y-85509486D01*
X145332783Y-85529488D01*
X145379276Y-85583144D01*
X145389380Y-85653418D01*
X145359888Y-85717997D01*
X145342470Y-85738098D01*
X145285192Y-85863519D01*
X145285190Y-85863526D01*
X145265569Y-85999996D01*
X145265569Y-86000003D01*
X145285190Y-86136473D01*
X145285192Y-86136480D01*
X145342471Y-86261903D01*
X145428795Y-86361527D01*
X145432766Y-86366110D01*
X145476167Y-86394002D01*
X145522660Y-86447657D01*
X145532765Y-86517931D01*
X145503272Y-86582512D01*
X145476165Y-86605999D01*
X145443118Y-86627236D01*
X145374997Y-86647237D01*
X145306880Y-86627236D01*
X145273834Y-86605999D01*
X145201240Y-86559346D01*
X145201237Y-86559345D01*
X145068947Y-86520501D01*
X145068944Y-86520500D01*
X145068942Y-86520500D01*
X144931058Y-86520500D01*
X144931056Y-86520500D01*
X144931052Y-86520501D01*
X144798759Y-86559346D01*
X144682766Y-86633889D01*
X144592470Y-86738098D01*
X144535192Y-86863519D01*
X144535190Y-86863526D01*
X144515569Y-86999996D01*
X144515569Y-87000003D01*
X144535190Y-87136473D01*
X144535192Y-87136480D01*
X144592471Y-87261903D01*
X144645115Y-87322658D01*
X144682766Y-87366110D01*
X144724503Y-87392932D01*
X144798760Y-87440654D01*
X144931058Y-87479500D01*
X144931061Y-87479500D01*
X145068939Y-87479500D01*
X145068942Y-87479500D01*
X145201240Y-87440654D01*
X145283344Y-87387888D01*
X145306880Y-87372764D01*
X145375001Y-87352762D01*
X145443120Y-87372764D01*
X145474503Y-87392932D01*
X145548760Y-87440654D01*
X145681058Y-87479500D01*
X145681061Y-87479500D01*
X145818939Y-87479500D01*
X145818942Y-87479500D01*
X145909707Y-87452849D01*
X145980703Y-87452849D01*
X146040429Y-87491232D01*
X146069922Y-87555813D01*
X146071205Y-87573745D01*
X146071205Y-88782898D01*
X146070965Y-88788385D01*
X146067403Y-88829098D01*
X146077983Y-88868581D01*
X146079170Y-88873936D01*
X146086267Y-88914186D01*
X146088209Y-88919523D01*
X146095020Y-88935963D01*
X146097415Y-88941101D01*
X146120854Y-88974576D01*
X146123807Y-88979211D01*
X146144243Y-89014606D01*
X146175558Y-89040882D01*
X146179600Y-89044586D01*
X149021376Y-91886363D01*
X149902649Y-92767636D01*
X149936675Y-92829948D01*
X149938271Y-92838799D01*
X149955190Y-92956473D01*
X149955192Y-92956480D01*
X150012471Y-93081903D01*
X150100141Y-93183081D01*
X150102766Y-93186110D01*
X150160762Y-93223381D01*
X150218760Y-93260654D01*
X150351058Y-93299500D01*
X150351061Y-93299500D01*
X150488939Y-93299500D01*
X150488942Y-93299500D01*
X150621240Y-93260654D01*
X150737235Y-93186109D01*
X150827529Y-93081903D01*
X150884808Y-92956480D01*
X150904431Y-92820000D01*
X150904431Y-92819996D01*
X150884809Y-92683526D01*
X150884808Y-92683525D01*
X150884808Y-92683520D01*
X150827529Y-92558097D01*
X150737235Y-92453891D01*
X150737234Y-92453890D01*
X150737233Y-92453889D01*
X150621240Y-92379346D01*
X150488947Y-92340501D01*
X150488944Y-92340500D01*
X150488942Y-92340500D01*
X150488939Y-92340500D01*
X150457677Y-92340500D01*
X150389556Y-92320498D01*
X150368582Y-92303595D01*
X147924991Y-89860004D01*
X149890768Y-89860004D01*
X149909654Y-90063819D01*
X149938127Y-90163891D01*
X149965672Y-90260701D01*
X150056912Y-90443935D01*
X150056913Y-90443936D01*
X150180266Y-90607284D01*
X150331536Y-90745185D01*
X150505566Y-90852940D01*
X150505568Y-90852940D01*
X150505573Y-90852944D01*
X150696444Y-90926888D01*
X150897653Y-90964500D01*
X150897655Y-90964500D01*
X151102345Y-90964500D01*
X151102347Y-90964500D01*
X151303556Y-90926888D01*
X151494427Y-90852944D01*
X151668462Y-90745186D01*
X151819732Y-90607285D01*
X151943088Y-90443935D01*
X152034328Y-90260701D01*
X152090345Y-90063821D01*
X152096640Y-89995880D01*
X152109232Y-89860004D01*
X152109232Y-89859995D01*
X152090345Y-89656180D01*
X152072991Y-89595186D01*
X152034328Y-89459299D01*
X151943088Y-89276065D01*
X151881567Y-89194598D01*
X151819733Y-89112715D01*
X151668463Y-88974814D01*
X151494433Y-88867059D01*
X151494428Y-88867057D01*
X151494427Y-88867056D01*
X151398104Y-88829740D01*
X151303559Y-88793113D01*
X151303560Y-88793113D01*
X151303557Y-88793112D01*
X151303556Y-88793112D01*
X151102347Y-88755500D01*
X150897653Y-88755500D01*
X150696444Y-88793112D01*
X150696439Y-88793113D01*
X150505577Y-88867054D01*
X150505566Y-88867059D01*
X150331536Y-88974814D01*
X150180266Y-89112715D01*
X150056913Y-89276063D01*
X149965671Y-89459301D01*
X149909654Y-89656180D01*
X149890768Y-89859995D01*
X149890768Y-89860004D01*
X147924991Y-89860004D01*
X146765700Y-88700713D01*
X146731674Y-88638401D01*
X146728795Y-88611618D01*
X146728795Y-87088426D01*
X146748797Y-87020305D01*
X146802453Y-86973812D01*
X146872727Y-86963708D01*
X146890288Y-86967528D01*
X146931058Y-86979500D01*
X146931059Y-86979500D01*
X146938521Y-86981691D01*
X146998247Y-87020075D01*
X147027740Y-87084655D01*
X147035190Y-87136473D01*
X147035192Y-87136480D01*
X147092471Y-87261903D01*
X147145115Y-87322658D01*
X147182766Y-87366110D01*
X147224503Y-87392932D01*
X147298760Y-87440654D01*
X147431058Y-87479500D01*
X147431061Y-87479500D01*
X147568939Y-87479500D01*
X147568942Y-87479500D01*
X147701240Y-87440654D01*
X147783344Y-87387888D01*
X147806880Y-87372764D01*
X147875001Y-87352762D01*
X147943120Y-87372764D01*
X147974503Y-87392932D01*
X148048760Y-87440654D01*
X148181058Y-87479500D01*
X148181061Y-87479500D01*
X148318939Y-87479500D01*
X148318942Y-87479500D01*
X148377257Y-87462376D01*
X148448250Y-87462376D01*
X148507976Y-87500759D01*
X148537470Y-87565340D01*
X148534685Y-87604342D01*
X148536474Y-87604600D01*
X148515569Y-87749996D01*
X148515569Y-87750003D01*
X148535190Y-87886473D01*
X148535192Y-87886480D01*
X148570007Y-87962715D01*
X148592471Y-88011903D01*
X148682765Y-88116109D01*
X148682766Y-88116110D01*
X148698257Y-88126065D01*
X148798760Y-88190654D01*
X148931058Y-88229500D01*
X148931061Y-88229500D01*
X149068939Y-88229500D01*
X149068942Y-88229500D01*
X149201240Y-88190654D01*
X149317235Y-88116109D01*
X149407529Y-88011903D01*
X149464808Y-87886480D01*
X149472219Y-87834934D01*
X149484431Y-87750003D01*
X149484431Y-87749996D01*
X149464809Y-87613526D01*
X149464808Y-87613525D01*
X149464808Y-87613520D01*
X149407529Y-87488097D01*
X149381025Y-87457510D01*
X149351534Y-87392932D01*
X149361637Y-87322658D01*
X149363343Y-87320004D01*
X149890768Y-87320004D01*
X149909654Y-87523819D01*
X149964634Y-87717054D01*
X149965672Y-87720701D01*
X150056912Y-87903935D01*
X150056913Y-87903936D01*
X150180266Y-88067284D01*
X150331536Y-88205185D01*
X150505566Y-88312940D01*
X150505568Y-88312940D01*
X150505573Y-88312944D01*
X150696444Y-88386888D01*
X150897653Y-88424500D01*
X150897655Y-88424500D01*
X151102345Y-88424500D01*
X151102347Y-88424500D01*
X151303556Y-88386888D01*
X151494427Y-88312944D01*
X151668462Y-88205186D01*
X151819732Y-88067285D01*
X151943088Y-87903935D01*
X152034328Y-87720701D01*
X152090345Y-87523821D01*
X152103312Y-87383891D01*
X152109232Y-87320004D01*
X152109232Y-87319995D01*
X152092226Y-87136480D01*
X152090345Y-87116179D01*
X152034328Y-86919299D01*
X151943088Y-86736065D01*
X151902538Y-86682368D01*
X151819733Y-86572715D01*
X151668463Y-86434814D01*
X151494433Y-86327059D01*
X151494428Y-86327057D01*
X151494427Y-86327056D01*
X151494422Y-86327054D01*
X151303559Y-86253113D01*
X151303560Y-86253113D01*
X151303557Y-86253112D01*
X151303556Y-86253112D01*
X151102347Y-86215500D01*
X150897653Y-86215500D01*
X150713092Y-86250000D01*
X150696439Y-86253113D01*
X150505577Y-86327054D01*
X150505566Y-86327059D01*
X150331536Y-86434814D01*
X150180266Y-86572715D01*
X150056913Y-86736063D01*
X149965671Y-86919301D01*
X149909654Y-87116180D01*
X149890768Y-87319995D01*
X149890768Y-87320004D01*
X149363343Y-87320004D01*
X149381023Y-87292491D01*
X149407529Y-87261903D01*
X149464808Y-87136480D01*
X149471717Y-87088426D01*
X149484431Y-87000003D01*
X149484431Y-86999996D01*
X149464809Y-86863526D01*
X149464808Y-86863525D01*
X149464808Y-86863520D01*
X149407529Y-86738097D01*
X149381025Y-86707510D01*
X149351534Y-86642932D01*
X149361637Y-86572658D01*
X149381023Y-86542491D01*
X149407529Y-86511903D01*
X149464808Y-86386480D01*
X149482720Y-86261901D01*
X149484431Y-86250003D01*
X149484431Y-86249996D01*
X149464809Y-86113526D01*
X149464808Y-86113525D01*
X149464808Y-86113520D01*
X149407529Y-85988097D01*
X149381025Y-85957510D01*
X149351534Y-85892932D01*
X149361637Y-85822658D01*
X149381026Y-85792489D01*
X149407529Y-85761903D01*
X149464808Y-85636480D01*
X149472477Y-85583144D01*
X149484431Y-85500003D01*
X149484431Y-85499996D01*
X149464809Y-85363526D01*
X149464808Y-85363525D01*
X149464808Y-85363520D01*
X149407529Y-85238097D01*
X149317235Y-85133891D01*
X149317234Y-85133890D01*
X149317233Y-85133889D01*
X149201240Y-85059346D01*
X149068947Y-85020501D01*
X149068944Y-85020500D01*
X149068942Y-85020500D01*
X148931058Y-85020500D01*
X148931056Y-85020500D01*
X148931052Y-85020501D01*
X148798762Y-85059345D01*
X148693120Y-85127236D01*
X148624999Y-85147237D01*
X148556880Y-85127236D01*
X148483378Y-85080000D01*
X148451240Y-85059346D01*
X148451237Y-85059345D01*
X148318947Y-85020501D01*
X148318944Y-85020500D01*
X148318942Y-85020500D01*
X148181058Y-85020500D01*
X148181056Y-85020500D01*
X148181052Y-85020501D01*
X148048759Y-85059346D01*
X147932766Y-85133889D01*
X147842470Y-85238098D01*
X147785192Y-85363519D01*
X147785190Y-85363526D01*
X147765569Y-85499996D01*
X147765569Y-85500003D01*
X147785190Y-85636473D01*
X147785192Y-85636480D01*
X147842470Y-85761902D01*
X147842472Y-85761905D01*
X147868973Y-85792489D01*
X147898466Y-85857070D01*
X147888361Y-85927344D01*
X147868973Y-85957511D01*
X147842472Y-85988094D01*
X147842470Y-85988097D01*
X147785192Y-86113519D01*
X147785190Y-86113526D01*
X147765569Y-86249996D01*
X147765569Y-86250003D01*
X147786474Y-86395400D01*
X147783652Y-86395805D01*
X147783644Y-86452243D01*
X147745251Y-86511963D01*
X147680665Y-86541446D01*
X147627254Y-86537622D01*
X147561477Y-86518308D01*
X147501751Y-86479924D01*
X147472259Y-86415346D01*
X147464808Y-86363520D01*
X147407529Y-86238097D01*
X147317235Y-86133891D01*
X147317234Y-86133890D01*
X147317233Y-86133889D01*
X147201240Y-86059346D01*
X147068947Y-86020501D01*
X147068944Y-86020500D01*
X147068942Y-86020500D01*
X146931058Y-86020500D01*
X146931056Y-86020500D01*
X146931050Y-86020501D01*
X146890292Y-86032469D01*
X146819296Y-86032469D01*
X146759570Y-85994085D01*
X146730077Y-85929504D01*
X146728795Y-85911573D01*
X146728795Y-84780004D01*
X149890768Y-84780004D01*
X149909654Y-84983819D01*
X149965620Y-85180518D01*
X149965672Y-85180701D01*
X150056912Y-85363935D01*
X150056913Y-85363936D01*
X150180266Y-85527284D01*
X150331536Y-85665185D01*
X150505566Y-85772940D01*
X150505568Y-85772940D01*
X150505573Y-85772944D01*
X150696444Y-85846888D01*
X150897653Y-85884500D01*
X150897655Y-85884500D01*
X151102345Y-85884500D01*
X151102347Y-85884500D01*
X151303556Y-85846888D01*
X151494427Y-85772944D01*
X151668462Y-85665186D01*
X151819732Y-85527285D01*
X151943088Y-85363935D01*
X152034328Y-85180701D01*
X152090345Y-84983821D01*
X152096640Y-84915880D01*
X152109232Y-84780004D01*
X152109232Y-84779995D01*
X152090345Y-84576180D01*
X152088631Y-84570156D01*
X152034328Y-84379299D01*
X151943088Y-84196065D01*
X151902538Y-84142368D01*
X151819733Y-84032715D01*
X151668463Y-83894814D01*
X151494433Y-83787059D01*
X151494428Y-83787057D01*
X151494427Y-83787056D01*
X151304803Y-83713595D01*
X151303559Y-83713113D01*
X151303560Y-83713113D01*
X151303557Y-83713112D01*
X151303556Y-83713112D01*
X151102347Y-83675500D01*
X150897653Y-83675500D01*
X150697284Y-83712955D01*
X150696439Y-83713113D01*
X150505577Y-83787054D01*
X150505566Y-83787059D01*
X150331536Y-83894814D01*
X150180266Y-84032715D01*
X150056913Y-84196063D01*
X149965671Y-84379301D01*
X149909654Y-84576180D01*
X149890768Y-84779995D01*
X149890768Y-84780004D01*
X146728795Y-84780004D01*
X146728795Y-83409874D01*
X146732101Y-83384765D01*
X146732597Y-83379098D01*
X146729035Y-83338376D01*
X146728795Y-83332884D01*
X146728795Y-82240004D01*
X149890768Y-82240004D01*
X149909654Y-82443819D01*
X149965397Y-82639734D01*
X149965672Y-82640701D01*
X150056912Y-82823935D01*
X150056913Y-82823936D01*
X150180266Y-82987284D01*
X150331536Y-83125185D01*
X150505566Y-83232940D01*
X150505568Y-83232940D01*
X150505573Y-83232944D01*
X150696444Y-83306888D01*
X150897653Y-83344500D01*
X150897655Y-83344500D01*
X151102345Y-83344500D01*
X151102347Y-83344500D01*
X151303556Y-83306888D01*
X151494427Y-83232944D01*
X151668462Y-83125186D01*
X151819732Y-82987285D01*
X151943088Y-82823935D01*
X152034328Y-82640701D01*
X152090345Y-82443821D01*
X152109232Y-82240000D01*
X152109171Y-82239346D01*
X152090345Y-82036180D01*
X152079709Y-81998797D01*
X152034328Y-81839299D01*
X151943088Y-81656065D01*
X151878776Y-81570902D01*
X151819733Y-81492715D01*
X151668463Y-81354814D01*
X151494433Y-81247059D01*
X151494428Y-81247057D01*
X151494427Y-81247056D01*
X151494422Y-81247054D01*
X151303559Y-81173113D01*
X151303560Y-81173113D01*
X151303557Y-81173112D01*
X151303556Y-81173112D01*
X151102347Y-81135500D01*
X150897653Y-81135500D01*
X150696444Y-81173112D01*
X150696439Y-81173113D01*
X150505577Y-81247054D01*
X150505566Y-81247059D01*
X150331536Y-81354814D01*
X150180266Y-81492715D01*
X150056913Y-81656063D01*
X149965671Y-81839301D01*
X149909654Y-82036180D01*
X149890768Y-82239995D01*
X149890768Y-82240004D01*
X146728795Y-82240004D01*
X146728795Y-80667100D01*
X146729035Y-80661606D01*
X146732597Y-80620902D01*
X146722015Y-80581415D01*
X146720826Y-80576050D01*
X146713732Y-80535810D01*
X146711781Y-80530452D01*
X146704994Y-80514067D01*
X146702586Y-80508902D01*
X146679148Y-80475429D01*
X146676193Y-80470791D01*
X146655757Y-80435394D01*
X146655755Y-80435392D01*
X146624440Y-80409115D01*
X146620397Y-80405411D01*
X145914990Y-79700004D01*
X149890768Y-79700004D01*
X149909654Y-79903819D01*
X149965130Y-80098797D01*
X149965672Y-80100701D01*
X150056912Y-80283935D01*
X150056913Y-80283936D01*
X150180266Y-80447284D01*
X150331536Y-80585185D01*
X150505566Y-80692940D01*
X150505568Y-80692940D01*
X150505573Y-80692944D01*
X150696444Y-80766888D01*
X150897653Y-80804500D01*
X150897655Y-80804500D01*
X151102345Y-80804500D01*
X151102347Y-80804500D01*
X151303556Y-80766888D01*
X151494427Y-80692944D01*
X151668462Y-80585186D01*
X151819732Y-80447285D01*
X151943088Y-80283935D01*
X152034328Y-80100701D01*
X152090345Y-79903821D01*
X152109232Y-79700000D01*
X152090345Y-79496179D01*
X152034328Y-79299299D01*
X151943088Y-79116065D01*
X151884440Y-79038402D01*
X151819733Y-78952715D01*
X151668463Y-78814814D01*
X151494433Y-78707059D01*
X151494428Y-78707057D01*
X151494427Y-78707056D01*
X151303559Y-78633113D01*
X151303560Y-78633113D01*
X151303557Y-78633112D01*
X151303556Y-78633112D01*
X151102347Y-78595500D01*
X150897653Y-78595500D01*
X150696444Y-78633112D01*
X150696439Y-78633113D01*
X150505577Y-78707054D01*
X150505566Y-78707059D01*
X150331536Y-78814814D01*
X150180266Y-78952715D01*
X150056913Y-79116063D01*
X149965671Y-79299301D01*
X149909654Y-79496180D01*
X149890768Y-79699995D01*
X149890768Y-79700004D01*
X145914990Y-79700004D01*
X145744579Y-79529593D01*
X145740887Y-79525564D01*
X145714606Y-79494243D01*
X145714605Y-79494242D01*
X145714604Y-79494241D01*
X145679211Y-79473807D01*
X145674576Y-79470854D01*
X145641101Y-79447415D01*
X145635963Y-79445020D01*
X145619523Y-79438209D01*
X145614186Y-79436267D01*
X145573936Y-79429170D01*
X145568581Y-79427983D01*
X145540653Y-79420499D01*
X145529099Y-79417403D01*
X145529098Y-79417403D01*
X145524099Y-79417840D01*
X145488378Y-79420965D01*
X145482885Y-79421205D01*
X142538381Y-79421205D01*
X142470260Y-79401203D01*
X142449286Y-79384300D01*
X142165700Y-79100714D01*
X142131674Y-79038402D01*
X142128795Y-79011619D01*
X142128795Y-77160004D01*
X149890768Y-77160004D01*
X149909654Y-77363819D01*
X149909655Y-77363821D01*
X149965672Y-77560701D01*
X150056912Y-77743935D01*
X150056913Y-77743936D01*
X150180266Y-77907284D01*
X150331536Y-78045185D01*
X150505566Y-78152940D01*
X150505568Y-78152940D01*
X150505573Y-78152944D01*
X150696444Y-78226888D01*
X150897653Y-78264500D01*
X150897655Y-78264500D01*
X151102345Y-78264500D01*
X151102347Y-78264500D01*
X151303556Y-78226888D01*
X151494427Y-78152944D01*
X151668462Y-78045186D01*
X151819732Y-77907285D01*
X151943088Y-77743935D01*
X152034328Y-77560701D01*
X152090345Y-77363821D01*
X152096640Y-77295880D01*
X152109232Y-77160004D01*
X152109232Y-77159995D01*
X152090345Y-76956180D01*
X152090345Y-76956179D01*
X152034328Y-76759299D01*
X151943088Y-76576065D01*
X151886024Y-76500500D01*
X151819733Y-76412715D01*
X151668463Y-76274814D01*
X151494433Y-76167059D01*
X151494428Y-76167057D01*
X151494427Y-76167056D01*
X151494422Y-76167054D01*
X151303559Y-76093113D01*
X151303560Y-76093113D01*
X151303557Y-76093112D01*
X151303556Y-76093112D01*
X151102347Y-76055500D01*
X150897653Y-76055500D01*
X150696444Y-76093112D01*
X150696439Y-76093113D01*
X150505577Y-76167054D01*
X150505566Y-76167059D01*
X150331536Y-76274814D01*
X150180266Y-76412715D01*
X150056913Y-76576063D01*
X149965671Y-76759301D01*
X149909654Y-76956180D01*
X149890768Y-77159995D01*
X149890768Y-77160004D01*
X142128795Y-77160004D01*
X142128795Y-75620003D01*
X147765569Y-75620003D01*
X147785190Y-75756473D01*
X147785192Y-75756480D01*
X147842471Y-75881903D01*
X147846187Y-75886191D01*
X147932766Y-75986110D01*
X147990762Y-76023381D01*
X148048760Y-76060654D01*
X148181058Y-76099500D01*
X148181061Y-76099500D01*
X148318939Y-76099500D01*
X148318942Y-76099500D01*
X148451240Y-76060654D01*
X148567235Y-75986109D01*
X148657529Y-75881903D01*
X148714808Y-75756480D01*
X148724814Y-75686886D01*
X148734431Y-75620003D01*
X148734431Y-75619996D01*
X148714809Y-75483526D01*
X148714808Y-75483525D01*
X148714808Y-75483520D01*
X148657529Y-75358097D01*
X148567235Y-75253891D01*
X148567234Y-75253890D01*
X148567233Y-75253889D01*
X148451240Y-75179346D01*
X148318947Y-75140501D01*
X148318944Y-75140500D01*
X148318942Y-75140500D01*
X148181058Y-75140500D01*
X148181056Y-75140500D01*
X148181052Y-75140501D01*
X148048759Y-75179346D01*
X147932766Y-75253889D01*
X147842470Y-75358098D01*
X147785192Y-75483519D01*
X147785190Y-75483526D01*
X147765569Y-75619996D01*
X147765569Y-75620003D01*
X142128795Y-75620003D01*
X142128795Y-74620004D01*
X149890768Y-74620004D01*
X149909654Y-74823819D01*
X149965671Y-75020698D01*
X149965672Y-75020701D01*
X150056912Y-75203935D01*
X150056913Y-75203936D01*
X150180266Y-75367284D01*
X150331536Y-75505185D01*
X150505566Y-75612940D01*
X150505568Y-75612940D01*
X150505573Y-75612944D01*
X150696444Y-75686888D01*
X150897653Y-75724500D01*
X150897655Y-75724500D01*
X151102345Y-75724500D01*
X151102347Y-75724500D01*
X151303556Y-75686888D01*
X151494427Y-75612944D01*
X151668462Y-75505186D01*
X151819732Y-75367285D01*
X151826671Y-75358097D01*
X151870546Y-75299996D01*
X151943088Y-75203935D01*
X152034328Y-75020701D01*
X152090345Y-74823821D01*
X152109232Y-74620000D01*
X152090345Y-74416179D01*
X152034328Y-74219299D01*
X151943088Y-74036065D01*
X151887273Y-73962154D01*
X151819733Y-73872715D01*
X151668463Y-73734814D01*
X151494433Y-73627059D01*
X151494428Y-73627057D01*
X151494427Y-73627056D01*
X151303559Y-73553113D01*
X151303560Y-73553113D01*
X151303557Y-73553112D01*
X151303556Y-73553112D01*
X151102347Y-73515500D01*
X150897653Y-73515500D01*
X150696444Y-73553112D01*
X150696439Y-73553113D01*
X150505577Y-73627054D01*
X150505566Y-73627059D01*
X150331536Y-73734814D01*
X150180266Y-73872715D01*
X150056913Y-74036063D01*
X149965671Y-74219301D01*
X149909654Y-74416180D01*
X149890768Y-74619995D01*
X149890768Y-74620004D01*
X142128795Y-74620004D01*
X142128795Y-74267100D01*
X142129035Y-74261606D01*
X142132597Y-74220902D01*
X142122015Y-74181415D01*
X142120826Y-74176050D01*
X142113732Y-74135810D01*
X142111781Y-74130452D01*
X142104990Y-74114057D01*
X142102588Y-74108905D01*
X142102586Y-74108902D01*
X142079133Y-74075408D01*
X142076194Y-74070793D01*
X142055757Y-74035394D01*
X142024451Y-74009125D01*
X142020398Y-74005411D01*
X141977141Y-73962154D01*
X141512154Y-73497168D01*
X141144579Y-73129593D01*
X141140887Y-73125564D01*
X141114606Y-73094243D01*
X141114605Y-73094242D01*
X141114604Y-73094241D01*
X141079211Y-73073807D01*
X141074576Y-73070854D01*
X141041101Y-73047415D01*
X141035963Y-73045020D01*
X141019523Y-73038209D01*
X141014186Y-73036267D01*
X140973936Y-73029170D01*
X140968581Y-73027983D01*
X140940653Y-73020499D01*
X140929099Y-73017403D01*
X140929098Y-73017403D01*
X140924099Y-73017840D01*
X140888378Y-73020965D01*
X140882885Y-73021205D01*
X140307110Y-73021205D01*
X140238989Y-73001203D01*
X140224806Y-72988912D01*
X140224045Y-72989792D01*
X140217237Y-72983893D01*
X140217235Y-72983891D01*
X140101240Y-72909346D01*
X139968947Y-72870501D01*
X139968944Y-72870500D01*
X139968942Y-72870500D01*
X139831058Y-72870500D01*
X139831056Y-72870500D01*
X139831052Y-72870501D01*
X139698759Y-72909346D01*
X139582766Y-72983889D01*
X139492470Y-73088098D01*
X139435192Y-73213519D01*
X139435190Y-73213526D01*
X139415569Y-73349996D01*
X139415569Y-73350003D01*
X139435190Y-73486473D01*
X139435192Y-73486480D01*
X139492471Y-73611903D01*
X139582411Y-73715700D01*
X139582766Y-73716110D01*
X139640762Y-73753381D01*
X139698760Y-73790654D01*
X139831058Y-73829500D01*
X139831061Y-73829500D01*
X139968939Y-73829500D01*
X139968942Y-73829500D01*
X140101240Y-73790654D01*
X140217235Y-73716109D01*
X140217240Y-73716102D01*
X140224045Y-73710208D01*
X140226417Y-73712945D01*
X140271601Y-73683902D01*
X140307110Y-73678795D01*
X140711619Y-73678795D01*
X140779740Y-73698797D01*
X140800714Y-73715700D01*
X141434300Y-74349286D01*
X141468326Y-74411598D01*
X141471205Y-74438381D01*
X141471205Y-75102029D01*
X141451203Y-75170150D01*
X141397547Y-75216643D01*
X141327273Y-75226747D01*
X141262693Y-75197253D01*
X141256110Y-75191124D01*
X141205486Y-75140500D01*
X141144579Y-75079593D01*
X141140887Y-75075564D01*
X141114606Y-75044243D01*
X141114605Y-75044242D01*
X141114604Y-75044241D01*
X141079211Y-75023807D01*
X141074576Y-75020854D01*
X141041101Y-74997415D01*
X141035963Y-74995020D01*
X141019523Y-74988209D01*
X141014186Y-74986267D01*
X140973936Y-74979170D01*
X140968581Y-74977983D01*
X140940653Y-74970499D01*
X140929099Y-74967403D01*
X140929098Y-74967403D01*
X140924099Y-74967840D01*
X140888378Y-74970965D01*
X140882885Y-74971205D01*
X140507110Y-74971205D01*
X140438989Y-74951203D01*
X140424806Y-74938912D01*
X140424045Y-74939792D01*
X140417237Y-74933893D01*
X140417235Y-74933891D01*
X140301240Y-74859346D01*
X140168947Y-74820501D01*
X140168944Y-74820500D01*
X140168942Y-74820500D01*
X140031058Y-74820500D01*
X140031056Y-74820500D01*
X140031052Y-74820501D01*
X139898759Y-74859346D01*
X139782766Y-74933889D01*
X139692470Y-75038098D01*
X139635192Y-75163519D01*
X139635190Y-75163526D01*
X139615569Y-75299996D01*
X139615569Y-75300003D01*
X139635190Y-75436473D01*
X139635192Y-75436480D01*
X139692471Y-75561903D01*
X139782411Y-75665700D01*
X139782766Y-75666110D01*
X139815095Y-75686886D01*
X139898760Y-75740654D01*
X140031058Y-75779500D01*
X140031061Y-75779500D01*
X140168939Y-75779500D01*
X140168942Y-75779500D01*
X140301240Y-75740654D01*
X140417235Y-75666109D01*
X140417240Y-75666102D01*
X140424045Y-75660208D01*
X140426417Y-75662945D01*
X140471601Y-75633902D01*
X140507110Y-75628795D01*
X140711619Y-75628795D01*
X140779740Y-75648797D01*
X140800714Y-75665700D01*
X140984300Y-75849286D01*
X141018326Y-75911598D01*
X141021205Y-75938381D01*
X141021205Y-79170600D01*
X141001203Y-79238721D01*
X140954458Y-79279225D01*
X140955346Y-79280763D01*
X140947442Y-79285325D01*
X140924029Y-79295022D01*
X140918904Y-79297412D01*
X140885419Y-79320856D01*
X140880786Y-79323808D01*
X140845397Y-79344240D01*
X140845392Y-79344244D01*
X140819116Y-79375558D01*
X140815403Y-79379610D01*
X138839609Y-81355404D01*
X138835556Y-81359118D01*
X138804242Y-81385394D01*
X138783809Y-81420786D01*
X138780856Y-81425421D01*
X138757412Y-81458904D01*
X138755022Y-81464029D01*
X138748203Y-81480492D01*
X138746266Y-81485814D01*
X138739171Y-81526052D01*
X138737982Y-81531417D01*
X138727403Y-81570896D01*
X138727403Y-81570902D01*
X138730965Y-81611610D01*
X138731205Y-81617103D01*
X138731205Y-88761619D01*
X138711203Y-88829740D01*
X138694300Y-88850714D01*
X137531419Y-90013595D01*
X137469107Y-90047621D01*
X137442324Y-90050500D01*
X137411058Y-90050500D01*
X137411056Y-90050500D01*
X137411052Y-90050501D01*
X137278759Y-90089346D01*
X137162766Y-90163889D01*
X137072470Y-90268098D01*
X137015192Y-90393519D01*
X137015190Y-90393526D01*
X136995569Y-90529996D01*
X136995569Y-90530003D01*
X135590340Y-90530003D01*
X135569733Y-90502715D01*
X135418463Y-90364814D01*
X135244433Y-90257059D01*
X135244428Y-90257057D01*
X135244427Y-90257056D01*
X135053559Y-90183113D01*
X135053560Y-90183113D01*
X135053557Y-90183112D01*
X135053556Y-90183112D01*
X134852347Y-90145500D01*
X134647653Y-90145500D01*
X134446444Y-90183112D01*
X134446439Y-90183113D01*
X134255577Y-90257054D01*
X134255566Y-90257059D01*
X134081536Y-90364814D01*
X133930266Y-90502715D01*
X133806913Y-90666063D01*
X133715671Y-90849301D01*
X133659654Y-91046180D01*
X133640768Y-91249995D01*
X133640768Y-91250004D01*
X133319232Y-91250004D01*
X133319232Y-91250000D01*
X133300345Y-91046179D01*
X133244328Y-90849299D01*
X133153088Y-90666065D01*
X133112538Y-90612368D01*
X133029733Y-90502715D01*
X132878463Y-90364814D01*
X132704433Y-90257059D01*
X132704428Y-90257057D01*
X132704427Y-90257056D01*
X132513559Y-90183113D01*
X132513560Y-90183113D01*
X132513557Y-90183112D01*
X132513556Y-90183112D01*
X132312347Y-90145500D01*
X132107653Y-90145500D01*
X131906444Y-90183112D01*
X131906439Y-90183113D01*
X131715577Y-90257054D01*
X131715566Y-90257059D01*
X131541536Y-90364814D01*
X131390266Y-90502715D01*
X131266912Y-90666064D01*
X131266911Y-90666065D01*
X131239290Y-90721536D01*
X131191021Y-90773599D01*
X131122266Y-90791301D01*
X131054856Y-90769021D01*
X131010192Y-90713834D01*
X131000500Y-90665372D01*
X131000500Y-89861603D01*
X131020502Y-89793482D01*
X131074158Y-89746989D01*
X131144432Y-89736885D01*
X131196503Y-89756839D01*
X131260697Y-89799733D01*
X131260699Y-89799734D01*
X131334933Y-89814500D01*
X133085066Y-89814499D01*
X133085069Y-89814498D01*
X133085073Y-89814498D01*
X133134326Y-89804701D01*
X133159301Y-89799734D01*
X133243484Y-89743484D01*
X133299734Y-89659301D01*
X133314500Y-89585067D01*
X133314500Y-88710004D01*
X133640768Y-88710004D01*
X133659654Y-88913819D01*
X133689461Y-89018578D01*
X133715672Y-89110701D01*
X133806912Y-89293935D01*
X133806913Y-89293936D01*
X133930266Y-89457284D01*
X134081536Y-89595185D01*
X134255566Y-89702940D01*
X134255568Y-89702940D01*
X134255573Y-89702944D01*
X134446444Y-89776888D01*
X134647653Y-89814500D01*
X134647655Y-89814500D01*
X134852345Y-89814500D01*
X134852347Y-89814500D01*
X135053556Y-89776888D01*
X135244427Y-89702944D01*
X135418462Y-89595186D01*
X135569732Y-89457285D01*
X135693088Y-89293935D01*
X135784328Y-89110701D01*
X135840345Y-88913821D01*
X135849613Y-88813809D01*
X135859232Y-88710004D01*
X135859232Y-88709995D01*
X135840345Y-88506180D01*
X135817105Y-88424500D01*
X135784328Y-88309299D01*
X135693088Y-88126065D01*
X135652538Y-88072368D01*
X135569733Y-87962715D01*
X135418463Y-87824814D01*
X135244433Y-87717059D01*
X135244428Y-87717057D01*
X135244427Y-87717056D01*
X135244422Y-87717054D01*
X135053559Y-87643113D01*
X135053560Y-87643113D01*
X135053557Y-87643112D01*
X135053556Y-87643112D01*
X134852347Y-87605500D01*
X134647653Y-87605500D01*
X134446444Y-87643112D01*
X134446439Y-87643113D01*
X134255577Y-87717054D01*
X134255566Y-87717059D01*
X134081536Y-87824814D01*
X133930266Y-87962715D01*
X133806913Y-88126063D01*
X133715671Y-88309301D01*
X133659654Y-88506180D01*
X133640768Y-88709995D01*
X133640768Y-88710004D01*
X133314500Y-88710004D01*
X133314499Y-87834934D01*
X133314498Y-87834931D01*
X133314498Y-87834926D01*
X133299734Y-87760699D01*
X133243483Y-87676515D01*
X133159302Y-87620266D01*
X133085067Y-87605500D01*
X131334936Y-87605500D01*
X131334926Y-87605501D01*
X131260698Y-87620265D01*
X131196502Y-87663161D01*
X131128749Y-87684376D01*
X131060282Y-87665593D01*
X131012839Y-87612776D01*
X131000500Y-87558396D01*
X131000500Y-85080000D01*
X131387540Y-85080000D01*
X131416138Y-85180513D01*
X131416140Y-85180518D01*
X131507340Y-85363672D01*
X131630637Y-85526946D01*
X131781838Y-85664784D01*
X131955796Y-85772493D01*
X131955803Y-85772496D01*
X132146576Y-85846403D01*
X132150000Y-85847042D01*
X132150000Y-85181643D01*
X132176900Y-85204952D01*
X132307685Y-85264680D01*
X132414237Y-85280000D01*
X132485763Y-85280000D01*
X132592315Y-85264680D01*
X132723100Y-85204952D01*
X132750000Y-85181643D01*
X132750000Y-85847042D01*
X132753423Y-85846403D01*
X132944196Y-85772496D01*
X132944203Y-85772493D01*
X133118161Y-85664784D01*
X133269362Y-85526946D01*
X133392659Y-85363672D01*
X133483859Y-85180518D01*
X133483861Y-85180513D01*
X133512460Y-85080000D01*
X132851554Y-85080000D01*
X132909493Y-84989844D01*
X132950000Y-84851889D01*
X132950000Y-84708111D01*
X132909493Y-84570156D01*
X132851554Y-84480000D01*
X133512460Y-84480000D01*
X133483861Y-84379486D01*
X133483859Y-84379481D01*
X133392659Y-84196327D01*
X133269362Y-84033053D01*
X133118161Y-83895215D01*
X132944203Y-83787506D01*
X132944196Y-83787503D01*
X132753419Y-83713595D01*
X132753417Y-83713594D01*
X132750000Y-83712955D01*
X132750000Y-84378356D01*
X132723100Y-84355048D01*
X132592315Y-84295320D01*
X132485763Y-84280000D01*
X132414237Y-84280000D01*
X132307685Y-84295320D01*
X132176900Y-84355048D01*
X132150000Y-84378356D01*
X132150000Y-83712956D01*
X132149999Y-83712955D01*
X132146582Y-83713594D01*
X132146580Y-83713595D01*
X131955803Y-83787503D01*
X131955796Y-83787506D01*
X131781838Y-83895215D01*
X131630637Y-84033053D01*
X131507340Y-84196327D01*
X131416140Y-84379481D01*
X131416138Y-84379486D01*
X131387540Y-84480000D01*
X132048446Y-84480000D01*
X131990507Y-84570156D01*
X131950000Y-84708111D01*
X131950000Y-84851889D01*
X131990507Y-84989844D01*
X132048446Y-85080000D01*
X131387540Y-85080000D01*
X131000500Y-85080000D01*
X131000500Y-82240004D01*
X131340768Y-82240004D01*
X131359654Y-82443819D01*
X131415397Y-82639734D01*
X131415672Y-82640701D01*
X131506912Y-82823935D01*
X131506913Y-82823936D01*
X131630266Y-82987284D01*
X131781536Y-83125185D01*
X131955566Y-83232940D01*
X131955568Y-83232940D01*
X131955573Y-83232944D01*
X132146444Y-83306888D01*
X132347653Y-83344500D01*
X132347655Y-83344500D01*
X132552345Y-83344500D01*
X132552347Y-83344500D01*
X132753556Y-83306888D01*
X132944427Y-83232944D01*
X133118462Y-83125186D01*
X133269732Y-82987285D01*
X133393088Y-82823935D01*
X133464758Y-82680003D01*
X135175569Y-82680003D01*
X135195190Y-82816473D01*
X135195192Y-82816480D01*
X135252471Y-82941903D01*
X135342765Y-83046109D01*
X135342766Y-83046110D01*
X135400762Y-83083381D01*
X135458760Y-83120654D01*
X135591058Y-83159500D01*
X135591061Y-83159500D01*
X135728939Y-83159500D01*
X135728942Y-83159500D01*
X135861240Y-83120654D01*
X135977235Y-83046109D01*
X136067529Y-82941903D01*
X136124808Y-82816480D01*
X136144431Y-82680000D01*
X136144431Y-82679996D01*
X136124809Y-82543526D01*
X136124808Y-82543525D01*
X136124808Y-82543520D01*
X136067529Y-82418097D01*
X135977235Y-82313891D01*
X135977234Y-82313890D01*
X135977233Y-82313889D01*
X135861240Y-82239346D01*
X135728947Y-82200501D01*
X135728944Y-82200500D01*
X135728942Y-82200500D01*
X135591058Y-82200500D01*
X135591056Y-82200500D01*
X135591052Y-82200501D01*
X135458759Y-82239346D01*
X135342766Y-82313889D01*
X135252470Y-82418098D01*
X135195192Y-82543519D01*
X135195190Y-82543526D01*
X135175569Y-82679996D01*
X135175569Y-82680003D01*
X133464758Y-82680003D01*
X133484328Y-82640701D01*
X133540345Y-82443821D01*
X133559232Y-82240000D01*
X133559171Y-82239346D01*
X133540345Y-82036180D01*
X133529709Y-81998797D01*
X133484328Y-81839299D01*
X133393088Y-81656065D01*
X133328776Y-81570902D01*
X133269733Y-81492715D01*
X133118463Y-81354814D01*
X132944433Y-81247059D01*
X132944428Y-81247057D01*
X132944427Y-81247056D01*
X132944422Y-81247054D01*
X132753559Y-81173113D01*
X132753560Y-81173113D01*
X132753557Y-81173112D01*
X132753556Y-81173112D01*
X132552347Y-81135500D01*
X132347653Y-81135500D01*
X132146444Y-81173112D01*
X132146439Y-81173113D01*
X131955577Y-81247054D01*
X131955566Y-81247059D01*
X131781536Y-81354814D01*
X131630266Y-81492715D01*
X131506913Y-81656063D01*
X131415671Y-81839301D01*
X131359654Y-82036180D01*
X131340768Y-82239995D01*
X131340768Y-82240004D01*
X131000500Y-82240004D01*
X131000500Y-79700004D01*
X131340768Y-79700004D01*
X131359654Y-79903819D01*
X131415130Y-80098797D01*
X131415672Y-80100701D01*
X131506912Y-80283935D01*
X131506913Y-80283936D01*
X131630266Y-80447284D01*
X131781536Y-80585185D01*
X131955566Y-80692940D01*
X131955568Y-80692940D01*
X131955573Y-80692944D01*
X132146444Y-80766888D01*
X132347653Y-80804500D01*
X132347655Y-80804500D01*
X132552345Y-80804500D01*
X132552347Y-80804500D01*
X132753556Y-80766888D01*
X132944427Y-80692944D01*
X133118462Y-80585186D01*
X133269732Y-80447285D01*
X133393088Y-80283935D01*
X133484328Y-80100701D01*
X133540345Y-79903821D01*
X133559232Y-79700000D01*
X133540345Y-79496179D01*
X133484328Y-79299299D01*
X133393088Y-79116065D01*
X133334440Y-79038402D01*
X133269733Y-78952715D01*
X133118463Y-78814814D01*
X132944433Y-78707059D01*
X132944428Y-78707057D01*
X132944427Y-78707056D01*
X132753559Y-78633113D01*
X132753560Y-78633113D01*
X132753557Y-78633112D01*
X132753556Y-78633112D01*
X132552347Y-78595500D01*
X132347653Y-78595500D01*
X132146444Y-78633112D01*
X132146439Y-78633113D01*
X131955577Y-78707054D01*
X131955566Y-78707059D01*
X131781536Y-78814814D01*
X131630266Y-78952715D01*
X131506913Y-79116063D01*
X131415671Y-79299301D01*
X131359654Y-79496180D01*
X131340768Y-79699995D01*
X131340768Y-79700004D01*
X131000500Y-79700004D01*
X131000500Y-77160004D01*
X131340768Y-77160004D01*
X131359654Y-77363819D01*
X131359655Y-77363821D01*
X131415672Y-77560701D01*
X131506912Y-77743935D01*
X131506913Y-77743936D01*
X131630266Y-77907284D01*
X131781536Y-78045185D01*
X131955566Y-78152940D01*
X131955568Y-78152940D01*
X131955573Y-78152944D01*
X132146444Y-78226888D01*
X132347653Y-78264500D01*
X132347655Y-78264500D01*
X132552345Y-78264500D01*
X132552347Y-78264500D01*
X132753556Y-78226888D01*
X132944427Y-78152944D01*
X133118462Y-78045186D01*
X133269732Y-77907285D01*
X133393088Y-77743935D01*
X133484328Y-77560701D01*
X133540345Y-77363821D01*
X133546640Y-77295880D01*
X133559232Y-77160004D01*
X133559232Y-77159995D01*
X133542553Y-76980003D01*
X135055569Y-76980003D01*
X135075190Y-77116473D01*
X135075192Y-77116480D01*
X135132471Y-77241903D01*
X135222765Y-77346109D01*
X135222766Y-77346110D01*
X135280762Y-77383381D01*
X135338760Y-77420654D01*
X135471058Y-77459500D01*
X135471061Y-77459500D01*
X135608939Y-77459500D01*
X135608942Y-77459500D01*
X135741240Y-77420654D01*
X135857235Y-77346109D01*
X135947529Y-77241903D01*
X136004808Y-77116480D01*
X136024431Y-76980000D01*
X136024431Y-76979996D01*
X136004809Y-76843526D01*
X136004808Y-76843525D01*
X136004808Y-76843520D01*
X135947529Y-76718097D01*
X135857235Y-76613891D01*
X135857234Y-76613890D01*
X135857233Y-76613889D01*
X135741240Y-76539346D01*
X135608947Y-76500501D01*
X135608944Y-76500500D01*
X135608942Y-76500500D01*
X135471058Y-76500500D01*
X135471056Y-76500500D01*
X135471052Y-76500501D01*
X135338759Y-76539346D01*
X135222766Y-76613889D01*
X135132470Y-76718098D01*
X135075192Y-76843519D01*
X135075190Y-76843526D01*
X135055569Y-76979996D01*
X135055569Y-76980003D01*
X133542553Y-76980003D01*
X133540345Y-76956180D01*
X133540345Y-76956179D01*
X133484328Y-76759299D01*
X133393088Y-76576065D01*
X133336024Y-76500500D01*
X133269733Y-76412715D01*
X133118463Y-76274814D01*
X132944433Y-76167059D01*
X132944428Y-76167057D01*
X132944427Y-76167056D01*
X132944422Y-76167054D01*
X132753559Y-76093113D01*
X132753560Y-76093113D01*
X132753557Y-76093112D01*
X132753556Y-76093112D01*
X132552347Y-76055500D01*
X132347653Y-76055500D01*
X132146444Y-76093112D01*
X132146439Y-76093113D01*
X131955577Y-76167054D01*
X131955566Y-76167059D01*
X131781536Y-76274814D01*
X131630266Y-76412715D01*
X131506913Y-76576063D01*
X131415671Y-76759301D01*
X131359654Y-76956180D01*
X131340768Y-77159995D01*
X131340768Y-77160004D01*
X131000500Y-77160004D01*
X131000500Y-74620004D01*
X131340768Y-74620004D01*
X131359654Y-74823819D01*
X131415671Y-75020698D01*
X131415672Y-75020701D01*
X131506912Y-75203935D01*
X131506913Y-75203936D01*
X131630266Y-75367284D01*
X131781536Y-75505185D01*
X131955566Y-75612940D01*
X131955568Y-75612940D01*
X131955573Y-75612944D01*
X132146444Y-75686888D01*
X132347653Y-75724500D01*
X132347655Y-75724500D01*
X132552345Y-75724500D01*
X132552347Y-75724500D01*
X132753556Y-75686888D01*
X132944427Y-75612944D01*
X133118462Y-75505186D01*
X133269732Y-75367285D01*
X133276671Y-75358097D01*
X133320546Y-75299996D01*
X133393088Y-75203935D01*
X133484328Y-75020701D01*
X133540345Y-74823821D01*
X133559232Y-74620000D01*
X133540345Y-74416179D01*
X133484328Y-74219299D01*
X133393088Y-74036065D01*
X133337273Y-73962154D01*
X133269733Y-73872715D01*
X133118463Y-73734814D01*
X132944433Y-73627059D01*
X132944428Y-73627057D01*
X132944427Y-73627056D01*
X132753559Y-73553113D01*
X132753560Y-73553113D01*
X132753557Y-73553112D01*
X132753556Y-73553112D01*
X132552347Y-73515500D01*
X132347653Y-73515500D01*
X132146444Y-73553112D01*
X132146439Y-73553113D01*
X131955577Y-73627054D01*
X131955566Y-73627059D01*
X131781536Y-73734814D01*
X131630266Y-73872715D01*
X131506913Y-74036063D01*
X131415671Y-74219301D01*
X131359654Y-74416180D01*
X131340768Y-74619995D01*
X131340768Y-74620004D01*
X131000500Y-74620004D01*
X131000500Y-72080004D01*
X131340768Y-72080004D01*
X131359654Y-72283819D01*
X131359655Y-72283821D01*
X131415672Y-72480701D01*
X131506912Y-72663935D01*
X131506913Y-72663936D01*
X131630266Y-72827284D01*
X131781536Y-72965185D01*
X131955566Y-73072940D01*
X131955568Y-73072940D01*
X131955573Y-73072944D01*
X132146444Y-73146888D01*
X132347653Y-73184500D01*
X132347655Y-73184500D01*
X132552345Y-73184500D01*
X132552347Y-73184500D01*
X132753556Y-73146888D01*
X132944427Y-73072944D01*
X133118462Y-72965186D01*
X133269732Y-72827285D01*
X133393088Y-72663935D01*
X133484328Y-72480701D01*
X133540345Y-72283821D01*
X133559232Y-72080004D01*
X149890768Y-72080004D01*
X149909654Y-72283819D01*
X149909655Y-72283821D01*
X149965672Y-72480701D01*
X150056912Y-72663935D01*
X150056913Y-72663936D01*
X150180266Y-72827284D01*
X150331536Y-72965185D01*
X150505566Y-73072940D01*
X150505568Y-73072940D01*
X150505573Y-73072944D01*
X150696444Y-73146888D01*
X150897653Y-73184500D01*
X150897655Y-73184500D01*
X151102345Y-73184500D01*
X151102347Y-73184500D01*
X151303556Y-73146888D01*
X151494427Y-73072944D01*
X151668462Y-72965186D01*
X151819732Y-72827285D01*
X151943088Y-72663935D01*
X152034328Y-72480701D01*
X152090345Y-72283821D01*
X152109232Y-72080000D01*
X152090345Y-71876179D01*
X152034328Y-71679299D01*
X151943088Y-71496065D01*
X151902538Y-71442368D01*
X151819733Y-71332715D01*
X151668463Y-71194814D01*
X151494433Y-71087059D01*
X151494428Y-71087057D01*
X151494427Y-71087056D01*
X151303559Y-71013113D01*
X151303560Y-71013113D01*
X151303557Y-71013112D01*
X151303556Y-71013112D01*
X151102347Y-70975500D01*
X150897653Y-70975500D01*
X150696444Y-71013112D01*
X150696439Y-71013113D01*
X150505577Y-71087054D01*
X150505566Y-71087059D01*
X150331536Y-71194814D01*
X150180266Y-71332715D01*
X150056913Y-71496063D01*
X149965671Y-71679301D01*
X149909654Y-71876180D01*
X149890768Y-72079995D01*
X149890768Y-72080004D01*
X133559232Y-72080004D01*
X133559232Y-72080000D01*
X133540345Y-71876179D01*
X133484328Y-71679299D01*
X133393088Y-71496065D01*
X133352538Y-71442368D01*
X133269733Y-71332715D01*
X133118463Y-71194814D01*
X132944433Y-71087059D01*
X132944428Y-71087057D01*
X132944427Y-71087056D01*
X132753559Y-71013113D01*
X132753560Y-71013113D01*
X132753557Y-71013112D01*
X132753556Y-71013112D01*
X132552347Y-70975500D01*
X132347653Y-70975500D01*
X132146444Y-71013112D01*
X132146439Y-71013113D01*
X131955577Y-71087054D01*
X131955566Y-71087059D01*
X131781536Y-71194814D01*
X131630266Y-71332715D01*
X131506913Y-71496063D01*
X131415671Y-71679301D01*
X131359654Y-71876180D01*
X131340768Y-72079995D01*
X131340768Y-72080004D01*
X131000500Y-72080004D01*
X131000500Y-69540004D01*
X131340768Y-69540004D01*
X131359654Y-69743819D01*
X131359655Y-69743821D01*
X131415672Y-69940701D01*
X131506912Y-70123935D01*
X131506913Y-70123936D01*
X131630266Y-70287284D01*
X131781536Y-70425185D01*
X131955566Y-70532940D01*
X131955568Y-70532940D01*
X131955573Y-70532944D01*
X132146444Y-70606888D01*
X132347653Y-70644500D01*
X132347655Y-70644500D01*
X132552345Y-70644500D01*
X132552347Y-70644500D01*
X132753556Y-70606888D01*
X132944427Y-70532944D01*
X133118462Y-70425186D01*
X133269732Y-70287285D01*
X133393088Y-70123935D01*
X133484328Y-69940701D01*
X133540345Y-69743821D01*
X133559232Y-69540004D01*
X149890768Y-69540004D01*
X149909654Y-69743819D01*
X149909655Y-69743821D01*
X149965672Y-69940701D01*
X150056912Y-70123935D01*
X150056913Y-70123936D01*
X150180266Y-70287284D01*
X150331536Y-70425185D01*
X150505566Y-70532940D01*
X150505568Y-70532940D01*
X150505573Y-70532944D01*
X150696444Y-70606888D01*
X150897653Y-70644500D01*
X150897655Y-70644500D01*
X151102345Y-70644500D01*
X151102347Y-70644500D01*
X151303556Y-70606888D01*
X151494427Y-70532944D01*
X151668462Y-70425186D01*
X151819732Y-70287285D01*
X151943088Y-70123935D01*
X152034328Y-69940701D01*
X152090345Y-69743821D01*
X152109232Y-69540000D01*
X152090345Y-69336179D01*
X152034328Y-69139299D01*
X151943088Y-68956065D01*
X151902538Y-68902368D01*
X151819733Y-68792715D01*
X151668463Y-68654814D01*
X151494433Y-68547059D01*
X151494428Y-68547057D01*
X151494427Y-68547056D01*
X151303559Y-68473113D01*
X151303560Y-68473113D01*
X151303557Y-68473112D01*
X151303556Y-68473112D01*
X151102347Y-68435500D01*
X150897653Y-68435500D01*
X150696444Y-68473112D01*
X150696439Y-68473113D01*
X150505577Y-68547054D01*
X150505566Y-68547059D01*
X150331536Y-68654814D01*
X150180266Y-68792715D01*
X150056913Y-68956063D01*
X149965671Y-69139301D01*
X149909654Y-69336180D01*
X149890768Y-69539995D01*
X149890768Y-69540004D01*
X133559232Y-69540004D01*
X133559232Y-69540000D01*
X133540345Y-69336179D01*
X133484328Y-69139299D01*
X133393088Y-68956065D01*
X133352538Y-68902368D01*
X133269733Y-68792715D01*
X133118463Y-68654814D01*
X132944433Y-68547059D01*
X132944428Y-68547057D01*
X132944427Y-68547056D01*
X132753559Y-68473113D01*
X132753560Y-68473113D01*
X132753557Y-68473112D01*
X132753556Y-68473112D01*
X132552347Y-68435500D01*
X132347653Y-68435500D01*
X132146444Y-68473112D01*
X132146439Y-68473113D01*
X131955577Y-68547054D01*
X131955566Y-68547059D01*
X131781536Y-68654814D01*
X131630266Y-68792715D01*
X131506913Y-68956063D01*
X131415671Y-69139301D01*
X131359654Y-69336180D01*
X131340768Y-69539995D01*
X131340768Y-69540004D01*
X131000500Y-69540004D01*
X131000500Y-67875063D01*
X131345500Y-67875063D01*
X131345501Y-67875073D01*
X131360265Y-67949300D01*
X131416516Y-68033484D01*
X131500697Y-68089733D01*
X131500699Y-68089734D01*
X131574933Y-68104500D01*
X133325066Y-68104499D01*
X133325069Y-68104498D01*
X133325073Y-68104498D01*
X133374326Y-68094701D01*
X133399301Y-68089734D01*
X133483484Y-68033484D01*
X133539734Y-67949301D01*
X133554500Y-67875067D01*
X133554500Y-67875063D01*
X149895500Y-67875063D01*
X149895501Y-67875073D01*
X149910265Y-67949300D01*
X149966516Y-68033484D01*
X150050697Y-68089733D01*
X150050699Y-68089734D01*
X150124933Y-68104500D01*
X151875066Y-68104499D01*
X151875069Y-68104498D01*
X151875073Y-68104498D01*
X151924326Y-68094701D01*
X151949301Y-68089734D01*
X152033484Y-68033484D01*
X152089734Y-67949301D01*
X152104500Y-67875067D01*
X152104499Y-66124934D01*
X152104498Y-66124930D01*
X152104498Y-66124926D01*
X152089734Y-66050699D01*
X152033483Y-65966515D01*
X151949302Y-65910266D01*
X151875067Y-65895500D01*
X150124936Y-65895500D01*
X150124926Y-65895501D01*
X150050699Y-65910265D01*
X149966515Y-65966516D01*
X149910266Y-66050697D01*
X149895500Y-66124930D01*
X149895500Y-67875063D01*
X133554500Y-67875063D01*
X133554499Y-66124934D01*
X133554498Y-66124930D01*
X133554498Y-66124926D01*
X133539734Y-66050699D01*
X133483483Y-65966515D01*
X133399302Y-65910266D01*
X133325067Y-65895500D01*
X131574936Y-65895500D01*
X131574926Y-65895501D01*
X131500699Y-65910265D01*
X131416515Y-65966516D01*
X131360266Y-66050697D01*
X131345500Y-66124930D01*
X131345500Y-67875063D01*
X131000500Y-67875063D01*
X131000500Y-65503541D01*
X131000896Y-65496482D01*
X131003469Y-65473648D01*
X131003470Y-65473645D01*
X131003470Y-65473633D01*
X131013907Y-65394361D01*
X131019893Y-65369218D01*
X131031770Y-65335276D01*
X131033013Y-65332019D01*
X131055404Y-65277961D01*
X131065115Y-65259164D01*
X131086883Y-65224521D01*
X131090229Y-65219710D01*
X131126960Y-65171842D01*
X131132374Y-65165667D01*
X131165667Y-65132374D01*
X131171842Y-65126960D01*
X131219710Y-65090229D01*
X131224521Y-65086883D01*
X131259164Y-65065115D01*
X131277961Y-65055404D01*
X131332019Y-65033013D01*
X131335276Y-65031770D01*
X131369218Y-65019893D01*
X131394361Y-65013907D01*
X131473624Y-65003471D01*
X131496489Y-65000895D01*
X131503541Y-65000500D01*
X151996458Y-65000500D01*
X152003511Y-65000895D01*
G37*
%TD.AperFunction*%
M02*
