%TF.GenerationSoftware,KiCad,Pcbnew,7.0.8*%
%TF.CreationDate,2024-04-05T01:26:40-03:00*%
%TF.ProjectId,iW-Little,69572d4c-6974-4746-9c65-2e6b69636164,rev?*%
%TF.SameCoordinates,Original*%
%TF.FileFunction,Legend,Bot*%
%TF.FilePolarity,Positive*%
%FSLAX46Y46*%
G04 Gerber Fmt 4.6, Leading zero omitted, Abs format (unit mm)*
G04 Created by KiCad (PCBNEW 7.0.8) date 2024-04-05 01:26:40*
%MOMM*%
%LPD*%
G01*
G04 APERTURE LIST*
%ADD10C,0.150000*%
%ADD11C,0.120000*%
G04 APERTURE END LIST*
D10*
X148433333Y-83954819D02*
X148433333Y-84669104D01*
X148433333Y-84669104D02*
X148480952Y-84811961D01*
X148480952Y-84811961D02*
X148576190Y-84907200D01*
X148576190Y-84907200D02*
X148719047Y-84954819D01*
X148719047Y-84954819D02*
X148814285Y-84954819D01*
X147957142Y-84954819D02*
X147957142Y-83954819D01*
X147957142Y-83954819D02*
X147576190Y-83954819D01*
X147576190Y-83954819D02*
X147480952Y-84002438D01*
X147480952Y-84002438D02*
X147433333Y-84050057D01*
X147433333Y-84050057D02*
X147385714Y-84145295D01*
X147385714Y-84145295D02*
X147385714Y-84288152D01*
X147385714Y-84288152D02*
X147433333Y-84383390D01*
X147433333Y-84383390D02*
X147480952Y-84431009D01*
X147480952Y-84431009D02*
X147576190Y-84478628D01*
X147576190Y-84478628D02*
X147957142Y-84478628D01*
X146433333Y-84954819D02*
X147004761Y-84954819D01*
X146719047Y-84954819D02*
X146719047Y-83954819D01*
X146719047Y-83954819D02*
X146814285Y-84097676D01*
X146814285Y-84097676D02*
X146909523Y-84192914D01*
X146909523Y-84192914D02*
X147004761Y-84240533D01*
X148583333Y-81104819D02*
X148583333Y-81819104D01*
X148583333Y-81819104D02*
X148630952Y-81961961D01*
X148630952Y-81961961D02*
X148726190Y-82057200D01*
X148726190Y-82057200D02*
X148869047Y-82104819D01*
X148869047Y-82104819D02*
X148964285Y-82104819D01*
X148107142Y-82104819D02*
X148107142Y-81104819D01*
X148107142Y-81104819D02*
X147726190Y-81104819D01*
X147726190Y-81104819D02*
X147630952Y-81152438D01*
X147630952Y-81152438D02*
X147583333Y-81200057D01*
X147583333Y-81200057D02*
X147535714Y-81295295D01*
X147535714Y-81295295D02*
X147535714Y-81438152D01*
X147535714Y-81438152D02*
X147583333Y-81533390D01*
X147583333Y-81533390D02*
X147630952Y-81581009D01*
X147630952Y-81581009D02*
X147726190Y-81628628D01*
X147726190Y-81628628D02*
X148107142Y-81628628D01*
X147154761Y-81200057D02*
X147107142Y-81152438D01*
X147107142Y-81152438D02*
X147011904Y-81104819D01*
X147011904Y-81104819D02*
X146773809Y-81104819D01*
X146773809Y-81104819D02*
X146678571Y-81152438D01*
X146678571Y-81152438D02*
X146630952Y-81200057D01*
X146630952Y-81200057D02*
X146583333Y-81295295D01*
X146583333Y-81295295D02*
X146583333Y-81390533D01*
X146583333Y-81390533D02*
X146630952Y-81533390D01*
X146630952Y-81533390D02*
X147202380Y-82104819D01*
X147202380Y-82104819D02*
X146583333Y-82104819D01*
D11*
X143125000Y-83500000D02*
X143125000Y-85500000D01*
X143125000Y-85500000D02*
X145925000Y-85500000D01*
X145925000Y-83500000D02*
X143125000Y-83500000D01*
X145925000Y-85500000D02*
X145925000Y-83500000D01*
X143125000Y-80650000D02*
X143125000Y-82650000D01*
X143125000Y-82650000D02*
X145925000Y-82650000D01*
X145925000Y-80650000D02*
X143125000Y-80650000D01*
X145925000Y-82650000D02*
X145925000Y-80650000D01*
G36*
X142270053Y-84465299D02*
G01*
X142270053Y-84539340D01*
X141759953Y-84540239D01*
X141249852Y-84541138D01*
X141249852Y-84466198D01*
X141249852Y-84391258D01*
X141759953Y-84391258D01*
X142270053Y-84391258D01*
X142270053Y-84465299D01*
G37*
G36*
X147723627Y-79282753D02*
G01*
X147723627Y-79342764D01*
X147651458Y-79347374D01*
X147579290Y-79351984D01*
X147583945Y-79287362D01*
X147588600Y-79222741D01*
X147656114Y-79222741D01*
X147723627Y-79222741D01*
X147723627Y-79282753D01*
G37*
G36*
X140619728Y-76192144D02*
G01*
X140619728Y-76424690D01*
X139036917Y-76424690D01*
X137454105Y-76424690D01*
X137454105Y-76192144D01*
X137454105Y-75959599D01*
X139036917Y-75959599D01*
X140619728Y-75959599D01*
X140619728Y-76192144D01*
G37*
G36*
X145774187Y-78480878D02*
G01*
X145779389Y-78485345D01*
X145789493Y-78502164D01*
X145775159Y-78522116D01*
X145758272Y-78533096D01*
X145729397Y-78535127D01*
X145709666Y-78516960D01*
X145708522Y-78490329D01*
X145728425Y-78470444D01*
X145744653Y-78468822D01*
X145774187Y-78480878D01*
G37*
G36*
X145978832Y-78411554D02*
G01*
X145990786Y-78437394D01*
X145990672Y-78439486D01*
X145976941Y-78456286D01*
X145949553Y-78460121D01*
X145921727Y-78448806D01*
X145913758Y-78441856D01*
X145906600Y-78426890D01*
X145924438Y-78409874D01*
X145951520Y-78401338D01*
X145978832Y-78411554D01*
G37*
G36*
X145398616Y-77926392D02*
G01*
X145399360Y-77928871D01*
X145399277Y-77963328D01*
X145382136Y-77982812D01*
X145356927Y-77982874D01*
X145332636Y-77959062D01*
X145324493Y-77940847D01*
X145328883Y-77919441D01*
X145359906Y-77905833D01*
X145380896Y-77905315D01*
X145398616Y-77926392D01*
G37*
G36*
X145112848Y-77529582D02*
G01*
X145123889Y-77550822D01*
X145117537Y-77576124D01*
X145103837Y-77588245D01*
X145073457Y-77592383D01*
X145047671Y-77569149D01*
X145042671Y-77545037D01*
X145062904Y-77522606D01*
X145073142Y-77515853D01*
X145093982Y-77510934D01*
X145112848Y-77529582D01*
G37*
G36*
X146022105Y-77325866D02*
G01*
X146034403Y-77340509D01*
X146022435Y-77367731D01*
X146010388Y-77378081D01*
X145977667Y-77377976D01*
X145974030Y-77376772D01*
X145954765Y-77363508D01*
X145960595Y-77340216D01*
X145973765Y-77324753D01*
X146005592Y-77320469D01*
X146022105Y-77325866D01*
G37*
G36*
X145712236Y-77289410D02*
G01*
X145715495Y-77317366D01*
X145714986Y-77318786D01*
X145695634Y-77334632D01*
X145666529Y-77336298D01*
X145643995Y-77322593D01*
X145634508Y-77305290D01*
X145636057Y-77286394D01*
X145663935Y-77274671D01*
X145688518Y-77273893D01*
X145712236Y-77289410D01*
G37*
G36*
X145138600Y-77190067D02*
G01*
X145150391Y-77210200D01*
X145145655Y-77236462D01*
X145125009Y-77256526D01*
X145092517Y-77250874D01*
X145071895Y-77237317D01*
X145062283Y-77215880D01*
X145081205Y-77191419D01*
X145083694Y-77189529D01*
X145111765Y-77181927D01*
X145138600Y-77190067D01*
G37*
G36*
X146177534Y-78340922D02*
G01*
X146179605Y-78358248D01*
X146161771Y-78385563D01*
X146159208Y-78387400D01*
X146136454Y-78395697D01*
X146116638Y-78378458D01*
X146114171Y-78375098D01*
X146105578Y-78352862D01*
X146121871Y-78333816D01*
X146141969Y-78320461D01*
X146163167Y-78318384D01*
X146177534Y-78340922D01*
G37*
G36*
X144824930Y-77853573D02*
G01*
X144845209Y-77872666D01*
X144847295Y-77879649D01*
X144842409Y-77909816D01*
X144819771Y-77927574D01*
X144788974Y-77924142D01*
X144770635Y-77913638D01*
X144761809Y-77899620D01*
X144769650Y-77873702D01*
X144772273Y-77868400D01*
X144795614Y-77852220D01*
X144824930Y-77853573D01*
G37*
G36*
X144608758Y-77788556D02*
G01*
X144614352Y-77792414D01*
X144621814Y-77806964D01*
X144608758Y-77831307D01*
X144585421Y-77851912D01*
X144553596Y-77848183D01*
X144543608Y-77844157D01*
X144527738Y-77829704D01*
X144535371Y-77805202D01*
X144543972Y-77791931D01*
X144571955Y-77776037D01*
X144608758Y-77788556D01*
G37*
G36*
X145479353Y-77442402D02*
G01*
X145486205Y-77461388D01*
X145476983Y-77487601D01*
X145463863Y-77497818D01*
X145435231Y-77503456D01*
X145415607Y-77486149D01*
X145410061Y-77470700D01*
X145411141Y-77447880D01*
X145435047Y-77430225D01*
X145436441Y-77429488D01*
X145461919Y-77423384D01*
X145479353Y-77442402D01*
G37*
G36*
X146312122Y-77378983D02*
G01*
X146322400Y-77384037D01*
X146337422Y-77404208D01*
X146331316Y-77425161D01*
X146309082Y-77438880D01*
X146275719Y-77437350D01*
X146271975Y-77436104D01*
X146254428Y-77423111D01*
X146261378Y-77398875D01*
X146272330Y-77379799D01*
X146286351Y-77371160D01*
X146312122Y-77378983D01*
G37*
G36*
X145629628Y-77062681D02*
G01*
X145639177Y-77073065D01*
X145643921Y-77089614D01*
X145624444Y-77107987D01*
X145599608Y-77120630D01*
X145575685Y-77112735D01*
X145566187Y-77102547D01*
X145555700Y-77077087D01*
X145556534Y-77070243D01*
X145573095Y-77051558D01*
X145601568Y-77048237D01*
X145629628Y-77062681D01*
G37*
G36*
X146868459Y-79935381D02*
G01*
X146868459Y-80017897D01*
X146802980Y-80022595D01*
X146787035Y-80023464D01*
X146743664Y-80023137D01*
X146715923Y-80019012D01*
X146706070Y-80010915D01*
X146698627Y-79983202D01*
X146698885Y-79931798D01*
X146703426Y-79852865D01*
X146785942Y-79852865D01*
X146868459Y-79852865D01*
X146868459Y-79935381D01*
G37*
G36*
X146282997Y-78069577D02*
G01*
X146286471Y-78074479D01*
X146294300Y-78096359D01*
X146278016Y-78114626D01*
X146276793Y-78115513D01*
X146252544Y-78124322D01*
X146227082Y-78109052D01*
X146205595Y-78087790D01*
X146206579Y-78074761D01*
X146232063Y-78059354D01*
X146235570Y-78057527D01*
X146262110Y-78051437D01*
X146282997Y-78069577D01*
G37*
G36*
X145856580Y-78015442D02*
G01*
X145859194Y-78016874D01*
X145877407Y-78034749D01*
X145870323Y-78060833D01*
X145868891Y-78063447D01*
X145851016Y-78081660D01*
X145824933Y-78074576D01*
X145822318Y-78073144D01*
X145804105Y-78055269D01*
X145811190Y-78029185D01*
X145812621Y-78026571D01*
X145830496Y-78008358D01*
X145856580Y-78015442D01*
G37*
G36*
X145358944Y-77113907D02*
G01*
X145364892Y-77117239D01*
X145382241Y-77135178D01*
X145375328Y-77160465D01*
X145364079Y-77180025D01*
X145350056Y-77188545D01*
X145324381Y-77180734D01*
X145315867Y-77176546D01*
X145301597Y-77152667D01*
X145313975Y-77117028D01*
X145314584Y-77116084D01*
X145331233Y-77104447D01*
X145358944Y-77113907D01*
G37*
G36*
X147251034Y-80017075D02*
G01*
X147251034Y-80085411D01*
X147186021Y-80085411D01*
X147169320Y-80085065D01*
X147130751Y-80081290D01*
X147110292Y-80074695D01*
X147109141Y-80073195D01*
X147103820Y-80049164D01*
X147104041Y-80010932D01*
X147106678Y-79986711D01*
X147115143Y-79966297D01*
X147136692Y-79957306D01*
X147179770Y-79953313D01*
X147251034Y-79948740D01*
X147251034Y-80017075D01*
G37*
G36*
X146193326Y-80040402D02*
G01*
X146193141Y-80060771D01*
X146189455Y-80092830D01*
X146177052Y-80107255D01*
X146150800Y-80112785D01*
X146117058Y-80113869D01*
X146086168Y-80109171D01*
X146080641Y-80106112D01*
X146069306Y-80083118D01*
X146068682Y-80036788D01*
X146070816Y-80010781D01*
X146077641Y-79984154D01*
X146095654Y-79974311D01*
X146133314Y-79972889D01*
X146193326Y-79972889D01*
X146193326Y-80040402D01*
G37*
G36*
X145530369Y-79820310D02*
G01*
X145551590Y-79858477D01*
X145549817Y-79911770D01*
X145541327Y-79934128D01*
X145521879Y-79947299D01*
X145482900Y-79950384D01*
X145473391Y-79950249D01*
X145435944Y-79946874D01*
X145415673Y-79940382D01*
X145411726Y-79934846D01*
X145404863Y-79904193D01*
X145406425Y-79864464D01*
X145415056Y-79828580D01*
X145429402Y-79809461D01*
X145438766Y-79806199D01*
X145491109Y-79801481D01*
X145530369Y-79820310D01*
G37*
G36*
X147623381Y-78606143D02*
G01*
X147658981Y-78629572D01*
X147672659Y-78670846D01*
X147662010Y-78726416D01*
X147658733Y-78731356D01*
X147633084Y-78744182D01*
X147594562Y-78750653D01*
X147556039Y-78749497D01*
X147530383Y-78739440D01*
X147528264Y-78735912D01*
X147523744Y-78708932D01*
X147524132Y-78668176D01*
X147525031Y-78656840D01*
X147531042Y-78623397D01*
X147546234Y-78608501D01*
X147578328Y-78602845D01*
X147623381Y-78606143D01*
G37*
G36*
X147633609Y-78262552D02*
G01*
X147633525Y-78276273D01*
X147629919Y-78308119D01*
X147615634Y-78322031D01*
X147583421Y-78327371D01*
X147582199Y-78327486D01*
X147540940Y-78328259D01*
X147511244Y-78323741D01*
X147510392Y-78323395D01*
X147495517Y-78303148D01*
X147493919Y-78258922D01*
X147496417Y-78233752D01*
X147504195Y-78211863D01*
X147524510Y-78203734D01*
X147566096Y-78202540D01*
X147633609Y-78202540D01*
X147633609Y-78262552D01*
G37*
G36*
X137934200Y-80520496D02*
G01*
X137934200Y-81510691D01*
X138575576Y-81514442D01*
X138589374Y-81514520D01*
X138754640Y-81515182D01*
X138941279Y-81515494D01*
X139141384Y-81515471D01*
X139347050Y-81515126D01*
X139550368Y-81514470D01*
X139743434Y-81513516D01*
X139918340Y-81512278D01*
X140619728Y-81506364D01*
X140619728Y-81747920D01*
X140619728Y-81989476D01*
X139036917Y-81990086D01*
X137454105Y-81990697D01*
X137454105Y-80760499D01*
X137454105Y-79530301D01*
X137694153Y-79530301D01*
X137934200Y-79530301D01*
X137934200Y-80520496D01*
G37*
G36*
X146801331Y-79308205D02*
G01*
X146898464Y-79312759D01*
X146902905Y-79414235D01*
X146902970Y-79415701D01*
X146904763Y-79469760D01*
X146900338Y-79502475D01*
X146883829Y-79520283D01*
X146849370Y-79529621D01*
X146791095Y-79536924D01*
X146749681Y-79540220D01*
X146713313Y-79536419D01*
X146689825Y-79522059D01*
X146681599Y-79510111D01*
X146669666Y-79468867D01*
X146666060Y-79416800D01*
X146671088Y-79366317D01*
X146685058Y-79329826D01*
X146690502Y-79323422D01*
X146710653Y-79311822D01*
X146745011Y-79307230D01*
X146801331Y-79308205D01*
G37*
G36*
X141742471Y-74517959D02*
G01*
X141847284Y-74518011D01*
X141947947Y-74518097D01*
X142039695Y-74518218D01*
X142117762Y-74518370D01*
X142177383Y-74518553D01*
X142213792Y-74518766D01*
X142270053Y-74519315D01*
X142270053Y-74594330D01*
X142270053Y-74669345D01*
X141759953Y-74669345D01*
X141249852Y-74669345D01*
X141249852Y-74594330D01*
X141250286Y-74560746D01*
X141254466Y-74532493D01*
X141266659Y-74521011D01*
X141291111Y-74518494D01*
X141293340Y-74518458D01*
X141322968Y-74518271D01*
X141377042Y-74518128D01*
X141450794Y-74518026D01*
X141539461Y-74517965D01*
X141638275Y-74517943D01*
X141742471Y-74517959D01*
G37*
G36*
X136368325Y-78526384D02*
G01*
X136379590Y-78534167D01*
X136386061Y-78554324D01*
X136389597Y-78592731D01*
X136392062Y-78655259D01*
X136396397Y-78785415D01*
X136621441Y-78786535D01*
X136676834Y-78786848D01*
X136747386Y-78787714D01*
X136795256Y-78789613D01*
X136825011Y-78793240D01*
X136841221Y-78799286D01*
X136848454Y-78808445D01*
X136851280Y-78821412D01*
X136849375Y-78846329D01*
X136828775Y-78855884D01*
X136817055Y-78856118D01*
X136777436Y-78856764D01*
X136717165Y-78857669D01*
X136641995Y-78858748D01*
X136557679Y-78859915D01*
X136313881Y-78863232D01*
X136313881Y-78694168D01*
X136313881Y-78525104D01*
X136350804Y-78525104D01*
X136368325Y-78526384D01*
G37*
G36*
X147286435Y-78780500D02*
G01*
X147346686Y-78785054D01*
X147384681Y-78798861D01*
X147405513Y-78826844D01*
X147414277Y-78873926D01*
X147416066Y-78945031D01*
X147415788Y-79015372D01*
X147411575Y-79063398D01*
X147398255Y-79091690D01*
X147370655Y-79105454D01*
X147323604Y-79109895D01*
X147251929Y-79110219D01*
X147213097Y-79109864D01*
X147155798Y-79107865D01*
X147114420Y-79104499D01*
X147096003Y-79100217D01*
X147095698Y-79099886D01*
X147089558Y-79077617D01*
X147086233Y-79034297D01*
X147085500Y-78978389D01*
X147087135Y-78918358D01*
X147090914Y-78862666D01*
X147096612Y-78819778D01*
X147104005Y-78798157D01*
X147127412Y-78788846D01*
X147176432Y-78782434D01*
X147245461Y-78780154D01*
X147286435Y-78780500D01*
G37*
G36*
X142474928Y-79903595D02*
G01*
X142499484Y-79905337D01*
X142535881Y-79909084D01*
X142552200Y-79912543D01*
X142552518Y-79913257D01*
X142550207Y-79933297D01*
X142541057Y-79975987D01*
X142526376Y-80035949D01*
X142507470Y-80107803D01*
X142485649Y-80186173D01*
X142476737Y-80215605D01*
X142462192Y-80248692D01*
X142443112Y-80265385D01*
X142412638Y-80273927D01*
X142409159Y-80274549D01*
X142370510Y-80277598D01*
X142345431Y-80273172D01*
X142338011Y-80264553D01*
X142335775Y-80237928D01*
X142337540Y-80230170D01*
X142343856Y-80194475D01*
X142352169Y-80140940D01*
X142361154Y-80077909D01*
X142371568Y-80004883D01*
X142381555Y-79953482D01*
X142393759Y-79922441D01*
X142411306Y-79906972D01*
X142437320Y-79902287D01*
X142474928Y-79903595D01*
G37*
G36*
X139092295Y-82454936D02*
G01*
X139287734Y-82454947D01*
X139476639Y-82454969D01*
X139656402Y-82455000D01*
X139824415Y-82455039D01*
X139978069Y-82455086D01*
X140114758Y-82455140D01*
X140231873Y-82455200D01*
X140326805Y-82455264D01*
X140396948Y-82455333D01*
X140439693Y-82455406D01*
X140619728Y-82455877D01*
X140619728Y-82687697D01*
X140619728Y-82919517D01*
X139036917Y-82920200D01*
X137454105Y-82920882D01*
X137454105Y-82688380D01*
X137454105Y-82455877D01*
X137581630Y-82455406D01*
X137598579Y-82455363D01*
X137649642Y-82455293D01*
X137726763Y-82455226D01*
X137827464Y-82455165D01*
X137949267Y-82455109D01*
X138089692Y-82455059D01*
X138246261Y-82455016D01*
X138416496Y-82454982D01*
X138597918Y-82454956D01*
X138788047Y-82454940D01*
X138984407Y-82454934D01*
X139092295Y-82454936D01*
G37*
G36*
X136823981Y-69950916D02*
G01*
X136823970Y-69977946D01*
X136823587Y-70055043D01*
X136822191Y-70107959D01*
X136819157Y-70141226D01*
X136813860Y-70159377D01*
X136805674Y-70166943D01*
X136793975Y-70168459D01*
X136780685Y-70166804D01*
X136769874Y-70155884D01*
X136765064Y-70128718D01*
X136763969Y-70078441D01*
X136763969Y-69988423D01*
X136700207Y-69987203D01*
X136668385Y-69986928D01*
X136609503Y-69986995D01*
X136537079Y-69987465D01*
X136460160Y-69988297D01*
X136283875Y-69990611D01*
X136283875Y-69952010D01*
X136283875Y-69913408D01*
X136516421Y-69913408D01*
X136748966Y-69913408D01*
X136748966Y-69823391D01*
X136748967Y-69820235D01*
X136749869Y-69771664D01*
X136754464Y-69745694D01*
X136765687Y-69735279D01*
X136786474Y-69733373D01*
X136823981Y-69733373D01*
X136823981Y-69950916D01*
G37*
G36*
X136827710Y-81915850D02*
G01*
X136838344Y-81918628D01*
X136845642Y-81928749D01*
X136850231Y-81950746D01*
X136852735Y-81989151D01*
X136853778Y-82048496D01*
X136853987Y-82133314D01*
X136853976Y-82160344D01*
X136853593Y-82237441D01*
X136852197Y-82290357D01*
X136849163Y-82323624D01*
X136843866Y-82341775D01*
X136835680Y-82349342D01*
X136823981Y-82350857D01*
X136810691Y-82349202D01*
X136799880Y-82338283D01*
X136795070Y-82311116D01*
X136793975Y-82260839D01*
X136793975Y-82170821D01*
X136561430Y-82170821D01*
X136328884Y-82170821D01*
X136328884Y-82132520D01*
X136328884Y-82094220D01*
X136497667Y-82095865D01*
X136552923Y-82096331D01*
X136626341Y-82096743D01*
X136688574Y-82096863D01*
X136730213Y-82096658D01*
X136793975Y-82095806D01*
X136793975Y-82005789D01*
X136794527Y-81965918D01*
X136798167Y-81933484D01*
X136807222Y-81919056D01*
X136823981Y-81915771D01*
X136827710Y-81915850D01*
G37*
G36*
X137934200Y-77743324D02*
G01*
X137934200Y-78731892D01*
X137975458Y-78742474D01*
X137976857Y-78742739D01*
X138002603Y-78744356D01*
X138055583Y-78745806D01*
X138133398Y-78747075D01*
X138233648Y-78748147D01*
X138353935Y-78749009D01*
X138491859Y-78749646D01*
X138645022Y-78750044D01*
X138811022Y-78750189D01*
X138987463Y-78750065D01*
X139171943Y-78749659D01*
X139181639Y-78749630D01*
X139369134Y-78749113D01*
X139550848Y-78748671D01*
X139724090Y-78748307D01*
X139886167Y-78748024D01*
X140034388Y-78747826D01*
X140166062Y-78747715D01*
X140278497Y-78747694D01*
X140369001Y-78747767D01*
X140434882Y-78747936D01*
X140473450Y-78748204D01*
X140619728Y-78750148D01*
X140619728Y-78982694D01*
X140619728Y-79215239D01*
X139036917Y-79215239D01*
X137454105Y-79215239D01*
X137454105Y-77984997D01*
X137454105Y-76754755D01*
X137694153Y-76754755D01*
X137934200Y-76754755D01*
X137934200Y-77743324D01*
G37*
G36*
X136797704Y-72659028D02*
G01*
X136808338Y-72661806D01*
X136815637Y-72671927D01*
X136820225Y-72693924D01*
X136822729Y-72732328D01*
X136823772Y-72791674D01*
X136823981Y-72876492D01*
X136823970Y-72903522D01*
X136823587Y-72980619D01*
X136822191Y-73033535D01*
X136819157Y-73066802D01*
X136813860Y-73084953D01*
X136805674Y-73092519D01*
X136793975Y-73094034D01*
X136780685Y-73092380D01*
X136769874Y-73081460D01*
X136765064Y-73054293D01*
X136763969Y-73004017D01*
X136763969Y-72913999D01*
X136700207Y-72913147D01*
X136672229Y-72912965D01*
X136614627Y-72913000D01*
X136543302Y-72913336D01*
X136467661Y-72913940D01*
X136298878Y-72915586D01*
X136298878Y-72877285D01*
X136298878Y-72838984D01*
X136531424Y-72838984D01*
X136763969Y-72838984D01*
X136763969Y-72748966D01*
X136764521Y-72709096D01*
X136768161Y-72676662D01*
X136777216Y-72662233D01*
X136793975Y-72658949D01*
X136797704Y-72659028D01*
G37*
G36*
X136814633Y-77070020D02*
G01*
X136825915Y-77074101D01*
X136833047Y-77087438D01*
X136836974Y-77115217D01*
X136838639Y-77162625D01*
X136838984Y-77234850D01*
X136838984Y-77399882D01*
X136576433Y-77399882D01*
X136313881Y-77399882D01*
X136313881Y-77362375D01*
X136314271Y-77349455D01*
X136319318Y-77335510D01*
X136335354Y-77328180D01*
X136368717Y-77325341D01*
X136425746Y-77324867D01*
X136537611Y-77324867D01*
X136542019Y-77216255D01*
X136544445Y-77171555D01*
X136549640Y-77131346D01*
X136558494Y-77110439D01*
X136572682Y-77102633D01*
X136575520Y-77102170D01*
X136587851Y-77104593D01*
X136594937Y-77119744D01*
X136598169Y-77153378D01*
X136598937Y-77211245D01*
X136598937Y-77324867D01*
X136688955Y-77324867D01*
X136778972Y-77324867D01*
X136778972Y-77197342D01*
X136779165Y-77154725D01*
X136780863Y-77108777D01*
X136785477Y-77083221D01*
X136794389Y-77072190D01*
X136808978Y-77069817D01*
X136814633Y-77070020D01*
G37*
G36*
X145773243Y-79492794D02*
G01*
X145777858Y-79560307D01*
X145780180Y-79583336D01*
X145790299Y-79620208D01*
X145812485Y-79655329D01*
X145852309Y-79699085D01*
X145870008Y-79716753D01*
X145908524Y-79749910D01*
X145940701Y-79766169D01*
X145975219Y-79770578D01*
X146016783Y-79773115D01*
X146048858Y-79786322D01*
X146062449Y-79816360D01*
X146062966Y-79869319D01*
X146058299Y-79942883D01*
X145983284Y-79942883D01*
X145908270Y-79942883D01*
X145903654Y-79875369D01*
X145901332Y-79852341D01*
X145891214Y-79815469D01*
X145869028Y-79780347D01*
X145829204Y-79736592D01*
X145806117Y-79713694D01*
X145769836Y-79683424D01*
X145738665Y-79669002D01*
X145703615Y-79665328D01*
X145697686Y-79665201D01*
X145654585Y-79657568D01*
X145624285Y-79641752D01*
X145615732Y-79629859D01*
X145603298Y-79588777D01*
X145602206Y-79541384D01*
X145613642Y-79503130D01*
X145615124Y-79501135D01*
X145643819Y-79489208D01*
X145699680Y-79488127D01*
X145773243Y-79492794D01*
G37*
G36*
X136598937Y-83416829D02*
G01*
X136868990Y-83417371D01*
X136868990Y-83454493D01*
X136868990Y-83491616D01*
X136660161Y-83487598D01*
X136633484Y-83487106D01*
X136562147Y-83486031D01*
X136504948Y-83485519D01*
X136467174Y-83485605D01*
X136454111Y-83486321D01*
X136458097Y-83488617D01*
X136483646Y-83502208D01*
X136528792Y-83525817D01*
X136588864Y-83557006D01*
X136659189Y-83593336D01*
X136716573Y-83623178D01*
X136779280Y-83657146D01*
X136821642Y-83682756D01*
X136847616Y-83702752D01*
X136861162Y-83719876D01*
X136866236Y-83736874D01*
X136870983Y-83776137D01*
X136599933Y-83776137D01*
X136328884Y-83776137D01*
X136328884Y-83736296D01*
X136328884Y-83696455D01*
X136542676Y-83705514D01*
X136756468Y-83714573D01*
X136542676Y-83608570D01*
X136502514Y-83588605D01*
X136433222Y-83553494D01*
X136385268Y-83527441D01*
X136354754Y-83507726D01*
X136337783Y-83491632D01*
X136330459Y-83476438D01*
X136328884Y-83459428D01*
X136328884Y-83416287D01*
X136598937Y-83416829D01*
G37*
G36*
X136823981Y-70293983D02*
G01*
X136823981Y-70329490D01*
X136618637Y-70329490D01*
X136584910Y-70329500D01*
X136512575Y-70329916D01*
X136462728Y-70331626D01*
X136429886Y-70335551D01*
X136408570Y-70342614D01*
X136393298Y-70353735D01*
X136378590Y-70369835D01*
X136375963Y-70372936D01*
X136348570Y-70419916D01*
X136350131Y-70463138D01*
X136380712Y-70506707D01*
X136382674Y-70508660D01*
X136398742Y-70522899D01*
X136416779Y-70532621D01*
X136442392Y-70538685D01*
X136481188Y-70541952D01*
X136538775Y-70543281D01*
X136620759Y-70543532D01*
X136823981Y-70543532D01*
X136823981Y-70582121D01*
X136823981Y-70620709D01*
X136597669Y-70615877D01*
X136371357Y-70611046D01*
X136327616Y-70562049D01*
X136326752Y-70561080D01*
X136299705Y-70524813D01*
X136287137Y-70487369D01*
X136284209Y-70434524D01*
X136292772Y-70363905D01*
X136320166Y-70312061D01*
X136369156Y-70275235D01*
X136396922Y-70268528D01*
X136450288Y-70263169D01*
X136523938Y-70259706D01*
X136612954Y-70258476D01*
X136823981Y-70258476D01*
X136823981Y-70293983D01*
G37*
G36*
X136800687Y-70723852D02*
G01*
X136811429Y-70728412D01*
X136818246Y-70742557D01*
X136822021Y-70771394D01*
X136823638Y-70820025D01*
X136823981Y-70893555D01*
X136823981Y-71063542D01*
X136566434Y-71065431D01*
X136498538Y-71065655D01*
X136421075Y-71065167D01*
X136358117Y-71063919D01*
X136314830Y-71062023D01*
X136296381Y-71059591D01*
X136289565Y-71050642D01*
X136283875Y-71022741D01*
X136284250Y-71015863D01*
X136290200Y-71003945D01*
X136308119Y-70997238D01*
X136344016Y-70994282D01*
X136403899Y-70993621D01*
X136523922Y-70993621D01*
X136523922Y-70881099D01*
X136523969Y-70860844D01*
X136525265Y-70811150D01*
X136529585Y-70783353D01*
X136538586Y-70771234D01*
X136553928Y-70768577D01*
X136559600Y-70768774D01*
X136572710Y-70773750D01*
X136580040Y-70790121D01*
X136583234Y-70824087D01*
X136583934Y-70881848D01*
X136583934Y-70995118D01*
X136670201Y-70990619D01*
X136756468Y-70986119D01*
X136760803Y-70854844D01*
X136762394Y-70812665D01*
X136765692Y-70765065D01*
X136771167Y-70738180D01*
X136780297Y-70726263D01*
X136794559Y-70723568D01*
X136800687Y-70723852D01*
G37*
G36*
X136868990Y-85886307D02*
G01*
X136868616Y-85897273D01*
X136863505Y-85910863D01*
X136847316Y-85918123D01*
X136813739Y-85921030D01*
X136756468Y-85921560D01*
X136643946Y-85921560D01*
X136643946Y-86034082D01*
X136643946Y-86146604D01*
X136756468Y-86146604D01*
X136794057Y-86146733D01*
X136836314Y-86148397D01*
X136858678Y-86153647D01*
X136867465Y-86164531D01*
X136868990Y-86183097D01*
X136868990Y-86219590D01*
X136606438Y-86220446D01*
X136343887Y-86221302D01*
X136343887Y-86183953D01*
X136344613Y-86168302D01*
X136350855Y-86155951D01*
X136368738Y-86149488D01*
X136404382Y-86147007D01*
X136463910Y-86146604D01*
X136583934Y-86146604D01*
X136583934Y-86031925D01*
X136583934Y-85917245D01*
X136466542Y-85927035D01*
X136453101Y-85928081D01*
X136398386Y-85930670D01*
X136357475Y-85929976D01*
X136338384Y-85926059D01*
X136333065Y-85914548D01*
X136332002Y-85884670D01*
X136332019Y-85884551D01*
X136334922Y-85873617D01*
X136342791Y-85865630D01*
X136359799Y-85860093D01*
X136390119Y-85856512D01*
X136437925Y-85854392D01*
X136507390Y-85853236D01*
X136602688Y-85852551D01*
X136868990Y-85851055D01*
X136868990Y-85886307D01*
G37*
G36*
X142198806Y-76675612D02*
G01*
X142270053Y-76683643D01*
X142270053Y-77162570D01*
X142270053Y-77641497D01*
X142191288Y-77636963D01*
X142112522Y-77632428D01*
X142108300Y-77437983D01*
X142106469Y-77376704D01*
X142101784Y-77299874D01*
X142094924Y-77251577D01*
X142085795Y-77230944D01*
X142069732Y-77227979D01*
X142027036Y-77225166D01*
X141962271Y-77222980D01*
X141879623Y-77221523D01*
X141783282Y-77220893D01*
X141677437Y-77221192D01*
X141582517Y-77221817D01*
X141484897Y-77222310D01*
X141400501Y-77222576D01*
X141333524Y-77222609D01*
X141288160Y-77222399D01*
X141268606Y-77221940D01*
X141264210Y-77220179D01*
X141253505Y-77195765D01*
X141249852Y-77144094D01*
X141249852Y-77068342D01*
X141583668Y-77069858D01*
X141615578Y-77069998D01*
X141718676Y-77070379D01*
X141815801Y-77070640D01*
X141900943Y-77070770D01*
X141968097Y-77070758D01*
X142011252Y-77070596D01*
X142105021Y-77069817D01*
X142105021Y-76875664D01*
X142105044Y-76863183D01*
X142106122Y-76791504D01*
X142108575Y-76732270D01*
X142112074Y-76691333D01*
X142116290Y-76674546D01*
X142123475Y-76672764D01*
X142154603Y-76672225D01*
X142198806Y-76675612D01*
G37*
G36*
X136803568Y-73156231D02*
G01*
X136815008Y-73169584D01*
X136822792Y-73200549D01*
X136829207Y-73255316D01*
X136833368Y-73310105D01*
X136837312Y-73390943D01*
X136838878Y-73465358D01*
X136838810Y-73499252D01*
X136837263Y-73541651D01*
X136831998Y-73563979D01*
X136820806Y-73572663D01*
X136801477Y-73574129D01*
X136783449Y-73572929D01*
X136770337Y-73564000D01*
X136764989Y-73539900D01*
X136763969Y-73493218D01*
X136762034Y-73446247D01*
X136754168Y-73416174D01*
X136738372Y-73402484D01*
X136715037Y-73398868D01*
X136668097Y-73396030D01*
X136604802Y-73394376D01*
X136532082Y-73394184D01*
X136461584Y-73394701D01*
X136397700Y-73395019D01*
X136349896Y-73395094D01*
X136325133Y-73394900D01*
X136306294Y-73386320D01*
X136298878Y-73354403D01*
X136298878Y-73314713D01*
X136482664Y-73322501D01*
X136554961Y-73324881D01*
X136625111Y-73325851D01*
X136681173Y-73325223D01*
X136715210Y-73322981D01*
X136742486Y-73317589D01*
X136757428Y-73306430D01*
X136763086Y-73281571D01*
X136763969Y-73234860D01*
X136764140Y-73214258D01*
X136767063Y-73176152D01*
X136775483Y-73158409D01*
X136791806Y-73154046D01*
X136803568Y-73156231D01*
G37*
G36*
X136865988Y-84880293D02*
G01*
X136868990Y-84906561D01*
X136868990Y-84945521D01*
X136664959Y-84949695D01*
X136460927Y-84953869D01*
X136664959Y-85055722D01*
X136683794Y-85065137D01*
X136756945Y-85102238D01*
X136807881Y-85129719D01*
X136840579Y-85150381D01*
X136859013Y-85167024D01*
X136867158Y-85182448D01*
X136868990Y-85199454D01*
X136868990Y-85241333D01*
X136611443Y-85243222D01*
X136543547Y-85243446D01*
X136466084Y-85242958D01*
X136403126Y-85241710D01*
X136359839Y-85239814D01*
X136341389Y-85237382D01*
X136334653Y-85228669D01*
X136328884Y-85200956D01*
X136330578Y-85190117D01*
X136339064Y-85181769D01*
X136358991Y-85176137D01*
X136395000Y-85172475D01*
X136451731Y-85170039D01*
X136533825Y-85168084D01*
X136738767Y-85163910D01*
X136533825Y-85063030D01*
X136458418Y-85025495D01*
X136401293Y-84995571D01*
X136363711Y-84973149D01*
X136341739Y-84955565D01*
X136331442Y-84940154D01*
X136328884Y-84924252D01*
X136328884Y-84886356D01*
X136552053Y-84886356D01*
X136583564Y-84886265D01*
X136664511Y-84885207D01*
X136735763Y-84883150D01*
X136790552Y-84880329D01*
X136822106Y-84876979D01*
X136850912Y-84872852D01*
X136865988Y-84880293D01*
G37*
G36*
X136349415Y-73659128D02*
G01*
X136355470Y-73679731D01*
X136359343Y-73720574D01*
X136362059Y-73786539D01*
X136366391Y-73926698D01*
X136456409Y-73926698D01*
X136546427Y-73926698D01*
X136550835Y-73817927D01*
X136551126Y-73810902D01*
X136554398Y-73757021D01*
X136559774Y-73726266D01*
X136569193Y-73712392D01*
X136584591Y-73709156D01*
X136589234Y-73709298D01*
X136602467Y-73714091D01*
X136609918Y-73730288D01*
X136613204Y-73764085D01*
X136613940Y-73821678D01*
X136613940Y-73934200D01*
X136665223Y-73934200D01*
X136673850Y-73934180D01*
X136716473Y-73931913D01*
X136742979Y-73921940D01*
X136757185Y-73898690D01*
X136762910Y-73856589D01*
X136763969Y-73790067D01*
X136764285Y-73730201D01*
X136766439Y-73692334D01*
X136772234Y-73672688D01*
X136783476Y-73665286D01*
X136801968Y-73664147D01*
X136839967Y-73664147D01*
X136835725Y-73832930D01*
X136831483Y-74001713D01*
X136565180Y-74005380D01*
X136298878Y-74009048D01*
X136298878Y-73836597D01*
X136299330Y-73772510D01*
X136300669Y-73716258D01*
X136302681Y-73678162D01*
X136305152Y-73664147D01*
X136310937Y-73663072D01*
X136334577Y-73655263D01*
X136340158Y-73653879D01*
X136349415Y-73659128D01*
G37*
G36*
X136429114Y-86330421D02*
G01*
X136438613Y-86346236D01*
X136435738Y-86370822D01*
X136417879Y-86411750D01*
X136410454Y-86427043D01*
X136396880Y-86462556D01*
X136396858Y-86490949D01*
X136409320Y-86526515D01*
X136416824Y-86542678D01*
X136454111Y-86590786D01*
X136509403Y-86621225D01*
X136587511Y-86636978D01*
X136665405Y-86635665D01*
X136734495Y-86611339D01*
X136785563Y-86563434D01*
X136793436Y-86549759D01*
X136807097Y-86496867D01*
X136804903Y-86439112D01*
X136786750Y-86391598D01*
X136778120Y-86378534D01*
X136772490Y-86358474D01*
X136786750Y-86341413D01*
X136791751Y-86337732D01*
X136819752Y-86334260D01*
X136846273Y-86359404D01*
X136869922Y-86411980D01*
X136872566Y-86420636D01*
X136879759Y-86496021D01*
X136861983Y-86569519D01*
X136822376Y-86633204D01*
X136764079Y-86679152D01*
X136715241Y-86697181D01*
X136640768Y-86710297D01*
X136564098Y-86712195D01*
X136499683Y-86701645D01*
X136456233Y-86684653D01*
X136401775Y-86647214D01*
X136355906Y-86589191D01*
X136353865Y-86585865D01*
X136334293Y-86528977D01*
X136331785Y-86462499D01*
X136345423Y-86398417D01*
X136374292Y-86348719D01*
X136391329Y-86331915D01*
X136411898Y-86321106D01*
X136429114Y-86330421D01*
G37*
G36*
X136868990Y-84083698D02*
G01*
X136868990Y-84256232D01*
X136831483Y-84256232D01*
X136821366Y-84255974D01*
X136803171Y-84250118D01*
X136795530Y-84230379D01*
X136793975Y-84188718D01*
X136793975Y-84121205D01*
X136591435Y-84121205D01*
X136388896Y-84121205D01*
X136388896Y-84188718D01*
X136388884Y-84193568D01*
X136386508Y-84233472D01*
X136377641Y-84251814D01*
X136358890Y-84256232D01*
X136351554Y-84255842D01*
X136341038Y-84250962D01*
X136334396Y-84236385D01*
X136330745Y-84207032D01*
X136329202Y-84157829D01*
X136328884Y-84083698D01*
X136328952Y-84041516D01*
X136329800Y-83981052D01*
X136332335Y-83942861D01*
X136337440Y-83921867D01*
X136345997Y-83912994D01*
X136358890Y-83911164D01*
X136360265Y-83911174D01*
X136378479Y-83916250D01*
X136386868Y-83935851D01*
X136388896Y-83977648D01*
X136388896Y-84044131D01*
X136535174Y-84048912D01*
X136568354Y-84049824D01*
X136637835Y-84050720D01*
X136697678Y-84050224D01*
X136737714Y-84048365D01*
X136760976Y-84045822D01*
X136784015Y-84038018D01*
X136792662Y-84018092D01*
X136793975Y-83977101D01*
X136794083Y-83961516D01*
X136797209Y-83928129D01*
X136808136Y-83914052D01*
X136831483Y-83911164D01*
X136868990Y-83911164D01*
X136868990Y-84083698D01*
G37*
G36*
X136340715Y-72195165D02*
G01*
X136350570Y-72203583D01*
X136356038Y-72224868D01*
X136358388Y-72264731D01*
X136358890Y-72328884D01*
X136358890Y-72463910D01*
X136448250Y-72463910D01*
X136537611Y-72463910D01*
X136542019Y-72355139D01*
X136543622Y-72323205D01*
X136548479Y-72277055D01*
X136556487Y-72253174D01*
X136568931Y-72246368D01*
X136575624Y-72247983D01*
X136586142Y-72263198D01*
X136593473Y-72298517D01*
X136598937Y-72358890D01*
X136604741Y-72419239D01*
X136613518Y-72458035D01*
X136625192Y-72469912D01*
X136629382Y-72469615D01*
X136660789Y-72467969D01*
X136703958Y-72466161D01*
X136763969Y-72463910D01*
X136763969Y-72336385D01*
X136764162Y-72293768D01*
X136765860Y-72247820D01*
X136770474Y-72222264D01*
X136779386Y-72211233D01*
X136793975Y-72208860D01*
X136799631Y-72209063D01*
X136810912Y-72213145D01*
X136818044Y-72226481D01*
X136821971Y-72254260D01*
X136823636Y-72301668D01*
X136823981Y-72373893D01*
X136823981Y-72538925D01*
X136561430Y-72538925D01*
X136298878Y-72538925D01*
X136298878Y-72366391D01*
X136298946Y-72324210D01*
X136299794Y-72263746D01*
X136302330Y-72225555D01*
X136307434Y-72204561D01*
X136315991Y-72195687D01*
X136328884Y-72193857D01*
X136340715Y-72195165D01*
G37*
G36*
X136853987Y-81503190D02*
G01*
X136853550Y-81516614D01*
X136848314Y-81530283D01*
X136831979Y-81537461D01*
X136798245Y-81540236D01*
X136740808Y-81540697D01*
X136627628Y-81540697D01*
X136632036Y-81649469D01*
X136636444Y-81758240D01*
X136745216Y-81752891D01*
X136785050Y-81751046D01*
X136824843Y-81750757D01*
X136845315Y-81755265D01*
X136852890Y-81766565D01*
X136853987Y-81786648D01*
X136853987Y-81786817D01*
X136847267Y-81817216D01*
X136823981Y-81826415D01*
X136818080Y-81826503D01*
X136783595Y-81826729D01*
X136727632Y-81826911D01*
X136656482Y-81827033D01*
X136576433Y-81827077D01*
X136544933Y-81827070D01*
X136469860Y-81826995D01*
X136407481Y-81826850D01*
X136363566Y-81826651D01*
X136343887Y-81826415D01*
X136334038Y-81816709D01*
X136328884Y-81788246D01*
X136329612Y-81772439D01*
X136335855Y-81760075D01*
X136353737Y-81753613D01*
X136389381Y-81751138D01*
X136448907Y-81750738D01*
X136568931Y-81750738D01*
X136568931Y-81645718D01*
X136568931Y-81540697D01*
X136448907Y-81540697D01*
X136398325Y-81540470D01*
X136358761Y-81538519D01*
X136338081Y-81532930D01*
X136330163Y-81521792D01*
X136328884Y-81503190D01*
X136328884Y-81465682D01*
X136591435Y-81465682D01*
X136853987Y-81465682D01*
X136853987Y-81503190D01*
G37*
G36*
X136831101Y-80970946D02*
G01*
X136841715Y-80975716D01*
X136848420Y-80990126D01*
X136852107Y-81019266D01*
X136853665Y-81068229D01*
X136853987Y-81142104D01*
X136853987Y-81313624D01*
X136592290Y-81314477D01*
X136330593Y-81315330D01*
X136324858Y-81251729D01*
X136321792Y-81207935D01*
X136318683Y-81144678D01*
X136316502Y-81079356D01*
X136315750Y-81043829D01*
X136316339Y-81002146D01*
X136321101Y-80980328D01*
X136332097Y-80971950D01*
X136351388Y-80970585D01*
X136354697Y-80970591D01*
X136371286Y-80972229D01*
X136381396Y-80980775D01*
X136386632Y-81002005D01*
X136388597Y-81041692D01*
X136388896Y-81105612D01*
X136388896Y-81240638D01*
X136478913Y-81240638D01*
X136568931Y-81240638D01*
X136568931Y-81128116D01*
X136568978Y-81107861D01*
X136570274Y-81058167D01*
X136574594Y-81030370D01*
X136583595Y-81018251D01*
X136598937Y-81015594D01*
X136604338Y-81015770D01*
X136617590Y-81020630D01*
X136625003Y-81036829D01*
X136628234Y-81070585D01*
X136628943Y-81128116D01*
X136628943Y-81240638D01*
X136711459Y-81240638D01*
X136793975Y-81240638D01*
X136793975Y-81105612D01*
X136794266Y-81052372D01*
X136796137Y-81008024D01*
X136800867Y-80983417D01*
X136809725Y-80972841D01*
X136823981Y-80970585D01*
X136831101Y-80970946D01*
G37*
G36*
X136687296Y-79504392D02*
G01*
X136760331Y-79532821D01*
X136815989Y-79577463D01*
X136819159Y-79581308D01*
X136846167Y-79629247D01*
X136853987Y-79688278D01*
X136853971Y-79692072D01*
X136844210Y-79768707D01*
X136815166Y-79825949D01*
X136764938Y-79865315D01*
X136691626Y-79888324D01*
X136593326Y-79896496D01*
X136583337Y-79896201D01*
X136527745Y-79894560D01*
X136440372Y-79879327D01*
X136377047Y-79848682D01*
X136336432Y-79802133D01*
X136322155Y-79766689D01*
X136313554Y-79698676D01*
X136316575Y-79679229D01*
X136377163Y-79679229D01*
X136378818Y-79717527D01*
X136404581Y-79760307D01*
X136447951Y-79795714D01*
X136511261Y-79819908D01*
X136583337Y-79829564D01*
X136654611Y-79823449D01*
X136715516Y-79800333D01*
X136740909Y-79782420D01*
X136779117Y-79736501D01*
X136789168Y-79687227D01*
X136770889Y-79638668D01*
X136724112Y-79594895D01*
X136695684Y-79580810D01*
X136651083Y-79572277D01*
X136586888Y-79571995D01*
X136575483Y-79572584D01*
X136489216Y-79585334D01*
X136426471Y-79611245D01*
X136389340Y-79649494D01*
X136377163Y-79679229D01*
X136316575Y-79679229D01*
X136324018Y-79631307D01*
X136352687Y-79576503D01*
X136376721Y-79553115D01*
X136441596Y-79516536D01*
X136520161Y-79496233D01*
X136604651Y-79492190D01*
X136687296Y-79504392D01*
G37*
G36*
X136654091Y-76576281D02*
G01*
X136706872Y-76587773D01*
X136755925Y-76607448D01*
X136793872Y-76636937D01*
X136796906Y-76640027D01*
X136837985Y-76701097D01*
X136852924Y-76766829D01*
X136843552Y-76831584D01*
X136811699Y-76889728D01*
X136759194Y-76935621D01*
X136687865Y-76963628D01*
X136677574Y-76965755D01*
X136572018Y-76977035D01*
X136567568Y-76977511D01*
X136471371Y-76967073D01*
X136391746Y-76935073D01*
X136331455Y-76882142D01*
X136306223Y-76834906D01*
X136297768Y-76770388D01*
X136299038Y-76764600D01*
X136374842Y-76764600D01*
X136380058Y-76813043D01*
X136401831Y-76850403D01*
X136434292Y-76871931D01*
X136498332Y-76894073D01*
X136572018Y-76903923D01*
X136644332Y-76900325D01*
X136704258Y-76882125D01*
X136717365Y-76874682D01*
X136761020Y-76833886D01*
X136778704Y-76785482D01*
X136769581Y-76735151D01*
X136732812Y-76688575D01*
X136724840Y-76682002D01*
X136694613Y-76661509D01*
X136662280Y-76650589D01*
X136618607Y-76647213D01*
X136554364Y-76649351D01*
X136496944Y-76655365D01*
X136440449Y-76672329D01*
X136398725Y-76702060D01*
X136386480Y-76719208D01*
X136374842Y-76764600D01*
X136299038Y-76764600D01*
X136311971Y-76705658D01*
X136346858Y-76648585D01*
X136400457Y-76607038D01*
X136413561Y-76600693D01*
X136487678Y-76574464D01*
X136563956Y-76566799D01*
X136654091Y-76576281D01*
G37*
G36*
X141282285Y-72874027D02*
G01*
X141319413Y-72890469D01*
X141374541Y-72916732D01*
X141442946Y-72950555D01*
X141519906Y-72989681D01*
X141572163Y-73016540D01*
X141678166Y-73070813D01*
X141793983Y-73129901D01*
X141908821Y-73188302D01*
X142011885Y-73240512D01*
X142271319Y-73371589D01*
X142266935Y-73431601D01*
X142262552Y-73491613D01*
X142052510Y-73597159D01*
X141982050Y-73632784D01*
X141883254Y-73683171D01*
X141774545Y-73738972D01*
X141664859Y-73795597D01*
X141563129Y-73848458D01*
X141537549Y-73861768D01*
X141455485Y-73903954D01*
X141383191Y-73940351D01*
X141324857Y-73968900D01*
X141284671Y-73987540D01*
X141266821Y-73994212D01*
X141261274Y-73990983D01*
X141252873Y-73964455D01*
X141249852Y-73914995D01*
X141249852Y-73835778D01*
X141654592Y-73634864D01*
X141770374Y-73577144D01*
X141862029Y-73530776D01*
X141931553Y-73494568D01*
X141981411Y-73467098D01*
X142014065Y-73446946D01*
X142031975Y-73432691D01*
X142037605Y-73422910D01*
X142033417Y-73416182D01*
X142032511Y-73415592D01*
X142009952Y-73403271D01*
X141964520Y-73379936D01*
X141899945Y-73347454D01*
X141819959Y-73307691D01*
X141728293Y-73262512D01*
X141628677Y-73213784D01*
X141249852Y-73029152D01*
X141249852Y-72949071D01*
X141250404Y-72923305D01*
X141256222Y-72882529D01*
X141268606Y-72869459D01*
X141282285Y-72874027D01*
G37*
G36*
X136654264Y-69283292D02*
G01*
X136726280Y-69283630D01*
X136774508Y-69285048D01*
X136803536Y-69288320D01*
X136817949Y-69294226D01*
X136822333Y-69303540D01*
X136821274Y-69317041D01*
X136819172Y-69327864D01*
X136811265Y-69340507D01*
X136792412Y-69347482D01*
X136756259Y-69350536D01*
X136696456Y-69351421D01*
X136626159Y-69351926D01*
X136542381Y-69353324D01*
X136481184Y-69355953D01*
X136438109Y-69360333D01*
X136408694Y-69366985D01*
X136388481Y-69376431D01*
X136373008Y-69389190D01*
X136359817Y-69405907D01*
X136346119Y-69452548D01*
X136356369Y-69500945D01*
X136389492Y-69541176D01*
X136394390Y-69544655D01*
X136414967Y-69555418D01*
X136442681Y-69562589D01*
X136483247Y-69566852D01*
X136542378Y-69568887D01*
X136625789Y-69569377D01*
X136823981Y-69569264D01*
X136823981Y-69606310D01*
X136823981Y-69643355D01*
X136620960Y-69643355D01*
X136547018Y-69642774D01*
X136461654Y-69639002D01*
X136398566Y-69630160D01*
X136353214Y-69614460D01*
X136321058Y-69590114D01*
X136297559Y-69555333D01*
X136278176Y-69508329D01*
X136275044Y-69488765D01*
X136277402Y-69443525D01*
X136286913Y-69393656D01*
X136301417Y-69353554D01*
X136306682Y-69344922D01*
X136332358Y-69320570D01*
X136373029Y-69303041D01*
X136432394Y-69291525D01*
X136514152Y-69285209D01*
X136622003Y-69283284D01*
X136654264Y-69283292D01*
G37*
G36*
X136325712Y-68294397D02*
G01*
X136335567Y-68302815D01*
X136341035Y-68324100D01*
X136343385Y-68363963D01*
X136343887Y-68428116D01*
X136343887Y-68563143D01*
X136433247Y-68563143D01*
X136522608Y-68563143D01*
X136527016Y-68454371D01*
X136528619Y-68422437D01*
X136533476Y-68376287D01*
X136541484Y-68352406D01*
X136553928Y-68345600D01*
X136559481Y-68346580D01*
X136570239Y-68359816D01*
X136576946Y-68392624D01*
X136580945Y-68450206D01*
X136581050Y-68452564D01*
X136585166Y-68505334D01*
X136591450Y-68544924D01*
X136598584Y-68562924D01*
X136605190Y-68565011D01*
X136636366Y-68567219D01*
X136680339Y-68565579D01*
X136748966Y-68560121D01*
X136748966Y-68434107D01*
X136749080Y-68402411D01*
X136750575Y-68352409D01*
X136754831Y-68323905D01*
X136763135Y-68311075D01*
X136776771Y-68308092D01*
X136777545Y-68308098D01*
X136791894Y-68312519D01*
X136801511Y-68329179D01*
X136808328Y-68363993D01*
X136814278Y-68422878D01*
X136814592Y-68426615D01*
X136819334Y-68490100D01*
X136822701Y-68547896D01*
X136823981Y-68587911D01*
X136823981Y-68638157D01*
X136553928Y-68638157D01*
X136283875Y-68638157D01*
X136283875Y-68465623D01*
X136283943Y-68423442D01*
X136284791Y-68362978D01*
X136287327Y-68324787D01*
X136292431Y-68303793D01*
X136300989Y-68294919D01*
X136313881Y-68293089D01*
X136325712Y-68294397D01*
G37*
G36*
X136532505Y-74154356D02*
G01*
X136567481Y-74199559D01*
X136584348Y-74236578D01*
X136630301Y-74197911D01*
X136642418Y-74188311D01*
X136695851Y-74161130D01*
X136743097Y-74161715D01*
X136782591Y-74188475D01*
X136812767Y-74239819D01*
X136832059Y-74314154D01*
X136838901Y-74409891D01*
X136838984Y-74503008D01*
X136763969Y-74503159D01*
X136567442Y-74503553D01*
X136558126Y-74503572D01*
X136295900Y-74504097D01*
X136298828Y-74429297D01*
X136373893Y-74429297D01*
X136466009Y-74429297D01*
X136558126Y-74429297D01*
X136613940Y-74429297D01*
X136688955Y-74429297D01*
X136763969Y-74429297D01*
X136763969Y-74355354D01*
X136759604Y-74310310D01*
X136741137Y-74263189D01*
X136711927Y-74236649D01*
X136676034Y-74233821D01*
X136637516Y-74257835D01*
X136636216Y-74259203D01*
X136619736Y-74295995D01*
X136613940Y-74355354D01*
X136613940Y-74429297D01*
X136558126Y-74429297D01*
X136549239Y-74343030D01*
X136544035Y-74304985D01*
X136530282Y-74259002D01*
X136507971Y-74230508D01*
X136479088Y-74212202D01*
X136436649Y-74207116D01*
X136398722Y-74231689D01*
X136394680Y-74236717D01*
X136378972Y-74277906D01*
X136373893Y-74344212D01*
X136373893Y-74429297D01*
X136298828Y-74429297D01*
X136301140Y-74370253D01*
X136304818Y-74313216D01*
X136317225Y-74240721D01*
X136339628Y-74190338D01*
X136374408Y-74157559D01*
X136423948Y-74137879D01*
X136481853Y-74133728D01*
X136532505Y-74154356D01*
G37*
G36*
X136621306Y-78039394D02*
G01*
X136705168Y-78051832D01*
X136766350Y-78079987D01*
X136808347Y-78127110D01*
X136834655Y-78196451D01*
X136848769Y-78291260D01*
X136849741Y-78303144D01*
X136853126Y-78355063D01*
X136854103Y-78391725D01*
X136852438Y-78405824D01*
X136839505Y-78406373D01*
X136800888Y-78407688D01*
X136741524Y-78409589D01*
X136666319Y-78411919D01*
X136647416Y-78412490D01*
X136580183Y-78414522D01*
X136313881Y-78422475D01*
X136313881Y-78315777D01*
X136315178Y-78284253D01*
X136374949Y-78284253D01*
X136375498Y-78317191D01*
X136385145Y-78330759D01*
X136408572Y-78331497D01*
X136456009Y-78332189D01*
X136517343Y-78332691D01*
X136584003Y-78332971D01*
X136647416Y-78332993D01*
X136699010Y-78332724D01*
X136730213Y-78332130D01*
X136743684Y-78331408D01*
X136767802Y-78325729D01*
X136777308Y-78307720D01*
X136778972Y-78268553D01*
X136776397Y-78233199D01*
X136761615Y-78195573D01*
X136727962Y-78156031D01*
X136718732Y-78146965D01*
X136684961Y-78119842D01*
X136650162Y-78107771D01*
X136599955Y-78105021D01*
X136576969Y-78105525D01*
X136493012Y-78119082D01*
X136432615Y-78151093D01*
X136395857Y-78201518D01*
X136382754Y-78240919D01*
X136374949Y-78284253D01*
X136315178Y-78284253D01*
X136316580Y-78250171D01*
X136331177Y-78174370D01*
X136360277Y-78117294D01*
X136405952Y-78073494D01*
X136436045Y-78055003D01*
X136468496Y-78044056D01*
X136512174Y-78039058D01*
X136576433Y-78038064D01*
X136621306Y-78039394D01*
G37*
G36*
X136379655Y-85340897D02*
G01*
X136429849Y-85356265D01*
X136491013Y-85377359D01*
X136519891Y-85387707D01*
X136602081Y-85416375D01*
X136684397Y-85444169D01*
X136752717Y-85466291D01*
X136792145Y-85478835D01*
X136834504Y-85494320D01*
X136857547Y-85507988D01*
X136867100Y-85523824D01*
X136868990Y-85545812D01*
X136868971Y-85548725D01*
X136864142Y-85576296D01*
X136845465Y-85594565D01*
X136805228Y-85611476D01*
X136687153Y-85652965D01*
X136570654Y-85693616D01*
X136568004Y-85694541D01*
X136472223Y-85727600D01*
X136401025Y-85751729D01*
X136355625Y-85766510D01*
X136337238Y-85771530D01*
X136331423Y-85760118D01*
X136331638Y-85730326D01*
X136333674Y-85717784D01*
X136344164Y-85697064D01*
X136369002Y-85682337D01*
X136415783Y-85667975D01*
X136495181Y-85646827D01*
X136490798Y-85549081D01*
X136487440Y-85474187D01*
X136553928Y-85474187D01*
X136553928Y-85548129D01*
X136554368Y-85585419D01*
X136558496Y-85609893D01*
X136570654Y-85616483D01*
X136595186Y-85611902D01*
X136612322Y-85607286D01*
X136659435Y-85592999D01*
X136711459Y-85575804D01*
X136786474Y-85549876D01*
X136741465Y-85531455D01*
X136727534Y-85526080D01*
X136678446Y-85509428D01*
X136625192Y-85493610D01*
X136553928Y-85474187D01*
X136487440Y-85474187D01*
X136486415Y-85451334D01*
X136407649Y-85429475D01*
X136396344Y-85426267D01*
X136354421Y-85411406D01*
X136334157Y-85395711D01*
X136328884Y-85374531D01*
X136330531Y-85353213D01*
X136337233Y-85333096D01*
X136346720Y-85333064D01*
X136379655Y-85340897D01*
G37*
G36*
X136613940Y-84466273D02*
G01*
X136613388Y-84506144D01*
X136609749Y-84538578D01*
X136600693Y-84553006D01*
X136583934Y-84556291D01*
X136570388Y-84554574D01*
X136557285Y-84539972D01*
X136553928Y-84503780D01*
X136553537Y-84480882D01*
X136547681Y-84460147D01*
X136528215Y-84452418D01*
X136486943Y-84451270D01*
X136459154Y-84452238D01*
X136423692Y-84460670D01*
X136404426Y-84480290D01*
X136389272Y-84529523D01*
X136397252Y-84583844D01*
X136429238Y-84631681D01*
X136482061Y-84668547D01*
X136552552Y-84689957D01*
X136570745Y-84692482D01*
X136653628Y-84693363D01*
X136718920Y-84672799D01*
X136770507Y-84629715D01*
X136798570Y-84585377D01*
X136807045Y-84529083D01*
X136786869Y-84467037D01*
X136775432Y-84442613D01*
X136773568Y-84421732D01*
X136788284Y-84404759D01*
X136802294Y-84397202D01*
X136827308Y-84403623D01*
X136848404Y-84433268D01*
X136863036Y-84481708D01*
X136868657Y-84544517D01*
X136868495Y-84566841D01*
X136864079Y-84612885D01*
X136850433Y-84647021D01*
X136823231Y-84682378D01*
X136816908Y-84689335D01*
X136756961Y-84735729D01*
X136680833Y-84762654D01*
X136583934Y-84771823D01*
X136571127Y-84771722D01*
X136482907Y-84758402D01*
X136411051Y-84724248D01*
X136359701Y-84671119D01*
X136338026Y-84617492D01*
X136328996Y-84547714D01*
X136334439Y-84477407D01*
X136354623Y-84419828D01*
X136364294Y-84404335D01*
X136379281Y-84388542D01*
X136401319Y-84380157D01*
X136438059Y-84376841D01*
X136497151Y-84376255D01*
X136613940Y-84376255D01*
X136613940Y-84466273D01*
G37*
G36*
X136311525Y-76080157D02*
G01*
X136334088Y-76090835D01*
X136373598Y-76112399D01*
X136423183Y-76141137D01*
X136526728Y-76202653D01*
X136566761Y-76154700D01*
X136583709Y-76136261D01*
X136622221Y-76110737D01*
X136675135Y-76099045D01*
X136719042Y-76096684D01*
X136753589Y-76105156D01*
X136787479Y-76129174D01*
X136789209Y-76130665D01*
X136809185Y-76149783D01*
X136821954Y-76170045D01*
X136829479Y-76198665D01*
X136833722Y-76242856D01*
X136836647Y-76309832D01*
X136841811Y-76452658D01*
X136782688Y-76452851D01*
X136577846Y-76453519D01*
X136313881Y-76454379D01*
X136313881Y-76417030D01*
X136314070Y-76407177D01*
X136318154Y-76391660D01*
X136332628Y-76383455D01*
X136364032Y-76380237D01*
X136418902Y-76379681D01*
X136523922Y-76379681D01*
X136579754Y-76379681D01*
X136681221Y-76379681D01*
X136782688Y-76379681D01*
X136775921Y-76298074D01*
X136772028Y-76266195D01*
X136761919Y-76220742D01*
X136749721Y-76193054D01*
X136722961Y-76175496D01*
X136681291Y-76169367D01*
X136640536Y-76177785D01*
X136613710Y-76200075D01*
X136608364Y-76212800D01*
X136597058Y-76254723D01*
X136588588Y-76305096D01*
X136579754Y-76379681D01*
X136523922Y-76379681D01*
X136523922Y-76333975D01*
X136523408Y-76321495D01*
X136511391Y-76288460D01*
X136477537Y-76262711D01*
X136461602Y-76253744D01*
X136414267Y-76226065D01*
X136365015Y-76196225D01*
X136333667Y-76174931D01*
X136306658Y-76146794D01*
X136298878Y-76117460D01*
X136301474Y-76092495D01*
X136309257Y-76079622D01*
X136311525Y-76080157D01*
G37*
G36*
X136610938Y-83007236D02*
G01*
X136608975Y-83037897D01*
X136603678Y-83073390D01*
X136593751Y-83089625D01*
X136576433Y-83093503D01*
X136568603Y-83092947D01*
X136549960Y-83080059D01*
X136541725Y-83044743D01*
X136539911Y-83028631D01*
X136532388Y-83006323D01*
X136512753Y-82997526D01*
X136472066Y-82995984D01*
X136445831Y-82996956D01*
X136410177Y-83007298D01*
X136393210Y-83034150D01*
X136388896Y-83083890D01*
X136390726Y-83105776D01*
X136413886Y-83159267D01*
X136460929Y-83200360D01*
X136528423Y-83226725D01*
X136612936Y-83236031D01*
X136659513Y-83233334D01*
X136699668Y-83220155D01*
X136739357Y-83190860D01*
X136752417Y-83178822D01*
X136790785Y-83128535D01*
X136801558Y-83076168D01*
X136786321Y-83015807D01*
X136772917Y-82979240D01*
X136772250Y-82956528D01*
X136784988Y-82938530D01*
X136785479Y-82938041D01*
X136801399Y-82927642D01*
X136816469Y-82936180D01*
X136837849Y-82967592D01*
X136858586Y-83014910D01*
X136867389Y-83087350D01*
X136854187Y-83159388D01*
X136820854Y-83222779D01*
X136769265Y-83269276D01*
X136761529Y-83273429D01*
X136706897Y-83292153D01*
X136637346Y-83304739D01*
X136565294Y-83309529D01*
X136503157Y-83304860D01*
X136492336Y-83302405D01*
X136429716Y-83273670D01*
X136373266Y-83226299D01*
X136334166Y-83169261D01*
X136326235Y-83146424D01*
X136319137Y-83081863D01*
X136327387Y-83014284D01*
X136349867Y-82958693D01*
X136357437Y-82947860D01*
X136373025Y-82933178D01*
X136396162Y-82925099D01*
X136434330Y-82921677D01*
X136495011Y-82920969D01*
X136615437Y-82920969D01*
X136610938Y-83007236D01*
G37*
G36*
X136316224Y-75093882D02*
G01*
X136354797Y-75106458D01*
X136412794Y-75125677D01*
X136485683Y-75150036D01*
X136568931Y-75178035D01*
X136599595Y-75188385D01*
X136684098Y-75217189D01*
X136745208Y-75239015D01*
X136786817Y-75255807D01*
X136812815Y-75269513D01*
X136827097Y-75282075D01*
X136833552Y-75295440D01*
X136836073Y-75311552D01*
X136837210Y-75329330D01*
X136831827Y-75349888D01*
X136811250Y-75364166D01*
X136768560Y-75379089D01*
X136744840Y-75386426D01*
X136698330Y-75400326D01*
X136666450Y-75409212D01*
X136646160Y-75415489D01*
X136602104Y-75430574D01*
X136542943Y-75451628D01*
X136523922Y-75458575D01*
X136475710Y-75476184D01*
X136416525Y-75497243D01*
X136361681Y-75514989D01*
X136322959Y-75525477D01*
X136306294Y-75526928D01*
X136302128Y-75516457D01*
X136301996Y-75487623D01*
X136306338Y-75475065D01*
X136331177Y-75453011D01*
X136381394Y-75432127D01*
X136456409Y-75407255D01*
X136456409Y-75386770D01*
X136523922Y-75386770D01*
X136595186Y-75367347D01*
X136614969Y-75361749D01*
X136668755Y-75344917D01*
X136711459Y-75329502D01*
X136756468Y-75311082D01*
X136681453Y-75285153D01*
X136655308Y-75276332D01*
X136603853Y-75260018D01*
X136565180Y-75249055D01*
X136544313Y-75244699D01*
X136530090Y-75248592D01*
X136524740Y-75269064D01*
X136523922Y-75312828D01*
X136523922Y-75386770D01*
X136456409Y-75386770D01*
X136456409Y-75313330D01*
X136456409Y-75219405D01*
X136381394Y-75195674D01*
X136368122Y-75191368D01*
X136328566Y-75175096D01*
X136308954Y-75156947D01*
X136301632Y-75130685D01*
X136299676Y-75102300D01*
X136301632Y-75089452D01*
X136316224Y-75093882D01*
G37*
G36*
X136323669Y-79005543D02*
G01*
X136344119Y-79015599D01*
X136381851Y-79036757D01*
X136430028Y-79065210D01*
X136440406Y-79071432D01*
X136487581Y-79098761D01*
X136523374Y-79117968D01*
X136540718Y-79125222D01*
X136549541Y-79118770D01*
X136561864Y-79093846D01*
X136574646Y-79074009D01*
X136611863Y-79047350D01*
X136662061Y-79027797D01*
X136715140Y-79020201D01*
X136755043Y-79025535D01*
X136799377Y-79052043D01*
X136830119Y-79102061D01*
X136848038Y-79177019D01*
X136853903Y-79278350D01*
X136853987Y-79378968D01*
X136598937Y-79379479D01*
X136583934Y-79379509D01*
X136313881Y-79380051D01*
X136313881Y-79342654D01*
X136314328Y-79329226D01*
X136319605Y-79315628D01*
X136336006Y-79308484D01*
X136369824Y-79305718D01*
X136427354Y-79305257D01*
X136540826Y-79305257D01*
X136598937Y-79305257D01*
X136655198Y-79305052D01*
X136683570Y-79304645D01*
X136734052Y-79299773D01*
X136762894Y-79285976D01*
X136775924Y-79258993D01*
X136778972Y-79214561D01*
X136778949Y-79210442D01*
X136772400Y-79153676D01*
X136755396Y-79118792D01*
X136744681Y-79110001D01*
X136702045Y-79095758D01*
X136656948Y-79102260D01*
X136622292Y-79128560D01*
X136617058Y-79137720D01*
X136604033Y-79180792D01*
X136598937Y-79233581D01*
X136598937Y-79305257D01*
X136540826Y-79305257D01*
X136536125Y-79258033D01*
X136535251Y-79250802D01*
X136528046Y-79226939D01*
X136510585Y-79205726D01*
X136477307Y-79181873D01*
X136422652Y-79150091D01*
X136407296Y-79141461D01*
X136358555Y-79112271D01*
X136330237Y-79090151D01*
X136317095Y-79070143D01*
X136313881Y-79047285D01*
X136316204Y-79018191D01*
X136322204Y-79005198D01*
X136323669Y-79005543D01*
G37*
G36*
X142137466Y-75245088D02*
G01*
X142188913Y-75273226D01*
X142200620Y-75282811D01*
X142221841Y-75304022D01*
X142238267Y-75329187D01*
X142250504Y-75362026D01*
X142259157Y-75406261D01*
X142264833Y-75465613D01*
X142268137Y-75543803D01*
X142269675Y-75644551D01*
X142270053Y-75771580D01*
X142270053Y-76139634D01*
X142105021Y-76139634D01*
X141759953Y-76139634D01*
X141249852Y-76139634D01*
X141249852Y-76064619D01*
X141249852Y-75989604D01*
X141475320Y-75989604D01*
X141700788Y-75989604D01*
X141864974Y-75989604D01*
X141984997Y-75989604D01*
X142105021Y-75989604D01*
X142105021Y-75706385D01*
X142105015Y-75694118D01*
X142104290Y-75588841D01*
X142102231Y-75510437D01*
X142098659Y-75456082D01*
X142093397Y-75422951D01*
X142086267Y-75408219D01*
X142076880Y-75403073D01*
X142041553Y-75391901D01*
X141994917Y-75382758D01*
X141953274Y-75378510D01*
X141918979Y-75382468D01*
X141893647Y-75398194D01*
X141885030Y-75407433D01*
X141877216Y-75422253D01*
X141871730Y-75445301D01*
X141868167Y-75480931D01*
X141866123Y-75533500D01*
X141865194Y-75607362D01*
X141864974Y-75706874D01*
X141864974Y-75989604D01*
X141700788Y-75989604D01*
X141696614Y-75784166D01*
X141692440Y-75578728D01*
X141471146Y-75489984D01*
X141249852Y-75401240D01*
X141249852Y-75320348D01*
X141250912Y-75287909D01*
X141255467Y-75253010D01*
X141262397Y-75239457D01*
X141269173Y-75241224D01*
X141300057Y-75252304D01*
X141350728Y-75271862D01*
X141416127Y-75297928D01*
X141491192Y-75328531D01*
X141707443Y-75417606D01*
X141718298Y-75376727D01*
X141730929Y-75343243D01*
X141771975Y-75292915D01*
X141836866Y-75258120D01*
X141927052Y-75237893D01*
X141983999Y-75232019D01*
X142070696Y-75231559D01*
X142137466Y-75245088D01*
G37*
G36*
X136308725Y-71699126D02*
G01*
X136329301Y-71709265D01*
X136367137Y-71730490D01*
X136415410Y-71759004D01*
X136515296Y-71819248D01*
X136550298Y-71774523D01*
X136552282Y-71772036D01*
X136600461Y-71731390D01*
X136657089Y-71711333D01*
X136714592Y-71711861D01*
X136765397Y-71732970D01*
X136801933Y-71774656D01*
X136810259Y-71796940D01*
X136820433Y-71856848D01*
X136823981Y-71938062D01*
X136823951Y-71953749D01*
X136822732Y-72008498D01*
X136818802Y-72040409D01*
X136810890Y-72055336D01*
X136797726Y-72059136D01*
X136787991Y-72059351D01*
X136750328Y-72060433D01*
X136691749Y-72062255D01*
X136637887Y-72063994D01*
X136618087Y-72064633D01*
X136535174Y-72067385D01*
X136298878Y-72075328D01*
X136298878Y-72029572D01*
X136298878Y-71983816D01*
X136403899Y-71983816D01*
X136508919Y-71983816D01*
X136508919Y-71939864D01*
X136508784Y-71933276D01*
X136504091Y-71910944D01*
X136502681Y-71909147D01*
X136583934Y-71909147D01*
X136584263Y-71953118D01*
X136589157Y-71983047D01*
X136604925Y-71995993D01*
X136637887Y-71996541D01*
X136694362Y-71989278D01*
X136726874Y-71984374D01*
X136752778Y-71975502D01*
X136762495Y-71957489D01*
X136763969Y-71922741D01*
X136763928Y-71918237D01*
X136759521Y-71869351D01*
X136750061Y-71829163D01*
X136743073Y-71815425D01*
X136709846Y-71787636D01*
X136665412Y-71780283D01*
X136619853Y-71795940D01*
X136606926Y-71805501D01*
X136592214Y-71825399D01*
X136585519Y-71856893D01*
X136583934Y-71909147D01*
X136502681Y-71909147D01*
X136488676Y-71891299D01*
X136457093Y-71869120D01*
X136403899Y-71839187D01*
X136394650Y-71834171D01*
X136344647Y-71805403D01*
X136315619Y-71783601D01*
X136302163Y-71763694D01*
X136298878Y-71740611D01*
X136301188Y-71711747D01*
X136307201Y-71698760D01*
X136308725Y-71699126D01*
G37*
G36*
X136295924Y-68773812D02*
G01*
X136319385Y-68784792D01*
X136359613Y-68806624D01*
X136409721Y-68835615D01*
X136435309Y-68850528D01*
X136482526Y-68875188D01*
X136510185Y-68883840D01*
X136521581Y-68877725D01*
X136521762Y-68877205D01*
X136537112Y-68852516D01*
X136563745Y-68822015D01*
X136565717Y-68820064D01*
X136593016Y-68799347D01*
X136625888Y-68790804D01*
X136676282Y-68791157D01*
X136690653Y-68792222D01*
X136741993Y-68802381D01*
X136777334Y-68824765D01*
X136799447Y-68863716D01*
X136811103Y-68923580D01*
X136815076Y-69008701D01*
X136816480Y-69140756D01*
X136595804Y-69143795D01*
X136550177Y-69144423D01*
X136283875Y-69148091D01*
X136283875Y-69112272D01*
X136284075Y-69105649D01*
X136291405Y-69081836D01*
X136313082Y-69067362D01*
X136354269Y-69060179D01*
X136420129Y-69058240D01*
X136427777Y-69058237D01*
X136473942Y-69057263D01*
X136498079Y-69052267D01*
X136507279Y-69039942D01*
X136508634Y-69016982D01*
X136508522Y-69012651D01*
X136504142Y-68993556D01*
X136568931Y-68993556D01*
X136569931Y-69033815D01*
X136576928Y-69061022D01*
X136595804Y-69072839D01*
X136632437Y-69072594D01*
X136692705Y-69063613D01*
X136718854Y-69058744D01*
X136739872Y-69048731D01*
X136747765Y-69026888D01*
X136748966Y-68984130D01*
X136748786Y-68971601D01*
X136739734Y-68912468D01*
X136715027Y-68875248D01*
X136671903Y-68855322D01*
X136670870Y-68855078D01*
X136633670Y-68855428D01*
X136600639Y-68879834D01*
X136586572Y-68898250D01*
X136572847Y-68936618D01*
X136568931Y-68993556D01*
X136504142Y-68993556D01*
X136503504Y-68990775D01*
X136487225Y-68970569D01*
X136454430Y-68947131D01*
X136399863Y-68915561D01*
X136349494Y-68886361D01*
X136313013Y-68860516D01*
X136293840Y-68838086D01*
X136286629Y-68814291D01*
X136286506Y-68785981D01*
X136293258Y-68773184D01*
X136295924Y-68773812D01*
G37*
G36*
X142270053Y-82835691D02*
G01*
X142270053Y-82910517D01*
X142056261Y-82902342D01*
X142053377Y-82902233D01*
X141958977Y-82899894D01*
X141859588Y-82899410D01*
X141766859Y-82900733D01*
X141692440Y-82903817D01*
X141542410Y-82913467D01*
X141837184Y-83221028D01*
X141839948Y-83223911D01*
X141920049Y-83307292D01*
X141996817Y-83386863D01*
X142066774Y-83459046D01*
X142126442Y-83520261D01*
X142172345Y-83566930D01*
X142201006Y-83595475D01*
X142234147Y-83629006D01*
X142257606Y-83660208D01*
X142267819Y-83690947D01*
X142270053Y-83731607D01*
X142270053Y-83800852D01*
X141772921Y-83803125D01*
X141692142Y-83803388D01*
X141578682Y-83803375D01*
X141477170Y-83802913D01*
X141391215Y-83802042D01*
X141324431Y-83800803D01*
X141280429Y-83799237D01*
X141262820Y-83797384D01*
X141260314Y-83794719D01*
X141252854Y-83769823D01*
X141249852Y-83730243D01*
X141249965Y-83712487D01*
X141253964Y-83683650D01*
X141269913Y-83672618D01*
X141306114Y-83670591D01*
X141314983Y-83670537D01*
X141356548Y-83670468D01*
X141420828Y-83670498D01*
X141502567Y-83670618D01*
X141596510Y-83670822D01*
X141697400Y-83671104D01*
X141802788Y-83671350D01*
X141885294Y-83671153D01*
X141944557Y-83670203D01*
X141984013Y-83668200D01*
X142007097Y-83664847D01*
X142017244Y-83659843D01*
X142017887Y-83652891D01*
X142012462Y-83643691D01*
X141998011Y-83626632D01*
X141965396Y-83590685D01*
X141917777Y-83539318D01*
X141858110Y-83475697D01*
X141789353Y-83402990D01*
X141714460Y-83324365D01*
X141606485Y-83211405D01*
X141514497Y-83115066D01*
X141439744Y-83036490D01*
X141380466Y-82973675D01*
X141334907Y-82924621D01*
X141301307Y-82887326D01*
X141277909Y-82859788D01*
X141262953Y-82840007D01*
X141254683Y-82825980D01*
X141251339Y-82815707D01*
X141251164Y-82807187D01*
X141252400Y-82798417D01*
X141257354Y-82763438D01*
X141763704Y-82762151D01*
X142270053Y-82760865D01*
X142270053Y-82835691D01*
G37*
G36*
X141961180Y-81182148D02*
G01*
X142018084Y-81183620D01*
X142060090Y-81186718D01*
X142091651Y-81191717D01*
X142117220Y-81198893D01*
X142141250Y-81208521D01*
X142165568Y-81219675D01*
X142193536Y-81235390D01*
X142215563Y-81254441D01*
X142232406Y-81280161D01*
X142244826Y-81315884D01*
X142253582Y-81364944D01*
X142259434Y-81430675D01*
X142263140Y-81516410D01*
X142265461Y-81625483D01*
X142267155Y-81761228D01*
X142271758Y-82184298D01*
X141759569Y-82184985D01*
X141413256Y-82185449D01*
X141247381Y-82185671D01*
X141249170Y-82036362D01*
X141413256Y-82036362D01*
X141755388Y-82032328D01*
X142097519Y-82028293D01*
X142101559Y-81712743D01*
X142101809Y-81692507D01*
X142102656Y-81587125D01*
X142102235Y-81507304D01*
X142100353Y-81449245D01*
X142096818Y-81409152D01*
X142091436Y-81383228D01*
X142084015Y-81367675D01*
X142082099Y-81365142D01*
X142072425Y-81355701D01*
X142057645Y-81348756D01*
X142033610Y-81343926D01*
X141996169Y-81340832D01*
X141941172Y-81339092D01*
X141864470Y-81338328D01*
X141761912Y-81338157D01*
X141711039Y-81338250D01*
X141612342Y-81339248D01*
X141539190Y-81341496D01*
X141488472Y-81345183D01*
X141457076Y-81350498D01*
X141441890Y-81357630D01*
X141437559Y-81364827D01*
X141431397Y-81390025D01*
X141426536Y-81434011D01*
X141422782Y-81499589D01*
X141419941Y-81589562D01*
X141417821Y-81706732D01*
X141413256Y-82036362D01*
X141249170Y-82036362D01*
X141252368Y-81769416D01*
X141252927Y-81723787D01*
X141254554Y-81609477D01*
X141256390Y-81520191D01*
X141258713Y-81452218D01*
X141261801Y-81401849D01*
X141265932Y-81365374D01*
X141271384Y-81339084D01*
X141278434Y-81319269D01*
X141287360Y-81302218D01*
X141289565Y-81298573D01*
X141322669Y-81255053D01*
X141359682Y-81219702D01*
X141369168Y-81213043D01*
X141385767Y-81204290D01*
X141407502Y-81197710D01*
X141438519Y-81192909D01*
X141482962Y-81189491D01*
X141544975Y-81187061D01*
X141628704Y-81185223D01*
X141738293Y-81183581D01*
X141784869Y-81182976D01*
X141884926Y-81182025D01*
X141961180Y-81182148D01*
G37*
G36*
X141729593Y-79633148D02*
G01*
X141861223Y-79633661D01*
X142270053Y-79635322D01*
X142270053Y-79711877D01*
X142270053Y-79788431D01*
X142176285Y-79784670D01*
X142172998Y-79784546D01*
X142126009Y-79783527D01*
X142056059Y-79782851D01*
X141969531Y-79782544D01*
X141872809Y-79782629D01*
X141772277Y-79783130D01*
X141724147Y-79783526D01*
X141628316Y-79784845D01*
X141556967Y-79786929D01*
X141506203Y-79790077D01*
X141472129Y-79794593D01*
X141450847Y-79800776D01*
X141438461Y-79808928D01*
X141438003Y-79809420D01*
X141429132Y-79834547D01*
X141422132Y-79883458D01*
X141417026Y-79950259D01*
X141413835Y-80029058D01*
X141412583Y-80113964D01*
X141413291Y-80199084D01*
X141415980Y-80278526D01*
X141420674Y-80346397D01*
X141427394Y-80396806D01*
X141436161Y-80423860D01*
X141439417Y-80427978D01*
X141448667Y-80435824D01*
X141463431Y-80441931D01*
X141487208Y-80446572D01*
X141523497Y-80450024D01*
X141575797Y-80452561D01*
X141647605Y-80454456D01*
X141742422Y-80455985D01*
X141863746Y-80457423D01*
X142270053Y-80461862D01*
X142270053Y-80534845D01*
X142270053Y-80607828D01*
X141856666Y-80609516D01*
X141828796Y-80609625D01*
X141710721Y-80609881D01*
X141617996Y-80609526D01*
X141546759Y-80608341D01*
X141493154Y-80606105D01*
X141453319Y-80602599D01*
X141423397Y-80597603D01*
X141399529Y-80590898D01*
X141377855Y-80582265D01*
X141375610Y-80581263D01*
X141322031Y-80548706D01*
X141286842Y-80503834D01*
X141263153Y-80437980D01*
X141262281Y-80433609D01*
X141259101Y-80398759D01*
X141256607Y-80340445D01*
X141254927Y-80263916D01*
X141254184Y-80174422D01*
X141254506Y-80077210D01*
X141255782Y-79971652D01*
X141258208Y-79880978D01*
X141262560Y-79812478D01*
X141269713Y-79762056D01*
X141280541Y-79725617D01*
X141295919Y-79699067D01*
X141316724Y-79678311D01*
X141343830Y-79659254D01*
X141354198Y-79652741D01*
X141366551Y-79646439D01*
X141382072Y-79641570D01*
X141404116Y-79637968D01*
X141436038Y-79635466D01*
X141481192Y-79633899D01*
X141542932Y-79633101D01*
X141624615Y-79632906D01*
X141729593Y-79633148D01*
G37*
G36*
X136846962Y-79955442D02*
G01*
X136853424Y-79961672D01*
X136854486Y-79971662D01*
X136853987Y-79985396D01*
X136853950Y-79989257D01*
X136849157Y-80012144D01*
X136830624Y-80024221D01*
X136790225Y-80031343D01*
X136773132Y-80033441D01*
X136719447Y-80040081D01*
X136651539Y-80048527D01*
X136580034Y-80057458D01*
X136433606Y-80075790D01*
X136535025Y-80102791D01*
X136589169Y-80117044D01*
X136641979Y-80130637D01*
X136677702Y-80139483D01*
X136708349Y-80153533D01*
X136718961Y-80181694D01*
X136718840Y-80187937D01*
X136716111Y-80200269D01*
X136706394Y-80210771D01*
X136685289Y-80221360D01*
X136648396Y-80233948D01*
X136591313Y-80250452D01*
X136509642Y-80272786D01*
X136442852Y-80290904D01*
X136559015Y-80308181D01*
X136566350Y-80309260D01*
X136628113Y-80317461D01*
X136682224Y-80323259D01*
X136717698Y-80325458D01*
X136757945Y-80327849D01*
X136807103Y-80334835D01*
X136826066Y-80339537D01*
X136848487Y-80354771D01*
X136853987Y-80384967D01*
X136853319Y-80404768D01*
X136846393Y-80418136D01*
X136825451Y-80420059D01*
X136782723Y-80413665D01*
X136746510Y-80407959D01*
X136684447Y-80398865D01*
X136609692Y-80388379D01*
X136531424Y-80377809D01*
X136460338Y-80368113D01*
X136398924Y-80359173D01*
X136354173Y-80352040D01*
X136332635Y-80347706D01*
X136319576Y-80330801D01*
X136313881Y-80297324D01*
X136313943Y-80289723D01*
X136316477Y-80271572D01*
X136326713Y-80258336D01*
X136350028Y-80247068D01*
X136391797Y-80234821D01*
X136457398Y-80218647D01*
X136600916Y-80184048D01*
X136513659Y-80165093D01*
X136436708Y-80147949D01*
X136380289Y-80133573D01*
X136344372Y-80120774D01*
X136324382Y-80107379D01*
X136315743Y-80091210D01*
X136313881Y-80070091D01*
X136313834Y-80062695D01*
X136314571Y-80046595D01*
X136319876Y-80034590D01*
X136333935Y-80025265D01*
X136360934Y-80017207D01*
X136405059Y-80009003D01*
X136470495Y-79999239D01*
X136561430Y-79986502D01*
X136599303Y-79981191D01*
X136690343Y-79968406D01*
X136756790Y-79959453D01*
X136802483Y-79954318D01*
X136831261Y-79952985D01*
X136846962Y-79955442D01*
G37*
G36*
X137975458Y-72399270D02*
G01*
X138042043Y-72433268D01*
X138193244Y-72510612D01*
X138356003Y-72594033D01*
X138522660Y-72679595D01*
X138685553Y-72763364D01*
X138837021Y-72841404D01*
X138969404Y-72909781D01*
X139090580Y-72972248D01*
X139234571Y-73046080D01*
X139392429Y-73126701D01*
X139557592Y-73210772D01*
X139723498Y-73294953D01*
X139883586Y-73375905D01*
X140031296Y-73450287D01*
X140620595Y-73746280D01*
X140616411Y-73924827D01*
X140612227Y-74103375D01*
X139944596Y-74443284D01*
X139858300Y-74487254D01*
X139701370Y-74567369D01*
X139539066Y-74650400D01*
X139376743Y-74733598D01*
X139219757Y-74814214D01*
X139073464Y-74889500D01*
X138943219Y-74956707D01*
X138834377Y-75013087D01*
X138808764Y-75026389D01*
X138684187Y-75091043D01*
X138554742Y-75158155D01*
X138426727Y-75224466D01*
X138306439Y-75286713D01*
X138200176Y-75341637D01*
X138114235Y-75385976D01*
X138026022Y-75431451D01*
X137921649Y-75485311D01*
X137819172Y-75538245D01*
X137726852Y-75585984D01*
X137652952Y-75624262D01*
X137632046Y-75635079D01*
X137567258Y-75668260D01*
X137513897Y-75695077D01*
X137477015Y-75713013D01*
X137461664Y-75719551D01*
X137459560Y-75709179D01*
X137457382Y-75673231D01*
X137455654Y-75616182D01*
X137454516Y-75542845D01*
X137454105Y-75458028D01*
X137454105Y-75196506D01*
X138721811Y-74562308D01*
X138776782Y-74534792D01*
X138956308Y-74444715D01*
X139127263Y-74358614D01*
X139287818Y-74277428D01*
X139436143Y-74202095D01*
X139570409Y-74133555D01*
X139688786Y-74072746D01*
X139789445Y-74020607D01*
X139870556Y-73978076D01*
X139930290Y-73946094D01*
X139966817Y-73925597D01*
X139978308Y-73917526D01*
X139975313Y-73915420D01*
X139955559Y-73904315D01*
X139917361Y-73884281D01*
X139859943Y-73854935D01*
X139782532Y-73815890D01*
X139684353Y-73766761D01*
X139564631Y-73707164D01*
X139422592Y-73636713D01*
X139257461Y-73555024D01*
X139068464Y-73461711D01*
X138854826Y-73356388D01*
X138615774Y-73238672D01*
X138350532Y-73108177D01*
X137454105Y-72667314D01*
X137454105Y-72400293D01*
X137454105Y-72133271D01*
X137975458Y-72399270D01*
G37*
G36*
X141609028Y-71458909D02*
G01*
X141688923Y-71468783D01*
X141751465Y-71488305D01*
X141762686Y-71493806D01*
X141792962Y-71510432D01*
X141816048Y-71528934D01*
X141833041Y-71553329D01*
X141845036Y-71587636D01*
X141853131Y-71635872D01*
X141858422Y-71702056D01*
X141862004Y-71790205D01*
X141864974Y-71904339D01*
X141866046Y-71947150D01*
X141869523Y-72053843D01*
X141873648Y-72134045D01*
X141878631Y-72190376D01*
X141884682Y-72225456D01*
X141892010Y-72241905D01*
X141914289Y-72252797D01*
X141958236Y-72258857D01*
X142009460Y-72257408D01*
X142056122Y-72248936D01*
X142086384Y-72233927D01*
X142091400Y-72227022D01*
X142097983Y-72208432D01*
X142103246Y-72177295D01*
X142107470Y-72130118D01*
X142110936Y-72063409D01*
X142113925Y-71973679D01*
X142116720Y-71857434D01*
X142124274Y-71503721D01*
X142197164Y-71503721D01*
X142270053Y-71503721D01*
X142270053Y-71871776D01*
X142269911Y-71960138D01*
X142268852Y-72069277D01*
X142266177Y-72154623D01*
X142261209Y-72219893D01*
X142253268Y-72268803D01*
X142241677Y-72305070D01*
X142225759Y-72332411D01*
X142204834Y-72354542D01*
X142178226Y-72375181D01*
X142172258Y-72379355D01*
X142143601Y-72395836D01*
X142112067Y-72405004D01*
X142068638Y-72408576D01*
X142004298Y-72408266D01*
X141998491Y-72408127D01*
X141906441Y-72400890D01*
X141837979Y-72383405D01*
X141788098Y-72353721D01*
X141751792Y-72309888D01*
X141744022Y-72295502D01*
X141735664Y-72272869D01*
X141729325Y-72242467D01*
X141724544Y-72199847D01*
X141720861Y-72140563D01*
X141717814Y-72060169D01*
X141714944Y-71954217D01*
X141707443Y-71647063D01*
X141669935Y-71627276D01*
X141667484Y-71626040D01*
X141623801Y-71614145D01*
X141568458Y-71611082D01*
X141511744Y-71616010D01*
X141463952Y-71628087D01*
X141435373Y-71646469D01*
X141433768Y-71648949D01*
X141427280Y-71667473D01*
X141422358Y-71699779D01*
X141418830Y-71749111D01*
X141416523Y-71818712D01*
X141415266Y-71911825D01*
X141414885Y-72031692D01*
X141414885Y-72388896D01*
X141331248Y-72388896D01*
X141247611Y-72388896D01*
X141252483Y-72002570D01*
X141252792Y-71978471D01*
X141254818Y-71852921D01*
X141257786Y-71753287D01*
X141262526Y-71676075D01*
X141269866Y-71617788D01*
X141280638Y-71574930D01*
X141295669Y-71544006D01*
X141315791Y-71521518D01*
X141341832Y-71503971D01*
X141374622Y-71487869D01*
X141375850Y-71487317D01*
X141441429Y-71468164D01*
X141522842Y-71458699D01*
X141609028Y-71458909D01*
G37*
G36*
X141594343Y-78120206D02*
G01*
X141661639Y-78122039D01*
X141708682Y-78126847D01*
X141742589Y-78135639D01*
X141770477Y-78149422D01*
X141785638Y-78159075D01*
X141812710Y-78180547D01*
X141832866Y-78206389D01*
X141847114Y-78240871D01*
X141856463Y-78288264D01*
X141861920Y-78352838D01*
X141864495Y-78438865D01*
X141865195Y-78550614D01*
X141865196Y-78551981D01*
X141865713Y-78663830D01*
X141867781Y-78749339D01*
X141872487Y-78812133D01*
X141880915Y-78855837D01*
X141894154Y-78884075D01*
X141913288Y-78900470D01*
X141939406Y-78908647D01*
X141973592Y-78912231D01*
X141981866Y-78912780D01*
X142019676Y-78914952D01*
X142048838Y-78913523D01*
X142070473Y-78905193D01*
X142085702Y-78886662D01*
X142095647Y-78854627D01*
X142101431Y-78805791D01*
X142104173Y-78736851D01*
X142104996Y-78644508D01*
X142105021Y-78525461D01*
X142105226Y-78457227D01*
X142106239Y-78363029D01*
X142107981Y-78281976D01*
X142110324Y-78218284D01*
X142113137Y-78176166D01*
X142116290Y-78159839D01*
X142123475Y-78158056D01*
X142154603Y-78157517D01*
X142198806Y-78160904D01*
X142270053Y-78168935D01*
X142270053Y-78535154D01*
X142269975Y-78617884D01*
X142269448Y-78715397D01*
X142268178Y-78789816D01*
X142265883Y-78845233D01*
X142262280Y-78885740D01*
X142257086Y-78915429D01*
X142250019Y-78938393D01*
X142240796Y-78958722D01*
X142230724Y-78976706D01*
X142192562Y-79021113D01*
X142140685Y-79048934D01*
X142070362Y-79062027D01*
X141976861Y-79062246D01*
X141962944Y-79061445D01*
X141883830Y-79052507D01*
X141826396Y-79035339D01*
X141783728Y-79006973D01*
X141748910Y-78964443D01*
X141744625Y-78957290D01*
X141736324Y-78937084D01*
X141730068Y-78908452D01*
X141725460Y-78867076D01*
X141722104Y-78808642D01*
X141719603Y-78728833D01*
X141717560Y-78623335D01*
X141716516Y-78559730D01*
X141714289Y-78462703D01*
X141710408Y-78390188D01*
X141703356Y-78338616D01*
X141691620Y-78304420D01*
X141673683Y-78284034D01*
X141648031Y-78273888D01*
X141613149Y-78270418D01*
X141567521Y-78270053D01*
X141546587Y-78270001D01*
X141506043Y-78270621D01*
X141474800Y-78274941D01*
X141451647Y-78286248D01*
X141435374Y-78307831D01*
X141424772Y-78342978D01*
X141418632Y-78394976D01*
X141415744Y-78467114D01*
X141414898Y-78562679D01*
X141414885Y-78684960D01*
X141414885Y-79050207D01*
X141342371Y-79050207D01*
X141318536Y-79049618D01*
X141279193Y-79045624D01*
X141258751Y-79039102D01*
X141256436Y-79027532D01*
X141254093Y-78989266D01*
X141252461Y-78928483D01*
X141251606Y-78849356D01*
X141251597Y-78756062D01*
X141252500Y-78652776D01*
X141254134Y-78541681D01*
X141256589Y-78438641D01*
X141260380Y-78358650D01*
X141266260Y-78297989D01*
X141274981Y-78252934D01*
X141287297Y-78219764D01*
X141303960Y-78194756D01*
X141325724Y-78174189D01*
X141353341Y-78154340D01*
X141375605Y-78140818D01*
X141403197Y-78129930D01*
X141438809Y-78123641D01*
X141489763Y-78120756D01*
X141563382Y-78120080D01*
X141594343Y-78120206D01*
G37*
G36*
X140616401Y-68392458D02*
G01*
X140612227Y-68596848D01*
X140124631Y-68866919D01*
X140085730Y-68888481D01*
X139941865Y-68968427D01*
X139784526Y-69056129D01*
X139621663Y-69147139D01*
X139461228Y-69237011D01*
X139311171Y-69321298D01*
X139179445Y-69395552D01*
X139142929Y-69416177D01*
X139012896Y-69489508D01*
X138875763Y-69566689D01*
X138738171Y-69643992D01*
X138606761Y-69717688D01*
X138488174Y-69784049D01*
X138389053Y-69839344D01*
X138311518Y-69882901D01*
X138229618Y-69929889D01*
X138160397Y-69970681D01*
X138107268Y-70003228D01*
X138073642Y-70025478D01*
X138062930Y-70035381D01*
X138066228Y-70038141D01*
X138090929Y-70053912D01*
X138136345Y-70080978D01*
X138198609Y-70117089D01*
X138273857Y-70159992D01*
X138358224Y-70207436D01*
X138393675Y-70227274D01*
X138489310Y-70280994D01*
X138602454Y-70344767D01*
X138727197Y-70415251D01*
X138857631Y-70489105D01*
X138987846Y-70562988D01*
X139111932Y-70633559D01*
X139198508Y-70682817D01*
X139308803Y-70745432D01*
X139412370Y-70804080D01*
X139505344Y-70856578D01*
X139583858Y-70900745D01*
X139644047Y-70934398D01*
X139682044Y-70955355D01*
X139693746Y-70961729D01*
X139741879Y-70988206D01*
X139810393Y-71026126D01*
X139895044Y-71073131D01*
X139991590Y-71126864D01*
X140095788Y-71184967D01*
X140203397Y-71245083D01*
X140619728Y-71477890D01*
X140619728Y-71698138D01*
X140619728Y-71918386D01*
X139036917Y-71920866D01*
X137454105Y-71923346D01*
X137454105Y-71706032D01*
X137454105Y-71488718D01*
X137615387Y-71488285D01*
X137615634Y-71488285D01*
X137659889Y-71488211D01*
X137730966Y-71488148D01*
X137825708Y-71488096D01*
X137940960Y-71488057D01*
X138073563Y-71488031D01*
X138220361Y-71488018D01*
X138378197Y-71488019D01*
X138543913Y-71488036D01*
X138714353Y-71488067D01*
X138784270Y-71488077D01*
X138965850Y-71488024D01*
X139120212Y-71487807D01*
X139249426Y-71487374D01*
X139355560Y-71486672D01*
X139440683Y-71485649D01*
X139506865Y-71484252D01*
X139556173Y-71482429D01*
X139590678Y-71480128D01*
X139612447Y-71477297D01*
X139623550Y-71473883D01*
X139626055Y-71469833D01*
X139622032Y-71465096D01*
X139615716Y-71460670D01*
X139583412Y-71440710D01*
X139532462Y-71410993D01*
X139468456Y-71374744D01*
X139396988Y-71335193D01*
X139389002Y-71330820D01*
X139332432Y-71299687D01*
X139263485Y-71261494D01*
X139180785Y-71215469D01*
X139082958Y-71160842D01*
X138968630Y-71096842D01*
X138836427Y-71022699D01*
X138684974Y-70937642D01*
X138512898Y-70840901D01*
X138318824Y-70731704D01*
X138101378Y-70609282D01*
X137859185Y-70472864D01*
X137461607Y-70248879D01*
X137457432Y-70052738D01*
X137453257Y-69856597D01*
X137855010Y-69631852D01*
X137966510Y-69569469D01*
X138106849Y-69490937D01*
X138257252Y-69406759D01*
X138409269Y-69321665D01*
X138554451Y-69240385D01*
X138684347Y-69167649D01*
X138703357Y-69157007D01*
X138824296Y-69089412D01*
X138950215Y-69019212D01*
X139074884Y-68949866D01*
X139192077Y-68884835D01*
X139295565Y-68827580D01*
X139379121Y-68781561D01*
X139399361Y-68770418D01*
X139477313Y-68726770D01*
X139543936Y-68688320D01*
X139595457Y-68657325D01*
X139628104Y-68636040D01*
X139638102Y-68626722D01*
X139625394Y-68625566D01*
X139584831Y-68624405D01*
X139518754Y-68623407D01*
X139429548Y-68622583D01*
X139319594Y-68621943D01*
X139191275Y-68621498D01*
X139046974Y-68621259D01*
X138889072Y-68621235D01*
X138719953Y-68621437D01*
X138542000Y-68621876D01*
X137454105Y-68625239D01*
X137454105Y-68406654D01*
X137454105Y-68188069D01*
X139037340Y-68188069D01*
X140620575Y-68188069D01*
X140616401Y-68392458D01*
G37*
G36*
X140611762Y-83164945D02*
G01*
X140614689Y-83192630D01*
X140616531Y-83242465D01*
X140617140Y-83309288D01*
X140616368Y-83387938D01*
X140612227Y-83614859D01*
X140402186Y-83689414D01*
X140343014Y-83710305D01*
X140251743Y-83742301D01*
X140144024Y-83779886D01*
X140026347Y-83820801D01*
X139905197Y-83862786D01*
X139787065Y-83903584D01*
X139761890Y-83912274D01*
X139636443Y-83955882D01*
X139492407Y-84006353D01*
X139337608Y-84060923D01*
X139179871Y-84116826D01*
X139027022Y-84171299D01*
X138886887Y-84221577D01*
X138796994Y-84253927D01*
X138680960Y-84295575D01*
X138573284Y-84334101D01*
X138477937Y-84368092D01*
X138398893Y-84396131D01*
X138340124Y-84416803D01*
X138305602Y-84428693D01*
X138266571Y-84443330D01*
X138237482Y-84458045D01*
X138230587Y-84467570D01*
X138246354Y-84475295D01*
X138285184Y-84490666D01*
X138340700Y-84511085D01*
X138406793Y-84534241D01*
X138423189Y-84539885D01*
X138487906Y-84562429D01*
X138573980Y-84592682D01*
X138676289Y-84628832D01*
X138789712Y-84669068D01*
X138909128Y-84711576D01*
X139029415Y-84754546D01*
X139047015Y-84760840D01*
X139176699Y-84806952D01*
X139311820Y-84854584D01*
X139445648Y-84901392D01*
X139571451Y-84945029D01*
X139682499Y-84983149D01*
X139772062Y-85013407D01*
X139820953Y-85029788D01*
X139916305Y-85062048D01*
X140020000Y-85097449D01*
X140127441Y-85134393D01*
X140234034Y-85171283D01*
X140335185Y-85206522D01*
X140426299Y-85238511D01*
X140502782Y-85265653D01*
X140560038Y-85286352D01*
X140593473Y-85299008D01*
X140594593Y-85299481D01*
X140605613Y-85308033D01*
X140612898Y-85325627D01*
X140617185Y-85357501D01*
X140619216Y-85408894D01*
X140619728Y-85485044D01*
X140619728Y-85660439D01*
X140353426Y-85755594D01*
X140273896Y-85783818D01*
X140154916Y-85825573D01*
X140026859Y-85870099D01*
X139900613Y-85913614D01*
X139787065Y-85952335D01*
X139735099Y-85970062D01*
X139632661Y-86005475D01*
X139511706Y-86047725D01*
X139378193Y-86094712D01*
X139238081Y-86144336D01*
X139097331Y-86194496D01*
X138961902Y-86243092D01*
X138847313Y-86284363D01*
X138726926Y-86327700D01*
X138614667Y-86368088D01*
X138514556Y-86404083D01*
X138430612Y-86434239D01*
X138366857Y-86457111D01*
X138327310Y-86471253D01*
X138313877Y-86476102D01*
X138266107Y-86494584D01*
X138234086Y-86509001D01*
X138224149Y-86516569D01*
X138236852Y-86522172D01*
X138273843Y-86536180D01*
X138330408Y-86556736D01*
X138401899Y-86582153D01*
X138483667Y-86610744D01*
X138516283Y-86622098D01*
X138615316Y-86656864D01*
X138731103Y-86697835D01*
X138855439Y-86742090D01*
X138980116Y-86786715D01*
X139096929Y-86828789D01*
X139207391Y-86868387D01*
X139339743Y-86915258D01*
X139484642Y-86966119D01*
X139634085Y-87018172D01*
X139780069Y-87068618D01*
X139914590Y-87114661D01*
X139961618Y-87130677D01*
X140078651Y-87170679D01*
X140190417Y-87209072D01*
X140292287Y-87244255D01*
X140379629Y-87274624D01*
X140447812Y-87298579D01*
X140492203Y-87314515D01*
X140612227Y-87358696D01*
X140616368Y-87585314D01*
X140617008Y-87627062D01*
X140617469Y-87700194D01*
X140616963Y-87758827D01*
X140615558Y-87797794D01*
X140613324Y-87811932D01*
X140600607Y-87808539D01*
X140571675Y-87797501D01*
X140551872Y-87789913D01*
X140506863Y-87773495D01*
X140443365Y-87750757D01*
X140366694Y-87723601D01*
X140282162Y-87693926D01*
X140232886Y-87676618D01*
X140127552Y-87639175D01*
X140020117Y-87600489D01*
X139920739Y-87564229D01*
X139839575Y-87534064D01*
X139835308Y-87532458D01*
X139775806Y-87510501D01*
X139692838Y-87480435D01*
X139590858Y-87443848D01*
X139474322Y-87402328D01*
X139347685Y-87357462D01*
X139215401Y-87310839D01*
X139081926Y-87264045D01*
X139016979Y-87241326D01*
X138880190Y-87193392D01*
X138735671Y-87142652D01*
X138586428Y-87090169D01*
X138435463Y-87037003D01*
X138285781Y-86984218D01*
X138140383Y-86932874D01*
X138002275Y-86884033D01*
X137874459Y-86838757D01*
X137759939Y-86798108D01*
X137661718Y-86763148D01*
X137582800Y-86734938D01*
X137526188Y-86714540D01*
X137494886Y-86703015D01*
X137453150Y-86687090D01*
X137457378Y-86512797D01*
X137461607Y-86338505D01*
X137716657Y-86248193D01*
X137790817Y-86221903D01*
X137894580Y-86185064D01*
X138013488Y-86142804D01*
X138140613Y-86097587D01*
X138269024Y-86051877D01*
X138391790Y-86008138D01*
X138485038Y-85974983D01*
X138624651Y-85925580D01*
X138770189Y-85874314D01*
X138913111Y-85824184D01*
X139044876Y-85778192D01*
X139156941Y-85739338D01*
X139197359Y-85725357D01*
X139309100Y-85686385D01*
X139421111Y-85646909D01*
X139526226Y-85609476D01*
X139617275Y-85576632D01*
X139687092Y-85550927D01*
X139872175Y-85481573D01*
X139754605Y-85438366D01*
X139745650Y-85435105D01*
X139697923Y-85418097D01*
X139626727Y-85393072D01*
X139535867Y-85361355D01*
X139429151Y-85324268D01*
X139310383Y-85283135D01*
X139183371Y-85239279D01*
X139051920Y-85194024D01*
X138935423Y-85153933D01*
X138774463Y-85098422D01*
X138606777Y-85040477D01*
X138439386Y-84982528D01*
X138279314Y-84927009D01*
X138133582Y-84876350D01*
X138009215Y-84832983D01*
X137948894Y-84811914D01*
X137838820Y-84773517D01*
X137737940Y-84738392D01*
X137650078Y-84707867D01*
X137579062Y-84683270D01*
X137528716Y-84665930D01*
X137502865Y-84657175D01*
X137454105Y-84641274D01*
X137454105Y-84464641D01*
X137455123Y-84397066D01*
X137458025Y-84338300D01*
X137462357Y-84297078D01*
X137467664Y-84279629D01*
X137482931Y-84273294D01*
X137524769Y-84257587D01*
X137590742Y-84233467D01*
X137678661Y-84201715D01*
X137786337Y-84163109D01*
X137911581Y-84118429D01*
X138052205Y-84068453D01*
X138206018Y-84013961D01*
X138370833Y-83955732D01*
X138544459Y-83894546D01*
X138724708Y-83831181D01*
X138909392Y-83766417D01*
X138987297Y-83739064D01*
X139133245Y-83687516D01*
X139283963Y-83633943D01*
X139432829Y-83580717D01*
X139573218Y-83530209D01*
X139698505Y-83484790D01*
X139802067Y-83446832D01*
X139809994Y-83443904D01*
X139938456Y-83396686D01*
X140064535Y-83350756D01*
X140185011Y-83307253D01*
X140296662Y-83267317D01*
X140396271Y-83232087D01*
X140480615Y-83202703D01*
X140546475Y-83180303D01*
X140590630Y-83166028D01*
X140609861Y-83161016D01*
X140611762Y-83164945D01*
G37*
G36*
X144511459Y-75892496D02*
G01*
X144512419Y-75892652D01*
X144540361Y-75894776D01*
X144595309Y-75897062D01*
X144674483Y-75899453D01*
X144775099Y-75901892D01*
X144894376Y-75904322D01*
X145029532Y-75906686D01*
X145177785Y-75908928D01*
X145336352Y-75910989D01*
X145502452Y-75912813D01*
X146431898Y-75922091D01*
X146558468Y-76139634D01*
X146584677Y-76184756D01*
X146629046Y-76261310D01*
X146684472Y-76357063D01*
X146748777Y-76468253D01*
X146819785Y-76591113D01*
X146895319Y-76721879D01*
X146973204Y-76856786D01*
X147051263Y-76992069D01*
X147417487Y-77626962D01*
X147356765Y-77732283D01*
X147347986Y-77747563D01*
X147321507Y-77794406D01*
X147303004Y-77828313D01*
X147296043Y-77842791D01*
X147307365Y-77847654D01*
X147337301Y-77852725D01*
X147341092Y-77853184D01*
X147365836Y-77860128D01*
X147376361Y-77878478D01*
X147378559Y-77917484D01*
X147378427Y-77935837D01*
X147374186Y-77965118D01*
X147357624Y-77977474D01*
X147320321Y-77982270D01*
X147310325Y-77982848D01*
X147270479Y-77980347D01*
X147246325Y-77971287D01*
X147239060Y-77967733D01*
X147219999Y-77979607D01*
X147193217Y-78018165D01*
X147184434Y-78033498D01*
X147168585Y-78070792D01*
X147173444Y-78086659D01*
X147178405Y-78090875D01*
X147187525Y-78118313D01*
X147191022Y-78163002D01*
X147191354Y-78183887D01*
X147195575Y-78215414D01*
X147208298Y-78242931D01*
X147234033Y-78274566D01*
X147277289Y-78318444D01*
X147284290Y-78325314D01*
X147328658Y-78366528D01*
X147362388Y-78390829D01*
X147393763Y-78403042D01*
X147431069Y-78407992D01*
X147498583Y-78412581D01*
X147503249Y-78486145D01*
X147503910Y-78526954D01*
X147494482Y-78562926D01*
X147468517Y-78580246D01*
X147421044Y-78584886D01*
X147379566Y-78583242D01*
X147345555Y-78572204D01*
X147329855Y-78545659D01*
X147326049Y-78497715D01*
X147325997Y-78488996D01*
X147323053Y-78453288D01*
X147312179Y-78424060D01*
X147288664Y-78392373D01*
X147247796Y-78349291D01*
X147204698Y-78307626D01*
X147172637Y-78283592D01*
X147143535Y-78272715D01*
X147109018Y-78270225D01*
X147048494Y-78270397D01*
X146881347Y-78559032D01*
X146714199Y-78847667D01*
X146818820Y-78855169D01*
X146842012Y-78857029D01*
X146899510Y-78865817D01*
X146936250Y-78883122D01*
X146956407Y-78914246D01*
X146964157Y-78964494D01*
X146963676Y-79039168D01*
X146959464Y-79155654D01*
X147108718Y-79305470D01*
X147257972Y-79455287D01*
X147373300Y-79455287D01*
X147438613Y-79455527D01*
X147487698Y-79459407D01*
X147516741Y-79471998D01*
X147530989Y-79498378D01*
X147535689Y-79543626D01*
X147536090Y-79612818D01*
X147536075Y-79623601D01*
X147534870Y-79688063D01*
X147531103Y-79728814D01*
X147523893Y-79751370D01*
X147512358Y-79761242D01*
X147507502Y-79762824D01*
X147470652Y-79768408D01*
X147418605Y-79770668D01*
X147360390Y-79769898D01*
X147305037Y-79766391D01*
X147261575Y-79760443D01*
X147239031Y-79752345D01*
X147229852Y-79729648D01*
X147223352Y-79681426D01*
X147221028Y-79613824D01*
X147221028Y-79493306D01*
X147067516Y-79339270D01*
X146914004Y-79185233D01*
X146798534Y-79185233D01*
X146728176Y-79182888D01*
X146680295Y-79173082D01*
X146652294Y-79151964D01*
X146639153Y-79115683D01*
X146635855Y-79060387D01*
X146635797Y-78982694D01*
X146529495Y-79166480D01*
X146423193Y-79350266D01*
X146316163Y-79350266D01*
X146262695Y-79350266D01*
X146209133Y-79350266D01*
X146313349Y-79455287D01*
X146417565Y-79560307D01*
X146516237Y-79560307D01*
X146562526Y-79562078D01*
X146608323Y-79568490D01*
X146632912Y-79578311D01*
X146641178Y-79596722D01*
X146648274Y-79639808D01*
X146650916Y-79697807D01*
X146650106Y-79737012D01*
X146642512Y-79786235D01*
X146622446Y-79814475D01*
X146584531Y-79827321D01*
X146523391Y-79830360D01*
X146486263Y-79829549D01*
X146438616Y-79821727D01*
X146411267Y-79800962D01*
X146398816Y-79761659D01*
X146395865Y-79698226D01*
X146395865Y-79597152D01*
X146269903Y-79471844D01*
X146143940Y-79346535D01*
X146033606Y-79344650D01*
X146012664Y-79344395D01*
X145947531Y-79344211D01*
X145864634Y-79344533D01*
X145772454Y-79345316D01*
X145749145Y-79345617D01*
X145679474Y-79346515D01*
X145435676Y-79350266D01*
X145435676Y-79385936D01*
X145433639Y-79406540D01*
X145415746Y-79436124D01*
X145376674Y-79450801D01*
X145313120Y-79452362D01*
X145270023Y-79449154D01*
X145243975Y-79442367D01*
X145232761Y-79427325D01*
X145228435Y-79399026D01*
X145223734Y-79350266D01*
X144829886Y-79350266D01*
X144566753Y-79350266D01*
X144441772Y-79350266D01*
X144436038Y-79350266D01*
X144233495Y-79000682D01*
X143938395Y-78491347D01*
X143899873Y-78424849D01*
X143816728Y-78281244D01*
X143738716Y-78146402D01*
X143667077Y-78022473D01*
X143605267Y-77915442D01*
X144734395Y-77915442D01*
X144759557Y-77939460D01*
X144795399Y-77952855D01*
X144835558Y-77946984D01*
X144866976Y-77912748D01*
X144872664Y-77903655D01*
X144895854Y-77880327D01*
X144933133Y-77861634D01*
X144992323Y-77843237D01*
X145009026Y-77838656D01*
X145051282Y-77827703D01*
X145080339Y-77825352D01*
X145100976Y-77835489D01*
X145117974Y-77861999D01*
X145136114Y-77908769D01*
X145160176Y-77979685D01*
X145202693Y-78104909D01*
X145318246Y-78143392D01*
X145433799Y-78181874D01*
X145511116Y-78413854D01*
X145533518Y-78480715D01*
X145557403Y-78549400D01*
X145576498Y-78598364D01*
X145593391Y-78632655D01*
X145610670Y-78657323D01*
X145630924Y-78677419D01*
X145656740Y-78697991D01*
X145686592Y-78719175D01*
X145724557Y-78741427D01*
X145749145Y-78750002D01*
X145765722Y-78747237D01*
X145806900Y-78736935D01*
X145864111Y-78720801D01*
X145930357Y-78700739D01*
X145961029Y-78691267D01*
X146019225Y-78672985D01*
X146057492Y-78657072D01*
X146081582Y-78637582D01*
X146097248Y-78608567D01*
X146110242Y-78564083D01*
X146126317Y-78498181D01*
X146126859Y-78496034D01*
X146147709Y-78444525D01*
X146179081Y-78417008D01*
X146203438Y-78398949D01*
X146215071Y-78362078D01*
X146200299Y-78314076D01*
X146175299Y-78289957D01*
X146137889Y-78289178D01*
X146093718Y-78314261D01*
X146071376Y-78335271D01*
X146067308Y-78354912D01*
X146081626Y-78385525D01*
X146092875Y-78409114D01*
X146097422Y-78434704D01*
X146093616Y-78469280D01*
X146081444Y-78522755D01*
X146057935Y-78617925D01*
X145961172Y-78650289D01*
X145902608Y-78669876D01*
X145854895Y-78685835D01*
X145747282Y-78721828D01*
X145747194Y-78721767D01*
X145686996Y-78680049D01*
X145680982Y-78675831D01*
X145657194Y-78657187D01*
X145636936Y-78635782D01*
X145618025Y-78607336D01*
X145598276Y-78567571D01*
X145575504Y-78512208D01*
X145547524Y-78436966D01*
X145512152Y-78337567D01*
X145448694Y-78157531D01*
X145334247Y-78120024D01*
X145219800Y-78082516D01*
X145176148Y-77950474D01*
X145302480Y-77950474D01*
X145321942Y-77993378D01*
X145336566Y-78009687D01*
X145357066Y-78014557D01*
X145391870Y-78004139D01*
X145405953Y-77999882D01*
X145457277Y-77995549D01*
X145511494Y-78003001D01*
X145557781Y-78019991D01*
X145585313Y-78044275D01*
X145585715Y-78045057D01*
X145595545Y-78070469D01*
X145611439Y-78117783D01*
X145631287Y-78180517D01*
X145652980Y-78252192D01*
X145663718Y-78288953D01*
X145683202Y-78360854D01*
X145693754Y-78410933D01*
X145696201Y-78443755D01*
X145691372Y-78463886D01*
X145679058Y-78493841D01*
X145681338Y-78531850D01*
X145711117Y-78562605D01*
X145747194Y-78577689D01*
X145781745Y-78568426D01*
X145809162Y-78530100D01*
X145817348Y-78500201D01*
X145805864Y-78465736D01*
X145766848Y-78442938D01*
X145765400Y-78442369D01*
X145749915Y-78425242D01*
X145730477Y-78385337D01*
X145706175Y-78320498D01*
X145676094Y-78228565D01*
X145667332Y-78200844D01*
X145643739Y-78128574D01*
X145622888Y-78067970D01*
X145606774Y-78024714D01*
X145597391Y-78004486D01*
X145591261Y-77999361D01*
X145560168Y-77986332D01*
X145516429Y-77976447D01*
X145482534Y-77969618D01*
X145449255Y-77953121D01*
X145427252Y-77923201D01*
X145405901Y-77893275D01*
X145373384Y-77881063D01*
X145329669Y-77895507D01*
X145308814Y-77914408D01*
X145302480Y-77950474D01*
X145176148Y-77950474D01*
X145169592Y-77930643D01*
X145119385Y-77778770D01*
X145086179Y-77788935D01*
X144998773Y-77815692D01*
X144983336Y-77820381D01*
X144926297Y-77836330D01*
X144887558Y-77843258D01*
X144858922Y-77842046D01*
X144832192Y-77833573D01*
X144803167Y-77823441D01*
X144780642Y-77826423D01*
X144758380Y-77848916D01*
X144736440Y-77883214D01*
X144734395Y-77915442D01*
X143605267Y-77915442D01*
X143603051Y-77911605D01*
X143560305Y-77837494D01*
X144509030Y-77837494D01*
X144534513Y-77864446D01*
X144566753Y-77877293D01*
X144602941Y-77873645D01*
X144628020Y-77842966D01*
X144643000Y-77822049D01*
X144679101Y-77798169D01*
X144739367Y-77774514D01*
X144779868Y-77760205D01*
X144816309Y-77742700D01*
X144836779Y-77722892D01*
X144848921Y-77695251D01*
X144848962Y-77695121D01*
X145211952Y-77695121D01*
X145221658Y-77699941D01*
X145244240Y-77695754D01*
X145279779Y-77684317D01*
X145290930Y-77680980D01*
X145313834Y-77679316D01*
X145345493Y-77683818D01*
X145390729Y-77695616D01*
X145454361Y-77715841D01*
X145541210Y-77745623D01*
X145761546Y-77822553D01*
X145779561Y-77903053D01*
X145785007Y-77929884D01*
X145789622Y-77980320D01*
X145781659Y-78013295D01*
X145768097Y-78047324D01*
X145772842Y-78079438D01*
X145803955Y-78102613D01*
X145814473Y-78107239D01*
X145854895Y-78118487D01*
X145881080Y-78108478D01*
X145900774Y-78075001D01*
X145909712Y-78038009D01*
X145897435Y-78001576D01*
X145858155Y-77978219D01*
X145846747Y-77969323D01*
X145826688Y-77935515D01*
X145807661Y-77883869D01*
X145782067Y-77797460D01*
X145555829Y-77719661D01*
X145473506Y-77691728D01*
X145408124Y-77670854D01*
X145361222Y-77658164D01*
X145327796Y-77652532D01*
X145302844Y-77652834D01*
X145281364Y-77657946D01*
X145254776Y-77667970D01*
X145224794Y-77683196D01*
X145211952Y-77695121D01*
X144848962Y-77695121D01*
X144848976Y-77695076D01*
X144858122Y-77665599D01*
X144874334Y-77612910D01*
X144891489Y-77556977D01*
X145017523Y-77556977D01*
X145036479Y-77598671D01*
X145052667Y-77614928D01*
X145086179Y-77622509D01*
X145127348Y-77601860D01*
X145127413Y-77601811D01*
X145145565Y-77584091D01*
X145148318Y-77562878D01*
X145137234Y-77526228D01*
X145131696Y-77509683D01*
X145126732Y-77475967D01*
X145379714Y-77475967D01*
X145406820Y-77513444D01*
X145429372Y-77530972D01*
X145449891Y-77532392D01*
X145481159Y-77516855D01*
X145488477Y-77512756D01*
X145505944Y-77505181D01*
X145525635Y-77502610D01*
X145552793Y-77505961D01*
X145592658Y-77516152D01*
X145650471Y-77534103D01*
X145731472Y-77560731D01*
X145938601Y-77629392D01*
X146005952Y-77818182D01*
X146011591Y-77834089D01*
X146035290Y-77903352D01*
X146053880Y-77961608D01*
X146065602Y-78003143D01*
X146068700Y-78022240D01*
X146041070Y-78107906D01*
X146005850Y-78202581D01*
X145970856Y-78282333D01*
X145938220Y-78342380D01*
X145910074Y-78377941D01*
X145894095Y-78391915D01*
X145874617Y-78413610D01*
X145873732Y-78432649D01*
X145888443Y-78460457D01*
X145889770Y-78462644D01*
X145922883Y-78498009D01*
X145961172Y-78503921D01*
X146005789Y-78480576D01*
X146013898Y-78474148D01*
X146032852Y-78455173D01*
X146033183Y-78436039D01*
X146016734Y-78403813D01*
X146006190Y-78383749D01*
X146000527Y-78364617D01*
X146001166Y-78341284D01*
X146009030Y-78307726D01*
X146025042Y-78257920D01*
X146050125Y-78185844D01*
X146110078Y-78015117D01*
X146039658Y-77806700D01*
X146011809Y-77724277D01*
X145969238Y-77598283D01*
X145752563Y-77533203D01*
X145698368Y-77516434D01*
X146085517Y-77516434D01*
X146101344Y-77528064D01*
X146143234Y-77540287D01*
X146146240Y-77541055D01*
X146167195Y-77551114D01*
X146185509Y-77572303D01*
X146205031Y-77610466D01*
X146229606Y-77671443D01*
X146236788Y-77690397D01*
X146258507Y-77749508D01*
X146275725Y-77798968D01*
X146285227Y-77829631D01*
X146287843Y-77870596D01*
X146275263Y-77931824D01*
X146248890Y-77991659D01*
X146213056Y-78037615D01*
X146208479Y-78041715D01*
X146183462Y-78067435D01*
X146178350Y-78086415D01*
X146189754Y-78109041D01*
X146199612Y-78123122D01*
X146231685Y-78154774D01*
X146262695Y-78158709D01*
X146297224Y-78136081D01*
X146300680Y-78132825D01*
X146322982Y-78108431D01*
X146325332Y-78088348D01*
X146310060Y-78058484D01*
X146302659Y-78045334D01*
X146293337Y-78019179D01*
X146295107Y-77989654D01*
X146307716Y-77944406D01*
X146307782Y-77944194D01*
X146316848Y-77913289D01*
X146321118Y-77887143D01*
X146319578Y-77859138D01*
X146311216Y-77822652D01*
X146295018Y-77771067D01*
X146269971Y-77697763D01*
X146247913Y-77634514D01*
X146227949Y-77581273D01*
X146211907Y-77547024D01*
X146196743Y-77526629D01*
X146179412Y-77514949D01*
X146156871Y-77506845D01*
X146150322Y-77504955D01*
X146113044Y-77498991D01*
X146091129Y-77503579D01*
X146085517Y-77516434D01*
X145698368Y-77516434D01*
X145667320Y-77506827D01*
X145599478Y-77483535D01*
X145551432Y-77463456D01*
X145518346Y-77444551D01*
X145495381Y-77424781D01*
X145483481Y-77412183D01*
X145460748Y-77392720D01*
X145441946Y-77391976D01*
X145415269Y-77407389D01*
X145415185Y-77407444D01*
X145382526Y-77440329D01*
X145379714Y-77475967D01*
X145126732Y-77475967D01*
X145125636Y-77468520D01*
X145136129Y-77428654D01*
X145141938Y-77416434D01*
X145154882Y-77399838D01*
X145176639Y-77384805D01*
X145212204Y-77368829D01*
X145266570Y-77349407D01*
X145344731Y-77324032D01*
X145421001Y-77300387D01*
X145481393Y-77283652D01*
X145523735Y-77275164D01*
X145553309Y-77273890D01*
X145575399Y-77278792D01*
X145603165Y-77294884D01*
X145615712Y-77314127D01*
X145618970Y-77329777D01*
X145634612Y-77359983D01*
X145646783Y-77373192D01*
X145667636Y-77378089D01*
X145703604Y-77368369D01*
X145735530Y-77354696D01*
X145747690Y-77336805D01*
X145744434Y-77304599D01*
X145740682Y-77287802D01*
X145724771Y-77249680D01*
X145699767Y-77236740D01*
X145660511Y-77245339D01*
X145630732Y-77253290D01*
X145574454Y-77247551D01*
X145552360Y-77243085D01*
X145522776Y-77244805D01*
X145480660Y-77253870D01*
X145420844Y-77271394D01*
X145338157Y-77298491D01*
X145330315Y-77301132D01*
X145254158Y-77327192D01*
X145200968Y-77347030D01*
X145165616Y-77363449D01*
X145142974Y-77379247D01*
X145127914Y-77397227D01*
X145118635Y-77414126D01*
X145115306Y-77420189D01*
X145110480Y-77429305D01*
X145081715Y-77470845D01*
X145051543Y-77499802D01*
X145028045Y-77520819D01*
X145017523Y-77556977D01*
X144891489Y-77556977D01*
X144895947Y-77542440D01*
X144921294Y-77459618D01*
X144948711Y-77369876D01*
X144950594Y-77363715D01*
X144977752Y-77276992D01*
X144990058Y-77239477D01*
X145033364Y-77239477D01*
X145044553Y-77255095D01*
X145076683Y-77272914D01*
X145118635Y-77286157D01*
X145151348Y-77274217D01*
X145173224Y-77234537D01*
X145186220Y-77215990D01*
X145222206Y-77198967D01*
X145269670Y-77195016D01*
X145318656Y-77206087D01*
X145345254Y-77215712D01*
X145367387Y-77215057D01*
X145385178Y-77197128D01*
X145404717Y-77153280D01*
X145397834Y-77114148D01*
X145364786Y-77086011D01*
X145343987Y-77077650D01*
X145320372Y-77077927D01*
X145298456Y-77098807D01*
X145280537Y-77123441D01*
X145267102Y-77147955D01*
X145263998Y-77152209D01*
X145238845Y-77161323D01*
X145197970Y-77164768D01*
X145151734Y-77162193D01*
X145110499Y-77153249D01*
X145095346Y-77149587D01*
X145074359Y-77157048D01*
X145054238Y-77187643D01*
X145040275Y-77215259D01*
X145033364Y-77239477D01*
X144990058Y-77239477D01*
X145002994Y-77200043D01*
X145024675Y-77137619D01*
X145041148Y-77094470D01*
X145050767Y-77075348D01*
X145051017Y-77075110D01*
X145073957Y-77062002D01*
X145116412Y-77044155D01*
X145169387Y-77025361D01*
X145270671Y-76992347D01*
X145394432Y-77033267D01*
X145417100Y-77040982D01*
X145470765Y-77061162D01*
X145510297Y-77078794D01*
X145528418Y-77090755D01*
X145555247Y-77131721D01*
X145575737Y-77151250D01*
X145597338Y-77152294D01*
X145628052Y-77138708D01*
X145636103Y-77134374D01*
X145668260Y-77108187D01*
X145672002Y-77078436D01*
X145648484Y-77039502D01*
X145647537Y-77038335D01*
X145626902Y-77017746D01*
X145604914Y-77014068D01*
X145568533Y-77024923D01*
X145558170Y-77028488D01*
X145529852Y-77034748D01*
X145499207Y-77033488D01*
X145457656Y-77023677D01*
X145396617Y-77004285D01*
X145277413Y-76964586D01*
X145150509Y-77007228D01*
X145023604Y-77049870D01*
X144937253Y-77326146D01*
X144909702Y-77414744D01*
X144883497Y-77499881D01*
X144861052Y-77573674D01*
X144844119Y-77630366D01*
X144834448Y-77664197D01*
X144833535Y-77667604D01*
X144822525Y-77700831D01*
X144806603Y-77721709D01*
X144777744Y-77736943D01*
X144727927Y-77753242D01*
X144715032Y-77757080D01*
X144666452Y-77769118D01*
X144664921Y-77769497D01*
X144632487Y-77771158D01*
X144609387Y-77762731D01*
X144585538Y-77750639D01*
X144547740Y-77748369D01*
X144521024Y-77773970D01*
X144510520Y-77797994D01*
X144509030Y-77837494D01*
X143560305Y-77837494D01*
X143547878Y-77815948D01*
X143502798Y-77737651D01*
X143469052Y-77678864D01*
X143447878Y-77641734D01*
X143440517Y-77628413D01*
X143445266Y-77619573D01*
X143463721Y-77586990D01*
X143473570Y-77569789D01*
X144162520Y-77569789D01*
X144164793Y-77589859D01*
X144174799Y-77602843D01*
X144193486Y-77616376D01*
X144197115Y-77618826D01*
X144233495Y-77630954D01*
X144263671Y-77615338D01*
X144272294Y-77599911D01*
X144372531Y-77599911D01*
X144375438Y-77626912D01*
X144384767Y-77643668D01*
X144400473Y-77654932D01*
X144402048Y-77655748D01*
X144441772Y-77661369D01*
X144476885Y-77642974D01*
X144497208Y-77605740D01*
X144503622Y-77575055D01*
X144598398Y-77575055D01*
X144601794Y-77624461D01*
X144612011Y-77651181D01*
X144628591Y-77662811D01*
X144666452Y-77668181D01*
X144699158Y-77649086D01*
X144703003Y-77642409D01*
X144714473Y-77608877D01*
X144727395Y-77557144D01*
X144739636Y-77495306D01*
X144760084Y-77396139D01*
X144816251Y-77217028D01*
X144895180Y-77055311D01*
X144975558Y-76940646D01*
X145605045Y-76940646D01*
X145605672Y-76947301D01*
X145619049Y-76955926D01*
X145649171Y-76968198D01*
X145700032Y-76985791D01*
X145775624Y-77010380D01*
X145883026Y-77044835D01*
X145916379Y-77161968D01*
X145919573Y-77173254D01*
X145934549Y-77230745D01*
X145940809Y-77269741D01*
X145939066Y-77298843D01*
X145930035Y-77326652D01*
X145919016Y-77358448D01*
X145922448Y-77380271D01*
X145944723Y-77402045D01*
X145972562Y-77420420D01*
X146011809Y-77427767D01*
X146041383Y-77406902D01*
X146059851Y-77358366D01*
X146063437Y-77333480D01*
X146056625Y-77309667D01*
X146029415Y-77292643D01*
X146027234Y-77291619D01*
X146006387Y-77276928D01*
X145988725Y-77251524D01*
X145970941Y-77209231D01*
X145949725Y-77143874D01*
X145909976Y-77013304D01*
X145762901Y-76971490D01*
X145718889Y-76959536D01*
X145663509Y-76946325D01*
X145623761Y-76939137D01*
X145606186Y-76939315D01*
X145605045Y-76940646D01*
X144975558Y-76940646D01*
X144998581Y-76907802D01*
X145128164Y-76771315D01*
X145167316Y-76738363D01*
X145268318Y-76678215D01*
X145375225Y-76646519D01*
X145485080Y-76643516D01*
X145594926Y-76669448D01*
X145701809Y-76724554D01*
X145708083Y-76728827D01*
X145758256Y-76767136D01*
X145815804Y-76816681D01*
X145876413Y-76873072D01*
X145935774Y-76931917D01*
X145989573Y-76988827D01*
X146033499Y-77039411D01*
X146063241Y-77079278D01*
X146074487Y-77104038D01*
X146075296Y-77121845D01*
X146080978Y-77156378D01*
X146097175Y-77175246D01*
X146130925Y-77189052D01*
X146159151Y-77204111D01*
X146197340Y-77243642D01*
X146225667Y-77294728D01*
X146239277Y-77347708D01*
X146233318Y-77392917D01*
X146223927Y-77413756D01*
X146218428Y-77435991D01*
X146230200Y-77450654D01*
X146263694Y-77468872D01*
X146270290Y-77472265D01*
X146300239Y-77485004D01*
X146318776Y-77481446D01*
X146338709Y-77460094D01*
X146344379Y-77452747D01*
X146364617Y-77409551D01*
X146356849Y-77374846D01*
X146321367Y-77350476D01*
X146294328Y-77333119D01*
X146261927Y-77294114D01*
X146237299Y-77245774D01*
X146225196Y-77198003D01*
X146230367Y-77160706D01*
X146238706Y-77139826D01*
X146245836Y-77098444D01*
X146234893Y-77063294D01*
X146203134Y-77012109D01*
X146153105Y-76948494D01*
X146087357Y-76875687D01*
X146008441Y-76796928D01*
X145920517Y-76717897D01*
X145789508Y-76619492D01*
X145663681Y-76549947D01*
X145541949Y-76509067D01*
X145423223Y-76496655D01*
X145306415Y-76512515D01*
X145190436Y-76556449D01*
X145074199Y-76628262D01*
X145017441Y-76676454D01*
X144938614Y-76761637D01*
X144860137Y-76864652D01*
X144786138Y-76978990D01*
X144720746Y-77098143D01*
X144668088Y-77215605D01*
X144632294Y-77324867D01*
X144625146Y-77355094D01*
X144610475Y-77433934D01*
X144601426Y-77509400D01*
X144598398Y-77575055D01*
X144503622Y-77575055D01*
X144505428Y-77566415D01*
X144523764Y-77473596D01*
X144538003Y-77393850D01*
X144547224Y-77332556D01*
X144550502Y-77295094D01*
X144550265Y-77287210D01*
X144537632Y-77245556D01*
X144509240Y-77225621D01*
X144469926Y-77231236D01*
X144456788Y-77239324D01*
X144443102Y-77256762D01*
X144430931Y-77287300D01*
X144418203Y-77336451D01*
X144402845Y-77409726D01*
X144402811Y-77409898D01*
X144386172Y-77496158D01*
X144376094Y-77557911D01*
X144372531Y-77599911D01*
X144272294Y-77599911D01*
X144288271Y-77571328D01*
X144307925Y-77498274D01*
X144308620Y-77494761D01*
X144318213Y-77441358D01*
X144320549Y-77408214D01*
X144315227Y-77386817D01*
X144301849Y-77368656D01*
X144283206Y-77351850D01*
X144250038Y-77342390D01*
X144220553Y-77361446D01*
X144195779Y-77408093D01*
X144176743Y-77481403D01*
X144167035Y-77535003D01*
X144162520Y-77569789D01*
X143473570Y-77569789D01*
X143494846Y-77532629D01*
X143537309Y-77458794D01*
X143589781Y-77367794D01*
X143650931Y-77261934D01*
X143719429Y-77143522D01*
X143793945Y-77014863D01*
X143873148Y-76878265D01*
X143926151Y-76786894D01*
X144006626Y-76648127D01*
X144083526Y-76515481D01*
X144155211Y-76391789D01*
X144220039Y-76279884D01*
X144276369Y-76182599D01*
X144322560Y-76102768D01*
X144356971Y-76043222D01*
X144377962Y-76006795D01*
X144449911Y-75881457D01*
X144511459Y-75892496D01*
G37*
M02*
