%TF.GenerationSoftware,KiCad,Pcbnew,7.0.8*%
%TF.CreationDate,2024-04-05T01:26:45-03:00*%
%TF.ProjectId,iW-Little,69572d4c-6974-4746-9c65-2e6b69636164,rev?*%
%TF.SameCoordinates,Original*%
%TF.FileFunction,Drillmap*%
%TF.FilePolarity,Positive*%
%FSLAX45Y45*%
G04 Gerber Fmt 4.5, Leading zero omitted, Abs format (unit mm)*
G04 Created by KiCad (PCBNEW 7.0.8) date 2024-04-05 01:26:45*
%MOMM*%
%LPD*%
G01*
G04 APERTURE LIST*
%ADD10C,0.100000*%
%ADD11C,0.200000*%
%ADD12C,0.025400*%
%ADD13C,0.060000*%
G04 APERTURE END LIST*
D10*
X15250000Y-9950000D02*
X15250000Y-6550000D01*
X15200000Y-6500000D02*
X13150000Y-6500000D01*
X15250000Y-6550000D02*
G75*
G03*
X15200000Y-6500000I-50000J0D01*
G01*
X13100000Y-6550000D02*
X13100000Y-9950000D01*
X13150000Y-6500000D02*
G75*
G03*
X13100000Y-6550000I0J-50000D01*
G01*
X13100000Y-9950000D02*
G75*
G03*
X13150000Y-10000000I50000J0D01*
G01*
X13150000Y-10000000D02*
X15200000Y-10000000D01*
X15200000Y-10000000D02*
G75*
G03*
X15250000Y-9950000I0J50000D01*
G01*
D11*
D12*
X13177300Y-9492300D02*
X13202700Y-9517700D01*
X13202700Y-9492300D02*
X13177300Y-9517700D01*
X13292300Y-9707300D02*
X13317700Y-9732700D01*
X13317700Y-9707300D02*
X13292300Y-9732700D01*
X13302300Y-9517300D02*
X13327700Y-9542700D01*
X13327700Y-9517300D02*
X13302300Y-9542700D01*
X13447300Y-9877300D02*
X13472700Y-9902700D01*
X13472700Y-9877300D02*
X13447300Y-9902700D01*
X13517300Y-9722300D02*
X13542700Y-9747700D01*
X13542700Y-9722300D02*
X13517300Y-9747700D01*
X13522300Y-6847300D02*
X13547700Y-6872700D01*
X13547700Y-6847300D02*
X13522300Y-6872700D01*
X13527300Y-8567300D02*
X13552700Y-8592700D01*
X13552700Y-8567300D02*
X13527300Y-8592700D01*
X13541300Y-7685300D02*
X13566700Y-7710700D01*
X13566700Y-7685300D02*
X13541300Y-7710700D01*
X13547300Y-8112300D02*
X13572700Y-8137700D01*
X13572700Y-8112300D02*
X13547300Y-8137700D01*
X13547300Y-9862300D02*
X13572700Y-9887700D01*
X13572700Y-9862300D02*
X13547300Y-9887700D01*
X13553300Y-8255300D02*
X13578700Y-8280700D01*
X13578700Y-8255300D02*
X13553300Y-8280700D01*
X13577300Y-9502300D02*
X13602700Y-9527700D01*
X13602700Y-9502300D02*
X13577300Y-9527700D01*
X13582300Y-9627300D02*
X13607700Y-9652700D01*
X13607700Y-9627300D02*
X13582300Y-9652700D01*
X13592300Y-9942300D02*
X13617700Y-9967700D01*
X13617700Y-9942300D02*
X13592300Y-9967700D01*
X13637300Y-6757300D02*
X13662700Y-6782700D01*
X13662700Y-6757300D02*
X13637300Y-6782700D01*
X13727300Y-8842300D02*
X13752700Y-8867700D01*
X13752700Y-8842300D02*
X13727300Y-8867700D01*
X13735300Y-9040300D02*
X13760700Y-9065700D01*
X13760700Y-9040300D02*
X13735300Y-9065700D01*
X13752300Y-6897300D02*
X13777700Y-6922700D01*
X13777700Y-6897300D02*
X13752300Y-6922700D01*
X13857300Y-9482300D02*
X13882700Y-9507700D01*
X13882700Y-9482300D02*
X13857300Y-9507700D01*
X13857300Y-9882300D02*
X13882700Y-9907700D01*
X13882700Y-9882300D02*
X13857300Y-9907700D01*
X13872300Y-9577300D02*
X13897700Y-9602700D01*
X13897700Y-9577300D02*
X13872300Y-9602700D01*
X13902300Y-9037300D02*
X13927700Y-9062700D01*
X13927700Y-9037300D02*
X13902300Y-9062700D01*
X13932300Y-9702300D02*
X13957700Y-9727700D01*
X13957700Y-9702300D02*
X13932300Y-9727700D01*
X13947300Y-7217300D02*
X13972700Y-7242700D01*
X13972700Y-7217300D02*
X13947300Y-7242700D01*
X13962300Y-6712300D02*
X13987700Y-6737700D01*
X13987700Y-6712300D02*
X13962300Y-6737700D01*
X13977300Y-7322300D02*
X14002700Y-7347700D01*
X14002700Y-7322300D02*
X13977300Y-7347700D01*
X13997300Y-7517300D02*
X14022700Y-7542700D01*
X14022700Y-7517300D02*
X13997300Y-7542700D01*
X14007300Y-8407300D02*
X14032700Y-8432700D01*
X14032700Y-8407300D02*
X14007300Y-8432700D01*
X14022300Y-7757300D02*
X14047700Y-7782700D01*
X14047700Y-7757300D02*
X14022300Y-7782700D01*
X14037300Y-9842300D02*
X14062700Y-9867700D01*
X14062700Y-9842300D02*
X14037300Y-9867700D01*
X14047800Y-8137300D02*
X14073200Y-8162700D01*
X14073200Y-8137300D02*
X14047800Y-8162700D01*
X14067300Y-9387300D02*
X14092700Y-9412700D01*
X14092700Y-9387300D02*
X14067300Y-9412700D01*
X14112300Y-8817300D02*
X14137700Y-8842700D01*
X14137700Y-8817300D02*
X14112300Y-8842700D01*
X14117575Y-9557300D02*
X14142975Y-9582700D01*
X14142975Y-9557300D02*
X14117575Y-9582700D01*
X14127300Y-8572300D02*
X14152700Y-8597700D01*
X14152700Y-8572300D02*
X14127300Y-8597700D01*
X14177815Y-9557300D02*
X14203215Y-9582700D01*
X14203215Y-9557300D02*
X14177815Y-9582700D01*
X14202300Y-9747300D02*
X14227700Y-9772700D01*
X14227700Y-9747300D02*
X14202300Y-9772700D01*
X14207300Y-8287300D02*
X14232700Y-8312700D01*
X14232700Y-8287300D02*
X14207300Y-8312700D01*
X14217575Y-9367300D02*
X14242975Y-9392700D01*
X14242975Y-9367300D02*
X14217575Y-9392700D01*
X14257300Y-6757300D02*
X14282700Y-6782700D01*
X14282700Y-6757300D02*
X14257300Y-6782700D01*
X14267300Y-8592300D02*
X14292700Y-8617700D01*
X14292700Y-8592300D02*
X14267300Y-8617700D01*
X14277300Y-7812300D02*
X14302700Y-7837700D01*
X14302700Y-7812300D02*
X14277300Y-7837700D01*
X14277815Y-9367300D02*
X14303215Y-9392700D01*
X14303215Y-9367300D02*
X14277815Y-9392700D01*
X14287300Y-9087300D02*
X14312700Y-9112700D01*
X14312700Y-9087300D02*
X14287300Y-9112700D01*
X14292300Y-9862300D02*
X14317700Y-9887700D01*
X14317700Y-9862300D02*
X14292300Y-9887700D01*
X14297300Y-9497300D02*
X14322700Y-9522700D01*
X14322700Y-9497300D02*
X14297300Y-9522700D01*
X14312300Y-7655300D02*
X14337700Y-7680700D01*
X14337700Y-7655300D02*
X14312300Y-7680700D01*
X14337300Y-8682300D02*
X14362700Y-8707700D01*
X14362700Y-8682300D02*
X14337300Y-8707700D01*
X14372300Y-6867300D02*
X14397700Y-6892700D01*
X14397700Y-6867300D02*
X14372300Y-6892700D01*
X14442300Y-9697300D02*
X14467700Y-9722700D01*
X14467700Y-9697300D02*
X14442300Y-9722700D01*
X14482300Y-8302300D02*
X14507700Y-8327700D01*
X14507700Y-8302300D02*
X14482300Y-8327700D01*
X14487300Y-8687300D02*
X14512700Y-8712700D01*
X14512700Y-8687300D02*
X14487300Y-8712700D01*
X14512300Y-9602300D02*
X14537700Y-9627700D01*
X14537700Y-9602300D02*
X14512300Y-9627700D01*
X14522300Y-9812300D02*
X14547700Y-9837700D01*
X14547700Y-9812300D02*
X14522300Y-9837700D01*
X14532300Y-9507300D02*
X14557700Y-9532700D01*
X14557700Y-9507300D02*
X14532300Y-9532700D01*
X14542300Y-6717300D02*
X14567700Y-6742700D01*
X14567700Y-6717300D02*
X14542300Y-6742700D01*
X14542300Y-6977300D02*
X14567700Y-7002700D01*
X14567700Y-6977300D02*
X14542300Y-7002700D01*
X14547300Y-9892300D02*
X14572700Y-9917700D01*
X14572700Y-9892300D02*
X14547300Y-9917700D01*
X14562300Y-8587300D02*
X14587700Y-8612700D01*
X14587700Y-8587300D02*
X14562300Y-8612700D01*
X14562300Y-8687300D02*
X14587700Y-8712700D01*
X14587700Y-8687300D02*
X14562300Y-8712700D01*
X14687300Y-8637300D02*
X14712700Y-8662700D01*
X14712700Y-8637300D02*
X14687300Y-8662700D01*
X14692300Y-8302300D02*
X14717700Y-8327700D01*
X14717700Y-8302300D02*
X14692300Y-8327700D01*
X14737300Y-8687300D02*
X14762700Y-8712700D01*
X14762700Y-8687300D02*
X14737300Y-8712700D01*
X14767300Y-9942300D02*
X14792700Y-9967700D01*
X14792700Y-9942300D02*
X14767300Y-9967700D01*
X14777300Y-9487300D02*
X14802700Y-9512700D01*
X14802700Y-9487300D02*
X14777300Y-9512700D01*
X14782300Y-9847300D02*
X14807700Y-9872700D01*
X14807700Y-9847300D02*
X14782300Y-9872700D01*
X14797300Y-9342300D02*
X14822700Y-9367700D01*
X14822700Y-9342300D02*
X14797300Y-9367700D01*
X14797300Y-9652300D02*
X14822700Y-9677700D01*
X14822700Y-9652300D02*
X14797300Y-9677700D01*
X14807300Y-9247300D02*
X14832700Y-9272700D01*
X14832700Y-9247300D02*
X14807300Y-9272700D01*
X14812300Y-7549300D02*
X14837700Y-7574700D01*
X14837700Y-7549300D02*
X14812300Y-7574700D01*
X14812300Y-8537300D02*
X14837700Y-8562700D01*
X14837700Y-8537300D02*
X14812300Y-8562700D01*
X14812300Y-8612300D02*
X14837700Y-8637700D01*
X14837700Y-8612300D02*
X14812300Y-8637700D01*
X14812300Y-8687300D02*
X14837700Y-8712700D01*
X14837700Y-8687300D02*
X14812300Y-8712700D01*
X14817300Y-7812300D02*
X14842700Y-7837700D01*
X14842700Y-7812300D02*
X14817300Y-7837700D01*
X14817300Y-9757300D02*
X14842700Y-9782700D01*
X14842700Y-9757300D02*
X14817300Y-9782700D01*
X14887300Y-8537300D02*
X14912700Y-8562700D01*
X14912700Y-8537300D02*
X14887300Y-8562700D01*
X14887300Y-8612300D02*
X14912700Y-8637700D01*
X14912700Y-8612300D02*
X14887300Y-8637700D01*
X14887300Y-8687300D02*
X14912700Y-8712700D01*
X14912700Y-8687300D02*
X14887300Y-8712700D01*
X14887300Y-8762300D02*
X14912700Y-8787700D01*
X14912700Y-8762300D02*
X14887300Y-8787700D01*
X15029300Y-9269300D02*
X15054700Y-9294700D01*
X15054700Y-9269300D02*
X15029300Y-9294700D01*
X15037300Y-9887300D02*
X15062700Y-9912700D01*
X15062700Y-9887300D02*
X15037300Y-9912700D01*
D13*
X13808395Y-9302000D02*
G75*
G03*
X13808395Y-9302000I-30000J0D01*
G01*
D11*
X13808395Y-9357000D02*
X13808395Y-9247000D01*
X13808395Y-9247000D02*
G75*
G03*
X13748395Y-9247000I-30000J0D01*
G01*
X13748395Y-9247000D02*
X13748395Y-9357000D01*
X13748395Y-9357000D02*
G75*
G03*
X13808395Y-9357000I30000J0D01*
G01*
D13*
X13808395Y-9719000D02*
G75*
G03*
X13808395Y-9719000I-30000J0D01*
G01*
D11*
X13808395Y-9759000D02*
X13808395Y-9679000D01*
X13808395Y-9679000D02*
G75*
G03*
X13748395Y-9679000I-30000J0D01*
G01*
X13748395Y-9679000D02*
X13748395Y-9759000D01*
X13748395Y-9759000D02*
G75*
G03*
X13808395Y-9759000I30000J0D01*
G01*
D13*
X14672395Y-9302000D02*
G75*
G03*
X14672395Y-9302000I-30000J0D01*
G01*
D11*
X14672395Y-9357000D02*
X14672395Y-9247000D01*
X14672395Y-9247000D02*
G75*
G03*
X14612395Y-9247000I-30000J0D01*
G01*
X14612395Y-9247000D02*
X14612395Y-9357000D01*
X14612395Y-9357000D02*
G75*
G03*
X14672395Y-9357000I30000J0D01*
G01*
D13*
X14672395Y-9719000D02*
G75*
G03*
X14672395Y-9719000I-30000J0D01*
G01*
D11*
X14672395Y-9759000D02*
X14672395Y-9679000D01*
X14672395Y-9679000D02*
G75*
G03*
X14612395Y-9679000I-30000J0D01*
G01*
X14612395Y-9679000D02*
X14612395Y-9759000D01*
X14612395Y-9759000D02*
G75*
G03*
X14672395Y-9759000I30000J0D01*
G01*
D10*
X13221000Y-8821000D02*
X13221000Y-8921000D01*
X13171000Y-8871000D02*
X13271000Y-8871000D01*
X13221000Y-9075000D02*
X13221000Y-9175000D01*
X13171000Y-9125000D02*
X13271000Y-9125000D01*
X13245000Y-6650000D02*
X13245000Y-6750000D01*
X13195000Y-6700000D02*
X13295000Y-6700000D01*
X13245000Y-6904000D02*
X13245000Y-7004000D01*
X13195000Y-6954000D02*
X13295000Y-6954000D01*
X13245000Y-7158000D02*
X13245000Y-7258000D01*
X13195000Y-7208000D02*
X13295000Y-7208000D01*
X13245000Y-7412000D02*
X13245000Y-7512000D01*
X13195000Y-7462000D02*
X13295000Y-7462000D01*
X13245000Y-7666000D02*
X13245000Y-7766000D01*
X13195000Y-7716000D02*
X13295000Y-7716000D01*
X13245000Y-7920000D02*
X13245000Y-8020000D01*
X13195000Y-7970000D02*
X13295000Y-7970000D01*
X13245000Y-8174000D02*
X13245000Y-8274000D01*
X13195000Y-8224000D02*
X13295000Y-8224000D01*
X13245000Y-8428000D02*
X13245000Y-8528000D01*
X13195000Y-8478000D02*
X13295000Y-8478000D01*
X13475000Y-8821000D02*
X13475000Y-8921000D01*
X13425000Y-8871000D02*
X13525000Y-8871000D01*
X13475000Y-9075000D02*
X13475000Y-9175000D01*
X13425000Y-9125000D02*
X13525000Y-9125000D01*
X15100000Y-6650000D02*
X15100000Y-6750000D01*
X15050000Y-6700000D02*
X15150000Y-6700000D01*
X15100000Y-6904000D02*
X15100000Y-7004000D01*
X15050000Y-6954000D02*
X15150000Y-6954000D01*
X15100000Y-7158000D02*
X15100000Y-7258000D01*
X15050000Y-7208000D02*
X15150000Y-7208000D01*
X15100000Y-7412000D02*
X15100000Y-7512000D01*
X15050000Y-7462000D02*
X15150000Y-7462000D01*
X15100000Y-7666000D02*
X15100000Y-7766000D01*
X15050000Y-7716000D02*
X15150000Y-7716000D01*
X15100000Y-7920000D02*
X15100000Y-8020000D01*
X15050000Y-7970000D02*
X15150000Y-7970000D01*
X15100000Y-8174000D02*
X15100000Y-8274000D01*
X15050000Y-8224000D02*
X15150000Y-8224000D01*
X15100000Y-8428000D02*
X15100000Y-8528000D01*
X15050000Y-8478000D02*
X15150000Y-8478000D01*
X15100000Y-8682000D02*
X15100000Y-8782000D01*
X15050000Y-8732000D02*
X15150000Y-8732000D01*
X15100000Y-8936000D02*
X15100000Y-9036000D01*
X15050000Y-8986000D02*
X15150000Y-8986000D01*
D11*
X13355777Y-10316484D02*
X13355777Y-10116484D01*
X13355777Y-10116484D02*
X13403396Y-10116484D01*
X13403396Y-10116484D02*
X13431967Y-10126008D01*
X13431967Y-10126008D02*
X13451015Y-10145055D01*
X13451015Y-10145055D02*
X13460539Y-10164103D01*
X13460539Y-10164103D02*
X13470062Y-10202198D01*
X13470062Y-10202198D02*
X13470062Y-10230770D01*
X13470062Y-10230770D02*
X13460539Y-10268865D01*
X13460539Y-10268865D02*
X13451015Y-10287912D01*
X13451015Y-10287912D02*
X13431967Y-10306960D01*
X13431967Y-10306960D02*
X13403396Y-10316484D01*
X13403396Y-10316484D02*
X13355777Y-10316484D01*
X13555777Y-10316484D02*
X13555777Y-10183150D01*
X13555777Y-10221246D02*
X13565301Y-10202198D01*
X13565301Y-10202198D02*
X13574824Y-10192674D01*
X13574824Y-10192674D02*
X13593872Y-10183150D01*
X13593872Y-10183150D02*
X13612920Y-10183150D01*
X13679586Y-10316484D02*
X13679586Y-10183150D01*
X13679586Y-10116484D02*
X13670062Y-10126008D01*
X13670062Y-10126008D02*
X13679586Y-10135531D01*
X13679586Y-10135531D02*
X13689110Y-10126008D01*
X13689110Y-10126008D02*
X13679586Y-10116484D01*
X13679586Y-10116484D02*
X13679586Y-10135531D01*
X13803396Y-10316484D02*
X13784348Y-10306960D01*
X13784348Y-10306960D02*
X13774824Y-10287912D01*
X13774824Y-10287912D02*
X13774824Y-10116484D01*
X13908158Y-10316484D02*
X13889110Y-10306960D01*
X13889110Y-10306960D02*
X13879586Y-10287912D01*
X13879586Y-10287912D02*
X13879586Y-10116484D01*
X14136729Y-10316484D02*
X14136729Y-10116484D01*
X14136729Y-10116484D02*
X14203396Y-10259341D01*
X14203396Y-10259341D02*
X14270062Y-10116484D01*
X14270062Y-10116484D02*
X14270062Y-10316484D01*
X14451015Y-10316484D02*
X14451015Y-10211722D01*
X14451015Y-10211722D02*
X14441491Y-10192674D01*
X14441491Y-10192674D02*
X14422443Y-10183150D01*
X14422443Y-10183150D02*
X14384348Y-10183150D01*
X14384348Y-10183150D02*
X14365301Y-10192674D01*
X14451015Y-10306960D02*
X14431967Y-10316484D01*
X14431967Y-10316484D02*
X14384348Y-10316484D01*
X14384348Y-10316484D02*
X14365301Y-10306960D01*
X14365301Y-10306960D02*
X14355777Y-10287912D01*
X14355777Y-10287912D02*
X14355777Y-10268865D01*
X14355777Y-10268865D02*
X14365301Y-10249817D01*
X14365301Y-10249817D02*
X14384348Y-10240293D01*
X14384348Y-10240293D02*
X14431967Y-10240293D01*
X14431967Y-10240293D02*
X14451015Y-10230770D01*
X14546253Y-10183150D02*
X14546253Y-10383150D01*
X14546253Y-10192674D02*
X14565301Y-10183150D01*
X14565301Y-10183150D02*
X14603396Y-10183150D01*
X14603396Y-10183150D02*
X14622443Y-10192674D01*
X14622443Y-10192674D02*
X14631967Y-10202198D01*
X14631967Y-10202198D02*
X14641491Y-10221246D01*
X14641491Y-10221246D02*
X14641491Y-10278389D01*
X14641491Y-10278389D02*
X14631967Y-10297436D01*
X14631967Y-10297436D02*
X14622443Y-10306960D01*
X14622443Y-10306960D02*
X14603396Y-10316484D01*
X14603396Y-10316484D02*
X14565301Y-10316484D01*
X14565301Y-10316484D02*
X14546253Y-10306960D01*
X14727205Y-10297436D02*
X14736729Y-10306960D01*
X14736729Y-10306960D02*
X14727205Y-10316484D01*
X14727205Y-10316484D02*
X14717682Y-10306960D01*
X14717682Y-10306960D02*
X14727205Y-10297436D01*
X14727205Y-10297436D02*
X14727205Y-10316484D01*
X14727205Y-10192674D02*
X14736729Y-10202198D01*
X14736729Y-10202198D02*
X14727205Y-10211722D01*
X14727205Y-10211722D02*
X14717682Y-10202198D01*
X14717682Y-10202198D02*
X14727205Y-10192674D01*
X14727205Y-10192674D02*
X14727205Y-10211722D01*
D12*
X13069600Y-10632300D02*
X13095000Y-10657700D01*
X13095000Y-10632300D02*
X13069600Y-10657700D01*
D11*
X13393872Y-10536484D02*
X13412920Y-10536484D01*
X13412920Y-10536484D02*
X13431967Y-10546008D01*
X13431967Y-10546008D02*
X13441491Y-10555531D01*
X13441491Y-10555531D02*
X13451015Y-10574579D01*
X13451015Y-10574579D02*
X13460539Y-10612674D01*
X13460539Y-10612674D02*
X13460539Y-10660293D01*
X13460539Y-10660293D02*
X13451015Y-10698389D01*
X13451015Y-10698389D02*
X13441491Y-10717436D01*
X13441491Y-10717436D02*
X13431967Y-10726960D01*
X13431967Y-10726960D02*
X13412920Y-10736484D01*
X13412920Y-10736484D02*
X13393872Y-10736484D01*
X13393872Y-10736484D02*
X13374824Y-10726960D01*
X13374824Y-10726960D02*
X13365301Y-10717436D01*
X13365301Y-10717436D02*
X13355777Y-10698389D01*
X13355777Y-10698389D02*
X13346253Y-10660293D01*
X13346253Y-10660293D02*
X13346253Y-10612674D01*
X13346253Y-10612674D02*
X13355777Y-10574579D01*
X13355777Y-10574579D02*
X13365301Y-10555531D01*
X13365301Y-10555531D02*
X13374824Y-10546008D01*
X13374824Y-10546008D02*
X13393872Y-10536484D01*
X13546253Y-10717436D02*
X13555777Y-10726960D01*
X13555777Y-10726960D02*
X13546253Y-10736484D01*
X13546253Y-10736484D02*
X13536729Y-10726960D01*
X13536729Y-10726960D02*
X13546253Y-10717436D01*
X13546253Y-10717436D02*
X13546253Y-10736484D01*
X13631967Y-10555531D02*
X13641491Y-10546008D01*
X13641491Y-10546008D02*
X13660539Y-10536484D01*
X13660539Y-10536484D02*
X13708158Y-10536484D01*
X13708158Y-10536484D02*
X13727205Y-10546008D01*
X13727205Y-10546008D02*
X13736729Y-10555531D01*
X13736729Y-10555531D02*
X13746253Y-10574579D01*
X13746253Y-10574579D02*
X13746253Y-10593627D01*
X13746253Y-10593627D02*
X13736729Y-10622198D01*
X13736729Y-10622198D02*
X13622443Y-10736484D01*
X13622443Y-10736484D02*
X13746253Y-10736484D01*
X13927205Y-10536484D02*
X13831967Y-10536484D01*
X13831967Y-10536484D02*
X13822443Y-10631722D01*
X13822443Y-10631722D02*
X13831967Y-10622198D01*
X13831967Y-10622198D02*
X13851015Y-10612674D01*
X13851015Y-10612674D02*
X13898634Y-10612674D01*
X13898634Y-10612674D02*
X13917682Y-10622198D01*
X13917682Y-10622198D02*
X13927205Y-10631722D01*
X13927205Y-10631722D02*
X13936729Y-10650770D01*
X13936729Y-10650770D02*
X13936729Y-10698389D01*
X13936729Y-10698389D02*
X13927205Y-10717436D01*
X13927205Y-10717436D02*
X13917682Y-10726960D01*
X13917682Y-10726960D02*
X13898634Y-10736484D01*
X13898634Y-10736484D02*
X13851015Y-10736484D01*
X13851015Y-10736484D02*
X13831967Y-10726960D01*
X13831967Y-10726960D02*
X13822443Y-10717436D01*
X14108158Y-10603150D02*
X14108158Y-10736484D01*
X14060539Y-10526960D02*
X14012920Y-10669817D01*
X14012920Y-10669817D02*
X14136729Y-10669817D01*
X14212920Y-10736484D02*
X14212920Y-10603150D01*
X14212920Y-10622198D02*
X14222443Y-10612674D01*
X14222443Y-10612674D02*
X14241491Y-10603150D01*
X14241491Y-10603150D02*
X14270063Y-10603150D01*
X14270063Y-10603150D02*
X14289110Y-10612674D01*
X14289110Y-10612674D02*
X14298634Y-10631722D01*
X14298634Y-10631722D02*
X14298634Y-10736484D01*
X14298634Y-10631722D02*
X14308158Y-10612674D01*
X14308158Y-10612674D02*
X14327205Y-10603150D01*
X14327205Y-10603150D02*
X14355777Y-10603150D01*
X14355777Y-10603150D02*
X14374824Y-10612674D01*
X14374824Y-10612674D02*
X14384348Y-10631722D01*
X14384348Y-10631722D02*
X14384348Y-10736484D01*
X14479586Y-10736484D02*
X14479586Y-10603150D01*
X14479586Y-10622198D02*
X14489110Y-10612674D01*
X14489110Y-10612674D02*
X14508158Y-10603150D01*
X14508158Y-10603150D02*
X14536729Y-10603150D01*
X14536729Y-10603150D02*
X14555777Y-10612674D01*
X14555777Y-10612674D02*
X14565301Y-10631722D01*
X14565301Y-10631722D02*
X14565301Y-10736484D01*
X14565301Y-10631722D02*
X14574824Y-10612674D01*
X14574824Y-10612674D02*
X14593872Y-10603150D01*
X14593872Y-10603150D02*
X14622443Y-10603150D01*
X14622443Y-10603150D02*
X14641491Y-10612674D01*
X14641491Y-10612674D02*
X14651015Y-10631722D01*
X14651015Y-10631722D02*
X14651015Y-10736484D01*
X15041491Y-10526960D02*
X14870063Y-10784103D01*
X15298634Y-10536484D02*
X15317682Y-10536484D01*
X15317682Y-10536484D02*
X15336729Y-10546008D01*
X15336729Y-10546008D02*
X15346253Y-10555531D01*
X15346253Y-10555531D02*
X15355777Y-10574579D01*
X15355777Y-10574579D02*
X15365301Y-10612674D01*
X15365301Y-10612674D02*
X15365301Y-10660293D01*
X15365301Y-10660293D02*
X15355777Y-10698389D01*
X15355777Y-10698389D02*
X15346253Y-10717436D01*
X15346253Y-10717436D02*
X15336729Y-10726960D01*
X15336729Y-10726960D02*
X15317682Y-10736484D01*
X15317682Y-10736484D02*
X15298634Y-10736484D01*
X15298634Y-10736484D02*
X15279586Y-10726960D01*
X15279586Y-10726960D02*
X15270063Y-10717436D01*
X15270063Y-10717436D02*
X15260539Y-10698389D01*
X15260539Y-10698389D02*
X15251015Y-10660293D01*
X15251015Y-10660293D02*
X15251015Y-10612674D01*
X15251015Y-10612674D02*
X15260539Y-10574579D01*
X15260539Y-10574579D02*
X15270063Y-10555531D01*
X15270063Y-10555531D02*
X15279586Y-10546008D01*
X15279586Y-10546008D02*
X15298634Y-10536484D01*
X15451015Y-10717436D02*
X15460539Y-10726960D01*
X15460539Y-10726960D02*
X15451015Y-10736484D01*
X15451015Y-10736484D02*
X15441491Y-10726960D01*
X15441491Y-10726960D02*
X15451015Y-10717436D01*
X15451015Y-10717436D02*
X15451015Y-10736484D01*
X15584348Y-10536484D02*
X15603396Y-10536484D01*
X15603396Y-10536484D02*
X15622444Y-10546008D01*
X15622444Y-10546008D02*
X15631967Y-10555531D01*
X15631967Y-10555531D02*
X15641491Y-10574579D01*
X15641491Y-10574579D02*
X15651015Y-10612674D01*
X15651015Y-10612674D02*
X15651015Y-10660293D01*
X15651015Y-10660293D02*
X15641491Y-10698389D01*
X15641491Y-10698389D02*
X15631967Y-10717436D01*
X15631967Y-10717436D02*
X15622444Y-10726960D01*
X15622444Y-10726960D02*
X15603396Y-10736484D01*
X15603396Y-10736484D02*
X15584348Y-10736484D01*
X15584348Y-10736484D02*
X15565301Y-10726960D01*
X15565301Y-10726960D02*
X15555777Y-10717436D01*
X15555777Y-10717436D02*
X15546253Y-10698389D01*
X15546253Y-10698389D02*
X15536729Y-10660293D01*
X15536729Y-10660293D02*
X15536729Y-10612674D01*
X15536729Y-10612674D02*
X15546253Y-10574579D01*
X15546253Y-10574579D02*
X15555777Y-10555531D01*
X15555777Y-10555531D02*
X15565301Y-10546008D01*
X15565301Y-10546008D02*
X15584348Y-10536484D01*
X15841491Y-10736484D02*
X15727206Y-10736484D01*
X15784348Y-10736484D02*
X15784348Y-10536484D01*
X15784348Y-10536484D02*
X15765301Y-10565055D01*
X15765301Y-10565055D02*
X15746253Y-10584103D01*
X15746253Y-10584103D02*
X15727206Y-10593627D01*
X15965301Y-10536484D02*
X15984348Y-10536484D01*
X15984348Y-10536484D02*
X16003396Y-10546008D01*
X16003396Y-10546008D02*
X16012920Y-10555531D01*
X16012920Y-10555531D02*
X16022444Y-10574579D01*
X16022444Y-10574579D02*
X16031967Y-10612674D01*
X16031967Y-10612674D02*
X16031967Y-10660293D01*
X16031967Y-10660293D02*
X16022444Y-10698389D01*
X16022444Y-10698389D02*
X16012920Y-10717436D01*
X16012920Y-10717436D02*
X16003396Y-10726960D01*
X16003396Y-10726960D02*
X15984348Y-10736484D01*
X15984348Y-10736484D02*
X15965301Y-10736484D01*
X15965301Y-10736484D02*
X15946253Y-10726960D01*
X15946253Y-10726960D02*
X15936729Y-10717436D01*
X15936729Y-10717436D02*
X15927206Y-10698389D01*
X15927206Y-10698389D02*
X15917682Y-10660293D01*
X15917682Y-10660293D02*
X15917682Y-10612674D01*
X15917682Y-10612674D02*
X15927206Y-10574579D01*
X15927206Y-10574579D02*
X15936729Y-10555531D01*
X15936729Y-10555531D02*
X15946253Y-10546008D01*
X15946253Y-10546008D02*
X15965301Y-10536484D01*
X16155777Y-10536484D02*
X16174825Y-10536484D01*
X16174825Y-10536484D02*
X16193872Y-10546008D01*
X16193872Y-10546008D02*
X16203396Y-10555531D01*
X16203396Y-10555531D02*
X16212920Y-10574579D01*
X16212920Y-10574579D02*
X16222444Y-10612674D01*
X16222444Y-10612674D02*
X16222444Y-10660293D01*
X16222444Y-10660293D02*
X16212920Y-10698389D01*
X16212920Y-10698389D02*
X16203396Y-10717436D01*
X16203396Y-10717436D02*
X16193872Y-10726960D01*
X16193872Y-10726960D02*
X16174825Y-10736484D01*
X16174825Y-10736484D02*
X16155777Y-10736484D01*
X16155777Y-10736484D02*
X16136729Y-10726960D01*
X16136729Y-10726960D02*
X16127206Y-10717436D01*
X16127206Y-10717436D02*
X16117682Y-10698389D01*
X16117682Y-10698389D02*
X16108158Y-10660293D01*
X16108158Y-10660293D02*
X16108158Y-10612674D01*
X16108158Y-10612674D02*
X16117682Y-10574579D01*
X16117682Y-10574579D02*
X16127206Y-10555531D01*
X16127206Y-10555531D02*
X16136729Y-10546008D01*
X16136729Y-10546008D02*
X16155777Y-10536484D01*
X16298634Y-10536484D02*
X16298634Y-10574579D01*
X16374825Y-10536484D02*
X16374825Y-10574579D01*
X16670063Y-10812674D02*
X16660539Y-10803150D01*
X16660539Y-10803150D02*
X16641491Y-10774579D01*
X16641491Y-10774579D02*
X16631968Y-10755531D01*
X16631968Y-10755531D02*
X16622444Y-10726960D01*
X16622444Y-10726960D02*
X16612920Y-10679341D01*
X16612920Y-10679341D02*
X16612920Y-10641246D01*
X16612920Y-10641246D02*
X16622444Y-10593627D01*
X16622444Y-10593627D02*
X16631968Y-10565055D01*
X16631968Y-10565055D02*
X16641491Y-10546008D01*
X16641491Y-10546008D02*
X16660539Y-10517436D01*
X16660539Y-10517436D02*
X16670063Y-10507912D01*
X16774825Y-10622198D02*
X16755777Y-10612674D01*
X16755777Y-10612674D02*
X16746253Y-10603150D01*
X16746253Y-10603150D02*
X16736729Y-10584103D01*
X16736729Y-10584103D02*
X16736729Y-10574579D01*
X16736729Y-10574579D02*
X16746253Y-10555531D01*
X16746253Y-10555531D02*
X16755777Y-10546008D01*
X16755777Y-10546008D02*
X16774825Y-10536484D01*
X16774825Y-10536484D02*
X16812920Y-10536484D01*
X16812920Y-10536484D02*
X16831968Y-10546008D01*
X16831968Y-10546008D02*
X16841491Y-10555531D01*
X16841491Y-10555531D02*
X16851015Y-10574579D01*
X16851015Y-10574579D02*
X16851015Y-10584103D01*
X16851015Y-10584103D02*
X16841491Y-10603150D01*
X16841491Y-10603150D02*
X16831968Y-10612674D01*
X16831968Y-10612674D02*
X16812920Y-10622198D01*
X16812920Y-10622198D02*
X16774825Y-10622198D01*
X16774825Y-10622198D02*
X16755777Y-10631722D01*
X16755777Y-10631722D02*
X16746253Y-10641246D01*
X16746253Y-10641246D02*
X16736729Y-10660293D01*
X16736729Y-10660293D02*
X16736729Y-10698389D01*
X16736729Y-10698389D02*
X16746253Y-10717436D01*
X16746253Y-10717436D02*
X16755777Y-10726960D01*
X16755777Y-10726960D02*
X16774825Y-10736484D01*
X16774825Y-10736484D02*
X16812920Y-10736484D01*
X16812920Y-10736484D02*
X16831968Y-10726960D01*
X16831968Y-10726960D02*
X16841491Y-10717436D01*
X16841491Y-10717436D02*
X16851015Y-10698389D01*
X16851015Y-10698389D02*
X16851015Y-10660293D01*
X16851015Y-10660293D02*
X16841491Y-10641246D01*
X16841491Y-10641246D02*
X16831968Y-10631722D01*
X16831968Y-10631722D02*
X16812920Y-10622198D01*
X17041491Y-10736484D02*
X16927206Y-10736484D01*
X16984349Y-10736484D02*
X16984349Y-10536484D01*
X16984349Y-10536484D02*
X16965301Y-10565055D01*
X16965301Y-10565055D02*
X16946253Y-10584103D01*
X16946253Y-10584103D02*
X16927206Y-10593627D01*
X17279587Y-10736484D02*
X17279587Y-10536484D01*
X17365301Y-10736484D02*
X17365301Y-10631722D01*
X17365301Y-10631722D02*
X17355777Y-10612674D01*
X17355777Y-10612674D02*
X17336730Y-10603150D01*
X17336730Y-10603150D02*
X17308158Y-10603150D01*
X17308158Y-10603150D02*
X17289111Y-10612674D01*
X17289111Y-10612674D02*
X17279587Y-10622198D01*
X17489111Y-10736484D02*
X17470063Y-10726960D01*
X17470063Y-10726960D02*
X17460539Y-10717436D01*
X17460539Y-10717436D02*
X17451015Y-10698389D01*
X17451015Y-10698389D02*
X17451015Y-10641246D01*
X17451015Y-10641246D02*
X17460539Y-10622198D01*
X17460539Y-10622198D02*
X17470063Y-10612674D01*
X17470063Y-10612674D02*
X17489111Y-10603150D01*
X17489111Y-10603150D02*
X17517682Y-10603150D01*
X17517682Y-10603150D02*
X17536730Y-10612674D01*
X17536730Y-10612674D02*
X17546253Y-10622198D01*
X17546253Y-10622198D02*
X17555777Y-10641246D01*
X17555777Y-10641246D02*
X17555777Y-10698389D01*
X17555777Y-10698389D02*
X17546253Y-10717436D01*
X17546253Y-10717436D02*
X17536730Y-10726960D01*
X17536730Y-10726960D02*
X17517682Y-10736484D01*
X17517682Y-10736484D02*
X17489111Y-10736484D01*
X17670063Y-10736484D02*
X17651015Y-10726960D01*
X17651015Y-10726960D02*
X17641492Y-10707912D01*
X17641492Y-10707912D02*
X17641492Y-10536484D01*
X17822444Y-10726960D02*
X17803396Y-10736484D01*
X17803396Y-10736484D02*
X17765301Y-10736484D01*
X17765301Y-10736484D02*
X17746253Y-10726960D01*
X17746253Y-10726960D02*
X17736730Y-10707912D01*
X17736730Y-10707912D02*
X17736730Y-10631722D01*
X17736730Y-10631722D02*
X17746253Y-10612674D01*
X17746253Y-10612674D02*
X17765301Y-10603150D01*
X17765301Y-10603150D02*
X17803396Y-10603150D01*
X17803396Y-10603150D02*
X17822444Y-10612674D01*
X17822444Y-10612674D02*
X17831968Y-10631722D01*
X17831968Y-10631722D02*
X17831968Y-10650770D01*
X17831968Y-10650770D02*
X17736730Y-10669817D01*
X17908158Y-10726960D02*
X17927206Y-10736484D01*
X17927206Y-10736484D02*
X17965301Y-10736484D01*
X17965301Y-10736484D02*
X17984349Y-10726960D01*
X17984349Y-10726960D02*
X17993873Y-10707912D01*
X17993873Y-10707912D02*
X17993873Y-10698389D01*
X17993873Y-10698389D02*
X17984349Y-10679341D01*
X17984349Y-10679341D02*
X17965301Y-10669817D01*
X17965301Y-10669817D02*
X17936730Y-10669817D01*
X17936730Y-10669817D02*
X17917682Y-10660293D01*
X17917682Y-10660293D02*
X17908158Y-10641246D01*
X17908158Y-10641246D02*
X17908158Y-10631722D01*
X17908158Y-10631722D02*
X17917682Y-10612674D01*
X17917682Y-10612674D02*
X17936730Y-10603150D01*
X17936730Y-10603150D02*
X17965301Y-10603150D01*
X17965301Y-10603150D02*
X17984349Y-10612674D01*
X18060539Y-10812674D02*
X18070063Y-10803150D01*
X18070063Y-10803150D02*
X18089111Y-10774579D01*
X18089111Y-10774579D02*
X18098634Y-10755531D01*
X18098634Y-10755531D02*
X18108158Y-10726960D01*
X18108158Y-10726960D02*
X18117682Y-10679341D01*
X18117682Y-10679341D02*
X18117682Y-10641246D01*
X18117682Y-10641246D02*
X18108158Y-10593627D01*
X18108158Y-10593627D02*
X18098634Y-10565055D01*
X18098634Y-10565055D02*
X18089111Y-10546008D01*
X18089111Y-10546008D02*
X18070063Y-10517436D01*
X18070063Y-10517436D02*
X18060539Y-10507912D01*
D13*
X13095000Y-10909000D02*
G75*
G03*
X13095000Y-10909000I-30000J0D01*
G01*
D11*
X13393872Y-10800484D02*
X13412920Y-10800484D01*
X13412920Y-10800484D02*
X13431967Y-10810008D01*
X13431967Y-10810008D02*
X13441491Y-10819531D01*
X13441491Y-10819531D02*
X13451015Y-10838579D01*
X13451015Y-10838579D02*
X13460539Y-10876674D01*
X13460539Y-10876674D02*
X13460539Y-10924293D01*
X13460539Y-10924293D02*
X13451015Y-10962389D01*
X13451015Y-10962389D02*
X13441491Y-10981436D01*
X13441491Y-10981436D02*
X13431967Y-10990960D01*
X13431967Y-10990960D02*
X13412920Y-11000484D01*
X13412920Y-11000484D02*
X13393872Y-11000484D01*
X13393872Y-11000484D02*
X13374824Y-10990960D01*
X13374824Y-10990960D02*
X13365301Y-10981436D01*
X13365301Y-10981436D02*
X13355777Y-10962389D01*
X13355777Y-10962389D02*
X13346253Y-10924293D01*
X13346253Y-10924293D02*
X13346253Y-10876674D01*
X13346253Y-10876674D02*
X13355777Y-10838579D01*
X13355777Y-10838579D02*
X13365301Y-10819531D01*
X13365301Y-10819531D02*
X13374824Y-10810008D01*
X13374824Y-10810008D02*
X13393872Y-10800484D01*
X13546253Y-10981436D02*
X13555777Y-10990960D01*
X13555777Y-10990960D02*
X13546253Y-11000484D01*
X13546253Y-11000484D02*
X13536729Y-10990960D01*
X13536729Y-10990960D02*
X13546253Y-10981436D01*
X13546253Y-10981436D02*
X13546253Y-11000484D01*
X13727205Y-10800484D02*
X13689110Y-10800484D01*
X13689110Y-10800484D02*
X13670062Y-10810008D01*
X13670062Y-10810008D02*
X13660539Y-10819531D01*
X13660539Y-10819531D02*
X13641491Y-10848103D01*
X13641491Y-10848103D02*
X13631967Y-10886198D01*
X13631967Y-10886198D02*
X13631967Y-10962389D01*
X13631967Y-10962389D02*
X13641491Y-10981436D01*
X13641491Y-10981436D02*
X13651015Y-10990960D01*
X13651015Y-10990960D02*
X13670062Y-11000484D01*
X13670062Y-11000484D02*
X13708158Y-11000484D01*
X13708158Y-11000484D02*
X13727205Y-10990960D01*
X13727205Y-10990960D02*
X13736729Y-10981436D01*
X13736729Y-10981436D02*
X13746253Y-10962389D01*
X13746253Y-10962389D02*
X13746253Y-10914770D01*
X13746253Y-10914770D02*
X13736729Y-10895722D01*
X13736729Y-10895722D02*
X13727205Y-10886198D01*
X13727205Y-10886198D02*
X13708158Y-10876674D01*
X13708158Y-10876674D02*
X13670062Y-10876674D01*
X13670062Y-10876674D02*
X13651015Y-10886198D01*
X13651015Y-10886198D02*
X13641491Y-10895722D01*
X13641491Y-10895722D02*
X13631967Y-10914770D01*
X13870062Y-10800484D02*
X13889110Y-10800484D01*
X13889110Y-10800484D02*
X13908158Y-10810008D01*
X13908158Y-10810008D02*
X13917682Y-10819531D01*
X13917682Y-10819531D02*
X13927205Y-10838579D01*
X13927205Y-10838579D02*
X13936729Y-10876674D01*
X13936729Y-10876674D02*
X13936729Y-10924293D01*
X13936729Y-10924293D02*
X13927205Y-10962389D01*
X13927205Y-10962389D02*
X13917682Y-10981436D01*
X13917682Y-10981436D02*
X13908158Y-10990960D01*
X13908158Y-10990960D02*
X13889110Y-11000484D01*
X13889110Y-11000484D02*
X13870062Y-11000484D01*
X13870062Y-11000484D02*
X13851015Y-10990960D01*
X13851015Y-10990960D02*
X13841491Y-10981436D01*
X13841491Y-10981436D02*
X13831967Y-10962389D01*
X13831967Y-10962389D02*
X13822443Y-10924293D01*
X13822443Y-10924293D02*
X13822443Y-10876674D01*
X13822443Y-10876674D02*
X13831967Y-10838579D01*
X13831967Y-10838579D02*
X13841491Y-10819531D01*
X13841491Y-10819531D02*
X13851015Y-10810008D01*
X13851015Y-10810008D02*
X13870062Y-10800484D01*
X14060539Y-10800484D02*
X14079586Y-10800484D01*
X14079586Y-10800484D02*
X14098634Y-10810008D01*
X14098634Y-10810008D02*
X14108158Y-10819531D01*
X14108158Y-10819531D02*
X14117682Y-10838579D01*
X14117682Y-10838579D02*
X14127205Y-10876674D01*
X14127205Y-10876674D02*
X14127205Y-10924293D01*
X14127205Y-10924293D02*
X14117682Y-10962389D01*
X14117682Y-10962389D02*
X14108158Y-10981436D01*
X14108158Y-10981436D02*
X14098634Y-10990960D01*
X14098634Y-10990960D02*
X14079586Y-11000484D01*
X14079586Y-11000484D02*
X14060539Y-11000484D01*
X14060539Y-11000484D02*
X14041491Y-10990960D01*
X14041491Y-10990960D02*
X14031967Y-10981436D01*
X14031967Y-10981436D02*
X14022443Y-10962389D01*
X14022443Y-10962389D02*
X14012920Y-10924293D01*
X14012920Y-10924293D02*
X14012920Y-10876674D01*
X14012920Y-10876674D02*
X14022443Y-10838579D01*
X14022443Y-10838579D02*
X14031967Y-10819531D01*
X14031967Y-10819531D02*
X14041491Y-10810008D01*
X14041491Y-10810008D02*
X14060539Y-10800484D01*
X14212920Y-11000484D02*
X14212920Y-10867150D01*
X14212920Y-10886198D02*
X14222443Y-10876674D01*
X14222443Y-10876674D02*
X14241491Y-10867150D01*
X14241491Y-10867150D02*
X14270063Y-10867150D01*
X14270063Y-10867150D02*
X14289110Y-10876674D01*
X14289110Y-10876674D02*
X14298634Y-10895722D01*
X14298634Y-10895722D02*
X14298634Y-11000484D01*
X14298634Y-10895722D02*
X14308158Y-10876674D01*
X14308158Y-10876674D02*
X14327205Y-10867150D01*
X14327205Y-10867150D02*
X14355777Y-10867150D01*
X14355777Y-10867150D02*
X14374824Y-10876674D01*
X14374824Y-10876674D02*
X14384348Y-10895722D01*
X14384348Y-10895722D02*
X14384348Y-11000484D01*
X14479586Y-11000484D02*
X14479586Y-10867150D01*
X14479586Y-10886198D02*
X14489110Y-10876674D01*
X14489110Y-10876674D02*
X14508158Y-10867150D01*
X14508158Y-10867150D02*
X14536729Y-10867150D01*
X14536729Y-10867150D02*
X14555777Y-10876674D01*
X14555777Y-10876674D02*
X14565301Y-10895722D01*
X14565301Y-10895722D02*
X14565301Y-11000484D01*
X14565301Y-10895722D02*
X14574824Y-10876674D01*
X14574824Y-10876674D02*
X14593872Y-10867150D01*
X14593872Y-10867150D02*
X14622443Y-10867150D01*
X14622443Y-10867150D02*
X14641491Y-10876674D01*
X14641491Y-10876674D02*
X14651015Y-10895722D01*
X14651015Y-10895722D02*
X14651015Y-11000484D01*
X15041491Y-10790960D02*
X14870063Y-11048103D01*
X15298634Y-10800484D02*
X15317682Y-10800484D01*
X15317682Y-10800484D02*
X15336729Y-10810008D01*
X15336729Y-10810008D02*
X15346253Y-10819531D01*
X15346253Y-10819531D02*
X15355777Y-10838579D01*
X15355777Y-10838579D02*
X15365301Y-10876674D01*
X15365301Y-10876674D02*
X15365301Y-10924293D01*
X15365301Y-10924293D02*
X15355777Y-10962389D01*
X15355777Y-10962389D02*
X15346253Y-10981436D01*
X15346253Y-10981436D02*
X15336729Y-10990960D01*
X15336729Y-10990960D02*
X15317682Y-11000484D01*
X15317682Y-11000484D02*
X15298634Y-11000484D01*
X15298634Y-11000484D02*
X15279586Y-10990960D01*
X15279586Y-10990960D02*
X15270063Y-10981436D01*
X15270063Y-10981436D02*
X15260539Y-10962389D01*
X15260539Y-10962389D02*
X15251015Y-10924293D01*
X15251015Y-10924293D02*
X15251015Y-10876674D01*
X15251015Y-10876674D02*
X15260539Y-10838579D01*
X15260539Y-10838579D02*
X15270063Y-10819531D01*
X15270063Y-10819531D02*
X15279586Y-10810008D01*
X15279586Y-10810008D02*
X15298634Y-10800484D01*
X15451015Y-10981436D02*
X15460539Y-10990960D01*
X15460539Y-10990960D02*
X15451015Y-11000484D01*
X15451015Y-11000484D02*
X15441491Y-10990960D01*
X15441491Y-10990960D02*
X15451015Y-10981436D01*
X15451015Y-10981436D02*
X15451015Y-11000484D01*
X15584348Y-10800484D02*
X15603396Y-10800484D01*
X15603396Y-10800484D02*
X15622444Y-10810008D01*
X15622444Y-10810008D02*
X15631967Y-10819531D01*
X15631967Y-10819531D02*
X15641491Y-10838579D01*
X15641491Y-10838579D02*
X15651015Y-10876674D01*
X15651015Y-10876674D02*
X15651015Y-10924293D01*
X15651015Y-10924293D02*
X15641491Y-10962389D01*
X15641491Y-10962389D02*
X15631967Y-10981436D01*
X15631967Y-10981436D02*
X15622444Y-10990960D01*
X15622444Y-10990960D02*
X15603396Y-11000484D01*
X15603396Y-11000484D02*
X15584348Y-11000484D01*
X15584348Y-11000484D02*
X15565301Y-10990960D01*
X15565301Y-10990960D02*
X15555777Y-10981436D01*
X15555777Y-10981436D02*
X15546253Y-10962389D01*
X15546253Y-10962389D02*
X15536729Y-10924293D01*
X15536729Y-10924293D02*
X15536729Y-10876674D01*
X15536729Y-10876674D02*
X15546253Y-10838579D01*
X15546253Y-10838579D02*
X15555777Y-10819531D01*
X15555777Y-10819531D02*
X15565301Y-10810008D01*
X15565301Y-10810008D02*
X15584348Y-10800484D01*
X15727206Y-10819531D02*
X15736729Y-10810008D01*
X15736729Y-10810008D02*
X15755777Y-10800484D01*
X15755777Y-10800484D02*
X15803396Y-10800484D01*
X15803396Y-10800484D02*
X15822444Y-10810008D01*
X15822444Y-10810008D02*
X15831967Y-10819531D01*
X15831967Y-10819531D02*
X15841491Y-10838579D01*
X15841491Y-10838579D02*
X15841491Y-10857627D01*
X15841491Y-10857627D02*
X15831967Y-10886198D01*
X15831967Y-10886198D02*
X15717682Y-11000484D01*
X15717682Y-11000484D02*
X15841491Y-11000484D01*
X15908158Y-10800484D02*
X16031967Y-10800484D01*
X16031967Y-10800484D02*
X15965301Y-10876674D01*
X15965301Y-10876674D02*
X15993872Y-10876674D01*
X15993872Y-10876674D02*
X16012920Y-10886198D01*
X16012920Y-10886198D02*
X16022444Y-10895722D01*
X16022444Y-10895722D02*
X16031967Y-10914770D01*
X16031967Y-10914770D02*
X16031967Y-10962389D01*
X16031967Y-10962389D02*
X16022444Y-10981436D01*
X16022444Y-10981436D02*
X16012920Y-10990960D01*
X16012920Y-10990960D02*
X15993872Y-11000484D01*
X15993872Y-11000484D02*
X15936729Y-11000484D01*
X15936729Y-11000484D02*
X15917682Y-10990960D01*
X15917682Y-10990960D02*
X15908158Y-10981436D01*
X16203396Y-10800484D02*
X16165301Y-10800484D01*
X16165301Y-10800484D02*
X16146253Y-10810008D01*
X16146253Y-10810008D02*
X16136729Y-10819531D01*
X16136729Y-10819531D02*
X16117682Y-10848103D01*
X16117682Y-10848103D02*
X16108158Y-10886198D01*
X16108158Y-10886198D02*
X16108158Y-10962389D01*
X16108158Y-10962389D02*
X16117682Y-10981436D01*
X16117682Y-10981436D02*
X16127206Y-10990960D01*
X16127206Y-10990960D02*
X16146253Y-11000484D01*
X16146253Y-11000484D02*
X16184348Y-11000484D01*
X16184348Y-11000484D02*
X16203396Y-10990960D01*
X16203396Y-10990960D02*
X16212920Y-10981436D01*
X16212920Y-10981436D02*
X16222444Y-10962389D01*
X16222444Y-10962389D02*
X16222444Y-10914770D01*
X16222444Y-10914770D02*
X16212920Y-10895722D01*
X16212920Y-10895722D02*
X16203396Y-10886198D01*
X16203396Y-10886198D02*
X16184348Y-10876674D01*
X16184348Y-10876674D02*
X16146253Y-10876674D01*
X16146253Y-10876674D02*
X16127206Y-10886198D01*
X16127206Y-10886198D02*
X16117682Y-10895722D01*
X16117682Y-10895722D02*
X16108158Y-10914770D01*
X16298634Y-10800484D02*
X16298634Y-10838579D01*
X16374825Y-10800484D02*
X16374825Y-10838579D01*
X16670063Y-11076674D02*
X16660539Y-11067150D01*
X16660539Y-11067150D02*
X16641491Y-11038579D01*
X16641491Y-11038579D02*
X16631968Y-11019531D01*
X16631968Y-11019531D02*
X16622444Y-10990960D01*
X16622444Y-10990960D02*
X16612920Y-10943341D01*
X16612920Y-10943341D02*
X16612920Y-10905246D01*
X16612920Y-10905246D02*
X16622444Y-10857627D01*
X16622444Y-10857627D02*
X16631968Y-10829055D01*
X16631968Y-10829055D02*
X16641491Y-10810008D01*
X16641491Y-10810008D02*
X16660539Y-10781436D01*
X16660539Y-10781436D02*
X16670063Y-10771912D01*
X16784349Y-10800484D02*
X16803396Y-10800484D01*
X16803396Y-10800484D02*
X16822444Y-10810008D01*
X16822444Y-10810008D02*
X16831968Y-10819531D01*
X16831968Y-10819531D02*
X16841491Y-10838579D01*
X16841491Y-10838579D02*
X16851015Y-10876674D01*
X16851015Y-10876674D02*
X16851015Y-10924293D01*
X16851015Y-10924293D02*
X16841491Y-10962389D01*
X16841491Y-10962389D02*
X16831968Y-10981436D01*
X16831968Y-10981436D02*
X16822444Y-10990960D01*
X16822444Y-10990960D02*
X16803396Y-11000484D01*
X16803396Y-11000484D02*
X16784349Y-11000484D01*
X16784349Y-11000484D02*
X16765301Y-10990960D01*
X16765301Y-10990960D02*
X16755777Y-10981436D01*
X16755777Y-10981436D02*
X16746253Y-10962389D01*
X16746253Y-10962389D02*
X16736729Y-10924293D01*
X16736729Y-10924293D02*
X16736729Y-10876674D01*
X16736729Y-10876674D02*
X16746253Y-10838579D01*
X16746253Y-10838579D02*
X16755777Y-10819531D01*
X16755777Y-10819531D02*
X16765301Y-10810008D01*
X16765301Y-10810008D02*
X16784349Y-10800484D01*
X17089111Y-11000484D02*
X17089111Y-10800484D01*
X17174825Y-11000484D02*
X17174825Y-10895722D01*
X17174825Y-10895722D02*
X17165301Y-10876674D01*
X17165301Y-10876674D02*
X17146253Y-10867150D01*
X17146253Y-10867150D02*
X17117682Y-10867150D01*
X17117682Y-10867150D02*
X17098634Y-10876674D01*
X17098634Y-10876674D02*
X17089111Y-10886198D01*
X17298634Y-11000484D02*
X17279587Y-10990960D01*
X17279587Y-10990960D02*
X17270063Y-10981436D01*
X17270063Y-10981436D02*
X17260539Y-10962389D01*
X17260539Y-10962389D02*
X17260539Y-10905246D01*
X17260539Y-10905246D02*
X17270063Y-10886198D01*
X17270063Y-10886198D02*
X17279587Y-10876674D01*
X17279587Y-10876674D02*
X17298634Y-10867150D01*
X17298634Y-10867150D02*
X17327206Y-10867150D01*
X17327206Y-10867150D02*
X17346253Y-10876674D01*
X17346253Y-10876674D02*
X17355777Y-10886198D01*
X17355777Y-10886198D02*
X17365301Y-10905246D01*
X17365301Y-10905246D02*
X17365301Y-10962389D01*
X17365301Y-10962389D02*
X17355777Y-10981436D01*
X17355777Y-10981436D02*
X17346253Y-10990960D01*
X17346253Y-10990960D02*
X17327206Y-11000484D01*
X17327206Y-11000484D02*
X17298634Y-11000484D01*
X17479587Y-11000484D02*
X17460539Y-10990960D01*
X17460539Y-10990960D02*
X17451015Y-10971912D01*
X17451015Y-10971912D02*
X17451015Y-10800484D01*
X17631968Y-10990960D02*
X17612920Y-11000484D01*
X17612920Y-11000484D02*
X17574825Y-11000484D01*
X17574825Y-11000484D02*
X17555777Y-10990960D01*
X17555777Y-10990960D02*
X17546253Y-10971912D01*
X17546253Y-10971912D02*
X17546253Y-10895722D01*
X17546253Y-10895722D02*
X17555777Y-10876674D01*
X17555777Y-10876674D02*
X17574825Y-10867150D01*
X17574825Y-10867150D02*
X17612920Y-10867150D01*
X17612920Y-10867150D02*
X17631968Y-10876674D01*
X17631968Y-10876674D02*
X17641492Y-10895722D01*
X17641492Y-10895722D02*
X17641492Y-10914770D01*
X17641492Y-10914770D02*
X17546253Y-10933817D01*
X17717682Y-10990960D02*
X17736730Y-11000484D01*
X17736730Y-11000484D02*
X17774825Y-11000484D01*
X17774825Y-11000484D02*
X17793873Y-10990960D01*
X17793873Y-10990960D02*
X17803396Y-10971912D01*
X17803396Y-10971912D02*
X17803396Y-10962389D01*
X17803396Y-10962389D02*
X17793873Y-10943341D01*
X17793873Y-10943341D02*
X17774825Y-10933817D01*
X17774825Y-10933817D02*
X17746253Y-10933817D01*
X17746253Y-10933817D02*
X17727206Y-10924293D01*
X17727206Y-10924293D02*
X17717682Y-10905246D01*
X17717682Y-10905246D02*
X17717682Y-10895722D01*
X17717682Y-10895722D02*
X17727206Y-10876674D01*
X17727206Y-10876674D02*
X17746253Y-10867150D01*
X17746253Y-10867150D02*
X17774825Y-10867150D01*
X17774825Y-10867150D02*
X17793873Y-10876674D01*
X18041492Y-10924293D02*
X18193873Y-10924293D01*
X18117682Y-11000484D02*
X18117682Y-10848103D01*
X18527206Y-10867150D02*
X18527206Y-11000484D01*
X18479587Y-10790960D02*
X18431968Y-10933817D01*
X18431968Y-10933817D02*
X18555777Y-10933817D01*
X18774825Y-10990960D02*
X18793873Y-11000484D01*
X18793873Y-11000484D02*
X18831968Y-11000484D01*
X18831968Y-11000484D02*
X18851016Y-10990960D01*
X18851016Y-10990960D02*
X18860539Y-10971912D01*
X18860539Y-10971912D02*
X18860539Y-10962389D01*
X18860539Y-10962389D02*
X18851016Y-10943341D01*
X18851016Y-10943341D02*
X18831968Y-10933817D01*
X18831968Y-10933817D02*
X18803396Y-10933817D01*
X18803396Y-10933817D02*
X18784349Y-10924293D01*
X18784349Y-10924293D02*
X18774825Y-10905246D01*
X18774825Y-10905246D02*
X18774825Y-10895722D01*
X18774825Y-10895722D02*
X18784349Y-10876674D01*
X18784349Y-10876674D02*
X18803396Y-10867150D01*
X18803396Y-10867150D02*
X18831968Y-10867150D01*
X18831968Y-10867150D02*
X18851016Y-10876674D01*
X18974825Y-11000484D02*
X18955777Y-10990960D01*
X18955777Y-10990960D02*
X18946254Y-10971912D01*
X18946254Y-10971912D02*
X18946254Y-10800484D01*
X19079587Y-11000484D02*
X19060539Y-10990960D01*
X19060539Y-10990960D02*
X19051016Y-10981436D01*
X19051016Y-10981436D02*
X19041492Y-10962389D01*
X19041492Y-10962389D02*
X19041492Y-10905246D01*
X19041492Y-10905246D02*
X19051016Y-10886198D01*
X19051016Y-10886198D02*
X19060539Y-10876674D01*
X19060539Y-10876674D02*
X19079587Y-10867150D01*
X19079587Y-10867150D02*
X19108158Y-10867150D01*
X19108158Y-10867150D02*
X19127206Y-10876674D01*
X19127206Y-10876674D02*
X19136730Y-10886198D01*
X19136730Y-10886198D02*
X19146254Y-10905246D01*
X19146254Y-10905246D02*
X19146254Y-10962389D01*
X19146254Y-10962389D02*
X19136730Y-10981436D01*
X19136730Y-10981436D02*
X19127206Y-10990960D01*
X19127206Y-10990960D02*
X19108158Y-11000484D01*
X19108158Y-11000484D02*
X19079587Y-11000484D01*
X19203397Y-10867150D02*
X19279587Y-10867150D01*
X19231968Y-10800484D02*
X19231968Y-10971912D01*
X19231968Y-10971912D02*
X19241492Y-10990960D01*
X19241492Y-10990960D02*
X19260539Y-11000484D01*
X19260539Y-11000484D02*
X19279587Y-11000484D01*
X19336730Y-10990960D02*
X19355777Y-11000484D01*
X19355777Y-11000484D02*
X19393873Y-11000484D01*
X19393873Y-11000484D02*
X19412920Y-10990960D01*
X19412920Y-10990960D02*
X19422444Y-10971912D01*
X19422444Y-10971912D02*
X19422444Y-10962389D01*
X19422444Y-10962389D02*
X19412920Y-10943341D01*
X19412920Y-10943341D02*
X19393873Y-10933817D01*
X19393873Y-10933817D02*
X19365301Y-10933817D01*
X19365301Y-10933817D02*
X19346254Y-10924293D01*
X19346254Y-10924293D02*
X19336730Y-10905246D01*
X19336730Y-10905246D02*
X19336730Y-10895722D01*
X19336730Y-10895722D02*
X19346254Y-10876674D01*
X19346254Y-10876674D02*
X19365301Y-10867150D01*
X19365301Y-10867150D02*
X19393873Y-10867150D01*
X19393873Y-10867150D02*
X19412920Y-10876674D01*
X19489111Y-11076674D02*
X19498635Y-11067150D01*
X19498635Y-11067150D02*
X19517682Y-11038579D01*
X19517682Y-11038579D02*
X19527206Y-11019531D01*
X19527206Y-11019531D02*
X19536730Y-10990960D01*
X19536730Y-10990960D02*
X19546254Y-10943341D01*
X19546254Y-10943341D02*
X19546254Y-10905246D01*
X19546254Y-10905246D02*
X19536730Y-10857627D01*
X19536730Y-10857627D02*
X19527206Y-10829055D01*
X19527206Y-10829055D02*
X19517682Y-10810008D01*
X19517682Y-10810008D02*
X19498635Y-10781436D01*
X19498635Y-10781436D02*
X19489111Y-10771912D01*
D10*
X13045000Y-11123000D02*
X13045000Y-11223000D01*
X12995000Y-11173000D02*
X13095000Y-11173000D01*
D11*
X13460539Y-11264484D02*
X13346253Y-11264484D01*
X13403396Y-11264484D02*
X13403396Y-11064484D01*
X13403396Y-11064484D02*
X13384348Y-11093055D01*
X13384348Y-11093055D02*
X13365301Y-11112103D01*
X13365301Y-11112103D02*
X13346253Y-11121627D01*
X13546253Y-11245436D02*
X13555777Y-11254960D01*
X13555777Y-11254960D02*
X13546253Y-11264484D01*
X13546253Y-11264484D02*
X13536729Y-11254960D01*
X13536729Y-11254960D02*
X13546253Y-11245436D01*
X13546253Y-11245436D02*
X13546253Y-11264484D01*
X13679586Y-11064484D02*
X13698634Y-11064484D01*
X13698634Y-11064484D02*
X13717682Y-11074008D01*
X13717682Y-11074008D02*
X13727205Y-11083531D01*
X13727205Y-11083531D02*
X13736729Y-11102579D01*
X13736729Y-11102579D02*
X13746253Y-11140674D01*
X13746253Y-11140674D02*
X13746253Y-11188293D01*
X13746253Y-11188293D02*
X13736729Y-11226388D01*
X13736729Y-11226388D02*
X13727205Y-11245436D01*
X13727205Y-11245436D02*
X13717682Y-11254960D01*
X13717682Y-11254960D02*
X13698634Y-11264484D01*
X13698634Y-11264484D02*
X13679586Y-11264484D01*
X13679586Y-11264484D02*
X13660539Y-11254960D01*
X13660539Y-11254960D02*
X13651015Y-11245436D01*
X13651015Y-11245436D02*
X13641491Y-11226388D01*
X13641491Y-11226388D02*
X13631967Y-11188293D01*
X13631967Y-11188293D02*
X13631967Y-11140674D01*
X13631967Y-11140674D02*
X13641491Y-11102579D01*
X13641491Y-11102579D02*
X13651015Y-11083531D01*
X13651015Y-11083531D02*
X13660539Y-11074008D01*
X13660539Y-11074008D02*
X13679586Y-11064484D01*
X13870062Y-11064484D02*
X13889110Y-11064484D01*
X13889110Y-11064484D02*
X13908158Y-11074008D01*
X13908158Y-11074008D02*
X13917682Y-11083531D01*
X13917682Y-11083531D02*
X13927205Y-11102579D01*
X13927205Y-11102579D02*
X13936729Y-11140674D01*
X13936729Y-11140674D02*
X13936729Y-11188293D01*
X13936729Y-11188293D02*
X13927205Y-11226388D01*
X13927205Y-11226388D02*
X13917682Y-11245436D01*
X13917682Y-11245436D02*
X13908158Y-11254960D01*
X13908158Y-11254960D02*
X13889110Y-11264484D01*
X13889110Y-11264484D02*
X13870062Y-11264484D01*
X13870062Y-11264484D02*
X13851015Y-11254960D01*
X13851015Y-11254960D02*
X13841491Y-11245436D01*
X13841491Y-11245436D02*
X13831967Y-11226388D01*
X13831967Y-11226388D02*
X13822443Y-11188293D01*
X13822443Y-11188293D02*
X13822443Y-11140674D01*
X13822443Y-11140674D02*
X13831967Y-11102579D01*
X13831967Y-11102579D02*
X13841491Y-11083531D01*
X13841491Y-11083531D02*
X13851015Y-11074008D01*
X13851015Y-11074008D02*
X13870062Y-11064484D01*
X14060539Y-11064484D02*
X14079586Y-11064484D01*
X14079586Y-11064484D02*
X14098634Y-11074008D01*
X14098634Y-11074008D02*
X14108158Y-11083531D01*
X14108158Y-11083531D02*
X14117682Y-11102579D01*
X14117682Y-11102579D02*
X14127205Y-11140674D01*
X14127205Y-11140674D02*
X14127205Y-11188293D01*
X14127205Y-11188293D02*
X14117682Y-11226388D01*
X14117682Y-11226388D02*
X14108158Y-11245436D01*
X14108158Y-11245436D02*
X14098634Y-11254960D01*
X14098634Y-11254960D02*
X14079586Y-11264484D01*
X14079586Y-11264484D02*
X14060539Y-11264484D01*
X14060539Y-11264484D02*
X14041491Y-11254960D01*
X14041491Y-11254960D02*
X14031967Y-11245436D01*
X14031967Y-11245436D02*
X14022443Y-11226388D01*
X14022443Y-11226388D02*
X14012920Y-11188293D01*
X14012920Y-11188293D02*
X14012920Y-11140674D01*
X14012920Y-11140674D02*
X14022443Y-11102579D01*
X14022443Y-11102579D02*
X14031967Y-11083531D01*
X14031967Y-11083531D02*
X14041491Y-11074008D01*
X14041491Y-11074008D02*
X14060539Y-11064484D01*
X14212920Y-11264484D02*
X14212920Y-11131150D01*
X14212920Y-11150198D02*
X14222443Y-11140674D01*
X14222443Y-11140674D02*
X14241491Y-11131150D01*
X14241491Y-11131150D02*
X14270063Y-11131150D01*
X14270063Y-11131150D02*
X14289110Y-11140674D01*
X14289110Y-11140674D02*
X14298634Y-11159722D01*
X14298634Y-11159722D02*
X14298634Y-11264484D01*
X14298634Y-11159722D02*
X14308158Y-11140674D01*
X14308158Y-11140674D02*
X14327205Y-11131150D01*
X14327205Y-11131150D02*
X14355777Y-11131150D01*
X14355777Y-11131150D02*
X14374824Y-11140674D01*
X14374824Y-11140674D02*
X14384348Y-11159722D01*
X14384348Y-11159722D02*
X14384348Y-11264484D01*
X14479586Y-11264484D02*
X14479586Y-11131150D01*
X14479586Y-11150198D02*
X14489110Y-11140674D01*
X14489110Y-11140674D02*
X14508158Y-11131150D01*
X14508158Y-11131150D02*
X14536729Y-11131150D01*
X14536729Y-11131150D02*
X14555777Y-11140674D01*
X14555777Y-11140674D02*
X14565301Y-11159722D01*
X14565301Y-11159722D02*
X14565301Y-11264484D01*
X14565301Y-11159722D02*
X14574824Y-11140674D01*
X14574824Y-11140674D02*
X14593872Y-11131150D01*
X14593872Y-11131150D02*
X14622443Y-11131150D01*
X14622443Y-11131150D02*
X14641491Y-11140674D01*
X14641491Y-11140674D02*
X14651015Y-11159722D01*
X14651015Y-11159722D02*
X14651015Y-11264484D01*
X15041491Y-11054960D02*
X14870063Y-11312103D01*
X15298634Y-11064484D02*
X15317682Y-11064484D01*
X15317682Y-11064484D02*
X15336729Y-11074008D01*
X15336729Y-11074008D02*
X15346253Y-11083531D01*
X15346253Y-11083531D02*
X15355777Y-11102579D01*
X15355777Y-11102579D02*
X15365301Y-11140674D01*
X15365301Y-11140674D02*
X15365301Y-11188293D01*
X15365301Y-11188293D02*
X15355777Y-11226388D01*
X15355777Y-11226388D02*
X15346253Y-11245436D01*
X15346253Y-11245436D02*
X15336729Y-11254960D01*
X15336729Y-11254960D02*
X15317682Y-11264484D01*
X15317682Y-11264484D02*
X15298634Y-11264484D01*
X15298634Y-11264484D02*
X15279586Y-11254960D01*
X15279586Y-11254960D02*
X15270063Y-11245436D01*
X15270063Y-11245436D02*
X15260539Y-11226388D01*
X15260539Y-11226388D02*
X15251015Y-11188293D01*
X15251015Y-11188293D02*
X15251015Y-11140674D01*
X15251015Y-11140674D02*
X15260539Y-11102579D01*
X15260539Y-11102579D02*
X15270063Y-11083531D01*
X15270063Y-11083531D02*
X15279586Y-11074008D01*
X15279586Y-11074008D02*
X15298634Y-11064484D01*
X15451015Y-11245436D02*
X15460539Y-11254960D01*
X15460539Y-11254960D02*
X15451015Y-11264484D01*
X15451015Y-11264484D02*
X15441491Y-11254960D01*
X15441491Y-11254960D02*
X15451015Y-11245436D01*
X15451015Y-11245436D02*
X15451015Y-11264484D01*
X15584348Y-11064484D02*
X15603396Y-11064484D01*
X15603396Y-11064484D02*
X15622444Y-11074008D01*
X15622444Y-11074008D02*
X15631967Y-11083531D01*
X15631967Y-11083531D02*
X15641491Y-11102579D01*
X15641491Y-11102579D02*
X15651015Y-11140674D01*
X15651015Y-11140674D02*
X15651015Y-11188293D01*
X15651015Y-11188293D02*
X15641491Y-11226388D01*
X15641491Y-11226388D02*
X15631967Y-11245436D01*
X15631967Y-11245436D02*
X15622444Y-11254960D01*
X15622444Y-11254960D02*
X15603396Y-11264484D01*
X15603396Y-11264484D02*
X15584348Y-11264484D01*
X15584348Y-11264484D02*
X15565301Y-11254960D01*
X15565301Y-11254960D02*
X15555777Y-11245436D01*
X15555777Y-11245436D02*
X15546253Y-11226388D01*
X15546253Y-11226388D02*
X15536729Y-11188293D01*
X15536729Y-11188293D02*
X15536729Y-11140674D01*
X15536729Y-11140674D02*
X15546253Y-11102579D01*
X15546253Y-11102579D02*
X15555777Y-11083531D01*
X15555777Y-11083531D02*
X15565301Y-11074008D01*
X15565301Y-11074008D02*
X15584348Y-11064484D01*
X15717682Y-11064484D02*
X15841491Y-11064484D01*
X15841491Y-11064484D02*
X15774825Y-11140674D01*
X15774825Y-11140674D02*
X15803396Y-11140674D01*
X15803396Y-11140674D02*
X15822444Y-11150198D01*
X15822444Y-11150198D02*
X15831967Y-11159722D01*
X15831967Y-11159722D02*
X15841491Y-11178770D01*
X15841491Y-11178770D02*
X15841491Y-11226388D01*
X15841491Y-11226388D02*
X15831967Y-11245436D01*
X15831967Y-11245436D02*
X15822444Y-11254960D01*
X15822444Y-11254960D02*
X15803396Y-11264484D01*
X15803396Y-11264484D02*
X15746253Y-11264484D01*
X15746253Y-11264484D02*
X15727206Y-11254960D01*
X15727206Y-11254960D02*
X15717682Y-11245436D01*
X15936729Y-11264484D02*
X15974825Y-11264484D01*
X15974825Y-11264484D02*
X15993872Y-11254960D01*
X15993872Y-11254960D02*
X16003396Y-11245436D01*
X16003396Y-11245436D02*
X16022444Y-11216865D01*
X16022444Y-11216865D02*
X16031967Y-11178770D01*
X16031967Y-11178770D02*
X16031967Y-11102579D01*
X16031967Y-11102579D02*
X16022444Y-11083531D01*
X16022444Y-11083531D02*
X16012920Y-11074008D01*
X16012920Y-11074008D02*
X15993872Y-11064484D01*
X15993872Y-11064484D02*
X15955777Y-11064484D01*
X15955777Y-11064484D02*
X15936729Y-11074008D01*
X15936729Y-11074008D02*
X15927206Y-11083531D01*
X15927206Y-11083531D02*
X15917682Y-11102579D01*
X15917682Y-11102579D02*
X15917682Y-11150198D01*
X15917682Y-11150198D02*
X15927206Y-11169246D01*
X15927206Y-11169246D02*
X15936729Y-11178770D01*
X15936729Y-11178770D02*
X15955777Y-11188293D01*
X15955777Y-11188293D02*
X15993872Y-11188293D01*
X15993872Y-11188293D02*
X16012920Y-11178770D01*
X16012920Y-11178770D02*
X16022444Y-11169246D01*
X16022444Y-11169246D02*
X16031967Y-11150198D01*
X16203396Y-11131150D02*
X16203396Y-11264484D01*
X16155777Y-11054960D02*
X16108158Y-11197817D01*
X16108158Y-11197817D02*
X16231967Y-11197817D01*
X16298634Y-11064484D02*
X16298634Y-11102579D01*
X16374825Y-11064484D02*
X16374825Y-11102579D01*
X16670063Y-11340674D02*
X16660539Y-11331150D01*
X16660539Y-11331150D02*
X16641491Y-11302579D01*
X16641491Y-11302579D02*
X16631968Y-11283531D01*
X16631968Y-11283531D02*
X16622444Y-11254960D01*
X16622444Y-11254960D02*
X16612920Y-11207341D01*
X16612920Y-11207341D02*
X16612920Y-11169246D01*
X16612920Y-11169246D02*
X16622444Y-11121627D01*
X16622444Y-11121627D02*
X16631968Y-11093055D01*
X16631968Y-11093055D02*
X16641491Y-11074008D01*
X16641491Y-11074008D02*
X16660539Y-11045436D01*
X16660539Y-11045436D02*
X16670063Y-11035912D01*
X16736729Y-11083531D02*
X16746253Y-11074008D01*
X16746253Y-11074008D02*
X16765301Y-11064484D01*
X16765301Y-11064484D02*
X16812920Y-11064484D01*
X16812920Y-11064484D02*
X16831968Y-11074008D01*
X16831968Y-11074008D02*
X16841491Y-11083531D01*
X16841491Y-11083531D02*
X16851015Y-11102579D01*
X16851015Y-11102579D02*
X16851015Y-11121627D01*
X16851015Y-11121627D02*
X16841491Y-11150198D01*
X16841491Y-11150198D02*
X16727206Y-11264484D01*
X16727206Y-11264484D02*
X16851015Y-11264484D01*
X16927206Y-11083531D02*
X16936730Y-11074008D01*
X16936730Y-11074008D02*
X16955777Y-11064484D01*
X16955777Y-11064484D02*
X17003396Y-11064484D01*
X17003396Y-11064484D02*
X17022444Y-11074008D01*
X17022444Y-11074008D02*
X17031968Y-11083531D01*
X17031968Y-11083531D02*
X17041491Y-11102579D01*
X17041491Y-11102579D02*
X17041491Y-11121627D01*
X17041491Y-11121627D02*
X17031968Y-11150198D01*
X17031968Y-11150198D02*
X16917682Y-11264484D01*
X16917682Y-11264484D02*
X17041491Y-11264484D01*
X17279587Y-11264484D02*
X17279587Y-11064484D01*
X17365301Y-11264484D02*
X17365301Y-11159722D01*
X17365301Y-11159722D02*
X17355777Y-11140674D01*
X17355777Y-11140674D02*
X17336730Y-11131150D01*
X17336730Y-11131150D02*
X17308158Y-11131150D01*
X17308158Y-11131150D02*
X17289111Y-11140674D01*
X17289111Y-11140674D02*
X17279587Y-11150198D01*
X17489111Y-11264484D02*
X17470063Y-11254960D01*
X17470063Y-11254960D02*
X17460539Y-11245436D01*
X17460539Y-11245436D02*
X17451015Y-11226388D01*
X17451015Y-11226388D02*
X17451015Y-11169246D01*
X17451015Y-11169246D02*
X17460539Y-11150198D01*
X17460539Y-11150198D02*
X17470063Y-11140674D01*
X17470063Y-11140674D02*
X17489111Y-11131150D01*
X17489111Y-11131150D02*
X17517682Y-11131150D01*
X17517682Y-11131150D02*
X17536730Y-11140674D01*
X17536730Y-11140674D02*
X17546253Y-11150198D01*
X17546253Y-11150198D02*
X17555777Y-11169246D01*
X17555777Y-11169246D02*
X17555777Y-11226388D01*
X17555777Y-11226388D02*
X17546253Y-11245436D01*
X17546253Y-11245436D02*
X17536730Y-11254960D01*
X17536730Y-11254960D02*
X17517682Y-11264484D01*
X17517682Y-11264484D02*
X17489111Y-11264484D01*
X17670063Y-11264484D02*
X17651015Y-11254960D01*
X17651015Y-11254960D02*
X17641492Y-11235912D01*
X17641492Y-11235912D02*
X17641492Y-11064484D01*
X17822444Y-11254960D02*
X17803396Y-11264484D01*
X17803396Y-11264484D02*
X17765301Y-11264484D01*
X17765301Y-11264484D02*
X17746253Y-11254960D01*
X17746253Y-11254960D02*
X17736730Y-11235912D01*
X17736730Y-11235912D02*
X17736730Y-11159722D01*
X17736730Y-11159722D02*
X17746253Y-11140674D01*
X17746253Y-11140674D02*
X17765301Y-11131150D01*
X17765301Y-11131150D02*
X17803396Y-11131150D01*
X17803396Y-11131150D02*
X17822444Y-11140674D01*
X17822444Y-11140674D02*
X17831968Y-11159722D01*
X17831968Y-11159722D02*
X17831968Y-11178770D01*
X17831968Y-11178770D02*
X17736730Y-11197817D01*
X17908158Y-11254960D02*
X17927206Y-11264484D01*
X17927206Y-11264484D02*
X17965301Y-11264484D01*
X17965301Y-11264484D02*
X17984349Y-11254960D01*
X17984349Y-11254960D02*
X17993873Y-11235912D01*
X17993873Y-11235912D02*
X17993873Y-11226388D01*
X17993873Y-11226388D02*
X17984349Y-11207341D01*
X17984349Y-11207341D02*
X17965301Y-11197817D01*
X17965301Y-11197817D02*
X17936730Y-11197817D01*
X17936730Y-11197817D02*
X17917682Y-11188293D01*
X17917682Y-11188293D02*
X17908158Y-11169246D01*
X17908158Y-11169246D02*
X17908158Y-11159722D01*
X17908158Y-11159722D02*
X17917682Y-11140674D01*
X17917682Y-11140674D02*
X17936730Y-11131150D01*
X17936730Y-11131150D02*
X17965301Y-11131150D01*
X17965301Y-11131150D02*
X17984349Y-11140674D01*
X18060539Y-11340674D02*
X18070063Y-11331150D01*
X18070063Y-11331150D02*
X18089111Y-11302579D01*
X18089111Y-11302579D02*
X18098634Y-11283531D01*
X18098634Y-11283531D02*
X18108158Y-11254960D01*
X18108158Y-11254960D02*
X18117682Y-11207341D01*
X18117682Y-11207341D02*
X18117682Y-11169246D01*
X18117682Y-11169246D02*
X18108158Y-11121627D01*
X18108158Y-11121627D02*
X18098634Y-11093055D01*
X18098634Y-11093055D02*
X18089111Y-11074008D01*
X18089111Y-11074008D02*
X18070063Y-11045436D01*
X18070063Y-11045436D02*
X18060539Y-11035912D01*
M02*
